<?xml version="1.0" encoding="utf-8"?>
<!-- Generator: Adobe Illustrator 25.4.1, SVG Export Plug-In . SVG Version: 6.00 Build 0)  -->
<svg version="1.1" id="레이어_1" xmlns="http://www.w3.org/2000/svg" xmlns:xlink="http://www.w3.org/1999/xlink" x="0px"
	 y="0px" viewBox="0 0 300 1200" style="enable-background:new 0 0 300 1200;" xml:space="preserve">
<style type="text/css">
	.st0{fill:#666666;}
</style>
<g>
	<path class="st0" d="M72.7,500v100c0,8.5-0.7,71.3-0.7,78.7c-0.1,5.3-1.2,10.6-1.5,10.6c-0.3,0-1.5-5.3-1.5-10.6
		c-0.1-5.3-20.4-37.2-20.6-59.6h-21c-0.2,22.3,19.4,54.3,19.4,59.6c-0.1,5.3-1.2,10.6-1.5,10.6c-0.3,0-1.5-5.3-1.5-10.6
		c-0.1-7.4-0.7-71.3-0.7-78.7V500l-0.3-163.8c-3.3-23.4-8-58.5-8-58.5c1.2-6.4,4.1-13.8,4.6-13.8c0.6,0,7.3,24.5,8.2,29.8
		c0.5,3.2,0.5,34,0.3,39.4c0,4.3-20.1,41.5-20.2,79.8h20.4l19.8-106.4c-3.3-23.4-8-58.5-8-58.5c1.2-6.4,4.1-13.8,4.6-13.8
		c0.6,0,7.3,24.5,8.2,29.8c0.5,3.2,0.5,34,0.3,39.4C73,311.7,72.7,500,72.7,500z M27.4,589.4h20.7L48,442.5H27.5
		C27.4,474.5,27.4,589.4,27.4,589.4z M51,1010.7c0.4,0,39.1-29.8,39.1-29.8c0.3,0,4.5,8.5,5.3,11.7c0.3,1.1,0.9,18.1,0.9,24.5
		c0,6.4-0.7,23.4-0.9,23.4H71c-1,0-14.8-70.2-14.8-91.5c0-7.4,0.5-80.9,0.7-122.4c-3.3-23.4-7.4-54.3-7.4-54.3
		c1.2-6.4,4.1-12.8,4.6-12.8c0.6,0,7.3,24.5,8.2,29.8c1.9,12.6,0.8,25.5,0.3,39.4c0,6.4-22.9,128.7-22.9,138.3
		C39.8,975.6,50,1010.7,51,1010.7z M85.7,464.9l19.7-292.6c-3.8-27.7-29.5-70.2-29.5-70.2c1.2-6.4,4.1-12.8,4.6-12.8
		c0.6,0,9.2,30.9,10.3,36.2c0.3,2.1,0.3,38.3,0.2,41.5c0,8.5-0.3,297.9-0.3,297.9v38.3c3.4-12.8,9.3-33,9.5-33
		c0.3,0,5.1,16,5.9,19.1c0.2,1.1,0.9,16,0.9,23.4c0,9.6-0.7,24.5-0.9,23.4l-15.4-20.2v135.1c0,8.5,9.3,98.9,9.2,106.4
		c-0.1,5.3-1.2,10.6-1.6,10.6c-0.5,0-1.5-5.3-1.6-10.6c-0.1-7.4-10.8-98.9-10.8-106.4V464.9z"/>
	<path class="st0" d="M123.2,353.2c0.4,5.3,20.4,31.9,20.2,36.2c-2.3,57.5-4.7,110.6-7.3,158.5l17.6,140.4c0.3,3.2,2.7,57.5,3,68.1
		c0.1,3.2-0.2,23.4-0.7,28.7s-1.8,8.5-2,5.3l-38.3-237.3c-6.3,112.8,6.7,194.7,0.8,229.8c-1.3,7.4-4.5,0-4.5,0
		c8.2-45.7,18.7-166,24.9-396.8c-0.6-4.3-1.8-8.3-2.3-12.6l-10.6,28.5c-0.2,0-4.7-36.2-5.1-40.4c-0.4-5.3-1.3-26.6-1.5-34l6.1,17
		l-0.8,7.4c0,0,29.9-37.2,30.3-37.2c0.7,0,5.4,12.8,5.8,16c0.1,1.1,0.7,13.8,0.7,21.3c0,7.4-0.4,20.2-0.7,21.3L123.2,353.2z
		 M173.4,734.1v249c0,8.5,19.3,109.6,19.2,117c-0.1,5.3-1.2,10.6-1.6,10.6c-0.5,0-1.5-4.3-1.6-9.6c-0.1-7.4-20.8-110.6-20.8-118.1
		v-249l19.7-561.8c-3.9-27.7-29.5-70.2-29.5-70.2c1.2-6.4,4.1-12.8,4.6-12.8c0.6,0,9.2,30.9,10.3,36.2c0.3,2.1,0.3,38.3,0.2,41.5
		C173.7,175.5,173.4,734.1,173.4,734.1z"/>
	<path class="st0" d="M204.1,424.5l1.6,50c-0.2,0-4.7-36.2-5.1-40.4c-0.4-5.3-1.3-26.6-1.5-34l6.1,17L204.1,424.5z M220,536.2
		c7.7,0,15,72.3,15,158.5s-7.3,158.5-15,158.5c-7.7,0-15-72.3-15-158.5S212.3,536.2,220,536.2z M209.1,226.6l6.1,17l14.8,12.8
		c0.2,0-21.5,20.2-21.5,24.5c0,4.3,21.9,24.5,21.5,24.5h-14.3c-0.2,0-3.3-26.6-5.1-44.7C210.1,256.4,209.1,226.6,209.1,226.6z
		 M200,797.9c5.2,0,30.4-52.1,30.4-118.1S205.2,566,200,566s9.6,50,9.6,116S194.8,797.9,200,797.9z M204.1,424.5
		c0,0,29.6-37.2,30-37.2c0.7,0,5.4,12.8,5.8,16c0.1,1.1,0.7,13.8,0.7,21.3c0,7.4-0.4,20.2-0.7,21.3L204.1,424.5z M248.7,734.1
		l19.7-561.8c-3.9-27.7-29.5-70.2-29.5-70.2c1.2-6.4,4.1-12.8,4.6-12.8c0.6,0,9.2,30.9,10.3,36.2c0.3,2.1,0.3,38.3,0.2,41.5
		c0,6.4-0.2,285.1-0.2,449c3.4-12.8,9.2-33,9.5-33c0.3,0,5.1,16,5.9,19.1c0.2,1.1,0.9,16,0.9,23.4c0,9.6-0.7,24.5-0.9,23.4
		l-15.3-20.2c-0.1,61.7-0.1,105.3-0.1,105.3v249c0,8.5,19.3,109.6,19.2,117c-0.1,5.3-1.2,10.6-1.6,10.6c-0.5,0-1.5-4.3-1.6-9.6
		c-0.1-7.4-20.8-110.6-20.8-118.1V734.1z"/>
</g>
</svg>
