<?xml version="1.0" encoding="utf-8"?>
<!-- Generator: Adobe Illustrator 25.4.1, SVG Export Plug-In . SVG Version: 6.00 Build 0)  -->
<svg version="1.1" id="레이어_1" xmlns="http://www.w3.org/2000/svg" xmlns:xlink="http://www.w3.org/1999/xlink" x="0px"
	 y="0px" viewBox="0 0 400 800" style="enable-background:new 0 0 400 800;" xml:space="preserve">
<style type="text/css">
	.st0{display:none;}
	.st1{display:inline;}
	.st2{fill:none;stroke:#FFFFFF;stroke-width:0.5;stroke-miterlimit:10;}
</style>
<g id="레이어_1_00000164513216121363663630000016061572836481359285_" class="st0">
	<g class="st1">
		<path class="st2" d="M289.1,238.2c-2.6,3.8-6.8,5.6-10.5,8c-1.9,1.3-3.8,0.3-5.5-0.1c-2.8-0.7-5.4-2.2-8.5-2.5
			c-3.9-0.3-5.8,0.9-4.9,4.5c1.4,5.4,1.1,11.2,4.3,16c1.3,1.9,1.9,4.2,2,6.5c0.7,13.2,9.5,19,20.5,23"/>
		<path class="st2" d="M25,231.2c0.1,4.4-0.5,8.7,2.9,12.6c4.1,4.6,7.6,5.2,12.6,0.9"/>
		<path class="st2" d="M-258.7,372c-1.9,4.6-3.4,9.4-3,14.5"/>
		<path class="st2" d="M-259.2,276.2c1.2,2.8,1.2,5.5,0.6,8.5c-1.2,5.8-0.4,11.6,0.4,17.5c0.3,2.1,0.3,4.4,1.6,5.9
			c2.3,2.6,1.9,5.6,1.9,8.5"/>
		<path class="st2" d="M241.7,131.9c7.7,4.4,11.5,11.9,15,19.5c1.3,2.8,2,5.9,3.6,8.4c3.5,5.7,5.5,11.8,5.4,18.5"/>
		<path class="st2" d="M70.9,674.6c2.1-3.6,4.5-6.2,9.5-5.7c3.6,0.3,7.3-1,11-1.3c3.4-0.3,6.9-0.4,9.5,2.5"/>
		<path class="st2" d="M-107.4,307.6c-7.1-3.7-14.8-3.4-22.5-3.5c-1.9,0-3.1,1.1-4.5,2.1c-7.8,5.4-15.7,7.4-24,1
			c-2.8-2.2-5.3,0.7-8,0.5"/>
		<path class="st2" d="M75.4,58.9c-3.8-7.6-11.1-10.1-18.5-12.4c-1.7-0.5-3.8-1-5.4-0.5c-9.8,3.2-19.8,3.6-30,2.5c-3-0.3-6,0-9,0"/>
		<path class="st2" d="M249.7,543.8c2.3,6.7,4.9,13.2,6.9,20c2.3,7.7,1.1,15.6,0,23.4c-0.4,2.9-1.3,5.7-2,8.5"/>
		<path class="st2" d="M-24,540.8c-0.6,0.8-1,2.2-1.8,2.4c-5.6,1.7-7.7,6.3-9.8,11c-1.8,4-3.4,7.5-0.6,12.1c2.4,4-1.1,8.7-6.3,9.9"
			/>
		<path class="st2" d="M-239.2,385.8c2.1,2.3,0.3,4.9,0.6,7.2c1.1,7.1,1.3,14.2,4.2,21.1c1.2,3,1.2,7.7-1.4,10.3
			c-5.4,5.2-3.5,10.8-2.4,16.6c0.5,2.5,1,5,1.5,7.5"/>
		<path class="st2" d="M-133.1,469.2c-2.4,4.6-1.1,9.5-1.2,14.2c-0.1,3.9,3.6,5.2,6,6.2c2.7,1.2,4.2,2.9,5.4,5.2"/>
		<path class="st2" d="M239.2,226.7c-1.8-5.2-5.7-9.9-3.5-16"/>
		<path class="st2" d="M-158.3,417c1,2.3,2.1,4.6,3,7c0.9,2.6,2.4,5.4-1.5,7c-1.4,0.6-1.7,1.9-1.4,3c1.9,10.7,7.5,17.9,19.5,15.6
			c6-1.2,12.3-0.8,18.5-1.1"/>
		<path class="st2" d="M-285.1,381.5c-2.9,3.9-2.7,7.9-1.6,12.5c3.6,14.9-0.2,28.2-9.9,39.9c-0.4,0.5-0.7,1-1,1.5"/>
		<path class="st2" d="M-175.3,312.1c-1,7.3-2.1,14.6-2.9,22c-0.2,2-0.5,3.7-2.1,5c-3.2,2.6-3.2,6.3-3,10c0.1,3.1-1.3,6.2-1.6,9
			c-0.6,5.9-3.9,11-3.9,16.9c0,0.5,0.2,1.1,0,1.5c-3.9,7.6-2.8,13.7,5,18c0.7,0.4,1.3,1.1,1,2c-1.4,3.7-0.1,7.7-1.4,11.5
			c-1.2,3.6-3.2,5.8-7.1,6"/>
		<path class="st2" d="M-27,535.8c-6.4-6.8-15-5.2-20.3,4.6c-3.9,7.1-9.9,9.6-17.1,10.9"/>
		<path class="st2" d="M-67.9,628.2c-2.7,4-6.1,7.2-8.6,11.4c-2.1,3.5-6.6,4.7-10.4,5.4c-6,1.1-12.2,3.6-18.4,0.7c-3-1.4-6-3-9-4.5"
			/>
		<path class="st2" d="M-174.8,529.3c-1-3.8-2.1-7.5-2.6-11.5c-0.8-6.6-3.9-12.5-7.8-18c-2.1-3-3.4-6.6-5.1-9.9"/>
		<path class="st2" d="M142.3,273.2c1.2-1,2.3-2.1,3.5-3c3.5-2.5,6.9-2.1,9.4,1.5c2.5,3.6,6.4,5.4,9.3,8.2c5.3,5.2,13.5,8,15.7,16.2
			"/>
		<path class="st2" d="M246.2,337.6c8,7.4,13.2,17,16.1,27.1c1.6,5.5-0.7,12.2-1.7,18.4c-0.9,5.6-1.6,11.5-7.4,15.1
			c-2.5,1.5-0.5,3.9,0,5.9c1.8,8.1,1.9,16-4.5,22.5"/>
		<path class="st2" d="M294.1,220.7c-5.7,0.7-11.6,0.4-16.9,2.2c-9.2,3-14.3,9.9-15,19.8"/>
		<path class="st2" d="M-187.8,219.2c1,5,2.1,10,2.9,15c0.5,3.1-0.2,5.6-3.4,7.6c-6.8,4.3-12,10.3-15,17.9"/>
		<path class="st2" d="M-67.4,627.2c11.6-1.5,23.3-0.2,35-0.5"/>
		<path class="st2" d="M176.8,648.2c-0.8,4.7,0.5,9.3,0.6,14c0.3,7.8-1.3,15.3-1.6,23"/>
		<path class="st2" d="M-0.5,520.8c10.9,1.9,20.6,5.8,28,14.5c1.3,1.6,3.2,1.5,5,1.5c3.3-0.1,6.7-0.2,10-0.2"/>
		<path class="st2" d="M-35.5,243.2c-12.3-2.5-24.6-0.8-37-0.5"/>
		<path class="st2" d="M302.6,457.4c-5.7,12.3-6.7,24.5,1,36.5"/>
		<path class="st2" d="M135.8,227.7c2.9,1.5,5.5,2.5,9,1.1c5.5-2,7.8-0.6,11.5,4.3c3.1,4.1,5.5,8.3,7.5,13
			c2.8,6.3,10.1,7.7,17.4,3.5"/>
		<path class="st2" d="M-52.4,103.9c0.1,9.4,4.8,15.3,14,16.9c1.6,0.3,3.4-0.3,5-1c5.3-2.2,10.9-2.8,16.5-3.4"/>
		<path class="st2" d="M-177.3,606.7c-2.5,0-5,0-7.6,0c1.9,4,3.6,8,5.6,12c3,6,8.6,6.9,14.5,6.9c2.7,0,5.3-0.9,8-1.4"/>
		<path class="st2" d="M-183.8,343.6c-4.1-0.6-8-2.6-12.5-1.2c-1.7,0.5-4.1-0.6-5.9-1.4c-5.2-2.2-10.6-3.5-16-5"/>
		<path class="st2" d="M25,343.6c0.3,5.8,1.7,11.4,3,17"/>
		<path class="st2" d="M46.9,387c7.5,1.3,15,2.9,22-1.9c1.2-0.8,3.4-0.4,4.9,0.9"/>
		<path class="st2" d="M-228.7,348.1c3.2,2.7,7,4.9,9.3,8.1c3.1,4.3,3,9.6,0.6,14.3c-2.2,4.2-2.4,7.9,0,12.1c2.1,3.6,1.4,7.4-2,9.4
			c-3.2,1.9-3.2,5.5-4.9,8.1c-1.5,2.2-2.7,4.6-4,7"/>
		<path class="st2" d="M-235.7,355.1c0.4,5.4,2.4,10.5,3.1,16c0.9,6.3,0.5,11.6-5.6,15"/>
		<path class="st2" d="M-245.2,147.8c0.3,7.6-2.6,14.8-2.2,22.5c0.1,2.3,0.8,4.6,0.2,7"/>
		<path class="st2" d="M-223.2,150.8c-0.2,10-3.5,19.3-5.5,29"/>
		<path class="st2" d="M28,475.1c5.7,2.8,11.6,1.7,17.5,0.7c2.5-0.5,5-0.2,7.5-0.4"/>
		<path class="st2" d="M-153.8,429c9.5,2.4,19.3,3.6,29,5c1,0.1,2,0.3,3,0.5"/>
		<path class="st2" d="M-222.2,192.3c-1.9,5.7-3.7,11.4-5.8,17c-1.2,3.3-0.8,7.3-1.2,10.9"/>
		<path class="st2" d="M-113.9,313.1c-4.3,2.8-9.2,4.7-14,5.7c-5.2,1.1-10.9,0-15.4-3.7"/>
		<path class="st2" d="M-164.8,484.4c1.9,3.3,4.9,6,4.7,10.5c-0.1,1.1,2.3,2.7,3.8,3.4c3.7,1.6,4.3,4.4,4.6,8.1
			c0.5,5,1.5,10.1,5.3,14c1.2,1.2,2.1,2.4,2.5,4c2,10.3,11.1,13.7,18.6,18.3c3.2,1.9,7.5-0.3,11.4-0.5c0.9,0,2-0.1,3-0.3"/>
		<path class="st2" d="M-91.4,579.3c-1.4,8.7-1.8,17.3-0.1,26c0.3,1.7,3.1,1.8,2.1,4"/>
		<path class="st2" d="M82.9,391.5c0.7-3.3,2-6.5,2-10c0-1.2,0.5-2.1,1.4-3.1c4.6-5.2,8.2-11.7,16.1-12.9c1.1-0.2,1.8-0.4,2-1.5
			c0.9-4.8,3.9-9.4,0.6-14.5c-1.8-2.7-2.8-5.9-4.1-9c-2.1-5.1-4.6-5.8-9-2.5c-5.8,4.3-10,10.2-13.8,16.1c-2.1,3.2-3.4,7.5-3.4,11.4
			c0,3.3-1.4,6.3-3,7.8c-3.8,3.5-3.2,7.5-3.3,11.7"/>
		<path class="st2" d="M-216.2,484.9c0,2.3-0.2,4.7,0,7c0.4,4.5,0.2,9.2,4.4,12.5c1.2,0.9,2,2.5,2.5,4c3.8,10.5,9.8,19.8,15,29.5
			c0.2,0.4,0,1,0,1.5"/>
		<path class="st2" d="M63.9,551.3c0.4,4.6-0.1,9.1-3,13c-2,2.6-0.8,5.7-1,8.5c-0.2,2.8,0,5.7,0,8.5"/>
		<path class="st2" d="M-140.8,247.2c1.9,6,0.4,10.1-3.9,13.1c-2.7,1.9-4.7,0.8-6.5-0.7c-1.6-1.4-0.4-3.6,0.5-4.8
			c1.5-1.9,2.1-4.8,4.9-5.6c6.2-1.7,6.8-6.2,5.7-11.5"/>
		<path class="st2" d="M-194.8,441.5c1.2,0.9,1.5,2.6,0.9,3.4c-3.7,5.4,0.5,8,3.6,11c2.3,2.2,3.9,4.1,2.1,7.6
			c-1.2,2.2,1.1,4.5,0.9,6.9"/>
		<path class="st2" d="M67.9,273.2c5.6,5.1,3.7,11.6,2.3,17.4c-0.7,2.8-0.4,4.9,0.8,7c1.5,2.5,1.5,5-0.2,6.9
			c-1.3,1.5-0.8,2.7-0.9,4.1c-0.2,2.6,1.3,5.4-2.9,6.7c-2.3,0.7-1.9,4-2,6.3"/>
		<path class="st2" d="M-53.9,391.5c-6.6-0.1-13,1.2-18.9,4.1c-5.2,2.5-6.6,7.7-7.5,12.9"/>
		<path class="st2" d="M-165.8,321.1c3.7,4.1,3.3,9.8,5.4,14.5c0.2,0.6-0.5,1.7-0.9,2.5c-2.2,3.5-2.8,7.5-3,11.5"/>
		<path class="st2" d="M26.5,80.4c-3.7,0.1-7.4-0.3-11,0.9c-2.3,0.7-4.5-0.2-6.5-1.9c-2-1.7-4.3-3-6.5-4.5"/>
		<path class="st2" d="M-190.2,206.8c6.6,0,13.1-0.5,19.1,3.8c2.1,1.5,5.9,0.9,8.9,1.2"/>
		<path class="st2" d="M128.8,500.4c-1.9,1.8-2.1,4-2,6.5c0.3,7.2-0.4,14.3,0.5,21.5"/>
		<path class="st2" d="M98.9,479.9c-1.4,10.1-4.1,19.6-11,27.5"/>
		<path class="st2" d="M202.2,407.5c0.2-9.4,1-18.9-5.5-27"/>
		<path class="st2" d="M-32.5,296.6c-4.3,0.1-8.5,0-12.5-1.9c-1.4-0.7-2.8-0.7-4.5,0.3c-3.3,2.1-7.2,3.2-10.4,5.6"/>
		<path class="st2" d="M26.5,257.2c3.9-1,6.8,1.5,10,3c7.1,3.3,14.8,4.7,22.5,5.3c4.7,0.4,5.8,2.3,5.6,6.6
			c-0.3,5.1-0.1,10.3-0.1,15.5"/>
		<path class="st2" d="M220.2,280.6c0.7,5.9-3.5,10.9-2.6,17c0.5,3.2-0.5,6.6-0.9,10"/>
		<path class="st2" d="M71.9,402c5,4.6,5,4.6-2.8,12c2.5,4.3,6.1,7.6,10.3,10.5"/>
		<path class="st2" d="M258.2,614.7c-7.9,1.4-15.9,2.7-24,1.8"/>
		<path class="st2" d="M-19.5,328.3c-1.6-0.8-3-1.3-5-0.8c-8.1,2-16.3,3.8-24.5,5.6"/>
		<path class="st2" d="M-50.9,735.1c-10.8,8-23.3,5.9-35.5,6"/>
		<path class="st2" d="M-164.8,280.6c-0.7,9.1-1.3,18.3-2,27.5"/>
		<path class="st2" d="M-111.4,312.6c-1.3,5.1,0.3,10.4-1.4,15.5c-0.8,2.6-2.3,4.4-4.2,5.9c-3.5,2.9-6.2,2.1-9.5-2.5"/>
		<path class="st2" d="M156.3,490.9c-3.2,0.6-5.9-1.2-9-1.5c-6.2-0.6-12,0.8-17.5,3.5"/>
		<path class="st2" d="M149.3,294.1c5.3,0.9,9.6,4.2,14.5,6c6.1,2.2,12.1,3,18-0.5"/>
		<path class="st2" d="M-49.4,478.4c-0.1,8.8,4.5,15.2,11,20.4c4.9,3.9,10.2,5.8,16.5,3.1c3.1-1.3,6.3-2.4,9.5-3.5"/>
		<path class="st2" d="M-129.8,272.7c-1.5-1.4-2.6-3-5-3.6c-5.1-1.2-6-1.1-8,3.6c-1.7,4.1-3.7,8-4.6,12.5c-0.5,2.3-0.4,4.3,0.1,6.5"
			/>
		<path class="st2" d="M-183.3,591.8c-4-3.1-6.2-8.2-11.9-9.6c-4.5-1.1-8.4-1.7-12,1.7"/>
		<path class="st2" d="M103.9,347.6c-9.7,4.2-13.5,12.5-9.5,21"/>
		<path class="st2" d="M-205.7,404c1.2,5.8,1.5,11.4-1,17c-0.9,2.1-0.1,4.4-0.6,6.5c-0.4,1.9-0.5,4.5-4,3.1c-1.5-0.6-3.2,1-5,0.2"/>
		<path class="st2" d="M104.4,163.8c4.2-2.4,9.2-1.6,13.5-3.4c1.8-0.7,3.5,1.3,4.9,2.4c6.5,4.9,13.5,8.9,21.5,10.9"/>
		<path class="st2" d="M-209.2,431.5c0,8.9-0.2,17.7-5.5,25.5"/>
		<path class="st2" d="M-75.9,335.1c-2.4,10.3-8.7,18.4-15,26.4c-2.5,3.2-7.1,3.8-10,6.7c-0.5,0.5-2.2-0.4-3.4-0.6"/>
		<path class="st2" d="M-19,424.5c-1,0.3-2.4,0.4-2.9,1c-5.5,7.3-15,8.3-21.5,13.9"/>
		<path class="st2" d="M-10.5,534.3c1.7,7.2,1.8,14.6,2.5,22c0.2,2.8-0.5,4.8-3.4,6.6c-5.8,3.7-12.3,7.1-14.5,14.3
			c-1.5,4.7-4.8,9.4-0.7,14.6c1,1.2,2.1,1.2,3.1,1.9"/>
		<path class="st2" d="M332.1,288.6c8.3,0,16.7,0,25,0"/>
		<path class="st2" d="M-53.4,216.7c-8.3,0.7-16.6,1.3-25,2"/>
		<path class="st2" d="M73.4,98.9c-8.5,3.5-16.2,8.6-25,11.5"/>
		<path class="st2" d="M44.4,560.3c0.1,8.5-1.8,17.2,1.9,25.5c0.5,1,0.2,2.6-0.3,4c-2.1,5.2-2.3,10.5-1.1,16"/>
		<path class="st2" d="M9,430.5c-2.6,2.3-6.1,3.9-6.5,8c-6.2,0.9-6.5,0-7.5,9.5"/>
		<path class="st2" d="M-88.4,520.3c-0.1,0.7,0.2,1.4-0.5,2c-5.1,4.3-3,9.4-1.6,14.5c1.6,5.6,2.3,11.5,4.5,17"/>
		<path class="st2" d="M-26.5,413.5c5-5.9,4.8-7.1,1.6-13.5c-1.9-3.8-5-3.8-7-2.3c-6.4,5-13,2.6-19.6,1.8"/>
		<path class="st2" d="M75.4,448.4c3.7,0.7,7.6,0.9,11.9,3.1c-5.4,7.9-5.3,16.5-4.9,25.3"/>
		<path class="st2" d="M78.4,583.3c0.3,6.2-0.4,12.3,0.4,18.5c0.2,1.8-0.6,3.7-0.9,5.5"/>
		<path class="st2" d="M9.5,152.3c-6.3,1.3-12.6,2.7-19,4c-1.6,0.3-3.3,0.4-5,0.5"/>
		<path class="st2" d="M148.8,189.3c3.3,3.9,5.5,8.4,7.4,13c1,2.3,2.4,4.9,4.2,5.2c5.8,0.9,6,4.9,6.5,9.2c0.1,1.2,0.3,2.3,0.5,3.5"
			/>
		<path class="st2" d="M-245.7,488.4c2.6,7.6,4.9,15.4,5.7,23.5"/>
		<path class="st2" d="M106.4,565.3c-0.2,3.5,0.2,7,1,10.5c1.1,4.6,0.3,8.9-2,13"/>
		<path class="st2" d="M-41,351.1c8.4-2.9,15.9,0.3,23.5,3.5"/>
		<path class="st2" d="M-95.9,417c0.2,7.9-1.9,15.6-2.5,23.5"/>
		<path class="st2" d="M-59.4,740.6c-1.8,7.7-2.9,15.5-2.5,23.5"/>
		<path class="st2" d="M-30,379c8.1,5.1,20.2,10.5,27,4"/>
		<path class="st2" d="M251.7,399c-3.8-2-8-2.8-12-4c-5.4-1.6-9.7,0.3-12.4,5.5c-2.3,4.4-4.4,9-6.5,13.5"/>
		<path class="st2" d="M-28,36c-0.7,7.8,1.5,15.3,2,23"/>
		<path class="st2" d="M-126.8,111.9c-4.1,3.9-8,8.2-13,11c-2,1.1-4,2-6.5,1c-6.4-2.6-11.8-0.2-16.4,4.1c-2.1,1.9-3.9,3-6.6,2.2"/>
		<path class="st2" d="M-341.1,318.1c-9.7,6.8-11.8,17.7-15,28"/>
		<path class="st2" d="M95.4,555.3c-3.3,4.7-1.5,10.5-3.4,15.5c-1.5,4-2.1,8.3-3.1,12.5"/>
		<path class="st2" d="M-132.3,393.5c-2.8,6.7-3.8,13-0.2,20.1c4.3,8.4,7.8,17.2,14.1,24.4"/>
		<path class="st2" d="M221.2,100.4c-0.1,2.7,0,5.3-0.4,8c-1,5.3,0.8,10,3.4,14.5"/>
		<path class="st2" d="M-214.7,286.1c-3.5,2.8-7,5.6-10.5,8.5c-2.5,2.1-3.4,11.4-1.5,15.5c1.5,3.2,3.3,6.3,5,9.5"/>
		<path class="st2" d="M23.5,227.7c-4.9,0.6-9.3,3.9-14.5,3c-0.8-0.1-1.9,0.3-2.5-0.1c-4.2-2.6-8.3-1.9-12.5,0
			c-0.4,0.2-1-0.3-1.5-0.5"/>
		<path class="st2" d="M-78.4,490.9c4.6,2.7,9.3,5,14.5,6.6c4,1.2,7.4,0.9,10-2.6"/>
		<path class="st2" d="M7,609.2c-0.6,7.5,0.2,15.2-4,22"/>
		<path class="st2" d="M205.2,287.1c0,7.2,0,14.3,0,21.5"/>
		<path class="st2" d="M-148.3,543.3c5.5,2.1,10,4.7,11.3,11.4c0.4,2.1,4.2,4.5,7.6,4.6"/>
		<path class="st2" d="M-168.8,355.1c0.7,1.2,1.2,2.5,1,4c-0.6,4.4,0.4,8.5,3.1,11.9c1.5,1.9,0.5,3.7,0.9,5.6"/>
		<path class="st2" d="M109.9,627.2c3,6.8,4,14.1,4,21.5"/>
		<path class="st2" d="M-333.1,479.9c0.5,10.3,7.1,17,14,23.5c0.7,0.6,1.7,1,2.5,1.5"/>
		<path class="st2" d="M157.3,404.5c5.8-0.2,11.7-0.4,17.5-0.5c2.9,0,4.2-2.7,6.5-3.5"/>
		<path class="st2" d="M227.2,432c1.5,5,1.8,10.5,6.5,14"/>
		<path class="st2" d="M-251.7,569.3c7.4-0.4,14.4,1.2,21,4.5"/>
		<path class="st2" d="M37,385.5c-0.2,7-0.3,14-0.5,21"/>
		<path class="st2" d="M-161.3,324.1c3,0.8,5.9,1.9,9,2.5c4.6,0.9,7.7,3.3,9.5,7.5"/>
		<path class="st2" d="M-98.9,175.3c3.2,8.1,10.5,12.4,16.5,18"/>
		<path class="st2" d="M316.6,476.4c0.3,6.9,2,13.6,3,20.5"/>
		<path class="st2" d="M-202.2,391.5c-0.4,5,0.7,9,4.8,12.7c3.1,2.8,5.2,7,5.8,11.8c0.5,3.7,2.5,6.9,6.3,8.6c1.5,0.7,2.9,2.1,4,3.5
			c2.2,2.9,4.6,3,7.5,1.5"/>
		<path class="st2" d="M-339.6,441c-5.6,6.6-13.3,4.6-20.5,5"/>
		<path class="st2" d="M-163.8,428c-2.9,3.9-4.5,7.8-2.7,13c1.5,4.2,2.1,8.7,5.6,12c0.7,0.7,0.9,2.1,1,3.2c0.6,4.8,2.7,8.5,7,10.7"
			/>
		<path class="st2" d="M52.4,460.4c-0.3-1.3-0.7-2.7-1-4c-0.8-3.4-1.7-6.4-5.4-8.1c-2-0.9-3.4-3.2-5-4.9"/>
		<path class="st2" d="M-44.4,369.5c-6.5-2.3-13.3-1.1-20-1.8"/>
		<path class="st2" d="M-99.4,72.4c0.7,6.6,1.2,13.2,3.5,19.5"/>
		<path class="st2" d="M-17,435.5c-4.7,7.9-14.2,11.8-24,10"/>
		<path class="st2" d="M30.5,265.7c1.6,3.4,1.9,6.4-2.5,8.1c-1.1,0.4-1.8,1.8-3,3c-1.8-0.6-3.9-1.4-6-2.1"/>
		<path class="st2" d="M190.2,353.6c2.5,0,5.1,0.1,6.9-1.6c2-1.8,4.5-2.4,6.4-4c5.8,2.1,6.4,7.2,7.6,12c0.2,0.9,0.3,2.5-0.3,2.9
			c-5,4-2.5,8.3-0.7,12.6"/>
		<path class="st2" d="M-186.3,359c-10.5-4.5-21.4-4.2-32.5-3"/>
		<path class="st2" d="M45.9,585.3c-4.5,1-9,2-13.5,3c-1,0.2-2.4,0.8-2.9,0.4c-5.1-4.5-9.5-1-14.1,1c-1.8,0.8-3.6,1.5-5,3"/>
		<path class="st2" d="M196.7,371.5c0,2.4,0.6,6.4-1.5,6.7c-3.9,0.5-8.3,3.2-11.8,0.6c-2.5-1.8-4.9-3.1-7.7-3.7
			c-4.4-0.9-6.9-3.6-8.5-7.6"/>
		<path class="st2" d="M216.7,460.4c-2.7,6.1-1.5,12.3-0.5,18.5"/>
		<path class="st2" d="M160.8,389.5c3.2,3.8,7.5,4.3,12,4.5c2.2,0.1,4.3,0.6,6.5,1"/>
		<path class="st2" d="M-347.5,323.1c-6.2-0.8-12.2-2.2-18.5-2.2"/>
		<path class="st2" d="M82.4,563.3c-0.1,6.3-1.2,12.4-2.5,18.5"/>
		<path class="st2" d="M189.8,416.5c-6.2,4.5-5.8,11.5-6.5,18"/>
		<path class="st2" d="M71.4,73.4c-6-0.1-12-0.2-18-0.2"/>
		<path class="st2" d="M-39,561.3c-3.8,1.6-7.2,3.6-10.1,6.9c-4,4.6-4.6,9.5-3.4,15.1"/>
		<path class="st2" d="M42.9,490.9c-2-1.4-4.1-2.4-6.5-2.5c-3.9-0.2-6.3,2.1-6,6c0.1,1.2,0.7,2.4,0.4,3.5c-0.7,2.4-1.2,5.1,1.1,6.4
			c2,1.1,3.8-1,5.4-2.4"/>
		<path class="st2" d="M-157.3,350.1c-4.4-0.8-8.1-0.2-12.2,2.7c-3.4,2.5-8.7,2.6-13.3,1.3"/>
		<path class="st2" d="M66.4,496.4c-7.8,0-12.2,2.6-14.5,8.5"/>
		<path class="st2" d="M72.9,479.4c-0.4,6-1.9,11.5-5.3,16.6c-1.5,2.3-1.4,5.9-1.6,8.9c-0.5,5.8-4.2,9-9.5,7.7"/>
		<path class="st2" d="M12,355.6c-1.8,6-1,12-0.5,18"/>
		<path class="st2" d="M55.4,623.2c-0.6-3.2-2-5.9-4.4-7.9c-4.3,0.8-7.5,5.5-12.6,3.2"/>
		<path class="st2" d="M-97.9,336.6c-1.6,3-4.3,4.2-7.5,3.4c-2.4-0.6-3.6,0.8-5,2c-2.7,2.4-4.8,5.2-9.5,5.4c-3.6,0.1-6,4.6-8.2,7.8
			c-2.2-1-4.5-2-6.2-0.5c-1.9,1.8-0.9,4.5-0.5,6.9c0.1,0.9,0.9,1.7,1.5,2.5c1.5,2,2.2,4.2,3,6.5"/>
		<path class="st2" d="M55.9,477.9c-3,5-6.5,9.2-11.3,12.7c-2.9,2.1-4.6,6.4-5.7,10.2"/>
		<path class="st2" d="M-41.5,600.2c-2.8,0.1-5.6-0.4-8,1.9c-2.7,2.6-6.3,0.5-9.4,1.1"/>
		<path class="st2" d="M72.9,583.8c-1.9,5.7-2.6,11.5-1.5,17.5"/>
		<path class="st2" d="M366,311.9c-6,0.7-11.8,2.2-17.5,4.2"/>
		<path class="st2" d="M97.4,651.7c-3.8,0.8-2.8,4-2.3,6c0.9,3.3,1.8,6.6,2.3,10"/>
		<path class="st2" d="M-10.5,339.1c-0.8,4.5-3.7,6.7-8,7.5c-2,0.4-4,1-6,1.5"/>
		<path class="st2" d="M315.6,451.4c0.2,5.7,0.3,11.3,0.5,17"/>
		<path class="st2" d="M186.8,317.1c-3.3,3.2-7.7,4.3-11.5,6.5c-2.4,1.4-4.3-0.7-6.5-0.6c-1.8,0.1-3.7,0-5.5,0"/>
		<path class="st2" d="M-25.5,607.2c-1.7,5.5-2,11.2-2,17"/>
		<path class="st2" d="M59.4,473.4c-0.5-1.5-1-3-1.5-4.5c-2.3-6.8-3.9-7.9-11-8.5c-4.2-0.4-8.3-1.7-12.5-0.5c0.7,5.4,0.7,10.9,3,16"
			/>
		<path class="st2" d="M5.5,579.3c-3.6-0.1-6.8,1-9.5,3.5c-1.9,1.7-4.3,2.7-7,1.5"/>
		<path class="st2" d="M98.4,450.4c2.5,0.9,3.1,3.1,2.4,5c-1.5,4.1,0.5,7.2,2.1,10.5"/>
		<path class="st2" d="M-1,310.1c2.8,0.9,5.6,1.7,6.5,5c1.5,5.5-1.2,8.6-7.5,8.5c-3.3-0.1-5.4-2-6.5-5"/>
		<path class="st2" d="M-160.3,478.9c3.3-0.3,6,1.8,8.9,2.7c3.9,1.2,3.9,5.6,2.8,8.2c-1.4,3.3-2.1,7.1-4.2,10.1"/>
		<path class="st2" d="M41.5,224.2c-5.5-0.5-11-1.5-16.5,0.5"/>
		<path class="st2" d="M-221.2,252.7c-2.5,1.9-3.4,4.2-2.6,7.5c1.7,6.6,4.7,11.7,12.1,13c1.4,0.2,2.7,1,4,1.5"/>
		<path class="st2" d="M-53.9,382c-5.5-0.5-10.9-2.6-16.5-1"/>
		<path class="st2" d="M-168.8,393c-3.5,4.9-3.7,10-1.5,15.5c1.6,4.1,0.7,5.6-3.5,6.5"/>
		<path class="st2" d="M-103.4,508.4c3.4,2.6,7.3,4.3,9.7,8.4c1.5,2.5,5.1,2.9,8.3,2.6"/>
		<path class="st2" d="M149.8,470.4c-5.3,1.2-10.8,0.5-16,2.5"/>
		<path class="st2" d="M211.7,381.5c-2,5.3-4,10.6-6,16"/>
		<path class="st2" d="M141.3,273.9c-0.9,0.6-2.1,0.2-3,1.2c-3.2,3.2-7.3,3.5-11.4,2.9c-2.2-0.3-3.9-0.9-4,2.1"/>
		<path class="st2" d="M-94.4,517.8c-4.3,4.3-9.6,5.3-14.9,2.8c-2.9-1.4-4.6-0.1-5.4,1.3c-1.2,2.1-2.1,4.8-0.7,7.4
			c1.4,2.5,4,4.9,4.3,7.5c0.9,8.8,7.7,13.6,12.2,20"/>
		<path class="st2" d="M-82.9,467.9c-4.1,2.4-8.4,4.1-12.9,1.9c-1.9-0.9-2.1,0.5-3,1.1"/>
		<path class="st2" d="M-119.3,267.7c-6.4,4.5-14.8,6.9-16,16.5c-0.2,1.7-1,3.3-1.5,5"/>
		<path class="st2" d="M114.3,657.2c0.4,5.5-0.3,10.9-2.5,16"/>
		<path class="st2" d="M126.3,353.6c0,5.6,1.5,11.5-3.5,16"/>
		<path class="st2" d="M-136.3,253.2c4.2,2.9,8.7,4.7,14,4c3.3-0.4,6.6-0.2,10-0.3"/>
		<path class="st2" d="M145.8,720.6c-0.8,5.2-3.2,10.1-2.5,15.5"/>
		<path class="st2" d="M106.4,685.6c-5.1,1.7-10.1,3.5-15.5,4"/>
		<path class="st2" d="M22.5,621.2c-1.7,6.7-8.2,7-13,9.5"/>
		<path class="st2" d="M171.8,307.1c-4.2,4.7-3.1,10.1-2,15.5"/>
		<path class="st2" d="M-164.8,227.7c-1.8,4-5.9,3.2-9,3.8c-2.8,0.5-5.6,1.1-8.4,1.7"/>
		<path class="st2" d="M-107.4,405.7c-4.2,0.6-8.6,4-12.3,1.9c-2.7-1.5-3.8,0-5.7,0.3"/>
		<path class="st2" d="M21,441c-2.5-1.2-4.9-2.5-7.6-3.8c-2,2-4.6,2.9-4.8,6.8c-0.3,4.7-5.8,7.1-11,5.4c-3.8-1.2-6.8-1-10.1,1.4
			c-1.2,0.9-3.1,1.8-4.9,2.2"/>
		<path class="st2" d="M-84.9,652.2c3.7,3.6,7.6,7.2,7.5,13"/>
		<path class="st2" d="M44.7,425.5c-1.4,1.4-2.1,2-4.2,2c-5.8,0-9.5,3.2-11.4,8.1c-1.8,4.7-5.5,7.9-7.9,12c0.7,3.6,2.1,6.7,6.3,8
			c2,0.6,3.7,2.2,5.5,3.4"/>
		<path class="st2" d="M34.5,638.7c-4.2,3.7-8.3,7.3-12.5,11"/>
		<path class="st2" d="M238.2,535.8c-5,0.3-9.9,2.1-15,1.5"/>
		<path class="st2" d="M-100.9,340.6c1.8,7.1,6.1,8.6,11,4"/>
		<path class="st2" d="M-106.4,293.1c-1.7-1.2-3.4-2.2-5-3.5c-4.7-4-9.5-4-14.5-0.5c-1.2,0.9-2.4,1.9-4,1.5
			c-4.3-1.1-8.3,0.2-12.5,0.7c-4.5,0.5-7.3,2.4-10,5.3c-2.1,2.4-4.3,4.7-6.5,7"/>
		<path class="st2" d="M158.8,357.1c-1.8,0.8-3.7,1.7-4.5,3.5c-1.8,4-5.2,4.9-9,5.5"/>
		<path class="st2" d="M-24.7,416.5c-1.5-4-4.6-3.6-7.2-1.9c-5.9,3.8-12.9,5.1-19,8.4"/>
		<path class="st2" d="M57.9,272.7c-4.8,0-9.6,0-14.5,0"/>
		<path class="st2" d="M-38,455.9c4.6,2.5,9.6,1.4,14.5,1.5"/>
		<path class="st2" d="M-89.9,264.2c-4-1.5-8.2-1.9-12.5-1.5c-0.9,0.1-2.3,0.8-2.7-1"/>
		<path class="st2" d="M-73.6,504.4c-3,5.4-1.5,11.3-1.8,17"/>
		<path class="st2" d="M-16,680.6c6.2,6,5.1,14,6,21.5"/>
		<path class="st2" d="M-56.4,497.9c0.8,2.3,0.6,4.9,3,6.5c1.9,1.2,0.7,3.3,1,5c0.2,1.3-0.7,3.4,2,3"/>
		<path class="st2" d="M-53.4,627.2c1.7,4.7,3.3,9.3,5,14"/>
		<path class="st2" d="M49.9,361.5c1.6,4.7-0.1,9.3-0.5,14"/>
		<path class="st2" d="M168.8,372c-2.8,1.1-4.5,3-5.6,6c-2.2,6-6.2,10.6-11.9,13.5c-2.4,1.2-5,0-7.5,0.5"/>
		<path class="st2" d="M96.9,112.9c0.3,1.2,1.2,2.5,0.9,3.5c-1.2,3.5-0.5,7-0.4,10.5"/>
		<path class="st2" d="M-94.4,506.4c3.1,1.7,5.5,0.6,8-1.5c1.8-1.4,3.7-1.6,6-0.6c5.5,2.4,11.8,2.5,17,6c1.3,0.9,2.2,1.5,1.9,3.1"/>
		<path class="st2" d="M145.8,292.6c-0.7-4.3-4-3.4-6.5-2.9c-3.4,0.7-5.1,3.2-4.5,6.9"/>
		<path class="st2" d="M41.5,442c1.5-1.4,2.9-2.7,4.4-4.1c2.3,2.3,6.3,0.9,8.1,4.1"/>
		<path class="st2" d="M162.8,381c4.3,2.7,8.7,5.3,13,8"/>
		<path class="st2" d="M-9.5,395.5c-5.3-1.2-10.6-3.6-16-0.5c-0.5,0.3-0.7,1.3-1,2"/>
		<path class="st2" d="M21,398c-1.2,2-2.3,4-3.5,6c-1.6,2.8-1.1,5.1,1.5,7"/>
		<path class="st2" d="M223.7,435c-2.4,3.6-5.4,6-9.3,8.3c-5.6,3.3-8.3,9.7-9.7,16.2"/>
		<path class="st2" d="M-6.5,401.5c-1.4,0-3.2-0.4-3,2c0.1,1.4-0.8,3.1,1.9,3.7c1.4,0.3,3.1,0.7,4.5,1.3"/>
		<path class="st2" d="M-18.5,457.4c0.5,4.1-0.9,7.3-4.5,9.5c-1.3,0.8-2.4,2-3.5,3"/>
		<path class="st2" d="M-177.8,488.9c1-0.7,2.1-1.2,3-2c3.8-3.7,3.4-5.9-1.5-8.5"/>
		<path class="st2" d="M-133.3,505.4c-1.8-0.9-3.4-0.7-4.5,1c-1.4,2.2-0.2,4.5,0.6,6.4c1.3,2.9,5,3.2,7.4,5"/>
		<path class="st2" d="M82.9,285.6c-0.1,5.8-4.3,8.7-8.5,11.5"/>
		<path class="st2" d="M38,568.3c-6.9-6-15.9-4.1-19.2,4"/>
		<path class="st2" d="M-162.3,393.5c0.8,4.4-0.3,9.4,3.5,13"/>
		<path class="st2" d="M20,267.7c0,3.5-0.7,6.5-3.5,9c-5.2,4.6-4.6,8.4,1.5,12.5"/>
		<path class="st2" d="M104.9,520.8c-1.3,4.1-1,8.3-1,12.5"/>
		<path class="st2" d="M182.8,359.5c0.5,1.7,1.4,3.9-0.1,4.9c-3.7,2.5-3,5.7-2.4,9.1c0.1,0.8,0,1.7,0,2.5"/>
		<path class="st2" d="M24,682.1c0,0.2,0,0.3,0,0.5c-2.6,7.3-2.3,14,4,19.5"/>
		<path class="st2" d="M-13,665.7c-4-2.2-8.3-1.4-12.5-1.5"/>
		<path class="st2" d="M-53.9,575.8c-4.3-1-8.4-0.5-12.5,1"/>
		<path class="st2" d="M20.5,504.4c-4.2,0.3-8.4-0.6-12.5,0.5"/>
		<path class="st2" d="M-170.8,415c3.2,6.4,7.2,12.1,13.2,16.2"/>
		<path class="st2" d="M-139.3,53c-0.2,4.6,2.9,8,4.5,12"/>
		<path class="st2" d="M95.4,302.9c-3.8,2.9-2.3,7.1-2.4,10.7c-0.1,3.3-0.1,6.2-3.1,8.5c-2.3,1.8-3.5,4.4-3.5,7.4"/>
		<path class="st2" d="M-27,382.5c-1,4.3,2,7.9,2,12"/>
		<path class="st2" d="M-177.3,431.5c0,2.2,0.1,4.3,0,6.5c-0.1,2.2-1.8,4.8,0.6,6.4c2.3,1.5,4.4,4.2,7.9,3.1c0.9-0.3,2,0,3,0"/>
		<path class="st2" d="M21,546.3c-2.2,3.5-8,4.4-7.5,10"/>
		<path class="st2" d="M-108.9,408c2.6,3.7,4.1,7.5,2,12"/>
		<path class="st2" d="M26,414c-2.1-0.3-4.4-1.5-6,1c-1.9,3.1-5.9,5-5.6,9.5c0.2,2.5,2.2,2.8,3.6,4"/>
		<path class="st2" d="M123.3,344.6c-1.6,1.5-2.2,3.7-4.9,4.7c-3.6,1.5-2,6.1-3.1,9.2"/>
		<path class="st2" d="M173.3,509.4c-4.3-2-8.2,1.5-12.5,1.4c-0.3-4.9,3.4-8.1,3.5-12.4"/>
		<path class="st2" d="M27.5,301.6c1.5,5.5,5.5,8.8,10.5,11"/>
		<path class="st2" d="M156.3,510.9c-0.3,3.8-1.4,7.6-1,11.5"/>
		<path class="st2" d="M51.9,281.1c-3.7-1.6-7.7-0.5-11.5-1.5"/>
		<path class="st2" d="M258.7,393.5c3.8,0.2,7.7-0.5,11.5,0.5"/>
		<path class="st2" d="M-128.8,320.1c-1.4,4.4-3.2,8.3-8,10"/>
		<path class="st2" d="M133.8,381.5c-0.9,4-4.2,7.2-4.5,11.5"/>
		<path class="st2" d="M-144.8,529.8c-2,1.3-4,2.7-6,4c-4.4-1.4-7.7-3.9-7.9-9"/>
		<path class="st2" d="M77.9,496.4c2.2,1.6,3.2,4.3,1.4,5.8c-2.1,1.8-2.5,6.8-7.4,4.8c-1.6-0.6-3.6-0.1-5.5-0.1"/>
		<path class="st2" d="M-105.9,510.9c-1.7-1.4-3.1-1.5-5.5,0.1c-1.9,1.3-3.9,1.6-6,1.4"/>
		<path class="st2" d="M-9,562.3c2.2,2.1,4,4.8,7.5,5c1.6,0.1,2.8,1.2,2.9,2.5c0.5,4.4,4.1,7.2,5.6,11"/>
		<path class="st2" d="M-192.2,430.5c2.3,0.4,2.9,3.7,2.8,3.9c-1.6,3.9,2,5.6,3.3,8c2.5,4.7,3.8,4.6,8.4,1.5"/>
		<path class="st2" d="M-156.3,61.9c0.2,4,1.6,7.6,3.5,11"/>
		<path class="st2" d="M-52.4,254.7c-3.8,0.5-7.4-0.6-11-1.5"/>
		<path class="st2" d="M-78.1,524.3c0.8-0.9,1.7-1.9,2.6-2.9c3.8,2.2,7.8,3.7,7.7,8.9"/>
		<path class="st2" d="M119.3,391c2,0.5,3.8,1.7,6,1.5c3.9-0.4,5.9,2.1,5.8,5.5c-0.1,3.6,1.8,5.9,3.6,8.5"/>
		<path class="st2" d="M-254.7,199.8c-0.6,3.6-1.3,7.3-1,11"/>
		<path class="st2" d="M97.4,457.9c-3-2.9-7.2-3.7-10.5-6"/>
		<path class="st2" d="M164.8,558.3c-0.8,3.9-2.3,7.4-5.5,10c-1,0.8-2,0.5-3,0.2"/>
		<path class="st2" d="M154.8,368c3.5,1.8,7,3.7,10.5,5.5"/>
		<path class="st2" d="M-1,356.6c2.7-5.3,1.9-7-3.5-7.5"/>
		<path class="st2" d="M193.8,281.6c1.3,3.5,2.7,7,4,10.5"/>
		<path class="st2" d="M28,402.5c-0.4,2.2-0.7,4.2-0.1,6.5c0.4,1.5,0.9,3.5-1.3,5.1c-2.4,1.7-0.3,5-1.6,7.4"/>
		<path class="st2" d="M30.5,462.9c-2.4,2.6-6,3.4-8.6,5.9c-1.1,1-3.7,0.3-5.4-0.8c-1.1-0.8-1.1-1.9-1-3c0.2-2.4,2.6-2,4-3"/>
		<path class="st2" d="M-27,503.9c-0.6,4.3-2.9,7.4-7,9"/>
		<path class="st2" d="M-289.1,388.5c-3.4-0.2-6.5-2-10-1.5"/>
		<path class="st2" d="M110.4,501.9c-3.3,0.8-6.7,1.7-10,2.5"/>
		<path class="st2" d="M129.3,374.5c-4.8,5.1-11,3.8-17,4"/>
		<path class="st2" d="M78.4,322.6c-2.1,1.6-5.5,0.4-7.1,3.5c-0.5,1-0.1,1.7-0.4,2.5"/>
		<path class="st2" d="M-13.5,222.2c-4.7-3.9-8.9-0.7-12.4,1.7c-3.3,2.2-5.9,4.6-10.1,2.8c-0.1-0.1-0.4-0.1-0.5,0
			c-4.6,3.4-7.7,0.1-11-2.5"/>
		<path class="st2" d="M195.8,458.4c0.2,1.3,1,3.2,0.4,3.9c-3.9,4.8-1.2,10.5-2.3,15.6c-0.9,4,2.3,6.8,4.9,9.5"/>
		<path class="st2" d="M58.9,451.9c1-1.9,1.9-3.7,3.1-5.9c3.9,1,7.9,2.1,12.1,3.2c1-2.8,1.6-5.1,0.4-7.9c-0.8-1.9-1.2-4.5,1.9-5.5"
			/>
		<path class="st2" d="M-155.3,377.5c-1.5,0-3.2,0.5-4.4-0.1c-2.8-1.2-4.7-1.4-6.6,1.5c-2.3,3.5-2.2,7.1-0.3,10.5
			c1.4,2.4,3.6,3.8,6.9,2.7c1.1-0.4,2.7-1.1,4.5-0.3c1.7,0.8,3.4-0.4,4.5-2.3c0.6-1,0.5-2.7,1-2.9c5.2-3.2,4.6-7.8,3.4-12.6
			c-0.6-2.4,2.1-3.2,2-5.2"/>
		<path class="st2" d="M-18.5,329.1c1.2,1.4,3.2,2.1,4,4c1.9,4.3,5.2,6.2,10,5.5"/>
		<path class="st2" d="M-11,687.1c3.1,0.5,6.5-1.1,9.5,1"/>
		<path class="st2" d="M82.4,332.6c0.6,4-3.5,2.9-5.1,4.3c-1.9,1.6-6.2,0.6-6.6,3.7c-0.5,3.5,0.6,7.2,3.3,10"/>
		<path class="st2" d="M160.3,342.6c-2.7,1.2-6.3,1.1-7,5c-0.7-0.2-1.3-0.3-2-0.5"/>
		<path class="st2" d="M195.8,520.8c1.3,3.7,3.5,6.9,6.5,9.5"/>
		<path class="st2" d="M104.9,426c-3.2-0.4-6.3-0.4-7.5,3.5"/>
		<path class="st2" d="M41.5,233.7c-3.3,2.6-6.3-0.5-9.5-0.5"/>
		<path class="st2" d="M-99.4,536.3c-3.2,0.1-6.6-0.6-9.5,1.5"/>
		<path class="st2" d="M43.4,677.6c-3.3-1.3-6.4,0-9.5,1"/>
		<path class="st2" d="M-7,237.2c1.3,1.6,3,2,5,2c7.1,0,7.9-0.4,7.5,7.5"/>
		<path class="st2" d="M-124.8,543.8c-1.2,3.4,0.6,6.4,1.5,9.5"/>
		<path class="st2" d="M142.3,260.2c3.7,1.5,5.4,4.7,7,8"/>
		<path class="st2" d="M298.6,227.2c3.2,0,6.3,0,9.5,0"/>
		<path class="st2" d="M174.8,482.4c-1.5,3.8-4.5,6.5-7,9.5"/>
		<path class="st2" d="M91.4,299.1c-4,0.6-6.1,4.8-10,5.5"/>
		<path class="st2" d="M-101.4,473.4c-0.6,1.5-0.9,2.9,0,4.5c1,1.9,1.2,4.4,0.4,5.9c-1.8,3.1,0.3,3.6,2.2,4.6c2.3,1.2,4.7,2.3,7,3.5
			"/>
		<path class="st2" d="M129.3,173.3c-2.9,1.2-6,1-9,1"/>
		<path class="st2" d="M-119.8,316.6c-0.8,3-1.7,6-2.5,9"/>
		<path class="st2" d="M-40.5,591.8c0.2,3.8,0,7.6,0.8,11.5c0.6,3.1-0.8,6.5-2.5,9.5"/>
		<path class="st2" d="M-287.6,351.6c-2.2,2.8-4.4,5.3-8.5,4.5"/>
		<path class="st2" d="M-100.4,488.4c-0.8,3,2,6.1-0.5,9"/>
		<path class="st2" d="M-72.9,599.2c-1.2,2.9-1,6-1,9"/>
		<path class="st2" d="M-7,586.3c3.6,2.1,0.9,6.4,3,9"/>
		<path class="st2" d="M-5.5,566.8c-1.5,3-3,6-4.5,9"/>
		<path class="st2" d="M-206.2,438c5.2,3.1,10.6,3.6,16,0.5"/>
		<path class="st2" d="M180.8,453.4c1.2,3.2-1.3,5.9-1,9"/>
		<path class="st2" d="M55.4,547.3c-0.6,0.5-1.4,1.2-1,2c1.5,2.6,1.3,5.3,0.5,8"/>
		<path class="st2" d="M-185.8,542.8c1.2,1.2,2.2,2.9,4,2.9c4.6,0.1,6.8,3,8.5,6.6"/>
		<path class="st2" d="M-85.9,472.4c-4.4,5.2-3.5,10.8-1,16.5"/>
		<path class="st2" d="M-6.5,246.2c3.3-0.2,6.2,1,9,2.5"/>
		<path class="st2" d="M190.8,514.3c-3.1,2.7-5.7,6-6.4,10c-0.5,2.8-2.7,3.7-4.2,5.4c-1.5,1.7-2.7,3.7-3.9,5.6"/>
		<path class="st2" d="M94.9,439c-1.9,2.4-5.8,3.1-5.2,7.5c0.1,1.1-2.4,2.6-3.8,4"/>
		<path class="st2" d="M22.5,319.6c0.1-3.7-2.2-5.8-5-7.5"/>
		<path class="st2" d="M34.5,332.6c-2.4,1.8-5,2.9-8,1.5"/>
		<path class="st2" d="M86.4,426c-0.3,5.5-2.5,11.4,3.5,15.5"/>
		<path class="st2" d="M14.5,277.7c-3.4-0.5-4.6-4.5-8-5"/>
		<path class="st2" d="M136.3,327.1c-4.1,3.5-4.2,6.2,0,8.4c2.1,1.1,4.2,2.2,5.9,3.8"/>
		<path class="st2" d="M-73.9,483.4c-0.7,0.7-1.4,1.3-2,2c-2.5,3.5-4.3,7.2-10.1,4.2c-3.4-1.7-6.9,2.7-6.6,7.2"/>
		<path class="st2" d="M100.9,398.5c0.1,3.5,3.5,4.7,5,7.2"/>
		<path class="st2" d="M54.9,416.5c-0.3,3.5-3,6.9,0.4,10.6c1.5,1.6-1.3,4.1-0.9,6.4"/>
		<path class="st2" d="M-181.3,537.3c1.5,0,3,0,4.5,0c-0.2,3.3,0.3,6.2-0.5,9"/>
		<path class="st2" d="M-207.2,367c2.8,0.7,5,2.9,8,3"/>
		<path class="st2" d="M92.4,533.8c-3.6-0.6-4.2,1.8-4.5,4.5"/>
		<path class="st2" d="M-88.9,395.5c-0.6,2.9,2,5.1,1.5,8"/>
		<path class="st2" d="M-132.8,506.4c2.1,1.7,3.2,4.2,4.4,6.5c0.8,1.5,1.8,1.5,3.1,1.5"/>
		<path class="st2" d="M52.9,424.5c-2.5,0.8-5,1.7-7.5,2.5"/>
		<path class="st2" d="M-8,322.1c-2.5,1-5,2-7.5,3"/>
		<path class="st2" d="M-109.9,487.9c-1.2,6,2,9.3,7,11.5"/>
		<path class="st2" d="M-207.7,248.2c-2.2-1.8-4.6-2.7-7.5-2.5"/>
		<path class="st2" d="M64.9,316.6c-0.3,0-0.7,0-1,0c-5.9-0.6-8.8,1.4-6,9"/>
		<path class="st2" d="M-195.2,562.3c0.7,5.5-1.2,10.2-4.5,14.5"/>
		<path class="st2" d="M277.1,247.2c-0.3,2.5-0.7,5-1,7.5"/>
		<path class="st2" d="M110.4,404c-4,1-6.3,4.3-9,7c-1.5,1.5-2.8,2.7-5,1.5"/>
		<path class="st2" d="M121.3,369.5c1.8,2.4,1.5,5.2,1.5,8"/>
		<path class="st2" d="M114.8,371c-3.7,4.1-4.4,9.2-4.5,14.5"/>
		<path class="st2" d="M-59.9,515.3c2.2,2,3.1,4.8,4,7.5c1.5,0,3,0,4.5,0"/>
		<path class="st2" d="M-117.9,468.4c0.2,2.3,0.3,4.7,0.5,7"/>
		<path class="st2" d="M-21.5,521.8c-2.4-0.2-4.5-1.5-7-1"/>
		<path class="st2" d="M-59.9,533.1c-0.7,2.8-1.3,5.5-2,8.2"/>
		<path class="st2" d="M-8.2,243.7c0.2,1,2,1.7,0.7,3c-2.9,3-2.5,6.8-2.5,10.5"/>
		<path class="st2" d="M199.7,328.6c0.2,2.4,1.5,4.5,1,7"/>
		<path class="st2" d="M1,399.5c-1,2.9,0,6.3-3.3,8.8c-1,0.7,0.8,5,1.3,7.7"/>
		<path class="st2" d="M-15,263.7c-0.4-3.7,2-5.8,5-5.8c2.1,0,5.4,1,5,4.8"/>
		<path class="st2" d="M-78.9,413.5c0.5,2.5-0.9,4.6-1,7"/>
		<path class="st2" d="M113.8,395.5c0.3,3.3-1.3,7.4,3.5,9"/>
		<path class="st2" d="M-245.7,203.8c0.1,2.4,1.5,4.5,1,7"/>
		<path class="st2" d="M-19,210.8c-1.9,1.8-4.5,0.3-6.5,1.5"/>
		<path class="st2" d="M-102.9,370c-1.8,2-4.1,2.1-6.5,2"/>
		<path class="st2" d="M240.7,344.1c-0.4,2.1-1.4,4.2-1,6.5"/>
		<path class="st2" d="M137.3,393c-2.2,0.7-4.3,1.3-6.5,2"/>
		<path class="st2" d="M-223.2,411c-2.3-0.4-4.3,0.6-6.5,1"/>
		<path class="st2" d="M35,411c-1.9,1.6-4.2,1.8-6.5,2"/>
		<path class="st2" d="M99.4,413.5c1.3,2,2.7,4,4,6"/>
		<path class="st2" d="M60.9,353.1c0.8,2.2,1.7,4.3,2.5,6.5"/>
		<path class="st2" d="M16.5,305.6c-3,2.3-2.8,4.4,0.2,6.5"/>
		<path class="st2" d="M28,304.6c-2.2,1.2-4.3,0.1-6.5,0"/>
		<path class="st2" d="M34.5,550.3c-1.5-3.5-4.4-2.1-7-2"/>
		<path class="st2" d="M109.4,322.6c-0.4,2.7-3.1,2.3-4.6,2.8c-4.9,1.9-7.3,4.9-6.9,10.1"/>
		<path class="st2" d="M90.4,409.5c-2.7-0.8-3.6,2.7-6,2.5"/>
		<path class="st2" d="M64.4,438c-2.5,2.1-4.9,3.7-8.5,3.7c-3.5,0-3.3,4.2-5,6.3"/>
		<path class="st2" d="M10.5,332.1c-2.2,2.4-5.2,4.2-5.6,8c-0.1,1.6-1.5,2.8-3.4,2.5"/>
		<path class="st2" d="M-1,328.6c-1.4,5,2.3,6.8,5.5,9"/>
		<path class="st2" d="M18,323.6c0.7,2.3-3.6,4.2-0.5,6.7"/>
		<path class="st2" d="M23,599.2c0,2,0,4,0,6"/>
		<path class="st2" d="M20,333.1c4.4,3.2,5.1,3,7-2"/>
		<path class="st2" d="M-19.5,200.3c-1.5,2.3-3.8,2.1-6,2"/>
		<path class="st2" d="M-10,408c-1.7,1.5-3.3,3-5,4.5"/>
		<path class="st2" d="M-215.2,416.5c-0.8,3.8-1.7,7.7,1.5,11"/>
		<path class="st2" d="M161.8,511.4c3,3.1,6.8,5.7,5.5,11"/>
		<path class="st2" d="M16,468.4c-3.1,2.7-6.9,5-6.5,10"/>
		<path class="st2" d="M69.9,340.1c-1.8-0.5-3.7-1-5.5-1.5"/>
		<path class="st2" d="M-101.4,360.5c2.5,0.7,1.8,3.4,3,5"/>
		<path class="st2" d="M-158.8,380c0.5,1.8,1,3.7,1.5,5.5"/>
		<path class="st2" d="M73.4,396.5c0.6,5.5-5,5.6-7.5,8.5"/>
		<path class="st2" d="M124.3,238.2c-3,0.4-6.1,0.7-7,4.5"/>
		<path class="st2" d="M-170.3,491.9c5.8,2.5,1.7,5.6,0.5,8.5"/>
		<path class="st2" d="M-19.5,255.7c1.8,1.2,3.7,2.3,5.5,3.5"/>
		<path class="st2" d="M13.5,545.3c-1.8,0.8-3.7,0.4-5.5,0.5"/>
		<path class="st2" d="M85.4,422c-2.4,1.6-7.1,0.9-6,6"/>
		<path class="st2" d="M-7.5,285.6c-2.8-1-6.2-1-8-4"/>
		<path class="st2" d="M74.4,523.3c-6.2,1.5-1.9,4.5-1,7"/>
		<path class="st2" d="M-34.5,590.8c-3.4,1.4-6.6-0.5-10-0.5"/>
		<path class="st2" d="M-66.9,605.2c0.6,1.6-2.9,3.7,0.5,5"/>
		<path class="st2" d="M-78.9,610.7c-1.9,1.1-2.3,3.7-4.5,4.5"/>
		<path class="st2" d="M-119.3,372c2.6,1.4,6.4,1.1,7.2,5"/>
		<path class="st2" d="M104.4,394c-2.6-0.2-2.3,3.7-5,3.5"/>
		<path class="st2" d="M-18,422c-0.2,0.7-0.7,1.6-0.4,2c2.3,2.6,5.6,3.9,7.6,7c0.3,0.4,2.2-0.2,3.4-0.4"/>
		<path class="st2" d="M-5,420c5-4.7,5.3-4.8,8-0.5"/>
		<path class="st2" d="M-74.4,357.6c0.3,2.3,2.5,2.5,4.1,3.6c-0.5,1.3-0.9,2.6-1.4,3.9"/>
		<path class="st2" d="M32,288.6c1.9,0.7,1.5,3,3,4"/>
		<path class="st2" d="M160.8,359c0.9,1.3,1.8,2.5,2.7,3.8c2.4-0.5,3-2.9,4.8-2.3"/>
		<path class="st2" d="M-13,415c3.1,1.3,3.2,4.3,4,7"/>
		<path class="st2" d="M175.3,360.5c0.8,1.5,1.7,3,2.5,4.5"/>
		<path class="st2" d="M264.2,438.5c-2.5-0.1-4.7,1.4-7,2"/>
		<path class="st2" d="M121.3,431c-4.6,0.7-3.5,3.6-2.5,6.5"/>
		<path class="st2" d="M141.3,415c-2.6,1.6-5.3,0.1-8,0.5"/>
		<path class="st2" d="M57.4,317.9c-1-2.3-3-2.2-5-2.2"/>
		<path class="st2" d="M2.5,255.7c-3.6-1.3-5,1.6-7,3.5"/>
		<path class="st2" d="M30.5,285.6c-0.5,1,2.5,2,0,3"/>
		<path class="st2" d="M-39,583.8c-0.3,0.5-0.7,1-1,1.5"/>
	</g>
</g>
<path class="st2" d="M80.1,458.8c-2.9-0.9-5.5-2.5-6.3-1.8c-2.2,1.7-3.7,4.4-5.5,6.8c0.6,0.6,1.2,1.3,1.8,1.9
	C73,463.7,75.9,461.8,80.1,458.8z"/>
<path class="st2" d="M65,453.7c-1.6-0.2-3.3-0.4-5-0.6c-0.1,1-0.2,2.1-0.3,3.1c1.6,0.1,3.3,0.1,5,0.2
	C64.8,455.6,64.9,454.6,65,453.7z"/>
<path class="st2" d="M73.9,502.6c-2.9,2-5.2,3.6-7.4,5.2C71.9,509.7,73.7,508.4,73.9,502.6z"/>
<path class="st2" d="M56.6,448.5c-0.3-0.5-0.6-0.9-0.9-1.4c-1.9,1.3-3.8,2.6-6.4,4.5C55.3,454.9,55.3,450.7,56.6,448.5z"/>
<path class="st2" d="M270.3,245.7c1.9-1.7,3.9-3.3,7-6c-2.8-2.3-4.4-4.5-6.2-4.9c-3.2-0.6-5.1,2-4.5,4.9
	C266.9,241.9,269,243.8,270.3,245.7z"/>
<path class="st2" d="M245.2,421.8c-2.8-6.1-5.5-12.2-8.3-18.3c-0.5,0.2-1.1,0.5-1.7,0.8c2.8,6,5.7,12.1,8.5,18.1
	C244.3,422.2,244.8,422,245.2,421.8z"/>
<path class="st2" d="M169.2,315.9c-0.4,1.2-1.3,2.5-1.1,3.7c0.1,0.9,1.7,2.5,2.1,2.4c1.1-0.4,2.2-1.5,2.8-2.5
	c0.2-0.3-1.1-1.5-1.7-2.3C170.6,316.8,169.9,316.4,169.2,315.9z"/>
<path class="st2" d="M93.6,368.2c2.6-2.2,5.5-4,7.5-6.7c0.7-1-0.9-3.7-1.4-5.7c-0.5,0.1-0.9,0.2-1.4,0.2c-2.1,3.4-4.2,6.8-6.4,10.3
	C92.5,367,93.1,367.6,93.6,368.2z"/>
<path class="st2" d="M74.6,340.9c-1.8,3.8-3.1,6.4-4.7,9.7C76.2,349.7,77.5,347.2,74.6,340.9z"/>
<path class="st2" d="M66.3,414.2c0.9-1,2.2-1.8,2.6-3c0.2-0.5-1.4-1.6-2.8-3c-1.1,1.6-2.4,2.7-2.2,3.4
	C64.1,412.6,65.4,413.4,66.3,414.2z"/>
<path class="st2" d="M22.5,412c-0.3-0.8-0.7-2.3-0.9-2.3c-1.9,0.3-3.7,0.9-5.5,1.4c0.2,0.8,0.5,1.6,0.7,2.5
	C18.8,413.1,20.6,412.5,22.5,412z"/>
<path class="st2" d="M185.9,392.3c2.7-0.1,5.4-0.3,8.6-0.4C191.9,387.8,191.9,387.8,185.9,392.3z"/>
<path class="st2" d="M163.1,396.6c1.3-1.8,2.5-3.1,2.4-3.3c-1.3-1.5-2.8-2.9-4.2-4.3c-0.6,0.8-1.9,2-1.7,2.5
	C160.3,393,161.5,394.4,163.1,396.6z"/>
<path class="st2" d="M24.7,456.3c0.3,0.8,1.7,1.7,2.6,1.7c3.1,0.2,6.2,0.1,10.5,0.1c0.3-0.2,2.1-0.8,2.6-2c0.3-0.7-1.3-3.3-2.1-3.3
	c-4.2-0.1-8.5,0.2-12.7,0.7C25.1,453.5,24.4,455.5,24.7,456.3z"/>
<path class="st2" d="M171.9,385.3c-2.2-1.1-4.2-2.4-6.5-3.2c-0.6-0.2-1.8,1.2-2.7,1.8c1.9,1.2,3.9,2.5,6.2,4
	C170.1,386.7,171,386,171.9,385.3z"/>
<path class="st2" d="M35.8,469.8c-1,0.2-2.3,1.5-2.3,2.4c-0.1,0.8,1.3,1.8,2.6,3.4c1-1.7,2.2-2.8,2.1-3.7
	C38.1,471,36.5,469.6,35.8,469.8z"/>
<path class="st2" d="M30,498.5c-0.8,2.2-0.8,4.7-1.2,7.1c0.5,0.1,1.1,0.2,1.6,0.3c1.1-2.7,2.3-5.4,3.4-8c-0.1-0.4-0.2-0.8-0.3-1.2
	C32.3,497.2,30.3,497.6,30,498.5z"/>
<path class="st2" d="M246.1,562c-3.2,3.1-6.4,6.2-9.2,9.5c-0.2,0.2,2.8,3,3.5,3.7c5.7,0,11.1-3.8,10.3-6.7
	C250,566.1,247.7,564.1,246.1,562z"/>
<path class="st2" d="M318.3,472.4c-4.5,0-9,0-13.5,0c-3.8-0.5-7.7,0.3-8,4.5c-0.2,2.4,1.7,6.3,3.6,7.1c2.4,1,6.2,0.1,8.8-1.1
	c2.7-1.2,4.6-2.3,7.8-1.2c3.7,1.2,4.9-1.7,5.2-4.8C322.4,474.2,321.3,472.4,318.3,472.4z"/>
<path class="st2" d="M4.9,231.5c0.4-1.4,0.4-4.3-0.3-4.5c-1.5-0.6-3.1-1.2-4.6-1.7v6.4c0.4,0.2,0.9,0.4,1.4,0.7
	C2.2,232.7,4.7,232.1,4.9,231.5z"/>
<path class="st2" d="M0,323.3v1.4c0,0,0.1,0,0.1,0C0.1,324.3,0,323.8,0,323.3z"/>
<path class="st2" d="M0,744.5c2.3-4,3.3-8.5,3.6-13.4c0.2-2.8,1.7-5.7,3.1-8.3c3.1-6.2,6.8-12.1,9.6-18.5c1-2.1,0.2-5,0.2-6.5
	c-4.9,0.5-9.2,1.5-13.3,1.1c-1.2-0.1-2.3-0.4-3.2-0.9"/>
<path class="st2" d="M0,361.7c0.8,0.9,2.3,0.3,5.9-0.8c1.8-0.6,3.7-0.5,6-0.7c-0.1-1.2-0.1-2.4-0.2-2.8c3.7-3,7-5.8,10.4-8.6
	c5.2,4.6,6.2,4.4,10.6-2.3c4.8-7.4,13.6-10.2,21.1-6.6c1.2,0.5,2.6,1.9,2.7,3c0.5,3.4,0.3,6.9,4.3,8.5c0.6,0.2,1,2.2,0.6,3.1
	c-1.1,2.8-2.6,5.4-0.3,8.4c0.2,0.3-0.8,1.5-1.2,2.2c-0.7-0.5-1.8-0.9-2-1.5c-0.4-1-0.1-2.2-0.1-3.4c-5.5,0-3,3.7-3.2,7.7
	c-5.2-2.9-9.5-5.4-14.3-8.1c0.9,3,1.7,5.8,2.8,9.5c1.8-1.6,2.7-2.6,3.9-3.7c4.3,4.2,8.1,9.5,15.5,5c-2.6,5.9-4.9,11.1-7.3,16.5
	c7.6,1.1,7.8,0.8,7.5-5.1c-0.1-1.6,1.3-3.8,2.7-4.8c2.3-1.6,2.8-3,2.2-5.8c-1-4.7-2.6-9.3-1.1-14.5c0.7-2.5-2-6-3.1-9
	c-0.6-1.8-2.1-4.8-1.6-5.2c2.1-1.6,4.8-3.4,7.2-3.3c3.1,0.1,5.7,1,7.6-2.5c0.4-0.7,2.5-0.9,3.5-0.5c0.6,0.2,1,1.8,1.2,2.9
	c0.1,0.9-0.2,1.9-0.4,2.9c3.3,0.3,9.1-4.1,9.7-8.4c0.6-4.2,3-5,6.3-5.6c3.2-0.5,6.3-1.4,9.8-2.1c1.1,2.8,1.5,4.8-2.8,5.6
	c-1.5,0.3-3.9,4.1-3.4,5.4c1,2.5,2.4,4.6,0.9,7.3c-0.2,0.5-0.1,1.6,0.2,1.8c7,4.3,2.2,10.6,2.8,16c0.2,1.4,0.1,2.9,0.6,4.2
	c1.3,3.4-0.8,8.3-4.5,8.9c-4.9,0.7-7.3,4.3-9.8,7.8c-3.3,4.5-6.7,8.9-10,13.4c-0.7-0.1-1.5-0.2-2.2-0.2c-1.3-5.4-2.7-10.9-3.8-16.3
	c-0.1-0.6,1.1-2.1,1.9-2.3c8.7-2.2,10.3-9.2,10.8-16.5c0.3-4.3,2.2-7.1,5.9-9c1.2-0.6,2.4-1.7,2.9-2.8c0.2-0.4-1.4-2.3-2.3-2.5
	c-1.8-0.3-4.8-0.6-5.3,0.3c-2.7,4.5-6.2,9.3-6.8,14.2c-0.7,5.6-5.3,7.3-7.4,11.2c-2.4,4.5-5.1,8.8-7.8,13.3c2.3,1.8,4,3.1,6,4.6
	c-6.6,3-12.5,5.6-19.2,8.7c3,3.3,5.6,6.1,8.1,8.8c3-2.6,5.6-4.8,8.4-7.3c1.5,2.6,3.2,4.5,3.7,6.6c0.6,2.6,2.5,5.4-1,8
	c-1.4,1-2.5,4.6-1.8,6.1c1.5,3,3,7.7,8.4,5.1c0.8-0.4,1.7-0.3,3-0.6c-2.4,2.8-4.3,5-6.2,7.2c-1.9-2.2-4-5.2-6.6-7.6
	c-2.5-2.4-5.5-4.3-8.7-6.8c-2.2,1.9-5.4,4.7-8.3,7.2c0.7,2.9,1.9,5.8,1.8,8.6c0,1.5-2.3,2.9-3.6,4.4c-0.6-1.7-1.2-3.3-1.8-5
	c-0.1-0.4-0.2-0.9-0.2-1.1c-3.9,0.7-7.7,0.8-11.1,2c-2.6,0.9-4.7,3.1-7,4.8c0.2,0.7,0.4,1.4,0.6,2c2.5,0,5.3,0.8,7.4-0.2
	c2.7-1.2,4.4-1.2,7.3-0.1c4.2,1.5,9,5.4,13.4-0.2c0.6-0.7,2.7-0.2,4-0.3c-0.1,1.1,0,2.2-0.4,3.2c-0.7,1.7-1.7,3.2-2.5,4.9
	c2.4,0.3,4.9,0.7,7.3,0.9c0.5,0,1.2-0.5,2-1c-1.9-3.6-1.9-6.8,2.5-9c0.4,2.7,0,5.3,1.2,7.2c1.1,1.7,3.5,3,5.5,3.6
	c1.1,0.3,3.7-1,3.9-2c0.3-1.4-0.7-3.4-1.7-4.6c-1.5-2-3.5-3.6-4.4-4.4c2.8-4.2,4.8-7.3,6.7-10.2c0.8,4.2,1.3,8.4,2.7,12.3
	c0.5,1.3,3.1,1.8,5.2,3c-0.8,2.3-2.4,5.8,3,8.2c-2.9,1.2-4.5,1.8-6.1,2.4c-0.2,0.5-0.3,0.9-0.5,1.4c2,0.7,3.9,1.8,6,2
	c0.8,0.1,1.9-1.8,3-2.9c0.2,0.3,0.6,1.3,1.4,2.1c2,2,3.5,2.3,5.7-0.3c1.5-1.8,4.2-2.7,6.5-3.5c0.7-0.2,2.9,1.7,2.8,2.3
	c-1.2,6.4,2.9,8.5,8.1,10.2c2.9-6.8,9.8-3.7,14.9-5.5c3-1.1,4,1.8,4.3,4.6c0.5,5.4,2.6,7.7,8,8.6c-1.7,1.5-3,2.7-4.8,4.2
	c9,4.4,8.6,12.4,8.6,20.3c0,3.2,1.5,5.6,5.5,3.8c3.3-1.5,5.8-0.9,6.9,2.9c0.3,0.9,0.8,2,1.6,2.4c6.6,3.3,4,9.3,3.7,14.2
	c-0.3,4.9-4.8,7-12.2,5.8c-3.3-0.6-7,1.9-10.1-1.4c-0.3-0.3-3.1,1.9-4.9,2.6c-2.1,0.8-4.4,1.5-6.6,1.7c-3.4,0.3-7.5-1.7-8.1,4.3
	c-0.1,1-2.7,2.5-4.1,2.5c-1.4,0-3.2-1.2-4.3-2.4c-0.9-1-0.9-2.7-1.5-5.2c-5.2,2.3-10.1,4-14.5,6.6c-2.6,1.5-4.1,1.3-6.1-0.5
	c-1.6-1.4-3.2-3-5.2-3.8c-2.5-1.1-5.4-1.7-9.4-2.8c0-2.3,0-6.2,0-9.9c5.7-2,11.6-4,18.7-6.5c-3.3-1.5-5.4-2.5-8.2-3.8
	c2.1-1.8,3.5-2.9,5.3-4.5c-4.6-1.5-6.2,1.3-7.9,3.8c-1.3,1.9-2.4,4.1-4.2,5.4c-0.9,0.7-3.1,0.3-4.5-0.2c-0.4-0.2-0.3-2.5,0.1-3.7
	c1.1-2.8,2.5-5.4,3.9-8.2c-2.5-0.6-4.8-1.1-8.2-1.9c3,7-3,10.1-5.5,15.2c-4.9-3.5-6.9-1.7-7.3,3.6c-0.1,1-1.8,2-3,2.6
	c-1.1,0.5-2.8,0.2-3.8,0.8c-2.6,1.5-4.6,2.6-6.3-1.2c-1.5-3.2-1.8-5.3,1.9-7.3c3-1.6,5.7-4.1,3.7-9.2c-1.8,2.2-3,4-4.6,5.5
	c-2.1,1.9-5.1,4-7.3,0.9c-1.8-2.5-2.1-6.3,1.2-8.4c3-1.9,6.4-3.1,10-4.9c-6.3-1.9-14.6,2.2-17.1,8c-1.2,2.8-8.8,6.6-11.3,5.2
	c-1.3-0.7-2.4-2.6-2.7-4.2c-0.5-2-0.1-4.2-0.1-7.3c-1.6,1.1-3,1.6-3.4,2.5c-1.1,2.4-1,5.1-4.8,6.1c-2.1,0.5-0.5,5.6,2.4,5.8
	c5.2,0.3,5.2,3.6,5.5,7.5c0.3,3.7,1.7,7.2,2.9,12.1c3.1-3.1,5.1-5.7,7.7-7.3c1.6-1,4-0.6,6.9-0.9c-1,2.2-1.4,3.7-2.2,4.8
	c-1.9,2.6-1.8,4.7-0.3,7.7c2.9,5.8-1.3,15.6-7.4,17.2c-2.4,0.6-5.4-0.7-8.1-1.1c0-0.5,0-1,0-1.5c1.7-0.5,3.4-1,5.3-1.6
	c-2.9-1.3-3-1.5-10.7,2.9c-3.3,1.9-6.1,4.8-9.4,7.4c-2.2-3.5-1.6-5.9,1.1-8.2c1.2-1,1.7-2.7,2.5-4.1c-0.3-0.3-0.7-0.6-1.1-0.9
	c1.1-0.6,2.2-1.3,3.4-1.9c-0.3-0.3-0.5-0.7-0.7-0.7c-3.2,0.5-7.4-0.6-6.3,5.7c0.4,2-1.4,6.2-6.7,4.3c-0.9-0.3-1.7-0.6-2.5-0.7
	 M0,336.6c0.7,0.5,1.4,1,2,0.8c1.2-0.4,2.6-2.2,2.8-3.5c0.7-4,1.8-6.4,6.5-4.4c0.9,0.4,2.4-0.7,3.6-1.1c0.9,1.7,1.8,3.3,2.4,5
	c2,5,2.4,5.1,5.9,1.5c2.3,1,4.4,2,7.1,3.3c0,0-0.4,1.7-0.8,1.7c-4.3,0.3-8.5,3.9-13-0.1c-3.2-2.8-9.1-0.1-10.8,3.6
	c-1.1,2.5-3.2,4.5-5.7,7.4 M0,314c2.8,1.9,5.5,3.7,8.5,5.8c-2.8,2.3-5.7,4.7-8.5,7 M0,278.4C0,278.4,0,278.4,0,278.4
	c0,0.1,0,0.3,0,0.4 M0,241.3c1.8,0.3,3.5,0.9,4.5,1.9c1.2,1.1-0.1,4.9-0.3,8c-1.5-0.9-2.9-1.7-4.2-2.5v3.3c0.4,0.3,0.8,0.5,1.2,0.8
	c-0.4,0.1-0.8,0.2-1.2,0.3 M0,112.9c1.6,0.2,3.2,0.7,4.7,0.4c5.1-1,10.2-2.4,15.3-3.2c0.7-0.1,2.2,2.5,2.7,4c0.8,2.3,1,4.9,2.1,7.2
	c4.7-6.8,13.4-8,19.3-2.7c7.5,6.7,7.8,9.3,1.8,17.7c-0.3,0.4-0.5,1.1-0.9,1.2c-8,1.4-5.7,8.3-7.1,13.2c-0.6,2.2-1.4,4.5-2.9,6.1
	c-3.8,4.4-4,7-1.2,11.9c1,1.8,0.9,4.2,1.3,6.3c0.3,2-0.2,5.1,0.9,5.8c2.3,1.5,5.8,3,8,2.2c4.7-1.7,6.6,0.6,8.2,3.9
	c1.2,2.7,2.1,5.6,2.9,8.5c0.8,2.8,0.5,5.2-2.4,6.9c-1,0.5-2,1.5-2.4,2.5c-2.6,6.4-8,8.8-14.2,10.5c-3,0.8-4.5,3.3-2.4,5.6
	c3.9,4.4,5.7,8.4,1.2,13.4c-0.3,0.4,0,1.3,0,2.1c1.4,0.4,2.8,0.7,5.5,1.5c-1.9,1.3-2.9,2-3.9,2.7c-1.6,1-3.7,1.6-4.6,3.1
	c-2,3.1-0.7,4.8,3.1,4.6c0.9,0,1.7-0.1,2.9-0.1c-0.8,7.7-7,10.4-14.5,6.6c-5-2.5-9.2-4-12.8,2c-0.4,0.7-2.5,0.5-3.8,0.7
	c0.3-1.1,0.5-2.3,1-3.4c1.1-2.9,2.4-5.7,3.5-8.6c0.2-0.5,0.1-1.3-0.1-1.9c-0.9-2.2-6.9-5.6-11.2-6.9 M0,32.3
	c0.6-0.2,1.2-0.3,1.9-0.5c1.3-0.3,2.6-0.5,3.8-1c7.8-3.4,14.5-1.2,19,6c1.2,2,2.6,3.9,4.2,5.6c3.8,4,7,4.6,11.5,1.3
	c5.4-3.9,11.3-5.5,17.7-6c1-0.1,2-0.1,2.9-0.5c6-2.4,11.5-3.5,16.6,2.3c1.1,1.3,4.7,0.2,7.1,0.6c2.1,0.3,4.7,0.6,6.2,1.9
	c4.6,4,8.6,8.7,13.1,12.9c5.9,5.4,5.6,9.7-1.1,14.2c-3.6,2.4-7.4,4.6-10.5,7.6c-9.2,8.9-5.1,23.8,7.2,27.3c1.9,0.5,3.9,1.1,5.7,1.9
	c6,2.6,6.7,5.2,3.2,10.8c-0.8,1.2-1.7,2.7-1.8,4c-0.2,7.3-5,10-11.1,11.2c-1.2,0.2-2.6,0-3.8-0.3c-5.1-1.2-10.3-2.5-15.4-3.9
	c-2.9-0.8-5.8-1.5-8.5-2.7c-7.3-3.3-14.5-6.9-22.3-10.7c0.4-0.9,1-2.3,1.8-3.7c4.1-7.9,4.3-16.2,2.6-24.8c-0.9-4.3-0.9-8.8-1.1-13.2
	c-0.1-2.3,0.6-4.8,0-6.9c-0.6-2-2-4.3-3.8-5.4c-3.3-2.1-14,1.1-17.6,4.6c-3.2,3.1-3.2,7.6-0.7,13.4c3.6,8.2,1.9,16.4-2.3,23.8
	c-1.1,2-5.2,2.9-8,3.3c-3.4,0.4-7-0.5-10.4-0.4c-1.9,0.1-4.3,0.8-5.3,2.1c-0.2,0.2-0.3,0.5-0.4,0.8 M0,618.9c1-0.9,2-2.3,3.5-4.4
	c2.8,3.7,5.4,7.7,8.8,10.9c1.2,1.2,4.5,0.2,8.1,0.2c-0.4,2.1,0,5.6-1.6,7.5c-3.6,4.4-2.3,9-1.2,13.3c1,3.7,3.9,2.3,6.3,0.3
	c2.5-2,5.1-3.8,7.7-5.7c0.5,0.5,1,1,1.6,1.5c-1.1,1.5-2.1,3.2-3.4,4.4c-8.2,7.3-7.8,19,0.8,25.8c1.6,1.2,3,2.6,4.7,3.7
	c5,3.1,5.2,7.4,3.3,12.3c-2.6,6.8-3.9,7.7-10.8,7.9c-1.7,0-3.5,0.5-6.2,0.9c1.6,0.5,2.3,0.8,2.9,0.8c5.6,0.3,10.9,0.4,11.1,8.3
	c0,1.8,3,3.9,4.9,5.4c3.2,2.4,3.7,5.1,2.7,8.7c-3.1,11.2-2.2,13.5,7.2,20.1c2.8,2,5.7,4.1,8.1,6.7c4.4,4.6,3.9,9.1-1.4,12.5
	c-2.5,1.6-5.5,2.2-8.2,3.5c-3.1,1.5-6.5,2.7-9,4.9c-2.9,2.4-5.5,3-8.6,1.2c-4.1-2.3-8-2.4-12.4-0.5c-1.6,0.7-4.2,0.2-6-0.5
	c-4.4-1.7-8.5-4.2-12.8-5.8 M0,566.5c1.2-0.1,2.7,0.3,3.6,1c0.4,0.3,0,2.5-0.6,3.5c-2.2,3.5-3.3,6.3,1.5,8.8c3,1.6,4.9,5.3,2.6,7.9
	c-1.1,1.2-4,0.9-7.1,0.9 M70.3,156c0.5-1.1,2.6-2.1,3.9-2c4.6,0.2,9.2,0.5,13.6,1.5c1.8,0.4,4.4,3.3,4.1,4.6c-0.3,2-2.6,4.3-4.5,5
	c-2.7,1-5.8,0.8-9.8,1.2C75.5,166.3,69.1,158.7,70.3,156z M65,189.3c1.3,0.8,2.4,1.8,4.1,3.2c-1.5,1.1-2.8,2.3-2.9,2.2
	c-1.1-1.1-2.1-2.3-2.9-3.6C63.1,190.8,64.8,189.2,65,189.3z M51,153.2c-0.5,0.2-1.9-1.5-2.9-2.4c1.8-1.6,3.6-3.5,5.6-4.8
	c0.5-0.3,2.1,1.2,4.6,2.7C55.1,150.8,53.2,152.3,51,153.2z M16,272.2c2.4,1.7,4.9,4.5,5.9,4.1c2.2-1.1,3.6-3.7,4.9-6.1
	c2.8-0.3,4.4,3.1,2.2,6.7c-2.4,3.9-4.1,9.7-11.1,6.8c-1-0.4-3.3,1.2-4.3,2.5c-0.6,0.8-0.2,2.7,0.2,4c0.5,1.5,1.5,3,2.2,4.4
	c-0.7,0.3-1.7,1.1-2.1,0.9c-2-1.1-4.6-2.1-5.5-3.9c-2.4-4.7-3.9-9.9-6.3-16C7.7,277,13.6,279.2,16,272.2z M18,326.5
	c0.3-5-1.1-7.8-5.4-8.4c-0.2,0-0.4-0.1-0.5-0.2c-0.6-0.7-1.9-1.6-1.8-2.1c1.4-5.8-8.9-8.7-3.3-15.9c3.4,3.6,8.3,5.7,7,12.3
	c-0.3,1.4,2.1,3.5,3.5,5.1C20.4,320.6,20.9,323.6,18,326.5z M36.2,323.1c-6.4-5.1-11.7-9.4-17.1-13.7c5.5-6.2,6.9-6,11.6,0.8
	c1.1,1.6,3.5,2.3,4.9,3.8c1.2,1.2,2.5,2.9,2.4,4.4C38,320.3,36.7,322.1,36.2,323.1z M42,310.4c-0.5-0.7-1-1.4-1.5-2.1
	c1.4-1,2.7-2.2,4.2-3c0.3-0.2,1.4,1.2,2.2,1.9C45.3,308.3,43.6,309.3,42,310.4z M74,330c-1.5,0.9-3.2,1.7-4.8,2.3
	c-0.8,0.3-1.9,0.4-2.7,0c-0.5-0.2-0.9-1.4-0.9-2.1c0.3-3.2,6.9-6.4,9.6-4.7c0.5,0.3,0.8,0.9,1.6,1.8C75.9,328.3,75.1,329.4,74,330z
	 M104.2,382.1c1.5-2.9,4.4-5.1,6.3-7.1c1.2,2.2,2.4,5.5,3,5.4c2.9-0.4,4.5-2.4,3.6-5.8c-0.3-1.2,0.4-2.9,1.1-4.1
	c2.8-4.6,2.4-9.7-1.6-14.4c-1.3,2.4-2.5,4.5-4.1,7.3c-4-8.3-0.8-13.4,8.4-15.2c0.1,1.6,0.3,3.1,0.5,5.1c2.2-0.3,4-0.6,7.2-1.1
	c-2,8.7-4,17-6,25.5c0.7,0.1,2.4,0.2,4.1,0.4c-0.5,6.6-5.2,10.4-10.5,7.8c-3-1.5-4-0.1-5.9,1.3c-1.5,1-3.5,1.2-5.4,1.7
	C104.6,386.6,103.3,383.8,104.2,382.1z M133.2,299.5c-0.1,0.3-3.3-0.1-3.4-0.6c-0.8-3.3,1.4-5.2,4.1-5.6c3-0.4,6.5-4.1,9.2,0.7
	c0.3,0.6-0.1,1.5-0.1,3.2C138.6,295.3,135.2,294.9,133.2,299.5z M142.2,311.8c-0.9,1.5-1.7,3-2.8,4.3c-0.2,0.2-1.6-0.5-2.4-0.8
	c0.9-1.6,1.8-3.2,2.7-4.9C140.6,311,141.4,311.4,142.2,311.8z M133.2,330.4c-1.6,5.4,0.8,7.2,4.9,8.4c5,1.5,7.2,6.9,5.2,12.2
	c-3.4-2.8-6.7-5.5-9.9-8.1c-0.5-0.4-1.1-0.7-1.8-0.9c-2.1-0.4-5.2,0.4-4.7-3.4C127.3,335.4,127.9,331.9,133.2,330.4z M126.9,309.3
	c-0.5,3.5-3,5.5-6.4,5.7c-1.2,0-2.6-1.5-3.8-2.2c0.9-1.3,1.6-3,2.8-4c1.5-1.3,3.5-2.1,5.2-3.1c0.5,0.1,1,0.1,1.1,0.3
	C126.2,307.1,127,308.3,126.9,309.3z M116.8,301.4c-0.5,0.1-2.1-1.9-1.9-2c0.8-1.2,1.9-2.5,3.2-3.1c0.4-0.2,1.7,1.3,3.5,2.7
	C119.4,300.1,118.2,301.1,116.8,301.4z M92.7,433.3c1.5-1.7,2.4-3.4,3.1-3.4c2.3,0.2,5.2-3.9,7.4,0.9
	C99.7,431.6,96.9,432.3,92.7,433.3z M105,446.9c-2.4-1.1-4.8-2.1-7-3.4c-0.1-0.1,0.2-1.9,0.8-2.4c1.5-1.5,3.2-2.7,5.3-4.5
	c1.2,1.5,2.8,2.8,2.8,3.9C106.7,442.7,105.6,444.8,105,446.9z M110.9,410.9c-8-1.5-13.3,4.1-11.1,12.5c-2.5-2.3-4.5-4.2-6.8-6.3
	c1.3-0.9,2.2-1.4,3.1-2.1c4.6-3.5,4.7-4.7,1-9c-3.6-4.3-3.1-5.6,3.5-8.2c-0.9,3.8-2.3,8.2,2.6,9.7c6.2,1.8,4.2-5.3,7.7-8.1
	c1.4,2.7,3,4.9,3.8,7.4C116,410.2,114.2,411.6,110.9,410.9z M116,441.3c-0.5,0.1-0.9,0.3-1.4,0.4c-0.5-1.6-1.7-3.3-1.3-4.6
	c0.3-1.1,2.3-1.8,3.6-2.7c0.3,0.3,0.5,0.6,0.8,1C117.2,437.4,116.6,439.4,116,441.3z M122.2,461.9c-1-1.5-2.3-2.7-2.1-3.2
	c0.6-1.1,1.7-2.1,2.8-2.6c0.4-0.2,2.3,1.7,2.1,2C124.6,459.4,123.5,460.3,122.2,461.9z M129.7,412.9c-4.3-5.8-8.6-11.7-13.4-18.2
	c6-0.4,11.5-2.2,14-8.8c0.7,4.4-3.9,9.3,3.9,11.2c-3.2,4.4-4.4,8.5,0.2,12.4c0.4,0.4,0.1,2.4-0.5,3c-0.8,0.7-2.2,0.8-3.4,1
	C130.3,413.5,129.9,413.2,129.7,412.9z M132.1,422c-0.8-0.5-1.1-2-1.6-3c2.3-0.4,4.6-0.8,8-1.3C136.7,422.4,134.9,423.7,132.1,422z
	 M140.4,445c-1.9-2.5-4.5-4.8-5.3-7.6c-0.4-1.5,2-4.9,3.9-5.7c2.7-1.1,5.6,2.7,5.6,8.3C143.7,441,142,443,140.4,445z M151.7,404.8
	c-0.9-0.4-2.3-0.8-3.5-1.5c-2.4-1.4-4.8-3-7.2-4.3c-3-1.7-3-3.4-0.2-5.1c1.2-0.7,2.8-1.1,4.2-1.4c6.6-1.4,9.4-7,12.6-11.9
	c0.4-0.7-1.2-3-2.3-4.2c-1.2-1.3-2.8-2.2-4.3-3.3c0.2-0.4,0.5-0.8,0.7-1.2c2.1,0.7,4.2,1.7,6.3,2.1c1.1,0.2,2.4-0.4,3.6-0.7
	c-0.2-1.1-0.3-2.3-0.8-3.4c-0.5-1-1.3-1.9-1.9-2.9c-2.5-3.7-5.8-4-7.6,0c-2,4.2-5,4.7-10,3.6c1.6-1.3,2.5-2,3.4-2.7
	c2.1-1.8,4.7-3.2,6.3-5.3c4.1-5.6,5.4-5.6,8.3-0.1c2.3,0.2,4.2,0.3,6.1,0.4c-0.2,2.1-0.4,4.2-0.7,7.2c0.7,0.3,2.1,1,3.4,1.8
	c1.3,0.8,2.7,1.8,5.5,3.6c-0.5-4-0.9-6.7-1.3-9.3c1.2,0.6,2.8,2.1,3.8,1.7c1.3-0.5,2.1-2.3,4.2-5c0.4,3,1.6,5.5,0.8,6.6
	c-3.6,5,0.2,6.2,3.5,7.2c1.8,0.6,4,0.6,5.8,0.1c4.8-1.1,6.3,0,7.1,5c0.5,3,1.7,5.9,2.8,9.8c2.3-1.9,3.7-3.3,5.2-4.3
	c1-0.6,2.3-0.8,3.5-1.1c0.3,1.2,0.7,2.4,1,3.6c0.5,1.9,0.5,5.1,1.5,5.4c1.8,0.6,4.3-0.1,6.3-0.9c5.5-2.4,11-3.7,16.5-0.2
	c2.7,1.7,5.2,2,7.8,0c3.1-2.5,6.4-4.8,9.2-7.6c0.5-0.5-0.2-3.4-1.1-4.1c-9.9-7.3-10.8-9.8-7.1-21.4c1.5-4.6,0-6.7-4.7-6.7
	c-7.2,0.1-11.9-3.1-14.4-9.7c-1.6-4.3-8.8-8-14-7.2c-4.2,0.7-8.5,2.2-12.6,2c-3.7-0.2-8-1.4-10.8-3.7c-5.9-4.7-6.9-5.3-13.5-2.1
	c-4.1,2-11.6-1.2-12.9-5.6c-0.2-0.8,0-2.2,0.5-2.7c3.5-3.6,2.4-8,1.3-11.8c-0.7-2.3-3.9-5.3-6.2-5.4c-6.4-0.4-8.1-4.6-9.7-9.5
	c3.3-4.5,7-4.5,11.4-1.4c1.6,1.1,3.5,1.6,5.3,2.4c0.4-0.5,0.8-1.1,1.2-1.6c-2.2-2.5-4.4-5-6.6-7.5c-2.8-3.3-5.6-6.7-8.5-10
	c-1-1.1-2.3-2.1-3.4-3.1c-0.9,1-1.7,2.2-2.6,3.1c-1.5,1.4-2.9,3.4-4.6,3.7c-6.3,1.2-12.7,2-19.1,2.7c-1.3,0.1-3.7-0.6-4-1.5
	c-2.5-7.5-8.1-3.4-12.4-3.3c-1.8,0-3.6,1.5-5.8,2.5c0-1.9,0-3.6,0-5.7c-6.3,1.2-12.1,2.2-17.9,3.3c0,0.6,0.1,1.1,0.1,1.7
	c1.3,0,2.6-0.1,3.9,0c1.2,0.1,2.4,0.6,3.6,0.9c-0.3,1.2-0.3,2.7-1,3.6c-2.6,3.2-5.5,6.1-8.1,9.3c-1.4,1.8-2.4,4-3.8,6.2
	c7.7,1.5,8.3,0.9,9.8-4.8c0.7-2.8,2.9-5.3,4.7-8.3c5.3,6.7,5.7,9.2,4.7,25.2c0.8-1.2,1-1.8,1.5-2.3c1.3-1.2,2.7-2.4,4.1-3.6
	c0.8,1.6,1.8,3.1,2.4,4.8c0.4,1.2,0.6,2.8,0.2,3.9c-0.4,1.1-2.1,2.7-2.5,2.6c-3.6-1.8-4.6,1.2-6.3,3c-3,3.1-6.2,6.1-10,9.7
	c-0.8-2.9-1.3-5-1.9-7.1c6.1-3.2,8.2-14.8,3-20c-2.2,3-4.4,6-6.9,9.5c-1.8-2.5-2.6-3.5-4.1-5.6c0,3.2,0.5,5.2-0.1,7
	c-1.4,4.7-8.3,7.6-13.3,6.3c-1.2-0.3-2.9,1.2-4.4,1.9c0.1,0.5,0.3,0.9,0.4,1.4c0.7,0.3,1.4,0.5,2.1,0.9c1.4,0.7,2.8,1.5,4.2,2.3
	c-1.8,1-3.4,2.3-5.3,2.7c-1,0.2-2.9-1.2-3.3-2.3c-1.3-3.7-2.1-7.6-3.3-12.4c1.9-0.2,4-0.6,6.1-0.5c4.2,0.2,5.6-1.4,5.2-5.6
	c-0.2-1.8,0.4-3.8,0.7-5.7c0.6-4.5,1.2-9,1.9-13.8c-1.7-0.1-3.4-0.1-5.7-0.3c-0.2,2.9-0.2,5.5-0.6,8c-0.5,3.4-1.9,5.5-5.7,2.9
	c-1.5-1-3.2-1.8-4.7-2.8c-2.2-1.6-4-1.6-6.1,0.5c-3.4,3.3-7.9,1.9-9.8-2.4c-0.7-1.5-2.2-2.7-3.2-4.1c-0.6-0.9-1.3-1.9-1.4-2.9
	c-0.1-0.5,1.1-1.7,1.4-1.6c1,0.3,2.4,0.8,2.8,1.6c1.3,2.9,2.4,5.1,6.2,2.6c3.8-2.6,2.3-5.1,0.9-8.1c-0.6-1.3-0.9-3.6-0.2-4.7
	c4.2-6.4,2.1-11.2-5.3-13.2c-4-1.1-7.6-3.7-11.2-5.8c-0.8-0.5-1.5-2.3-1.2-2.9c0.6-1,2.1-2.2,3-2c4.3,0.7,8.7,1.3,12.7,3
	c3.3,1.4,5.2,1.6,6.9-1.8c0.6-1.2,1.3-2.4,2.3-3.2c3.3-3,5.8-5.7-0.4-8.3c-0.6-0.3-0.7-1.9-1-3c1.3-0.4,3.1-1.6,3.9-1.1
	c4.5,2.7,5.3-0.8,6.8-3.6c1.2-2.3,3-4.3,4.1-6.6c1.9-4.1,3.8-8.2,5-12.6c2-7.4,7.4-11.8,14.8-11.4c2.7,0.1,4.5,0.6,3.2,4.2
	c-1.6,4.4,0.4,8.1,4.4,10.2c1.3,0.7,2.1,2.4,3,3.7c0.8,1.2,1.1,3.4,2.1,3.8c7.4,2.9,8.3,9.7,10,16.4c3.8-2.3,7.1-7.4,11.3-1.2
	c2-6.4,2.9-6.9,9.4-4c-3.4,3.1-6.8,5.9-9.8,9c-3.6,3.7-2.5,10.2,2.3,12.5c4.2,1.9,6.1,4.7,6.1,9.2c0,3.8,3.4,6.6,7,5.9
	c1.2-0.2,2.6-1.5,3.1-2.6c0.3-0.7-0.6-2.5-1.5-3.1c-4.7-3.8-4.8-4.5-0.5-10.1c3.1,0.8,6.5,1.1,7,5.6c0.1,1.2,1.9,2.5,3.2,3.1
	c0.6,0.3,2.8-0.9,2.8-1.1c-0.3-1.5-0.9-3-1.6-4.3c-0.4-0.8-1.2-1.5-2.6-3.1c5.2,0.4,8.3-1.3,9.4-5.7c0.1-0.4,1.2-1,1.6-0.9
	c5,1.2,10.8,0.1,14.2,5.4c0.7,1,0.8,2.3,1.2,3.5c-1.2,0.4-2.4,1.3-3.5,1.1c-3.6-0.5-7.1-1.4-10.7-2c-1.1-0.2-2.2,0-3.2,0
	c-0.1,0.6-0.2,1.2-0.1,1.2c7.2,3.7,12.3,11.8,22.1,10.5c1-0.1,2.6,2.1,3.6,3.4c0.9,1.2,1.2,3.2,2.3,3.8c3.7,2.3,7.7,4.2,11.6,6.2
	c0.7,0.4,1.5,0.6,2.5,0.9c1-1.7,1.8-3.2,2.8-4.9c7.2,3,14,2.4,20.9-0.9c3.9-1.9,8-2.5,11.2,1.9c0.6,0.8,3.1,1,4,0.4
	c1.7-1.1,3.4-2.9,4.2-4.7c2.4-5.5,7.5-7.2,12.3-8.4c3.8-1,6.5,2,7.3,5.9c0.7,3.2,0.8,6.6,1.1,9.9c0.1,0.8,0.3,2.1,0,2.4
	c-4.8,3.4-1.1,7.5-0.8,11.2c0.2,2.8,0.9,5.2-2.3,6.8c-0.6,0.3-0.6,2.3-0.3,3.4c0.6,2,1.5,4,2.4,6.1c5.9,1,6,2.7,4.3,8.4
	c-1.1,3.4,0.8,7.8,1.6,11.7c0.4,1.9,1.5,3.6,1.8,5.4c0.7,4,3.3,5.5,7,4c6-2.7,12.1-5.2,18.1-7.8c0.5-0.2,0.9-0.5,1.3-0.7
	c3.2-2.2,8.1-16.2,6.2-19.5c-1.3-2.2-4.1-3.7-6.4-5.2c-2.1-1.4-5.2-2-6.5-3.9c-4.1-6.2-7.6-12.8-11.3-19.3c-0.6-1-0.8-2.3-1.7-3
	c-3.6-2.9-4.6-6.5-4.4-11c0.1-1.8-1.2-3.7-2-5.5c-1.1-2.8-2.2-5.5-3.3-8.3c-1.3-3-2.3-6.2-4.1-8.9c-4.4-6.7-4.4-9,0.8-14.8
	c6.7-7.5,13.5-15,19.7-22.9c1.9-2.4,2.7-6.4,2.3-9.5c-0.1-1.5-4-3.4-6.3-3.6c-4-0.3-7.8,1.5-8.9,5.7c-1.7,6.4-6,9.2-11.9,10.6
	c-4.2,0.9-7.1,3.2-8.5,7.6c-0.3,1.1-3.1,2.3-4.4,2c-10.1-2.8-14.3-11.1-18-19.8c-0.5-1.1,0.4-3.3,1.4-4.4
	c6.2-7.3,12.7-14.3,15.6-23.9c1-3.2,3.8-6.1,6.2-8.7c5.1-5.3,7.2-14.1,4.4-20.7c-1.7-4-4.6-5.9-9.2-4.8c-4.8,1.2-8,4-10.8,8.2
	c-4,6.2-8.7,12-13.5,17.7c-2.7,3.2-6.3,3.4-9.9,1c-1.7-1.1-3.5-1.9-5.1-3.2c-4.5-3.7-8.4-4.3-12.9,0.5c-2.3,2.5-7,1.6-9.3,5.7
	c-1.8,3-5,5.2-4.7,9.4c0,0.7-1.4,1.6-2.3,2.1c-1.5,0.8-3.1,1.1-4.6,1.9c-2.7,1.4-6.3,2.4-5.1,6.7c1,3.4,6,5.9,9.9,5.2
	c7.7-1.4,8.8-0.7,10.9,6.9c-0.2,0.3-0.3,0.6-0.5,0.8c-2,1.3-5.5,0.4-5.7,4.4c-0.2,3.9,2,5.4,4.9,7.2c3.1,2,5.8,3.3,9.7,2.4
	c3.4-0.8,5.2,1.7,3.5,4.8c-1.7,3.2-3.8,6.3-6.3,8.9c-3.4,3.4-9.1,1.9-10.8-3.1c-1.5-4.4-3.9-5-8-3.9c-6.9,1.8-7.3,1.3-6.9-5.9
	c0.1-1.7-0.2-3.5-0.3-5.8c-2.1,0.8-3.6,1.3-5.8,2.1c-1.6-5.2-3.4-10.1-4.6-15.2c-0.6-2.6-1.2-3.3-4.1-4c-8.2-2-16.8-4.5-21.1-12.8
	c-2-3.8-2.8-8.4-3.3-12.8c-0.4-3.4-2-4.3-5-5.1c-4.2-1.1-8.3-2.8-13.9-4.7c5.8-5.8,10-10.8,15.2-14.8c3.5-2.7,6.5,0.2,8.5,3.4
	c3.1,4.9,4.4,4.7,8.1,0.2c5.2-6.2,6.3-12.3,3.4-20.1c-1.8-4.8-2.7-10.7,1.4-15.6c2.4-2.9,5.6-4.2,8.9-2.7c3.9,1.8,7.4,4.6,11.2,6.7
	c1.4,0.8,3.4,1.3,4.9,1c8.1-1.8,16-3.6,24.4-1.2c6.7,2,13.9-3.8,15.1-11.1c1.5-9,1.6-8.6,10.2-11.3c10.3-3.2,18.6,0,27.4,5.3
	c7.1,4.3,9.2,9.8,11.4,17.2c2.8,9.3,8.7,17.8,13.9,26.3c1.3,2.1,5,3.3,7.7,3.6c4.1,0.4,6.5,2.1,7.4,6c1.3,5.3,4.3,8.6,9.8,10.2
	c1.6,0.4,2.8,3.4,3.6,5.5c1.4,3.6,2.1,7.4,3.4,11c0.8,2.3,1.9,4.6,3.2,6.7c2.3,4,4.8,7.8,7.2,11.8c1.8,2.9,3.5,5.8,5.2,8.8
	c1,1.9,1.4,4.6,2.9,5.6c4.5,3.1,4.8,7.8,5.1,12.3c0.1,1.8-1.2,3.9-2.3,5.6c-2.7,4-5.9,7.6-8.4,11.6c-2.3,3.8-5.8,4.3-9.5,4
	c-6.7-0.5-13.3-1.3-19.5,2c-3.7,1.9-6.5,3.2-9.5-1.5c-1.7-2.7-4.9-0.9-5.7,1.7c-0.7,2-0.7,5.2,0.5,6.6c2.8,3.3,2.8,6.8,3,10.7
	c0.1,2.8,0.9,5.6,2,8.1c2.4,5.4,7.5,5.7,11.6,1.7c2-1.9,4.9-3.4,7.6-4c4.5-0.9,9.2-1,13.9-1.2c6.7-0.3,10.1-3.3,10.7-10
	c0.2-2,0.3-4,0-6c-0.9-5.8,3.2-7.9,7.2-10.1c4-2.2,6.4,0.9,9.1,3.2c5.6,4.9,11.2,9.8,17,14.4c4.6,3.7,7.7,7.9,7.9,14.2
	c0.1,5,2,9.9,0.4,15.2c-0.5,1.6,1.2,4.3,2.5,6c1.6,2.1,3.8,3.7,5.8,5.5c2.9,2.6,4,5.2,2.2,9.2c-1.9,4.4-1.1,8.5,3.4,11.2
	c2.4,1.4,3,3.2,1.6,5.8c-0.7,1.2-0.8,2.9-0.9,4.3c-0.4,6.3-3.9,10.5-10.2,11.5c-4.4,0.7-8.9,1.1-13.4,1.7c-8.8,1.1-13.1,6.8-12,15.4
	c0.2,1.6,0.3,3.7-0.5,4.8c-2.4,3.2-4.1,6.1-1.3,9.9c0.1,0.2-1.9,2.8-2.9,2.8c-4.5-0.1-5.9,2.6-7.2,6.2c-3.2,8.7-11.4,12-19.7,7.7
	c-1.7-0.9-3.2-3.5-3.6-5.5c-0.8-4-2.7-6.2-6.7-7c-1.4-0.3-2.9-1-3.9-2c-5.8-5.3-12.9-4.8-19.7-3.7c-5.2,0.8-5.8,3-3.3,7.6
	c4.1,7.6,3.2,11.8-3.1,17.4c-0.9,0.8-1.4,2.8-1.2,4.1c0.6,3.6,0.3,6.4-2.6,9.4c-2.1,2.1-2.9,6.1-3,9.3c0,3.2,1.6,6.2,5.5,7.5
	c1.2,0.4,2.1,3.1,2.2,4.8c0,0.8-2.4,2.3-3.6,2.2c-1.3,0-2.6-1.5-5.1-3.2c-5.8,0.9-13.2,2-20.6,3.1c0,0.4,0.1,0.7,0.1,1.1
	c5.9-0.5,11.7-1,18.4-1.6c-0.3,5.5-0.3,10.2-0.9,14.9c-0.2,1.2-2,2.3-3.3,3.3c-0.8,0.6-1.7,1.1-2.6,1.4c-2.6,1-6.6,3.6-7.7,2.7
	c-3.4-2.9-7-6.6-8.1-10.7c-2.5-8.7-2-8.9-10.3-6c-1.1,0.4-2.3,0.2-3.6,0.4c-0.2,0.7-0.5,1.3-0.4,1.9c0.9,6,0.9,5.6-5,5.8
	c-2.5,0.1-4.8,2.4-7.7,4c0.5-4.1,0-8.5-6-10.2c5.1-3.5,9.4-6.3,13.6-9.2c0.9-0.6,1.6-1.7,2.4-2.6c-1.1-0.5-2.3-1.4-3.4-1.4
	c-2,0.1-4.6,0.2-6,1.4c-5.6,4.6-5.5,4.8-12.9,0c1.7-1.3,3.1-2.4,4.6-3.5c2.7-1.9,2.7-3.6-0.3-5.1c-5.9-2.9-6.9-2.4-9.4,3.9
	c-0.6,1.5-2,2.8-3.4,4.6c-5.6-7.3-4.4-15.2-4-23.5c-2.2,0.7-3.5,1.2-4.9,1.5c-0.9,0.2-2.7,0.3-2.8,0c-2.2-6.6-10.9-3.8-14-10.7
	c3-1.9,6.3-4.1,10.2-6.6c-2.5-1.8-5.1-4.1-8.2-5.5c-1.1-0.5-4.1,0.7-4.6,1.9C151.1,399.6,151.7,402,151.7,404.8z M147.5,351.1
	c2.6-1.8,5.1-3.5,7.7-5.3c0.4,0.6,0.8,1.3,1.2,1.9c-3,1-4.1,5.3-7.7,5.3C148.3,352.4,147.9,351.8,147.5,351.1z M208.7,376.2
	c0.2,1.3,0.3,3.6-0.3,4c-1.2,0.7-3.2,0.6-4.5,0.1c-1.1-0.4-1.7-1.9-2.2-2.5c0.8-3.1,0.8-5.7,2.1-7.5c2.8-4,0.8-6.3-1.9-9
	c-2.5-2.5-4.5-4-7,0c-0.5,0.8-2.7,1.5-3.5,1.2c-2-1-3.9-2.4-5.1-4.2c-0.4-0.6,1.4-3.6,2.6-4c3.5-1.1,5.5-3.1,6.9-6.5
	c1.1-2.7,8.7-2.8,10.4-0.2c1.9,2.9,3.9,4.6,7.6,4.5c3.5,0,3,1.9,1.5,4.3c-2.9,4.8-5.7,9.8-8,14.9
	C206.7,372.4,208.4,374.5,208.7,376.2z M129,231.9c1.3-0.5,3.2-1.9,3.8-1.5c3,2.4,5.4,1,8.3-0.1c1.2-0.5,3,0,4.3,0.4
	c9.8,2.8,14.6,10.5,18.3,19.3c0.8,1.9,2.5,4.9,3.8,4.9c2,0,4-2.1,6.1-3.4c1.8-1.1,4.8-3.6,5.2-3.2c1.9,1.7,3.7,4.1,4.5,6.6
	c0.7,2.4-5.1,6.1-8,5.1c-4.8-1.6-9.6-3.3-14.1-5.5c-1.8-0.9-3.2-3.1-4.2-5c-2.2-4.1-3.7-8.5-6.2-12.4c-0.9-1.4-4.2-2.8-5.5-2.1
	c-5.8,2.8-10.5-0.8-15.7-1.2C129.3,233.1,129.2,232.5,129,231.9z M195.6,254.2c1.5-2.8,3.5-5.5,5.2-8.2c1.1,1.2,2.1,2.4,4.1,4.6
	c-2.7,2.5-4.8,4.5-6.9,6.4C197.2,256.1,195.4,254.6,195.6,254.2z M179.2,458.6c-0.5,2.5-0.9,5.1-1.4,7.7c-0.7-0.1-1.4-0.2-2.2-0.3
	c0.3-2.6,0.6-5.1,0.8-7.7C177.3,458.3,178.2,458.5,179.2,458.6z M170.9,439.5c-1.4,1-2.3,1.6-3.3,2.3c-0.6-0.9-1.8-1.9-1.7-2.8
	c0.1-1.1,1.2-2.2,1.9-3.2C168.7,436.8,169.6,437.8,170.9,439.5z M152.2,436c0.2-1,0.1-2.6,0.7-2.9c2.3-1.2,4.8-2.2,7.5,2.1
	C157.1,435.5,154.7,435.7,152.2,436z M159.5,472.5c-2-1.3-4.1-2.6-6.1-3.9c0.1-0.5,0.3-1.1,0.4-1.7c2.5-0.5,5.1-1.1,7.6-1.6
	c0.4,0.5,0.8,0.9,1.2,1.3C161.6,468.7,160.6,470.6,159.5,472.5z M162.5,496.3c2.6-3.2,5.2-6.4,7.9-9.7
	C172.8,490.2,168.3,496.6,162.5,496.3z M152.8,569.8c2.5-2.4,5.6-4.2,8.8-6.5c2.1,4-1.7,13.2-6,13.6c-1.4,0.1-4-1.1-4.3-2.2
	C150.9,573.3,151.7,570.9,152.8,569.8z M150.4,533c-0.3,1.8-0.7,3.7-1,5.5c-0.8-0.1-1.6-0.1-2.4-0.1c-0.2-2-0.4-4-0.6-5.9
	C147.8,532.6,149.1,532.8,150.4,533z M131.7,577.1c1.2,1.5,2.5,2.5,2.3,3c-0.5,1.3-1.6,2.5-2.4,3.7c-0.8-0.9-2.2-1.8-2.2-2.7
	C129.4,580,130.5,579,131.7,577.1z M90,537.3c-2.2,2.4-3.5,3.9-5.6,6.3c-0.9-2.8-1.5-4.6-2.4-7.4C85,536.6,86.9,536.9,90,537.3z
	 M73.2,544c-2.4,1.3-3.8,2.5-5.3,2.6c-1.2,0-2.5-1.4-3.8-2.2c1.4-1.2,2.6-2.9,4.2-3.4C69.4,540.8,70.9,542.5,73.2,544z M70.3,537.2
	c-3.1-4.1-5.6-7.3-8.2-10.8C71.1,523.2,72.5,524.9,70.3,537.2z M52.9,536.9c1,0.2,2.9,0.3,3,0.6c0.2,1.6-0.1,3.2-0.2,4.9
	c-0.9-0.1-1.8-0.1-2.7-0.1C52.9,540.4,52.9,538.6,52.9,536.9z M52.7,551.2c0.3,3.3,0.2,6.6,0.2,10c-0.4-0.1-0.8-0.3-1.2-0.4
	c-0.9-3.2-1.9-6.3-3-10.3C50.1,550.7,52.6,550.8,52.7,551.2z M37.2,520.3c-0.3,0.1-2,1.2-3.4,0.8c-1.5-0.4-3-1.9-4-3.2
	c-0.3-0.4,1.3-2.6,2.4-3.2c1.7-0.9,3.8-1.3,5.7-1.5c2.5-0.3,5.3-0.4,5.5,3.2C43.6,519,41.8,520.4,37.2,520.3z M41.5,553.4
	c0.1-0.3,1.3-0.8,1.6-0.6c0.6,0.4,1.4,1.3,1.3,1.8c-0.5,2.4-1.2,4.7-1.9,7.1c-0.8-0.2-1.6-0.3-2.3-0.5C40.7,558.6,41,556,41.5,553.4
	z M57.1,616c-4,1.2-4.9,3.5-2.9,7.1c0.3,0.5,0.4,1.4,0.1,2c-0.5,1.2-0.9,2.8-1.8,3.2c-0.8,0.3-2.7-0.4-3.3-1.3
	c-2.6-3.7-4.7-4.2-7.4,0.1c-0.6,1-3.7,1.9-4.5,1.3c-1.8-1.3-3.3-3.5-4.2-5.7c-0.2-0.5,2.2-3,3.6-3.2c6.3-0.8,11.7-3,16.4-7.3
	c1-0.9,3.4-0.4,5.1-0.3c0.4,0.1,0.8,1.3,1.3,2.1C58.6,614.9,58,615.8,57.1,616z M56.2,605.9c-4,4.8-9.9,5.6-15.1,6.6
	c-5,1-9.2-2.3-11.3-7.8c-2.5,0.9-5.1,1.2-6.6,2.7c-2.6,2.5-4.9,1.8-7.6,0.7c-3.4-1.3-4-3-2.3-6.1c0.9-1.5,1.4-3.1,2.1-4.7
	c-0.3-0.4-0.6-0.7-0.9-1.1c-1.7,0.6-3.3,1.5-5.1,1.8c-1.2,0.2-2.6-0.2-4-0.3c0.4-1.2,0.5-3.2,1.1-3.4c4.7-1.5,6-5.8,8.4-9.3
	c0.8-1.1,2.3-2.8,3.3-2.6c7,0.9,7.5-5.6,11.1-8.5c-0.2-0.5-0.5-0.9-0.8-1.4c-2.8,1.5-5.9,2.8-8.5,4.7c-2.5,1.8-5.4,4.9-7.3,1.4
	c-1.4-2.6-1-7.4,0.6-10.1c1.8-3.1,5.8-4.9,8.9-7.3c5.4,6.2,12.5,7.8,18.8,3.7c0.6,0.4,1.4,0.8,1.9,1.3c2.9,3.1,5.8,5.8,8.4-0.3
	c0.2-0.5,0.9-1.2,1.5-1.3c4-0.8,5.9-3.2,6-7.3c0-0.6,0.9-1.2,2.8-1.9c0.2,2.2,0.7,4.4,0.6,6.7c-0.1,7.3,0.6,7.7,7.6,6.4
	c5.1-0.9,10.4-4.1,15.8,1.8c0.5-3.3,0.5-5.4,1.3-7c1-1.9,2.8-3.3,4.2-5c0.9,1.7,2.2,3.3,2.7,5.1c0.6,2.5,0.5,5.1,0.7,7.6
	c2.4-0.8,4.9-1.6,7.3-2.3c2.8-0.9,14.1,3.8,15.7,6.4c2.4,4,6.5,6.8,6.6,12.2c0,1.5,2.7,3.7,4.5,4.1c3.6,0.8,4.8,3,5.6,6.1
	c0.7,2.7,2,5.3,2.7,8c1.7,6.1,5.7,8.8,11.9,9.5c3.8,0.4,9.3,7,9.3,10c0,6.2-3.2,9.7-9.6,11.4c-5.5,1.4-10.9,3.5-16.5,4.9
	c-2.4,0.6-5,0.2-7.5,0.6c-1.6,0.2-3.8,0.6-4.7,1.7c-2.2,3-4,6.3-5.7,9.6c-1.5,2.9-5.4,3.6-6.6,0.7c-2-5-4.4-4.4-8.7-2.8
	c-5.4,2.1-11,3.7-16.8-0.8c-2.9-2.2-3.9-3.6-3.2-7.1c1-5.6,1.8-11.1,7.4-14.4c1-0.6,1.2-3.1,1.4-4.8c0.3-2.5-0.1-5.3,0.6-7.7
	c1.3-4.5-2.6-11.2-7.5-11.3c-1.1,0-2.3,1.3-3.2,2.2c-1.2,1.2-2.1,2.5-3.1,3.8c-0.6-1.6-1.2-3.1-1.8-4.7c-0.1-0.3-0.3-0.5-0.5-0.8
	c-0.1,0.4-0.3,0.8-0.4,1.1c-3.2-0.9-6.5-2.2-9.8-2.7C60.2,604.1,57.4,604.6,56.2,605.9z M203.1,689.5c-7,8.8-14.3,17.4-21.1,26.3
	c-3.2,4.2-5.7,8.9-8.4,13.5c-2.1,3.5-4.2,5.7-8.8,3.5c-4-2-6.9,0.2-8.1,4.1c-1.5,4.8-4.1,6.1-8.6,3.9c-1.1-0.5-3-1.1-3.8-0.6
	c-4.3,2.6-7-0.1-10.1-2.5c-2-1.5-4.1-2.9-6.4-3.8c-1.5-0.6-4.5-0.7-5,0.1c-3.2,4.9-8.5,3.1-12.6,4.5c-1,0.3-2.6,0.1-3.3-0.5
	c-4.2-3.6-9.1-3.3-14.1-3.6c-4.4-0.2-8.3-2.2-9.4-6.9c-1.1-4.5,0.2-8.4,4.2-11.4c9.2-6.9,9-12.5-0.5-18.6c-2.5-1.6-2.8-3.3-1.5-5.8
	c1-2.2,2-4.5,2.1-6.9c0.2-3-1.2-4.7-4.9-4.7c-4.7,0-9.4-1.9-13.9,1.2c-0.6,0.4-3.3-0.9-3.7-2c-2-4.6,2.1-10.6,7-11.5
	c4.2-0.8,8.7-1.6,12.3-3.7c3.3-1.9,5.6-5.7,8.6-8.9c1.2,5.4,8.3,8.6,14.7,6.2c3.9-1.5,6.3-0.3,8.9,2.2c2.2,2.1,4.2,4.3,6.4,6.3
	c5.3,4.9,11.1,5.3,17.1,1.1c2-1.4,3.8-3.3,5.8-4.8c3.8-2.8,7.7-3,12-0.6c2.3,1.3,6.1,2.2,8,1.1c2.2-1.2,3.2-4.8,4.7-7.4
	c0.2-0.4-0.1-1,0.1-1.5c0.8-1.8,1.6-3.6,2.4-5.4c1.1,1.6,2.9,3.1,3.2,4.8c1.5,7.4,5.6,12.2,12.9,14.4c3.2,1,6.4,2,9.5,3
	C206.5,677.6,208.2,683.1,203.1,689.5z M184.5,572.6c0.5,0.8,1.8,1.9,2,3.2c0.4,3.2-3.7,8.7-5.8,8c-1.3-0.4-2.8-2.3-3-3.7
	C177.1,577,181,572.6,184.5,572.6z M300.7,610c-2.5,5.9-4.8,11.5-3.7,18.2c0.4,2.3-0.7,5.8-2.4,7.3c-4.7,4.1-10,7.5-15.1,11
	c-6.9,4.6-15,2.2-22.5,3.5c-1.1,0.2-2.4-0.1-3.4-0.7c-4.8-2.7-9.7-3.6-15.3-2.4c-5,1.1-8.5-4.5-8.3-10.9c0.2-6.8,0-13.8-1.5-20.4
	c-0.6-2.8-4.6-5.5-7.6-6.8c-4.1-1.8-7.6-3.7-9.9-7.8c-1.9-3.4-6.2-4-9.6-1.9c-1.1,0.7-2,1.8-3,2.6c-2.3,1.6-4.7,5.1-7.7,2.3
	c-3-2.7-2.5-6.6-0.8-10.2c1.9-4.2,3.5-8.5,5.6-12.5c1.1-2,2.8-3.7,4.5-5.3c1.6-1.6,3.5-2.9,5.3-4.3c2-1.6,4.1-3.2,6.2-4.7
	c0.3-0.2,0.6-0.2,0.9-0.4c4.5-2.6,8.8-16.5,7.8-21.6c-1.2-6.1-1.7-11.6-10.1-11.4c-1.9,0-3.7-3.3-5.8-4.4c-1.6-0.8-3.7-0.5-5.6-0.7
	c0.3,1.6,0.6,3.2,1,4.9c0.1,0.6,0.3,1.2,0.8,3.3c-2.4-1.3-3.9-1.9-5.1-2.8c-4.3-3.3-6.2-2.8-10.4,0.6c-3.6,2.9-8.2,4.7-13.5,7.6
	c0.4-2.8,0.3-4.3,0.8-5.6c1.1-3.2,3.4-6.4,0-9.6c-0.3-0.3-0.3-1-0.2-1.4c2-8.6,4-17.2,6.2-25.8c0.3-1.4,1.8-2.4,2.3-3.8
	c1.1-2.8,2.6-5.7,2.6-8.5c0-3.1,0.2-5.3,2.2-8.1c2.6-3.7,3.6-8.4,5.3-12.7c0.5-1.2,0.9-2.3,1.3-3.5c0.6-0.1,1.1-0.1,1.6-0.2
	c0.3,2,1.5,4.2,0.9,5.8c-1.1,2.7-2.2,4.6,1,6.7c0.8,0.5,0.5,2.7,0.8,4.8c10.7,0.7,10.5-11,17.6-15.9c-0.1,6.7,3.8,9.3,8.3,12.2
	c3.7,2.4,3,7.8,0.6,11.3c-2.6,3.9-1.1,5.6,2.4,6.3c6.1,1.2,12.3,2,18.4,3c1.1,0.2,3.1,0,3.3,0.6c3.2,7.6,13.6,8.2,16.2,16.6
	c0.4,1.2,2.9,2.5,4.5,2.6c4.4,0.2,9.1,0.3,11.4,4.6c2.5,4.7,0.6,8.8-2.3,13.3c-3,4.6-6.7,7.6-11.1,10.3c-0.7,0.4-1.7,0.8-1.9,1.5
	c-1.5,4.9-3.1,9.3-8.3,12.2c-1.2,0.7-0.6,8,1.4,10.5c6.1,7.8,14.1,13.5,23.4,17.3c5.2,2.2,10.2,4.7,15.3,7.2
	C302.3,596.9,304.1,602,300.7,610z M369.8,452c-0.3,6.3-0.5,12.7-1.2,19c-0.2,1.6-2.3,3-3.7,4.4c-1.5,1.5-4.1,2.5-4.6,4.3
	c-3.4,11.7-11.9,21.5-12.7,34.4c-0.3,5.9-3.2,11.3-9.9,13.8c-2.9,1.1-5.2,3.9-7.6,6.2c-1.9,1.8-3.2,4.4-5.3,6
	c-2.1,1.5-5.3,3.5-7.1,2.9c-2.5-0.9-5.9-4.2-5.8-6.3c0.2-12.5-6.3-16.8-17.7-18.9c-9.4-1.7-11.3-6-8.7-15.4c2-7.4,5-14.5,7-21.8
	c0.7-2.6,0.9-6.3-0.4-8.2c-3.3-4.9-4.3-10-3.8-15.6c0.5-6,0.8-12,1.8-17.8c0.9-5.5,3.2-6.2,7.8-3.3c6.9,4.4,14.2,3.2,21.7,1.8
	c6.3-1.2,12.7-1.8,19-2.9c3.4-0.6,7-1,9.9-2.7c8.6-5.2,12.4-5,17.2,3.4c2.9,5.1,3.9,11.2,5.8,16.8
	C370.9,451.9,370.3,451.9,369.8,452z"/>
<path class="st2" d="M0,422.2c0,0.1,0.1,0.2,0.1,0.2c0,0-0.1,0-0.1,0"/>
<path class="st2" d="M0,407.6c0.2,0.3,0.3,0.5,0.5,0.8c0.7,1.4,1.4,2.8,1.7,3.5c-0.8,0.3-1.5,0.6-2.2,0.8"/>
<path class="st2" d="M0,437c1.3-2.3,3.8-1.6,6.4-1.7c-5,6.4-5.1,6.5-4.8,8.9c4.7-1.3,8.6-6.3,14.4-3.4c0.1,0,0.3-0.1,0.5-0.2
	c3.1-3.3,6.8-6.2,9.2-9.9c1.9-3,3.4-3.9,6.7-2.6c1.8,0.7,4,0.3,6.1,0.2c1.8,0,3.5-0.1,5.3-0.4c1.8-0.3,3.7-0.8,5.3-1.7
	c0.3-0.2,0.2-2.7-0.3-2.9c-1.9-0.8-4.4-2.1-6-1.5c-3.7,1.5-4-0.4-4.3-3c-0.3-2.4-0.5-4.7-0.7-6.6c-4.6-0.5-8.2-0.8-11.8-1.2
	c-0.1,0.4-0.3,0.7-0.4,1.1c2.1,1.3,4.2,2.5,6.6,4c-3.2,3.1-6.6,6.3-9.8,9.4c-4.3-3.7-5.3-3.2-9.2,4c1,1,2,2.1,3.5,3.8
	c-4.4,0.3-6.2-1.9-7.2-4.8c-0.5-1.5-1.2-4.2-0.4-4.8c4.1-3.5,6.2-7,1.9-11.7c-0.4-0.4-0.4-1.3-0.4-1.9c0.3-3.7,0.9-7.4-4.6-7.9
	c-0.7-0.1-1.3-2.1-1.9-3.3c-0.5-1.2-1-2.5-1.9-5.2c-0.9,1.5-1.5,2.6-2.1,3.5"/>
<path class="st2" d="M0,451.2c1-0.9,2-1.8,2.4-2.9c0.4-1-0.5-2.6-0.9-4c-0.5,0-1,0-1.5,0"/>
<path class="st2" d="M0,486.4c0.8,0.4,1.5,0.8,2,1.4c1.1,1.3,0.9,3.5,1.8,5.1c0.9,1.6,1.7,2.5,4.6,2.6c5.2,0.3,5.7-5.1,9.5-5.2
	c-0.1-2-0.2-3.6-0.3-5.1c5.4-0.4,8,1.4,6.1,6.4c5.1-1.1,9.9-2.1,14.7-3.1c-2.7-1.2-5.8-0.7-8-1.9c-2.8-1.5-5.8-3.9-6.9-6.6
	c-1.2-3.2,2.6-2,4.2-2.9c1.4-0.8,2.2-2.8,3.2-4.3c-1.5-0.7-3.1-2.2-4.4-2c-2,0.3-3.9,1.7-5.7,2.7c-1.1,0.6-2.2,2.2-3.2,2.1
	c-5.5-0.6-8.4,2.9-11.4,7.5c-0.8-2.6-1.4-4.4-2-6.2c0.5,0.1,1,0.2,1.4,0.3c1.5-2.7,3.8-5.2,4.2-8.1c0.8-4.7,2.9-4.4,5.4-2.5
	c0.7,1.9,2.1,4.4,3,4.2c2-0.4,4.1-1.7,5.3-3.3c0.7-0.9,0.3-3.8-0.7-4.6c-5.1-4-10.5-7.5-16.2-11.4c-2.2,1.2-4.3,2.9-6.7,4.3"/>
<path class="st2" d="M89.7,462.6c0.1-0.6-1.5-2-2.2-1.9c-0.9,0.1-2.1,1.2-2.5,2.1c-0.2,0.5,1.1,1.5,2.2,3
	C88.4,464.4,89.6,463.5,89.7,462.6z"/>
<path class="st2" d="M48.8,432.6C48.8,432.6,48.9,432.6,48.8,432.6C48.9,432.4,48.8,432.5,48.8,432.6z"/>
</svg>
