<?xml version="1.0" encoding="utf-8"?>
<!-- Generator: Adobe Illustrator 25.4.1, SVG Export Plug-In . SVG Version: 6.00 Build 0)  -->
<svg version="1.1" id="레이어_1" xmlns="http://www.w3.org/2000/svg" xmlns:xlink="http://www.w3.org/1999/xlink" x="0px"
	 y="0px" viewBox="0 0 800 800" style="enable-background:new 0 0 800 800;" xml:space="preserve">
<style type="text/css">
	.st0{fill:none;stroke:#FFFFFF;stroke-width:0.5;stroke-miterlimit:10;}
</style>
<g>
	<path class="st0" d="M689.1,238.2c-2.6,3.8-6.8,5.6-10.5,8c-1.9,1.3-3.8,0.3-5.5-0.1c-2.8-0.7-5.4-2.2-8.5-2.5
		c-3.9-0.3-5.8,0.9-4.9,4.5c1.4,5.4,1.1,11.2,4.3,16c1.3,1.9,1.9,4.2,2,6.5c0.7,13.2,9.5,19,20.5,23"/>
	<path class="st0" d="M425,231.2c0.1,4.4-0.5,8.7,2.9,12.6c4.1,4.6,7.6,5.2,12.6,0.9"/>
	<path class="st0" d="M141.3,372c-1.9,4.6-3.4,9.4-3,14.5"/>
	<path class="st0" d="M140.8,276.2c1.2,2.8,1.2,5.5,0.6,8.5c-1.2,5.8-0.4,11.6,0.4,17.5c0.3,2.1,0.3,4.4,1.6,5.9
		c2.3,2.6,1.9,5.6,1.9,8.5"/>
	<path class="st0" d="M641.7,131.9c7.7,4.4,11.5,11.9,15,19.5c1.3,2.8,2,5.9,3.6,8.4c3.5,5.7,5.5,11.8,5.4,18.5"/>
	<path class="st0" d="M470.9,674.6c2.1-3.6,4.5-6.2,9.5-5.7c3.6,0.3,7.3-1,11-1.3c3.4-0.3,6.9-0.4,9.5,2.5"/>
	<path class="st0" d="M292.6,307.6c-7.1-3.7-14.8-3.4-22.5-3.5c-1.9,0-3.1,1.1-4.5,2.1c-7.8,5.4-15.7,7.4-24,1
		c-2.8-2.2-5.3,0.7-8,0.5"/>
	<path class="st0" d="M475.4,58.9c-3.8-7.6-11.1-10.1-18.5-12.4c-1.7-0.5-3.8-1-5.4-0.5c-9.8,3.2-19.8,3.6-30,2.5c-3-0.3-6,0-9,0"/>
	<path class="st0" d="M649.7,543.8c2.3,6.7,4.9,13.2,6.9,20c2.3,7.7,1.1,15.6,0,23.4c-0.4,2.9-1.3,5.7-2,8.5"/>
	<path class="st0" d="M376,540.8c-0.6,0.8-1,2.2-1.8,2.4c-5.6,1.7-7.7,6.3-9.8,11c-1.8,4-3.4,7.5-0.6,12.1c2.4,4-1.1,8.7-6.3,9.9"/>
	<path class="st0" d="M160.8,385.8c2.1,2.3,0.3,4.9,0.6,7.2c1.1,7.1,1.3,14.2,4.2,21.1c1.2,3,1.2,7.7-1.4,10.3
		c-5.4,5.2-3.5,10.8-2.4,16.6c0.5,2.5,1,5,1.5,7.5"/>
	<path class="st0" d="M266.9,469.2c-2.4,4.6-1.1,9.5-1.2,14.2c-0.1,3.9,3.6,5.2,6,6.2c2.7,1.2,4.2,2.9,5.4,5.2"/>
	<path class="st0" d="M639.2,226.7c-1.8-5.2-5.7-9.9-3.5-16"/>
	<path class="st0" d="M241.7,417c1,2.3,2.1,4.6,3,7c0.9,2.6,2.4,5.4-1.5,7c-1.4,0.6-1.7,1.9-1.4,3c1.9,10.7,7.5,17.9,19.5,15.6
		c6-1.2,12.3-0.8,18.5-1.1"/>
	<path class="st0" d="M114.9,381.5c-2.9,3.9-2.7,7.9-1.6,12.5c3.6,14.9-0.2,28.2-9.9,39.9c-0.4,0.5-0.7,1-1,1.5"/>
	<path class="st0" d="M224.7,312.1c-1,7.3-2.1,14.6-2.9,22c-0.2,2-0.5,3.7-2.1,5c-3.2,2.6-3.2,6.3-3,10c0.1,3.1-1.3,6.2-1.6,9
		c-0.6,5.9-3.9,11-3.9,16.9c0,0.5,0.2,1.1,0,1.5c-3.9,7.6-2.8,13.7,5,18c0.7,0.4,1.3,1.1,1,2c-1.4,3.7-0.1,7.7-1.4,11.5
		c-1.2,3.6-3.2,5.8-7.1,6"/>
	<path class="st0" d="M373,535.8c-6.4-6.8-15-5.2-20.3,4.6c-3.9,7.1-9.9,9.6-17.1,10.9"/>
	<path class="st0" d="M332.1,628.2c-2.7,4-6.1,7.2-8.6,11.4c-2.1,3.5-6.6,4.7-10.4,5.4c-6,1.1-12.2,3.6-18.4,0.7c-3-1.4-6-3-9-4.5"
		/>
	<path class="st0" d="M225.2,529.3c-1-3.8-2.1-7.5-2.6-11.5c-0.8-6.6-3.9-12.5-7.8-18c-2.1-3-3.4-6.6-5.1-9.9"/>
	<path class="st0" d="M542.3,273.2c1.2-1,2.3-2.1,3.5-3c3.5-2.5,6.9-2.1,9.4,1.5c2.5,3.6,6.4,5.4,9.3,8.2c5.3,5.2,13.5,8,15.7,16.2"
		/>
	<path class="st0" d="M646.2,337.6c8,7.4,13.2,17,16.1,27.1c1.6,5.5-0.7,12.2-1.7,18.4c-0.9,5.6-1.6,11.5-7.4,15.1
		c-2.5,1.5-0.5,3.9,0,5.9c1.8,8.1,1.9,16-4.5,22.5"/>
	<path class="st0" d="M694.1,220.7c-5.7,0.7-11.6,0.4-16.9,2.2c-9.2,3-14.3,9.9-15,19.8"/>
	<path class="st0" d="M212.2,219.2c1,5,2.1,10,2.9,15c0.5,3.1-0.2,5.6-3.4,7.6c-6.8,4.3-12,10.3-15,17.9"/>
	<path class="st0" d="M332.6,627.2c11.6-1.5,23.3-0.2,35-0.5"/>
	<path class="st0" d="M576.8,648.2c-0.8,4.7,0.5,9.3,0.6,14c0.3,7.8-1.3,15.3-1.6,23"/>
	<path class="st0" d="M399.5,520.8c10.9,1.9,20.6,5.8,28,14.5c1.3,1.6,3.2,1.5,5,1.5c3.3-0.1,6.7-0.2,10-0.2"/>
	<path class="st0" d="M364.5,243.2c-12.3-2.5-24.6-0.8-37-0.5"/>
	<path class="st0" d="M702.6,457.4c-5.7,12.3-6.7,24.5,1,36.5"/>
	<path class="st0" d="M535.8,227.7c2.9,1.5,5.5,2.5,9,1.1c5.5-2,7.8-0.6,11.5,4.3c3.1,4.1,5.5,8.3,7.5,13c2.8,6.3,10.1,7.7,17.4,3.5
		"/>
	<path class="st0" d="M347.6,103.9c0.1,9.4,4.8,15.3,14,16.9c1.6,0.3,3.4-0.3,5-1c5.3-2.2,10.9-2.8,16.5-3.4"/>
	<path class="st0" d="M222.7,606.7c-2.5,0-5,0-7.6,0c1.9,4,3.6,8,5.6,12c3,6,8.6,6.9,14.5,6.9c2.7,0,5.3-0.9,8-1.4"/>
	<path class="st0" d="M216.2,343.6c-4.1-0.6-8-2.6-12.5-1.2c-1.7,0.5-4.1-0.6-5.9-1.4c-5.2-2.2-10.6-3.5-16-5"/>
	<path class="st0" d="M425,343.6c0.3,5.8,1.7,11.4,3,17"/>
	<path class="st0" d="M446.9,387c7.5,1.3,15,2.9,22-1.9c1.2-0.8,3.4-0.4,4.9,0.9"/>
	<path class="st0" d="M171.3,348.1c3.2,2.7,7,4.9,9.3,8.1c3.1,4.3,3,9.6,0.6,14.3c-2.2,4.2-2.4,7.9,0,12.1c2.1,3.6,1.4,7.4-2,9.4
		c-3.2,1.9-3.2,5.5-4.9,8.1c-1.5,2.2-2.7,4.6-4,7"/>
	<path class="st0" d="M164.3,355.1c0.4,5.4,2.4,10.5,3.1,16c0.9,6.3,0.5,11.6-5.6,15"/>
	<path class="st0" d="M154.8,147.8c0.3,7.6-2.6,14.8-2.2,22.5c0.1,2.3,0.8,4.6,0.2,7"/>
	<path class="st0" d="M176.8,150.8c-0.2,10-3.5,19.3-5.5,29"/>
	<path class="st0" d="M428,475.1c5.7,2.8,11.6,1.7,17.5,0.7c2.5-0.5,5-0.2,7.5-0.4"/>
	<path class="st0" d="M246.2,429c9.5,2.4,19.3,3.6,29,5c1,0.1,2,0.3,3,0.5"/>
	<path class="st0" d="M177.8,192.3c-1.9,5.7-3.7,11.4-5.8,17c-1.2,3.3-0.8,7.3-1.2,10.9"/>
	<path class="st0" d="M286.1,313.1c-4.3,2.8-9.2,4.7-14,5.7c-5.2,1.1-10.9,0-15.4-3.7"/>
	<path class="st0" d="M235.2,484.4c1.9,3.3,4.9,6,4.7,10.5c-0.1,1.1,2.3,2.7,3.8,3.4c3.7,1.6,4.3,4.4,4.6,8.1c0.5,5,1.5,10.1,5.3,14
		c1.2,1.2,2.1,2.4,2.5,4c2,10.3,11.1,13.7,18.6,18.3c3.2,1.9,7.5-0.3,11.4-0.5c0.9,0,2-0.1,3-0.3"/>
	<path class="st0" d="M308.6,579.3c-1.4,8.7-1.8,17.3-0.1,26c0.3,1.7,3.1,1.8,2.1,4"/>
	<path class="st0" d="M482.9,391.5c0.7-3.3,2-6.5,2-10c0-1.2,0.5-2.1,1.4-3.1c4.6-5.2,8.2-11.7,16.1-12.9c1.1-0.2,1.8-0.4,2-1.5
		c0.9-4.8,3.9-9.4,0.6-14.5c-1.8-2.7-2.8-5.9-4.1-9c-2.1-5.1-4.6-5.8-9-2.5c-5.8,4.3-10,10.2-13.8,16.1c-2.1,3.2-3.4,7.5-3.4,11.4
		c0,3.3-1.4,6.3-3,7.8c-3.8,3.5-3.2,7.5-3.3,11.7"/>
	<path class="st0" d="M183.8,484.9c0,2.3-0.2,4.7,0,7c0.4,4.5,0.2,9.2,4.4,12.5c1.2,0.9,2,2.5,2.5,4c3.8,10.5,9.8,19.8,15,29.5
		c0.2,0.4,0,1,0,1.5"/>
	<path class="st0" d="M463.9,551.3c0.4,4.6-0.1,9.1-3,13c-2,2.6-0.8,5.7-1,8.5c-0.2,2.8,0,5.7,0,8.5"/>
	<path class="st0" d="M259.2,247.2c1.9,6,0.4,10.1-3.9,13.1c-2.7,1.9-4.7,0.8-6.5-0.7c-1.6-1.4-0.4-3.6,0.5-4.8
		c1.5-1.9,2.1-4.8,4.9-5.6c6.2-1.7,6.8-6.2,5.7-11.5"/>
	<path class="st0" d="M205.2,441.5c1.2,0.9,1.5,2.6,0.9,3.4c-3.7,5.4,0.5,8,3.6,11c2.3,2.2,3.9,4.1,2.1,7.6
		c-1.2,2.2,1.1,4.5,0.9,6.9"/>
	<path class="st0" d="M467.9,273.2c5.6,5.1,3.7,11.6,2.3,17.4c-0.7,2.8-0.4,4.9,0.8,7c1.5,2.5,1.5,5-0.2,6.9
		c-1.3,1.5-0.8,2.7-0.9,4.1c-0.2,2.6,1.3,5.4-2.9,6.7c-2.3,0.7-1.9,4-2,6.3"/>
	<path class="st0" d="M346.1,391.5c-6.6-0.1-13,1.2-18.9,4.1c-5.2,2.5-6.6,7.7-7.5,12.9"/>
	<path class="st0" d="M234.2,321.1c3.7,4.1,3.3,9.8,5.4,14.5c0.2,0.6-0.5,1.7-0.9,2.5c-2.2,3.5-2.8,7.5-3,11.5"/>
	<path class="st0" d="M426.5,80.4c-3.7,0.1-7.4-0.3-11,0.9c-2.3,0.7-4.5-0.2-6.5-1.9c-2-1.7-4.3-3-6.5-4.5"/>
	<path class="st0" d="M209.8,206.8c6.6,0,13.1-0.5,19.1,3.8c2.1,1.5,5.9,0.9,8.9,1.2"/>
	<path class="st0" d="M528.8,500.4c-1.9,1.8-2.1,4-2,6.5c0.3,7.2-0.4,14.3,0.5,21.5"/>
	<path class="st0" d="M498.9,479.9c-1.4,10.1-4.1,19.6-11,27.5"/>
	<path class="st0" d="M602.2,407.5c0.2-9.4,1-18.9-5.5-27"/>
	<path class="st0" d="M367.5,296.6c-4.3,0.1-8.5,0-12.5-1.9c-1.4-0.7-2.8-0.7-4.5,0.3c-3.3,2.1-7.2,3.2-10.4,5.6"/>
	<path class="st0" d="M426.5,257.2c3.9-1,6.8,1.5,10,3c7.1,3.3,14.8,4.7,22.5,5.3c4.7,0.4,5.8,2.3,5.6,6.6
		c-0.3,5.1-0.1,10.3-0.1,15.5"/>
	<path class="st0" d="M620.2,280.6c0.7,5.9-3.5,10.9-2.6,17c0.5,3.2-0.5,6.6-0.9,10"/>
	<path class="st0" d="M471.9,402c5,4.6,5,4.6-2.8,12c2.5,4.3,6.1,7.6,10.3,10.5"/>
	<path class="st0" d="M658.2,614.7c-7.9,1.4-15.9,2.7-24,1.8"/>
	<path class="st0" d="M380.5,328.3c-1.6-0.8-3-1.3-5-0.8c-8.1,2-16.3,3.8-24.5,5.6"/>
	<path class="st0" d="M349.1,735.1c-10.8,8-23.3,5.9-35.5,6"/>
	<path class="st0" d="M235.2,280.6c-0.7,9.1-1.3,18.3-2,27.5"/>
	<path class="st0" d="M288.6,312.6c-1.3,5.1,0.3,10.4-1.4,15.5c-0.8,2.6-2.3,4.4-4.2,5.9c-3.5,2.9-6.2,2.1-9.5-2.5"/>
	<path class="st0" d="M556.3,490.9c-3.2,0.6-5.9-1.2-9-1.5c-6.2-0.6-12,0.8-17.5,3.5"/>
	<path class="st0" d="M549.3,294.1c5.3,0.9,9.6,4.2,14.5,6c6.1,2.2,12.1,3,18-0.5"/>
	<path class="st0" d="M350.6,478.4c-0.1,8.8,4.5,15.2,11,20.4c4.9,3.9,10.2,5.8,16.5,3.1c3.1-1.3,6.3-2.4,9.5-3.5"/>
	<path class="st0" d="M270.2,272.7c-1.5-1.4-2.6-3-5-3.6c-5.1-1.2-6-1.1-8,3.6c-1.7,4.1-3.7,8-4.6,12.5c-0.5,2.3-0.4,4.3,0.1,6.5"/>
	<path class="st0" d="M216.7,591.8c-4-3.1-6.2-8.2-11.9-9.6c-4.5-1.1-8.4-1.7-12,1.7"/>
	<path class="st0" d="M503.9,347.6c-9.7,4.2-13.5,12.5-9.5,21"/>
	<path class="st0" d="M194.3,404c1.2,5.8,1.5,11.4-1,17c-0.9,2.1-0.1,4.4-0.6,6.5c-0.4,1.9-0.5,4.5-4,3.1c-1.5-0.6-3.2,1-5,0.2"/>
	<path class="st0" d="M504.4,163.8c4.2-2.4,9.2-1.6,13.5-3.4c1.8-0.7,3.5,1.3,4.9,2.4c6.5,4.9,13.5,8.9,21.5,10.9"/>
	<path class="st0" d="M190.8,431.5c0,8.9-0.2,17.7-5.5,25.5"/>
	<path class="st0" d="M324.1,335.1c-2.4,10.3-8.7,18.4-15,26.4c-2.5,3.2-7.1,3.8-10,6.7c-0.5,0.5-2.2-0.4-3.4-0.6"/>
	<path class="st0" d="M381,424.5c-1,0.3-2.4,0.4-2.9,1c-5.5,7.3-15,8.3-21.5,13.9"/>
	<path class="st0" d="M389.5,534.3c1.7,7.2,1.8,14.6,2.5,22c0.2,2.8-0.5,4.8-3.4,6.6c-5.8,3.7-12.3,7.1-14.5,14.3
		c-1.5,4.7-4.8,9.4-0.7,14.6c1,1.2,2.1,1.2,3.1,1.9"/>
	<path class="st0" d="M732.1,288.6c8.3,0,16.7,0,25,0"/>
	<path class="st0" d="M346.6,216.7c-8.3,0.7-16.6,1.3-25,2"/>
	<path class="st0" d="M473.4,98.9c-8.5,3.5-16.2,8.6-25,11.5"/>
	<path class="st0" d="M444.4,560.3c0.1,8.5-1.8,17.2,1.9,25.5c0.5,1,0.2,2.6-0.3,4c-2.1,5.2-2.3,10.5-1.1,16"/>
	<path class="st0" d="M409,430.5c-2.6,2.3-6.1,3.9-6.5,8c-6.2,0.9-6.5,0-7.5,9.5"/>
	<path class="st0" d="M311.6,520.3c-0.1,0.7,0.2,1.4-0.5,2c-5.1,4.3-3,9.4-1.6,14.5c1.6,5.6,2.3,11.5,4.5,17"/>
	<path class="st0" d="M373.5,413.5c5-5.9,4.8-7.1,1.6-13.5c-1.9-3.8-5-3.8-7-2.3c-6.4,5-13,2.6-19.6,1.8"/>
	<path class="st0" d="M475.4,448.4c3.7,0.7,7.6,0.9,11.9,3.1c-5.4,7.9-5.3,16.5-4.9,25.3"/>
	<path class="st0" d="M478.4,583.3c0.3,6.2-0.4,12.3,0.4,18.5c0.2,1.8-0.6,3.7-0.9,5.5"/>
	<path class="st0" d="M409.5,152.3c-6.3,1.3-12.6,2.7-19,4c-1.6,0.3-3.3,0.4-5,0.5"/>
	<path class="st0" d="M548.8,189.3c3.3,3.9,5.5,8.4,7.4,13c1,2.3,2.4,4.9,4.2,5.2c5.8,0.9,6,4.9,6.5,9.2c0.1,1.2,0.3,2.3,0.5,3.5"/>
	<path class="st0" d="M154.3,488.4c2.6,7.6,4.9,15.4,5.7,23.5"/>
	<path class="st0" d="M506.4,565.3c-0.2,3.5,0.2,7,1,10.5c1.1,4.6,0.3,8.9-2,13"/>
	<path class="st0" d="M359,351.1c8.4-2.9,15.9,0.3,23.5,3.5"/>
	<path class="st0" d="M304.1,417c0.2,7.9-1.9,15.6-2.5,23.5"/>
	<path class="st0" d="M340.6,740.6c-1.8,7.7-2.9,15.5-2.5,23.5"/>
	<path class="st0" d="M370,379c8.1,5.1,20.2,10.5,27,4"/>
	<path class="st0" d="M651.7,399c-3.8-2-8-2.8-12-4c-5.4-1.6-9.7,0.3-12.4,5.5c-2.3,4.4-4.4,9-6.5,13.5"/>
	<path class="st0" d="M372,36c-0.7,7.8,1.5,15.3,2,23"/>
	<path class="st0" d="M273.2,111.9c-4.1,3.9-8,8.2-13,11c-2,1.1-4,2-6.5,1c-6.4-2.6-11.8-0.2-16.4,4.1c-2.1,1.9-3.9,3-6.6,2.2"/>
	<path class="st0" d="M58.9,318.1c-9.7,6.8-11.8,17.7-15,28"/>
	<path class="st0" d="M495.4,555.3c-3.3,4.7-1.5,10.5-3.4,15.5c-1.5,4-2.1,8.3-3.1,12.5"/>
	<path class="st0" d="M267.7,393.5c-2.8,6.7-3.8,13-0.2,20.1c4.3,8.4,7.8,17.2,14.1,24.4"/>
	<path class="st0" d="M621.2,100.4c-0.1,2.7,0,5.3-0.4,8c-1,5.3,0.8,10,3.4,14.5"/>
	<path class="st0" d="M185.3,286.1c-3.5,2.8-7,5.6-10.5,8.5c-2.5,2.1-3.4,11.4-1.5,15.5c1.5,3.2,3.3,6.3,5,9.5"/>
	<path class="st0" d="M423.5,227.7c-4.9,0.6-9.3,3.9-14.5,3c-0.8-0.1-1.9,0.3-2.5-0.1c-4.2-2.6-8.3-1.9-12.5,0
		c-0.4,0.2-1-0.3-1.5-0.5"/>
	<path class="st0" d="M321.6,490.9c4.6,2.7,9.3,5,14.5,6.6c4,1.2,7.4,0.9,10-2.6"/>
	<path class="st0" d="M407,609.2c-0.6,7.5,0.2,15.2-4,22"/>
	<path class="st0" d="M605.2,287.1c0,7.2,0,14.3,0,21.5"/>
	<path class="st0" d="M251.7,543.3c5.5,2.1,10,4.7,11.3,11.4c0.4,2.1,4.2,4.5,7.6,4.6"/>
	<path class="st0" d="M231.2,355.1c0.7,1.2,1.2,2.5,1,4c-0.6,4.4,0.4,8.5,3.1,11.9c1.5,1.9,0.5,3.7,0.9,5.6"/>
	<path class="st0" d="M509.9,627.2c3,6.8,4,14.1,4,21.5"/>
	<path class="st0" d="M66.9,479.9c0.5,10.3,7.1,17,14,23.5c0.7,0.6,1.7,1,2.5,1.5"/>
	<path class="st0" d="M557.3,404.5c5.8-0.2,11.7-0.4,17.5-0.5c2.9,0,4.2-2.7,6.5-3.5"/>
	<path class="st0" d="M627.2,432c1.5,5,1.8,10.5,6.5,14"/>
	<path class="st0" d="M148.3,569.3c7.4-0.4,14.4,1.2,21,4.5"/>
	<path class="st0" d="M437,385.5c-0.2,7-0.3,14-0.5,21"/>
	<path class="st0" d="M238.7,324.1c3,0.8,5.9,1.9,9,2.5c4.6,0.9,7.7,3.3,9.5,7.5"/>
	<path class="st0" d="M301.1,175.3c3.2,8.1,10.5,12.4,16.5,18"/>
	<path class="st0" d="M716.6,476.4c0.3,6.9,2,13.6,3,20.5"/>
	<path class="st0" d="M197.8,391.5c-0.4,5,0.7,9,4.8,12.7c3.1,2.8,5.2,7,5.8,11.8c0.5,3.7,2.5,6.9,6.3,8.6c1.5,0.7,2.9,2.1,4,3.5
		c2.2,2.9,4.6,3,7.5,1.5"/>
	<path class="st0" d="M60.4,441c-5.6,6.6-13.3,4.6-20.5,5"/>
	<path class="st0" d="M236.2,428c-2.9,3.9-4.5,7.8-2.7,13c1.5,4.2,2.1,8.7,5.6,12c0.7,0.7,0.9,2.1,1,3.2c0.6,4.8,2.7,8.5,7,10.7"/>
	<path class="st0" d="M452.4,460.4c-0.3-1.3-0.7-2.7-1-4c-0.8-3.4-1.7-6.4-5.4-8.1c-2-0.9-3.4-3.2-5-4.9"/>
	<path class="st0" d="M355.6,369.5c-6.5-2.3-13.3-1.1-20-1.8"/>
	<path class="st0" d="M300.6,72.4c0.7,6.6,1.2,13.2,3.5,19.5"/>
	<path class="st0" d="M383,435.5c-4.7,7.9-14.2,11.8-24,10"/>
	<path class="st0" d="M430.5,265.7c1.6,3.4,1.9,6.4-2.5,8.1c-1.1,0.4-1.8,1.8-3,3c-1.8-0.6-3.9-1.4-6-2.1"/>
	<path class="st0" d="M590.2,353.6c2.5,0,5.1,0.1,6.9-1.6c2-1.8,4.5-2.4,6.4-4c5.8,2.1,6.4,7.2,7.6,12c0.2,0.9,0.3,2.5-0.3,2.9
		c-5,4-2.5,8.3-0.7,12.6"/>
	<path class="st0" d="M213.7,359c-10.5-4.5-21.4-4.2-32.5-3"/>
	<path class="st0" d="M445.9,585.3c-4.5,1-9,2-13.5,3c-1,0.2-2.4,0.8-2.9,0.4c-5.1-4.5-9.5-1-14.1,1c-1.8,0.8-3.6,1.5-5,3"/>
	<path class="st0" d="M596.7,371.5c0,2.4,0.6,6.4-1.5,6.7c-3.9,0.5-8.3,3.2-11.8,0.6c-2.5-1.8-4.9-3.1-7.7-3.7
		c-4.4-0.9-6.9-3.6-8.5-7.6"/>
	<path class="st0" d="M616.7,460.4c-2.7,6.1-1.5,12.3-0.5,18.5"/>
	<path class="st0" d="M560.8,389.5c3.2,3.8,7.5,4.3,12,4.5c2.2,0.1,4.3,0.6,6.5,1"/>
	<path class="st0" d="M52.5,323.1c-6.2-0.8-12.2-2.2-18.5-2.2"/>
	<path class="st0" d="M482.4,563.3c-0.1,6.3-1.2,12.4-2.5,18.5"/>
	<path class="st0" d="M589.8,416.5c-6.2,4.5-5.8,11.5-6.5,18"/>
	<path class="st0" d="M471.4,73.4c-6-0.1-12-0.2-18-0.2"/>
	<path class="st0" d="M361,561.3c-3.8,1.6-7.2,3.6-10.1,6.9c-4,4.6-4.6,9.5-3.4,15.1"/>
	<path class="st0" d="M442.9,490.9c-2-1.4-4.1-2.4-6.5-2.5c-3.9-0.2-6.3,2.1-6,6c0.1,1.2,0.7,2.4,0.4,3.5c-0.7,2.4-1.2,5.1,1.1,6.4
		c2,1.1,3.8-1,5.4-2.4"/>
	<path class="st0" d="M242.7,350.1c-4.4-0.8-8.1-0.2-12.2,2.7c-3.4,2.5-8.7,2.6-13.3,1.3"/>
	<path class="st0" d="M466.4,496.4c-7.8,0-12.2,2.6-14.5,8.5"/>
	<path class="st0" d="M472.9,479.4c-0.4,6-1.9,11.5-5.3,16.6c-1.5,2.3-1.4,5.9-1.6,8.9c-0.5,5.8-4.2,9-9.5,7.7"/>
	<path class="st0" d="M412,355.6c-1.8,6-1,12-0.5,18"/>
	<path class="st0" d="M455.4,623.2c-0.6-3.2-2-5.9-4.4-7.9c-4.3,0.8-7.5,5.5-12.6,3.2"/>
	<path class="st0" d="M302.1,336.6c-1.6,3-4.3,4.2-7.5,3.4c-2.4-0.6-3.6,0.8-5,2c-2.7,2.4-4.8,5.2-9.5,5.4c-3.6,0.1-6,4.6-8.2,7.8
		c-2.2-1-4.5-2-6.2-0.5c-1.9,1.8-0.9,4.5-0.5,6.9c0.1,0.9,0.9,1.7,1.5,2.5c1.5,2,2.2,4.2,3,6.5"/>
	<path class="st0" d="M455.9,477.9c-3,5-6.5,9.2-11.3,12.7c-2.9,2.1-4.6,6.4-5.7,10.2"/>
	<path class="st0" d="M358.5,600.2c-2.8,0.1-5.6-0.4-8,1.9c-2.7,2.6-6.3,0.5-9.4,1.1"/>
	<path class="st0" d="M472.9,583.8c-1.9,5.7-2.6,11.5-1.5,17.5"/>
	<path class="st0" d="M766,311.9c-6,0.7-11.8,2.2-17.5,4.2"/>
	<path class="st0" d="M497.4,651.7c-3.8,0.8-2.8,4-2.3,6c0.9,3.3,1.8,6.6,2.3,10"/>
	<path class="st0" d="M389.5,339.1c-0.8,4.5-3.7,6.7-8,7.5c-2,0.4-4,1-6,1.5"/>
	<path class="st0" d="M715.6,451.4c0.2,5.7,0.3,11.3,0.5,17"/>
	<path class="st0" d="M586.8,317.1c-3.3,3.2-7.7,4.3-11.5,6.5c-2.4,1.4-4.3-0.7-6.5-0.6c-1.8,0.1-3.7,0-5.5,0"/>
	<path class="st0" d="M374.5,607.2c-1.7,5.5-2,11.2-2,17"/>
	<path class="st0" d="M459.4,473.4c-0.5-1.5-1-3-1.5-4.5c-2.3-6.8-3.9-7.9-11-8.5c-4.2-0.4-8.3-1.7-12.5-0.5c0.7,5.4,0.7,10.9,3,16"
		/>
	<path class="st0" d="M405.5,579.3c-3.6-0.1-6.8,1-9.5,3.5c-1.9,1.7-4.3,2.7-7,1.5"/>
	<path class="st0" d="M498.4,450.4c2.5,0.9,3.1,3.1,2.4,5c-1.5,4.1,0.5,7.2,2.1,10.5"/>
	<path class="st0" d="M399,310.1c2.8,0.9,5.6,1.7,6.5,5c1.5,5.5-1.2,8.6-7.5,8.5c-3.3-0.1-5.4-2-6.5-5"/>
	<path class="st0" d="M239.7,478.9c3.3-0.3,6,1.8,8.9,2.7c3.9,1.2,3.9,5.6,2.8,8.2c-1.4,3.3-2.1,7.1-4.2,10.1"/>
	<path class="st0" d="M441.5,224.2c-5.5-0.5-11-1.5-16.5,0.5"/>
	<path class="st0" d="M178.8,252.7c-2.5,1.9-3.4,4.2-2.6,7.5c1.7,6.6,4.7,11.7,12.1,13c1.4,0.2,2.7,1,4,1.5"/>
	<path class="st0" d="M346.1,382c-5.5-0.5-10.9-2.6-16.5-1"/>
	<path class="st0" d="M231.2,393c-3.5,4.9-3.7,10-1.5,15.5c1.6,4.1,0.7,5.6-3.5,6.5"/>
	<path class="st0" d="M296.6,508.4c3.4,2.6,7.3,4.3,9.7,8.4c1.5,2.5,5.1,2.9,8.3,2.6"/>
	<path class="st0" d="M549.8,470.4c-5.3,1.2-10.8,0.5-16,2.5"/>
	<path class="st0" d="M611.7,381.5c-2,5.3-4,10.6-6,16"/>
	<path class="st0" d="M541.3,273.9c-0.9,0.6-2.1,0.2-3,1.2c-3.2,3.2-7.3,3.5-11.4,2.9c-2.2-0.3-3.9-0.9-4,2.1"/>
	<path class="st0" d="M305.6,517.8c-4.3,4.3-9.6,5.3-14.9,2.8c-2.9-1.4-4.6-0.1-5.4,1.3c-1.2,2.1-2.1,4.8-0.7,7.4
		c1.4,2.5,4,4.9,4.3,7.5c0.9,8.8,7.7,13.6,12.2,20"/>
	<path class="st0" d="M317.1,467.9c-4.1,2.4-8.4,4.1-12.9,1.9c-1.9-0.9-2.1,0.5-3,1.1"/>
	<path class="st0" d="M280.7,267.7c-6.4,4.5-14.8,6.9-16,16.5c-0.2,1.7-1,3.3-1.5,5"/>
	<path class="st0" d="M514.3,657.2c0.4,5.5-0.3,10.9-2.5,16"/>
	<path class="st0" d="M526.3,353.6c0,5.6,1.5,11.5-3.5,16"/>
	<path class="st0" d="M263.7,253.2c4.2,2.9,8.7,4.7,14,4c3.3-0.4,6.6-0.2,10-0.3"/>
	<path class="st0" d="M545.8,720.6c-0.8,5.2-3.2,10.1-2.5,15.5"/>
	<path class="st0" d="M506.4,685.6c-5.1,1.7-10.1,3.5-15.5,4"/>
	<path class="st0" d="M422.5,621.2c-1.7,6.7-8.2,7-13,9.5"/>
	<path class="st0" d="M571.8,307.1c-4.2,4.7-3.1,10.1-2,15.5"/>
	<path class="st0" d="M235.2,227.7c-1.8,4-5.9,3.2-9,3.8c-2.8,0.5-5.6,1.1-8.4,1.7"/>
	<path class="st0" d="M292.6,405.7c-4.2,0.6-8.6,4-12.3,1.9c-2.7-1.5-3.8,0-5.7,0.3"/>
	<path class="st0" d="M421,441c-2.5-1.2-4.9-2.5-7.6-3.8c-2,2-4.6,2.9-4.8,6.8c-0.3,4.7-5.8,7.1-11,5.4c-3.8-1.2-6.8-1-10.1,1.4
		c-1.2,0.9-3.1,1.8-4.9,2.2"/>
	<path class="st0" d="M315.1,652.2c3.7,3.6,7.6,7.2,7.5,13"/>
	<path class="st0" d="M444.7,425.5c-1.4,1.4-2.1,2-4.2,2c-5.8,0-9.5,3.2-11.4,8.1c-1.8,4.7-5.5,7.9-7.9,12c0.7,3.6,2.1,6.7,6.3,8
		c2,0.6,3.7,2.2,5.5,3.4"/>
	<path class="st0" d="M434.5,638.7c-4.2,3.7-8.3,7.3-12.5,11"/>
	<path class="st0" d="M638.2,535.8c-5,0.3-9.9,2.1-15,1.5"/>
	<path class="st0" d="M299.1,340.6c1.8,7.1,6.1,8.6,11,4"/>
	<path class="st0" d="M293.6,293.1c-1.7-1.2-3.4-2.2-5-3.5c-4.7-4-9.5-4-14.5-0.5c-1.2,0.9-2.4,1.9-4,1.5c-4.3-1.1-8.3,0.2-12.5,0.7
		c-4.5,0.5-7.3,2.4-10,5.3c-2.1,2.4-4.3,4.7-6.5,7"/>
	<path class="st0" d="M558.8,357.1c-1.8,0.8-3.7,1.7-4.5,3.5c-1.8,4-5.2,4.9-9,5.5"/>
	<path class="st0" d="M375.3,416.5c-1.5-4-4.6-3.6-7.2-1.9c-5.9,3.8-12.9,5.1-19,8.4"/>
	<path class="st0" d="M457.9,272.7c-4.8,0-9.6,0-14.5,0"/>
	<path class="st0" d="M362,455.9c4.6,2.5,9.6,1.4,14.5,1.5"/>
	<path class="st0" d="M310.1,264.2c-4-1.5-8.2-1.9-12.5-1.5c-0.9,0.1-2.3,0.8-2.7-1"/>
	<path class="st0" d="M326.4,504.4c-3,5.4-1.5,11.3-1.8,17"/>
	<path class="st0" d="M384,680.6c6.2,6,5.1,14,6,21.5"/>
	<path class="st0" d="M343.6,497.9c0.8,2.3,0.6,4.9,3,6.5c1.9,1.2,0.7,3.3,1,5c0.2,1.3-0.7,3.4,2,3"/>
	<path class="st0" d="M346.6,627.2c1.7,4.7,3.3,9.3,5,14"/>
	<path class="st0" d="M449.9,361.5c1.6,4.7-0.1,9.3-0.5,14"/>
	<path class="st0" d="M568.8,372c-2.8,1.1-4.5,3-5.6,6c-2.2,6-6.2,10.6-11.9,13.5c-2.4,1.2-5,0-7.5,0.5"/>
	<path class="st0" d="M496.9,112.9c0.3,1.2,1.2,2.5,0.9,3.5c-1.2,3.5-0.5,7-0.4,10.5"/>
	<path class="st0" d="M305.6,506.4c3.1,1.7,5.5,0.6,8-1.5c1.8-1.4,3.7-1.6,6-0.6c5.5,2.4,11.8,2.5,17,6c1.3,0.9,2.2,1.5,1.9,3.1"/>
	<path class="st0" d="M545.8,292.6c-0.7-4.3-4-3.4-6.5-2.9c-3.4,0.7-5.1,3.2-4.5,6.9"/>
	<path class="st0" d="M441.5,442c1.5-1.4,2.9-2.7,4.4-4.1c2.3,2.3,6.3,0.9,8.1,4.1"/>
	<path class="st0" d="M562.8,381c4.3,2.7,8.7,5.3,13,8"/>
	<path class="st0" d="M390.5,395.5c-5.3-1.2-10.6-3.6-16-0.5c-0.5,0.3-0.7,1.3-1,2"/>
	<path class="st0" d="M421,398c-1.2,2-2.3,4-3.5,6c-1.6,2.8-1.1,5.1,1.5,7"/>
	<path class="st0" d="M623.7,435c-2.4,3.6-5.4,6-9.3,8.3c-5.6,3.3-8.3,9.7-9.7,16.2"/>
	<path class="st0" d="M393.5,401.5c-1.4,0-3.2-0.4-3,2c0.1,1.4-0.8,3.1,1.9,3.7c1.4,0.3,3.1,0.7,4.5,1.3"/>
	<path class="st0" d="M381.5,457.4c0.5,4.1-0.9,7.3-4.5,9.5c-1.3,0.8-2.4,2-3.5,3"/>
	<path class="st0" d="M222.2,488.9c1-0.7,2.1-1.2,3-2c3.8-3.7,3.4-5.9-1.5-8.5"/>
	<path class="st0" d="M266.7,505.4c-1.8-0.9-3.4-0.7-4.5,1c-1.4,2.2-0.2,4.5,0.6,6.4c1.3,2.9,5,3.2,7.4,5"/>
	<path class="st0" d="M482.9,285.6c-0.1,5.8-4.3,8.7-8.5,11.5"/>
	<path class="st0" d="M438,568.3c-6.9-6-15.9-4.1-19.2,4"/>
	<path class="st0" d="M237.7,393.5c0.8,4.4-0.3,9.4,3.5,13"/>
	<path class="st0" d="M420,267.7c0,3.5-0.7,6.5-3.5,9c-5.2,4.6-4.6,8.4,1.5,12.5"/>
	<path class="st0" d="M504.9,520.8c-1.3,4.1-1,8.3-1,12.5"/>
	<path class="st0" d="M582.8,359.5c0.5,1.7,1.4,3.9-0.1,4.9c-3.7,2.5-3,5.7-2.4,9.1c0.1,0.8,0,1.7,0,2.5"/>
	<path class="st0" d="M424,682.1c0,0.2,0,0.3,0,0.5c-2.6,7.3-2.3,14,4,19.5"/>
	<path class="st0" d="M387,665.7c-4-2.2-8.3-1.4-12.5-1.5"/>
	<path class="st0" d="M346.1,575.8c-4.3-1-8.4-0.5-12.5,1"/>
	<path class="st0" d="M420.5,504.4c-4.2,0.3-8.4-0.6-12.5,0.5"/>
	<path class="st0" d="M229.2,415c3.2,6.4,7.2,12.1,13.2,16.2"/>
	<path class="st0" d="M260.7,53c-0.2,4.6,2.9,8,4.5,12"/>
	<path class="st0" d="M495.4,302.9c-3.8,2.9-2.3,7.1-2.4,10.7c-0.1,3.3-0.1,6.2-3.1,8.5c-2.3,1.8-3.5,4.4-3.5,7.4"/>
	<path class="st0" d="M373,382.5c-1,4.3,2,7.9,2,12"/>
	<path class="st0" d="M222.7,431.5c0,2.2,0.1,4.3,0,6.5c-0.1,2.2-1.8,4.8,0.6,6.4c2.3,1.5,4.4,4.2,7.9,3.1c0.9-0.3,2,0,3,0"/>
	<path class="st0" d="M421,546.3c-2.2,3.5-8,4.4-7.5,10"/>
	<path class="st0" d="M291.1,408c2.6,3.7,4.1,7.5,2,12"/>
	<path class="st0" d="M426,414c-2.1-0.3-4.4-1.5-6,1c-1.9,3.1-5.9,5-5.6,9.5c0.2,2.5,2.2,2.8,3.6,4"/>
	<path class="st0" d="M523.3,344.6c-1.6,1.5-2.2,3.7-4.9,4.7c-3.6,1.5-2,6.1-3.1,9.2"/>
	<path class="st0" d="M573.3,509.4c-4.3-2-8.2,1.5-12.5,1.4c-0.3-4.9,3.4-8.1,3.5-12.4"/>
	<path class="st0" d="M427.5,301.6c1.5,5.5,5.5,8.8,10.5,11"/>
	<path class="st0" d="M556.3,510.9c-0.3,3.8-1.4,7.6-1,11.5"/>
	<path class="st0" d="M451.9,281.1c-3.7-1.6-7.7-0.5-11.5-1.5"/>
	<path class="st0" d="M658.7,393.5c3.8,0.2,7.7-0.5,11.5,0.5"/>
	<path class="st0" d="M271.2,320.1c-1.4,4.4-3.2,8.3-8,10"/>
	<path class="st0" d="M533.8,381.5c-0.9,4-4.2,7.2-4.5,11.5"/>
	<path class="st0" d="M255.2,529.8c-2,1.3-4,2.7-6,4c-4.4-1.4-7.7-3.9-7.9-9"/>
	<path class="st0" d="M477.9,496.4c2.2,1.6,3.2,4.3,1.4,5.8c-2.1,1.8-2.5,6.8-7.4,4.8c-1.6-0.6-3.6-0.1-5.5-0.1"/>
	<path class="st0" d="M294.1,510.9c-1.7-1.4-3.1-1.5-5.5,0.1c-1.9,1.3-3.9,1.6-6,1.4"/>
	<path class="st0" d="M391,562.3c2.2,2.1,4,4.8,7.5,5c1.6,0.1,2.8,1.2,2.9,2.5c0.5,4.4,4.1,7.2,5.6,11"/>
	<path class="st0" d="M207.8,430.5c2.3,0.4,2.9,3.7,2.8,3.9c-1.6,3.9,2,5.6,3.3,8c2.5,4.7,3.8,4.6,8.4,1.5"/>
	<path class="st0" d="M243.7,61.9c0.2,4,1.6,7.6,3.5,11"/>
	<path class="st0" d="M347.6,254.7c-3.8,0.5-7.4-0.6-11-1.5"/>
	<path class="st0" d="M321.9,524.3c0.8-0.9,1.7-1.9,2.6-2.9c3.8,2.2,7.8,3.7,7.7,8.9"/>
	<path class="st0" d="M519.3,391c2,0.5,3.8,1.7,6,1.5c3.9-0.4,5.9,2.1,5.8,5.5c-0.1,3.6,1.8,5.9,3.6,8.5"/>
	<path class="st0" d="M145.3,199.8c-0.6,3.6-1.3,7.3-1,11"/>
	<path class="st0" d="M497.4,457.9c-3-2.9-7.2-3.7-10.5-6"/>
	<path class="st0" d="M564.8,558.3c-0.8,3.9-2.3,7.4-5.5,10c-1,0.8-2,0.5-3,0.2"/>
	<path class="st0" d="M554.8,368c3.5,1.8,7,3.7,10.5,5.5"/>
	<path class="st0" d="M399,356.6c2.7-5.3,1.9-7-3.5-7.5"/>
	<path class="st0" d="M593.8,281.6c1.3,3.5,2.7,7,4,10.5"/>
	<path class="st0" d="M428,402.5c-0.4,2.2-0.7,4.2-0.1,6.5c0.4,1.5,0.9,3.5-1.3,5.1c-2.4,1.7-0.3,5-1.6,7.4"/>
	<path class="st0" d="M430.5,462.9c-2.4,2.6-6,3.4-8.6,5.9c-1.1,1-3.7,0.3-5.4-0.8c-1.1-0.8-1.1-1.9-1-3c0.2-2.4,2.6-2,4-3"/>
	<path class="st0" d="M373,503.9c-0.6,4.3-2.9,7.4-7,9"/>
	<path class="st0" d="M110.9,388.5c-3.4-0.2-6.5-2-10-1.5"/>
	<path class="st0" d="M510.4,501.9c-3.3,0.8-6.7,1.7-10,2.5"/>
	<path class="st0" d="M529.3,374.5c-4.8,5.1-11,3.8-17,4"/>
	<path class="st0" d="M478.4,322.6c-2.1,1.6-5.5,0.4-7.1,3.5c-0.5,1-0.1,1.7-0.4,2.5"/>
	<path class="st0" d="M386.5,222.2c-4.7-3.9-8.9-0.7-12.4,1.7c-3.3,2.2-5.9,4.6-10.1,2.8c-0.1-0.1-0.4-0.1-0.5,0
		c-4.6,3.4-7.7,0.1-11-2.5"/>
	<path class="st0" d="M595.8,458.4c0.2,1.3,1,3.2,0.4,3.9c-3.9,4.8-1.2,10.5-2.3,15.6c-0.9,4,2.3,6.8,4.9,9.5"/>
	<path class="st0" d="M458.9,451.9c1-1.9,1.9-3.7,3.1-5.9c3.9,1,7.9,2.1,12.1,3.2c1-2.8,1.6-5.1,0.4-7.9c-0.8-1.9-1.2-4.5,1.9-5.5"
		/>
	<path class="st0" d="M244.7,377.5c-1.5,0-3.2,0.5-4.4-0.1c-2.8-1.2-4.7-1.4-6.6,1.5c-2.3,3.5-2.2,7.1-0.3,10.5
		c1.4,2.4,3.6,3.8,6.9,2.7c1.1-0.4,2.7-1.1,4.5-0.3c1.7,0.8,3.4-0.4,4.5-2.3c0.6-1,0.5-2.7,1-2.9c5.2-3.2,4.6-7.8,3.4-12.6
		c-0.6-2.4,2.1-3.2,2-5.2"/>
	<path class="st0" d="M381.5,329.1c1.2,1.4,3.2,2.1,4,4c1.9,4.3,5.2,6.2,10,5.5"/>
	<path class="st0" d="M389,687.1c3.1,0.5,6.5-1.1,9.5,1"/>
	<path class="st0" d="M482.4,332.6c0.6,4-3.5,2.9-5.1,4.3c-1.9,1.6-6.2,0.6-6.6,3.7c-0.5,3.5,0.6,7.2,3.3,10"/>
	<path class="st0" d="M560.3,342.6c-2.7,1.2-6.3,1.1-7,5c-0.7-0.2-1.3-0.3-2-0.5"/>
	<path class="st0" d="M595.8,520.8c1.3,3.7,3.5,6.9,6.5,9.5"/>
	<path class="st0" d="M504.9,426c-3.2-0.4-6.3-0.4-7.5,3.5"/>
	<path class="st0" d="M441.5,233.7c-3.3,2.6-6.3-0.5-9.5-0.5"/>
	<path class="st0" d="M300.6,536.3c-3.2,0.1-6.6-0.6-9.5,1.5"/>
	<path class="st0" d="M443.4,677.6c-3.3-1.3-6.4,0-9.5,1"/>
	<path class="st0" d="M393,237.2c1.3,1.6,3,2,5,2c7.1,0,7.9-0.4,7.5,7.5"/>
	<path class="st0" d="M275.2,543.8c-1.2,3.4,0.6,6.4,1.5,9.5"/>
	<path class="st0" d="M542.3,260.2c3.7,1.5,5.4,4.7,7,8"/>
	<path class="st0" d="M698.6,227.2c3.2,0,6.3,0,9.5,0"/>
	<path class="st0" d="M574.8,482.4c-1.5,3.8-4.5,6.5-7,9.5"/>
	<path class="st0" d="M491.4,299.1c-4,0.6-6.1,4.8-10,5.5"/>
	<path class="st0" d="M298.6,473.4c-0.6,1.5-0.9,2.9,0,4.5c1,1.9,1.2,4.4,0.4,5.9c-1.8,3.1,0.3,3.6,2.2,4.6c2.3,1.2,4.7,2.3,7,3.5"
		/>
	<path class="st0" d="M529.3,173.3c-2.9,1.2-6,1-9,1"/>
	<path class="st0" d="M280.2,316.6c-0.8,3-1.7,6-2.5,9"/>
	<path class="st0" d="M359.5,591.8c0.2,3.8,0,7.6,0.8,11.5c0.6,3.1-0.8,6.5-2.5,9.5"/>
	<path class="st0" d="M112.4,351.6c-2.2,2.8-4.4,5.3-8.5,4.5"/>
	<path class="st0" d="M299.6,488.4c-0.8,3,2,6.1-0.5,9"/>
	<path class="st0" d="M327.1,599.2c-1.2,2.9-1,6-1,9"/>
	<path class="st0" d="M393,586.3c3.6,2.1,0.9,6.4,3,9"/>
	<path class="st0" d="M394.5,566.8c-1.5,3-3,6-4.5,9"/>
	<path class="st0" d="M193.8,438c5.2,3.1,10.6,3.6,16,0.5"/>
	<path class="st0" d="M580.8,453.4c1.2,3.2-1.3,5.9-1,9"/>
	<path class="st0" d="M455.4,547.3c-0.6,0.5-1.4,1.2-1,2c1.5,2.6,1.3,5.3,0.5,8"/>
	<path class="st0" d="M214.2,542.8c1.2,1.2,2.2,2.9,4,2.9c4.6,0.1,6.8,3,8.5,6.6"/>
	<path class="st0" d="M314.1,472.4c-4.4,5.2-3.5,10.8-1,16.5"/>
	<path class="st0" d="M393.5,246.2c3.3-0.2,6.2,1,9,2.5"/>
	<path class="st0" d="M590.8,514.3c-3.1,2.7-5.7,6-6.4,10c-0.5,2.8-2.7,3.7-4.2,5.4c-1.5,1.7-2.7,3.7-3.9,5.6"/>
	<path class="st0" d="M494.9,439c-1.9,2.4-5.8,3.1-5.2,7.5c0.1,1.1-2.4,2.6-3.8,4"/>
	<path class="st0" d="M422.5,319.6c0.1-3.7-2.2-5.8-5-7.5"/>
	<path class="st0" d="M434.5,332.6c-2.4,1.8-5,2.9-8,1.5"/>
	<path class="st0" d="M486.4,426c-0.3,5.5-2.5,11.4,3.5,15.5"/>
	<path class="st0" d="M414.5,277.7c-3.4-0.5-4.6-4.5-8-5"/>
	<path class="st0" d="M536.3,327.1c-4.1,3.5-4.2,6.2,0,8.4c2.1,1.1,4.2,2.2,5.9,3.8"/>
	<path class="st0" d="M326.1,483.4c-0.7,0.7-1.4,1.3-2,2c-2.5,3.5-4.3,7.2-10.1,4.2c-3.4-1.7-6.9,2.7-6.6,7.2"/>
	<path class="st0" d="M500.9,398.5c0.1,3.5,3.5,4.7,5,7.2"/>
	<path class="st0" d="M454.9,416.5c-0.3,3.5-3,6.9,0.4,10.6c1.5,1.6-1.3,4.1-0.9,6.4"/>
	<path class="st0" d="M218.7,537.3c1.5,0,3,0,4.5,0c-0.2,3.3,0.3,6.2-0.5,9"/>
	<path class="st0" d="M192.8,367c2.8,0.7,5,2.9,8,3"/>
	<path class="st0" d="M492.4,533.8c-3.6-0.6-4.2,1.8-4.5,4.5"/>
	<path class="st0" d="M311.1,395.5c-0.6,2.9,2,5.1,1.5,8"/>
	<path class="st0" d="M267.2,506.4c2.1,1.7,3.2,4.2,4.4,6.5c0.8,1.5,1.8,1.5,3.1,1.5"/>
	<path class="st0" d="M452.9,424.5c-2.5,0.8-5,1.7-7.5,2.5"/>
	<path class="st0" d="M392,322.1c-2.5,1-5,2-7.5,3"/>
	<path class="st0" d="M290.1,487.9c-1.2,6,2,9.3,7,11.5"/>
	<path class="st0" d="M192.3,248.2c-2.2-1.8-4.6-2.7-7.5-2.5"/>
	<path class="st0" d="M464.9,316.6c-0.3,0-0.7,0-1,0c-5.9-0.6-8.8,1.4-6,9"/>
	<path class="st0" d="M204.8,562.3c0.7,5.5-1.2,10.2-4.5,14.5"/>
	<path class="st0" d="M677.1,247.2c-0.3,2.5-0.7,5-1,7.5"/>
	<path class="st0" d="M510.4,404c-4,1-6.3,4.3-9,7c-1.5,1.5-2.8,2.7-5,1.5"/>
	<path class="st0" d="M521.3,369.5c1.8,2.4,1.5,5.2,1.5,8"/>
	<path class="st0" d="M514.8,371c-3.7,4.1-4.4,9.2-4.5,14.5"/>
	<path class="st0" d="M340.1,515.3c2.2,2,3.1,4.8,4,7.5c1.5,0,3,0,4.5,0"/>
	<path class="st0" d="M282.1,468.4c0.2,2.3,0.3,4.7,0.5,7"/>
	<path class="st0" d="M378.5,521.8c-2.4-0.2-4.5-1.5-7-1"/>
	<path class="st0" d="M340.1,533.1c-0.7,2.8-1.3,5.5-2,8.2"/>
	<path class="st0" d="M391.8,243.7c0.2,1,2,1.7,0.7,3c-2.9,3-2.5,6.8-2.5,10.5"/>
	<path class="st0" d="M599.7,328.6c0.2,2.4,1.5,4.5,1,7"/>
	<path class="st0" d="M401,399.5c-1,2.9,0,6.3-3.3,8.8c-1,0.7,0.8,5,1.3,7.7"/>
	<path class="st0" d="M385,263.7c-0.4-3.7,2-5.8,5-5.8c2.1,0,5.4,1,5,4.8"/>
	<path class="st0" d="M321.1,413.5c0.5,2.5-0.9,4.6-1,7"/>
	<path class="st0" d="M513.8,395.5c0.3,3.3-1.3,7.4,3.5,9"/>
	<path class="st0" d="M154.3,203.8c0.1,2.4,1.5,4.5,1,7"/>
	<path class="st0" d="M381,210.8c-1.9,1.8-4.5,0.3-6.5,1.5"/>
	<path class="st0" d="M297.1,370c-1.8,2-4.1,2.1-6.5,2"/>
	<path class="st0" d="M640.7,344.1c-0.4,2.1-1.4,4.2-1,6.5"/>
	<path class="st0" d="M537.3,393c-2.2,0.7-4.3,1.3-6.5,2"/>
	<path class="st0" d="M176.8,411c-2.3-0.4-4.3,0.6-6.5,1"/>
	<path class="st0" d="M435,411c-1.9,1.6-4.2,1.8-6.5,2"/>
	<path class="st0" d="M499.4,413.5c1.3,2,2.7,4,4,6"/>
	<path class="st0" d="M460.9,353.1c0.8,2.2,1.7,4.3,2.5,6.5"/>
	<path class="st0" d="M416.5,305.6c-3,2.3-2.8,4.4,0.2,6.5"/>
	<path class="st0" d="M428,304.6c-2.2,1.2-4.3,0.1-6.5,0"/>
	<path class="st0" d="M434.5,550.3c-1.5-3.5-4.4-2.1-7-2"/>
	<path class="st0" d="M509.4,322.6c-0.4,2.7-3.1,2.3-4.6,2.8c-4.9,1.9-7.3,4.9-6.9,10.1"/>
	<path class="st0" d="M490.4,409.5c-2.7-0.8-3.6,2.7-6,2.5"/>
	<path class="st0" d="M464.4,438c-2.5,2.1-4.9,3.7-8.5,3.7c-3.5,0-3.3,4.2-5,6.3"/>
	<path class="st0" d="M410.5,332.1c-2.2,2.4-5.2,4.2-5.6,8c-0.1,1.6-1.5,2.8-3.4,2.5"/>
	<path class="st0" d="M399,328.6c-1.4,5,2.3,6.8,5.5,9"/>
	<path class="st0" d="M418,323.6c0.7,2.3-3.6,4.2-0.5,6.7"/>
	<path class="st0" d="M423,599.2c0,2,0,4,0,6"/>
	<path class="st0" d="M420,333.1c4.4,3.2,5.1,3,7-2"/>
	<path class="st0" d="M380.5,200.3c-1.5,2.3-3.8,2.1-6,2"/>
	<path class="st0" d="M390,408c-1.7,1.5-3.3,3-5,4.5"/>
	<path class="st0" d="M184.8,416.5c-0.8,3.8-1.7,7.7,1.5,11"/>
	<path class="st0" d="M561.8,511.4c3,3.1,6.8,5.7,5.5,11"/>
	<path class="st0" d="M416,468.4c-3.1,2.7-6.9,5-6.5,10"/>
	<path class="st0" d="M469.9,340.1c-1.8-0.5-3.7-1-5.5-1.5"/>
	<path class="st0" d="M298.6,360.5c2.5,0.7,1.8,3.4,3,5"/>
	<path class="st0" d="M241.2,380c0.5,1.8,1,3.7,1.5,5.5"/>
	<path class="st0" d="M473.4,396.5c0.6,5.5-5,5.6-7.5,8.5"/>
	<path class="st0" d="M524.3,238.2c-3,0.4-6.1,0.7-7,4.5"/>
	<path class="st0" d="M229.7,491.9c5.8,2.5,1.7,5.6,0.5,8.5"/>
	<path class="st0" d="M380.5,255.7c1.8,1.2,3.7,2.3,5.5,3.5"/>
	<path class="st0" d="M413.5,545.3c-1.8,0.8-3.7,0.4-5.5,0.5"/>
	<path class="st0" d="M485.4,422c-2.4,1.6-7.1,0.9-6,6"/>
	<path class="st0" d="M392.5,285.6c-2.8-1-6.2-1-8-4"/>
	<path class="st0" d="M474.4,523.3c-6.2,1.5-1.9,4.5-1,7"/>
	<path class="st0" d="M365.5,590.8c-3.4,1.4-6.6-0.5-10-0.5"/>
	<path class="st0" d="M333.1,605.2c0.6,1.6-2.9,3.7,0.5,5"/>
	<path class="st0" d="M321.1,610.7c-1.9,1.1-2.3,3.7-4.5,4.5"/>
	<path class="st0" d="M280.7,372c2.6,1.4,6.4,1.1,7.2,5"/>
	<path class="st0" d="M504.4,394c-2.6-0.2-2.3,3.7-5,3.5"/>
	<path class="st0" d="M382,422c-0.2,0.7-0.7,1.6-0.4,2c2.3,2.6,5.6,3.9,7.6,7c0.3,0.4,2.2-0.2,3.4-0.4"/>
	<path class="st0" d="M395,420c5-4.7,5.3-4.8,8-0.5"/>
	<path class="st0" d="M325.6,357.6c0.3,2.3,2.5,2.5,4.1,3.6c-0.5,1.3-0.9,2.6-1.4,3.9"/>
	<path class="st0" d="M432,288.6c1.9,0.7,1.5,3,3,4"/>
	<path class="st0" d="M560.8,359c0.9,1.3,1.8,2.5,2.7,3.8c2.4-0.5,3-2.9,4.8-2.3"/>
	<path class="st0" d="M387,415c3.1,1.3,3.2,4.3,4,7"/>
	<path class="st0" d="M575.3,360.5c0.8,1.5,1.7,3,2.5,4.5"/>
	<path class="st0" d="M664.2,438.5c-2.5-0.1-4.7,1.4-7,2"/>
	<path class="st0" d="M521.3,431c-4.6,0.7-3.5,3.6-2.5,6.5"/>
	<path class="st0" d="M541.3,415c-2.6,1.6-5.3,0.1-8,0.5"/>
	<path class="st0" d="M457.4,317.9c-1-2.3-3-2.2-5-2.2"/>
	<path class="st0" d="M402.5,255.7c-3.6-1.3-5,1.6-7,3.5"/>
	<path class="st0" d="M430.5,285.6c-0.5,1,2.5,2,0,3"/>
	<path class="st0" d="M361,583.8c-0.3,0.5-0.7,1-1,1.5"/>
</g>
</svg>
