<?xml version="1.0" encoding="utf-8"?>
<!-- Generator: Adobe Illustrator 25.4.1, SVG Export Plug-In . SVG Version: 6.00 Build 0)  -->
<svg version="1.1" id="레이어_1" xmlns="http://www.w3.org/2000/svg" xmlns:xlink="http://www.w3.org/1999/xlink" x="0px"
	 y="0px" viewBox="0 0 400 800" style="enable-background:new 0 0 400 800;" xml:space="preserve">
<style type="text/css">
	.st0{fill:none;stroke:#FFFFFF;stroke-width:0.25;stroke-miterlimit:10;}
</style>
<g>
	<path class="st0" d="M399.9,354.3"/>
	<path class="st0" d="M385.4,156.8c1.7-0.1,3.4-0.2,5-0.5c3.2-0.6,6.3-1.3,9.5-2 M392.4,230c0.5,0.2,1.1,0.7,1.5,0.5
		c2-0.9,4-1.5,6-1.7 M392.9,237.2c1.3,1.6,3,2,5,2c0.7,0,1.4,0,2,0 M393.4,246.2c2.3-0.1,4.5,0.4,6.5,1.3 M395.4,259.2
		c1.5-1.4,2.6-3.3,4.5-3.7 M398.9,310c0.3,0.1,0.7,0.2,1,0.3 M391.4,318.5c1.1,3,3.2,4.9,6.5,5c0.7,0,1.4,0,2-0.1 M398.9,328.5
		c-0.7,2.5-0.1,4.2,1,5.5 M395.4,349c2.3,0.2,3.8,0.7,4.5,1.5 M399.9,354.3c-0.2,0.7-0.6,1.4-1,2.2
		C399.4,355.7,399.7,355,399.9,354.3 M398.9,416c-0.5-2.7-2.3-7-1.3-7.7c1.3-1,2-2.2,2.3-3.4 M394.9,420c2.6-2.5,3.9-3.6,5-3.6
		 M394.9,448c0.8-8,1.2-8.6,5-9.2 M382.5,453c1.8-0.4,3.7-1.3,4.9-2.2c3.3-2.4,6.3-2.6,10.1-1.4c0.8,0.3,1.6,0.4,2.4,0.5
		 M399.4,520.8c0.2,0,0.3,0.1,0.5,0.1 M390.9,562.2c2.2,2.1,4,4.8,7.5,5c0.6,0,1.1,0.2,1.5,0.4 M388.9,584.2c2.7,1.2,5.1,0.2,7-1.5
		c1.2-1.1,2.6-2,4-2.6 M387.5,498.3c-3.2,1.1-6.4,2.2-9.5,3.5c-6.3,2.7-11.6,0.8-16.5-3.1c-6.5-5.2-11.1-11.6-11-20.4
		c-0.1,8.8,4.5,15.2,11,20.4c4.9,3.9,10.2,5.8,16.5,3.1C381.1,500.5,384.3,499.5,387.5,498.3z M365.4,590.8c-3.4,1.4-6.6-0.5-10-0.5
		C358.8,590.2,362,592.2,365.4,590.8z M359.9,585.2c0.3-0.5,0.7-1,1-1.5C360.6,584.2,360.2,584.8,359.9,585.2z M326,608.2
		c0-3-0.2-6.1,1-9C325.8,602.1,326,605.2,326,608.2z M324.4,521.3c-0.9,1-1.8,2-2.6,2.9C322.6,523.3,323.5,522.3,324.4,521.3
		c3.8,2.2,7.8,3.7,7.7,8.9C332.2,525,328.2,523.5,324.4,521.3z M333,605.2c0.6,1.6-2.9,3.7,0.5,5C330.1,608.9,333.6,606.8,333,605.2
		z M325.5,506.2c-1.8,4.9-0.7,10.1-1,15.2C324.8,516.3,323.7,511.1,325.5,506.2c-2-0.5-4-1.1-6-1.9c-2.3-1-4.2-0.8-6,0.6
		c-2.5,2.1-4.9,3.2-8,1.5c3.1,1.7,5.5,0.6,8-1.5c1.8-1.4,3.7-1.6,6-0.6C321.5,505.1,323.5,505.6,325.5,506.2
		c0.2-0.6,0.5-1.2,0.8-1.8C326,504.9,325.7,505.6,325.5,506.2c3.8,1,7.6,1.8,11,4.1c1.3,0.9,2.2,1.5,1.9,3.1
		c0.3-1.6-0.6-2.2-1.9-3.1C333.2,508,329.3,507.1,325.5,506.2z M321,610.7c-1.9,1.1-2.3,3.7-4.5,4.5
		C318.7,614.4,319.1,611.8,321,610.7z M308.4,605.2c-1.7-8.7-1.3-17.3,0.1-26C307.1,588,306.7,596.5,308.4,605.2
		c0.3,1.7,3.1,1.8,2.1,4C311.5,607,308.7,607,308.4,605.2z M309.4,536.8c-1.4-5.1-3.5-10.2,1.6-14.5c0.7-0.6,0.4-1.3,0.5-2
		c-0.1,0.7,0.2,1.4-0.5,2C305.9,526.5,308,531.7,309.4,536.8c1.6,5.6,2.3,11.5,4.5,17C311.7,548.2,311,542.3,309.4,536.8z
		 M306.2,516.8c-2.4-4.1-6.3-5.8-9.7-8.4C299.9,511,303.8,512.7,306.2,516.8c1.5,2.5,5.1,2.9,8.3,2.6
		C311.3,519.7,307.7,519.2,306.2,516.8z M290.6,520.5c-2.9-1.4-4.6-0.1-5.4,1.3c-1.2,2.1-2.1,4.8-0.7,7.4c1.4,2.5,4,4.9,4.3,7.5
		c0.9,8.8,7.7,13.6,12.2,20c-4.5-6.4-11.3-11.2-12.2-20c-0.3-2.6-2.9-5-4.3-7.5c-1.4-2.6-0.5-5.3,0.7-7.4
		C286,520.5,287.7,519.1,290.6,520.5c5.3,2.5,10.6,1.5,14.9-2.8C301.2,522,295.9,523,290.6,520.5z M300.5,536.2
		c-3.2,0.1-6.6-0.6-9.5,1.5C293.9,535.7,297.3,536.3,300.5,536.2z M262.7,512.8c1.3,2.9,5,3.2,7.4,5
		C267.7,516,264,515.7,262.7,512.8c-0.8-1.9-2-4.2-0.6-6.4c1.1-1.7,2.7-1.9,4.5-1c-1.8-0.9-3.4-0.7-4.5,1
		C260.7,508.5,261.9,510.8,262.7,512.8z M267.1,506.3c2.1,1.7,3.2,4.2,4.4,6.5c0.8,1.5,1.8,1.5,3.1,1.5c-1.3,0-2.3,0-3.1-1.5
		C270.3,510.5,269.2,508,267.1,506.3z M271.6,489.6c-2.4-1-6.1-2.3-6-6.2c0.1-4.7-1.2-9.6,1.2-14.2c-2.4,4.6-1.1,9.5-1.2,14.2
		C265.5,487.2,269.2,488.6,271.6,489.6c2.7,1.2,4.2,2.9,5.4,5.2C275.8,492.5,274.3,490.8,271.6,489.6z M261.2,449.5
		c-12,2.3-17.6-4.9-19.5-15.6c-0.3-1.1,0-2.4,1.4-3c3.9-1.6,2.4-4.4,1.5-7c-0.9-2.4-2-4.7-3-7c1,2.3,2.1,4.6,3,7
		c0.9,2.6,2.4,5.4-1.5,7c-1.4,0.6-1.7,1.9-1.4,3C243.6,444.7,249.2,451.8,261.2,449.5c6-1.2,12.3-0.8,18.5-1.1
		C273.5,448.8,267.2,448.3,261.2,449.5z M248.5,481.5c-2.9-0.9-5.6-3-8.9-2.7C242.9,478.5,245.6,480.6,248.5,481.5
		c3.9,1.2,3.9,5.6,2.8,8.2c-1.4,3.3-2.1,7.1-4.2,10.1c2.1-3,2.8-6.8,4.2-10.1C252.4,487.2,252.4,482.8,248.5,481.5z M229.6,491.8
		c5.8,2.5,1.7,5.6,0.5,8.5C231.3,497.5,235.4,494.3,229.6,491.8z M231.1,447.5c-3.5,1.1-5.6-1.6-7.9-3.1c-2.4-1.6-0.7-4.2-0.6-6.4
		c0.1-2.2,0-4.3,0-6.5c0,2.2,0.1,4.3,0,6.5c-0.1,2.2-1.8,4.8,0.6,6.4C225.5,445.8,227.6,448.5,231.1,447.5c0.9-0.3,2,0,3,0
		C233.1,447.5,232,447.2,231.1,447.5z M186.2,427.5c-3.2-3.3-2.3-7.2-1.5-11C183.9,420.2,183,424.2,186.2,427.5z M181.1,356
		c11.1-1.2,22-1.5,32.5,3C203.1,354.5,192.2,354.8,181.1,356z M173.2,310c1.5,3.2,3.3,6.3,5,9.5C176.5,316.3,174.7,313.2,173.2,310
		c-1.9-4.1-1-13.4,1.5-15.5c3.5-2.9,7-5.7,10.5-8.5c-3.5,2.8-7,5.6-10.5,8.5C172.2,296.7,171.3,306,173.2,310z M219.6,339
		c1.6-1.3,1.9-3,2.1-5c0.8-7.4,1.9-14.7,2.9-22c-1,7.3-2.1,14.6-2.9,22C221.5,336,221.2,337.8,219.6,339c-3.2,2.6-3.2,6.3-3,10
		c0.1,3.1-1.3,6.2-1.6,9c-0.6,5.9-3.9,11-3.9,16.9c0,0.5,0.2,1.1,0,1.5c-3.9,7.6-2.8,13.7,5,18c0.7,0.4,1.3,1.1,1,2
		c-1.4,3.7-0.1,7.7-1.4,11.5c-1.2,3.6-3.2,5.8-7.1,6c3.9-0.2,5.9-2.4,7.1-6c1.3-3.8,0-7.8,1.4-11.5c0.3-0.9-0.3-1.6-1-2
		c-7.8-4.3-8.9-10.4-5-18c0.2-0.4,0-1,0-1.5c0-5.9,3.3-11,3.9-16.9c0.3-2.8,1.7-5.9,1.6-9C216.4,345.3,216.4,341.7,219.6,339z
		 M287.1,328c-0.8,2.6-2.3,4.4-4.2,5.9c-3.5,2.9-6.2,2.1-9.5-2.5c3.3,4.6,6,5.4,9.5,2.5C284.8,332.5,286.3,330.7,287.1,328
		c1.7-5.1,0.1-10.4,1.4-15.5C287.2,317.7,288.8,323,287.1,328z M239.5,335.5c0.2,0.6-0.5,1.7-0.9,2.5c-2.2,3.5-2.8,7.5-3,11.5
		c0.2-4,0.8-8,3-11.5C239,337.2,239.7,336.2,239.5,335.5c-2.1-4.7-1.7-10.4-5.4-14.5C237.8,325.2,237.4,330.8,239.5,335.5z
		 M238.6,324c3,0.8,5.9,1.9,9,2.5c4.6,0.9,7.7,3.3,9.5,7.5c-1.8-4.2-4.9-6.6-9.5-7.5C244.5,326,241.6,324.8,238.6,324z M242.6,350
		c-4.4-0.8-8.1-0.2-12.2,2.7c-3.4,2.5-8.7,2.6-13.3,1.3c4.6,1.3,9.9,1.2,13.3-1.3C234.5,349.8,238.2,349.2,242.6,350z M235.2,371
		c-2.7-3.4-3.7-7.5-3.1-11.9c0.2-1.5-0.3-2.8-1-4c0.7,1.2,1.2,2.5,1,4C231.5,363.5,232.5,367.5,235.2,371c1.5,1.9,0.5,3.7,0.9,5.6
		C235.7,374.7,236.7,372.8,235.2,371z M229.6,408.5c-2.2-5.5-2-10.6,1.5-15.5C227.6,397.8,227.4,403,229.6,408.5
		c1.6,4.1,0.7,5.6-3.5,6.5C230.3,414,231.2,412.5,229.6,408.5z M242.3,431.2c-6-4.1-10-9.8-13.2-16.2
		C232.3,421.3,236.3,427,242.3,431.2z M237.6,393.5c0.8,4.4-0.3,9.4,3.5,13C237.3,402.8,238.4,397.8,237.6,393.5z M240.2,392
		c-3.3,1.1-5.5-0.3-6.9-2.7c-1.9-3.4-2-7,0.3-10.5c1.9-2.9,3.8-2.7,6.6-1.5c1.2,0.6,2.9,0.1,4.4,0.1c-1.5,0-3.2,0.5-4.4-0.1
		c-2.8-1.2-4.7-1.4-6.6,1.5c-2.3,3.5-2.2,7.1-0.3,10.5C234.7,391.8,236.9,393.1,240.2,392c1.1-0.4,2.7-1.1,4.5-0.3
		c1.7,0.8,3.4-0.4,4.5-2.3c0.6-1,0.5-2.7,1-2.9c5.2-3.2,4.6-7.8,3.4-12.6c-0.6-2.4,2.1-3.2,2-5.2c0.1,2-2.6,2.8-2,5.2
		c1.2,4.8,1.8,9.4-3.4,12.6c-0.5,0.2-0.4,1.9-1,2.9c-1.1,1.9-2.8,3.1-4.5,2.3C242.9,391,241.3,391.7,240.2,392z M242.6,385.5
		c-0.5-1.8-1-3.7-1.5-5.5C241.6,381.8,242.1,383.7,242.6,385.5z M275.1,434c1,0.1,2,0.3,3,0.5C277.1,434.2,276.1,434,275.1,434
		c-9.7-1.4-19.5-2.6-29-5C255.6,431.3,265.4,432.5,275.1,434z M256.6,315c4.5,3.7,10.2,4.8,15.4,3.7c4.8-1,9.7-2.9,14-5.7
		c-4.3,2.8-9.2,4.7-14,5.7C266.8,319.9,261.1,318.8,256.6,315z M271.1,320c-1.4,4.4-3.2,8.3-8,10C267.9,328.3,269.7,324.5,271.1,320
		z M280.1,316.5c-0.8,3-1.7,6-2.5,9C278.4,322.5,279.3,319.5,280.1,316.5z M270,304c-1.9,0-3.1,1.1-4.5,2.1c-7.8,5.4-15.7,7.4-24,1
		c-2.8-2.2-5.3,0.7-8,0.5c2.7,0.2,5.2-2.7,8-0.5c8.3,6.4,16.2,4.4,24-1C266.9,305.2,268.1,304,270,304c7.7,0.1,15.4-0.2,22.5,3.5
		C285.4,303.8,277.7,304.2,270,304z M233.1,308c0.7-9.2,1.3-18.4,2-27.5C234.4,289.7,233.8,298.8,233.1,308z M226.1,231.5
		c-2.8,0.5-5.6,1.1-8.4,1.7C220.5,232.5,223.3,232,226.1,231.5c3.1-0.6,7.2,0.2,9-3.8C233.3,231.7,229.2,230.8,226.1,231.5z
		 M203.6,342.3c-1.7,0.5-4.1-0.6-5.9-1.4c-5.2-2.2-10.6-3.5-16-5c5.4,1.5,10.8,2.8,16,5C199.5,341.8,201.9,342.8,203.6,342.3
		c4.5-1.4,8.4,0.6,12.5,1.2C212,343,208.1,341,203.6,342.3z M200.7,370c-3-0.1-5.2-2.3-8-3C195.5,367.7,197.7,369.8,200.7,370z
		 M197.7,391.5c-0.4,5,0.7,9,4.8,12.7c3.1,2.8,5.2,7,5.8,11.8c0.5,3.7,2.5,6.9,6.3,8.6c1.5,0.7,2.9,2.1,4,3.5c2.2,2.9,4.6,3,7.5,1.5
		c-2.9,1.5-5.3,1.4-7.5-1.5c-1.1-1.4-2.5-2.8-4-3.5c-3.8-1.7-5.8-4.9-6.3-8.6c-0.6-4.8-2.7-9-5.8-11.8
		C198.4,400.5,197.3,396.5,197.7,391.5z M207.7,430.5c2.3,0.4,2.9,3.7,2.8,3.9c-1.6,3.9,2,5.6,3.3,8c2.5,4.7,3.8,4.6,8.4,1.5
		c-4.6,3.1-5.9,3.2-8.4-1.5c-1.3-2.4-4.9-4.1-3.3-8C210.6,434.2,210,430.8,207.7,430.5z M209.7,438.5c-5.4,3.1-10.8,2.6-16-0.5
		C198.9,441,204.3,441.5,209.7,438.5z M205.1,441.5c1.2,0.9,1.5,2.6,0.9,3.4c-3.7,5.4,0.5,8,3.6,11c2.3,2.2,3.9,4.1,2.1,7.6
		c-1.2,2.2,1.1,4.5,0.9,6.9c0.2-2.4-2.1-4.7-0.9-6.9c1.8-3.5,0.2-5.4-2.1-7.6c-3.1-3-7.3-5.6-3.6-11
		C206.6,444,206.3,442.3,205.1,441.5z M214.7,499.8c3.9,5.5,7,11.4,7.8,18c0.5,4,1.6,7.7,2.6,11.5c-1-3.8-2.1-7.5-2.6-11.5
		C221.7,511.1,218.6,505.2,214.7,499.8c-2.1-3-3.4-6.6-5.1-9.9C211.3,493.1,212.6,496.8,214.7,499.8z M222.6,546.2
		c0.8-2.8,0.3-5.7,0.5-9c-1.5,0-3,0-4.5,0c1.5,0,3,0,4.5,0C222.9,540.5,223.4,543.5,222.6,546.2z M218.1,545.7
		c4.6,0.1,6.8,3,8.5,6.6C224.9,548.7,222.7,545.8,218.1,545.7c-1.8,0-2.8-1.7-4-2.9C215.3,544,216.3,545.7,218.1,545.7z
		 M225.1,486.8c-0.9,0.8-2,1.3-3,2C223.1,488.1,224.2,487.6,225.1,486.8c3.8-3.7,3.4-5.9-1.5-8.5C228.5,481,228.9,483.1,225.1,486.8
		z M233.4,441c-1.8-5.2-0.2-9.1,2.7-13C233.2,431.8,231.6,435.8,233.4,441c1.5,4.2,2.1,8.7,5.6,12c0.7,0.7,0.9,2.1,1,3.2
		c0.6,4.8,2.7,8.5,7,10.7c-4.3-2.2-6.4-5.9-7-10.7c-0.1-1.1-0.3-2.5-1-3.2C235.5,449.7,234.9,445.2,233.4,441z M267.4,413.5
		c-3.6-7.1-2.6-13.4,0.2-20.1C264.8,400.2,263.8,406.5,267.4,413.5c4.3,8.4,7.8,17.2,14.1,24.4C275.2,430.8,271.7,422,267.4,413.5z
		 M280.2,407.5c-2.7-1.5-3.8,0-5.7,0.3C276.4,407.5,277.5,406,280.2,407.5c3.7,2.1,8.1-1.3,12.3-1.9
		C288.3,406.2,283.9,409.7,280.2,407.5z M280.6,372c2.6,1.4,6.4,1.1,7.2,5C287,373,283.2,373.3,280.6,372z M301.5,365.5
		c-1.2-1.6-0.5-4.3-3-5C301,361.2,300.3,363.8,301.5,365.5z M299,340.5c1.8,7.1,6.1,8.6,11,4C305.1,349.2,300.8,347.7,299,340.5z
		 M299,368.2c2.9-2.9,7.5-3.5,10-6.7c6.3-8,12.6-16.1,15-26.4c-2.4,10.3-8.7,18.4-15,26.4C306.5,364.7,301.9,365.2,299,368.2
		c-0.5,0.5-2.2-0.4-3.4-0.6C296.8,367.8,298.5,368.7,299,368.2z M381.4,346.5c4.3-0.8,7.2-3,8-7.5
		C388.6,343.5,385.7,345.8,381.4,346.5c-2,0.4-4,1-6,1.5C377.4,347.5,379.4,347,381.4,346.5z M380.4,255.7c1.8,1.2,3.7,2.3,5.5,3.5
		C384.1,258,382.2,256.8,380.4,255.7z M374.9,394.5c0-4.1-3-7.7-2-12C371.9,386.8,374.9,390.3,374.9,394.5z M384.9,412.5
		c1.7-1.5,3.3-3,5-4.5C388.2,409.5,386.6,411,384.9,412.5z M390.9,422c-0.8-2.7-0.9-5.7-4-7C390,416.2,390.1,419.2,390.9,422z
		 M374.4,395c-0.5,0.3-0.7,1.3-1,2C373.7,396.2,373.9,395.2,374.4,395c5.4-3.1,10.7-0.7,16,0.5C385.1,394.2,379.8,391.8,374.4,395z
		 M336,497.5c-5.2-1.6-9.9-3.9-14.5-6.6C326.1,493.5,330.8,495.8,336,497.5c4,1.2,7.4,0.9,10-2.6C343.4,498.3,340,498.7,336,497.5z
		 M340,533c-0.7,2.8-1.3,5.5-2,8.2C338.7,538.5,339.3,535.8,340,533z M307.3,496.8c-0.3-4.5,3.2-8.9,6.6-7.2c5.8,3,7.6-0.7,10.1-4.2
		c0.6-0.7,1.3-1.3,2-2c-0.7,0.7-1.4,1.3-2,2c-2.5,3.5-4.3,7.2-10.1,4.2C310.5,487.8,307,492.2,307.3,496.8z M299.5,488.3
		c-0.8,3,2,6.1-0.5,9C301.5,494.5,298.7,491.3,299.5,488.3z M298.9,483.8c0.8-1.5,0.6-4-0.4-5.9c-0.9-1.6-0.6-3,0-4.5
		c-0.6,1.5-0.9,2.9,0,4.5C299.5,479.8,299.7,482.2,298.9,483.8c-1.8,3.1,0.3,3.6,2.2,4.6c2.3,1.2,4.7,2.3,7,3.5
		c-2.3-1.2-4.7-2.3-7-3.5C299.2,487.3,297.1,486.8,298.9,483.8z M304.1,469.8c4.5,2.2,8.8,0.5,12.9-1.9
		C312.9,470.2,308.6,472,304.1,469.8c-1.9-0.9-2.1,0.5-3,1.1C302,470.2,302.2,468.8,304.1,469.8z M301.5,440.5
		c0.6-7.9,2.7-15.6,2.5-23.5C304.2,424.8,302.1,432.5,301.5,440.5z M312.5,403.5c0.5-2.9-2.1-5.1-1.5-8
		C310.4,398.3,313,400.5,312.5,403.5z M313,488.8c-2.5-5.7-3.4-11.3,1-16.5C309.6,477.5,310.5,483.1,313,488.8z M321,413.5
		c0.5,2.5-0.9,4.6-1,7C320.1,418,321.5,416,321,413.5z M347.5,509.3c-0.3-1.7,0.9-3.8-1-5c-2.4-1.6-2.2-4.2-3-6.5
		c0.8,2.3,0.6,4.9,3,6.5C348.4,505.5,347.2,507.6,347.5,509.3c0.2,1.3-0.7,3.4,2,3C346.8,512.8,347.7,510.6,347.5,509.3z
		 M348.5,522.8c-1.5,0-3,0-4.5,0c-0.9-2.7-1.8-5.5-4-7.5c2.2,2,3.1,4.8,4,7.5C345.5,522.8,347,522.8,348.5,522.8z M346,382
		c-5.5-0.5-10.9-2.6-16.5-1C335.1,379.3,340.5,381.5,346,382z M335.5,367.7c6.7,0.7,13.5-0.5,20,1.8
		C349,367.2,342.2,368.3,335.5,367.7z M349,423c6.1-3.3,13.1-4.6,19-8.4c2.6-1.7,5.7-2.1,7.2,1.9c-1.5-4-4.6-3.6-7.2-1.9
		C362.1,418.3,355.1,419.7,349,423z M378,425.5c0.5-0.6,1.9-0.7,2.9-1C379.9,424.8,378.5,424.8,378,425.5c-5.5,7.3-15,8.3-21.5,13.9
		C363,433.8,372.5,432.8,378,425.5z M375,400c3.2,6.4,3.4,7.6-1.6,13.5C378.4,407.5,378.2,406.3,375,400c-1.9-3.8-5-3.8-7-2.3
		c-6.4,5-13,2.6-19.6,1.8c6.6,0.8,13.2,3.2,19.6-1.8C370,396.2,373.1,396.2,375,400z M358.9,351c8.4-2.9,15.9,0.3,23.5,3.5
		C374.8,351.3,367.3,348.2,358.9,351z M375.4,327.5c-8.1,2-16.3,3.8-24.5,5.6C359.1,331.2,367.3,329.5,375.4,327.5
		c2-0.5,3.4,0,5,0.8C378.8,327.5,377.4,327,375.4,327.5z M354.9,294.7c-1.4-0.7-2.8-0.7-4.5,0.3c-3.3,2.1-7.2,3.2-10.4,5.6
		c3.2-2.4,7.1-3.5,10.4-5.6C352.1,294,353.5,294,354.9,294.7c4,1.9,8.2,2,12.5,1.9C363.1,296.7,358.9,296.5,354.9,294.7z
		 M336.5,253.2c3.6,0.9,7.2,2,11,1.5C343.7,255.2,340.1,254,336.5,253.2z M327.4,242.7c12.4-0.3,24.7-2,37,0.5
		C352.1,240.7,339.8,242.3,327.4,242.7z M329.6,361.2c-0.5,1.3-0.9,2.6-1.4,3.9C328.7,363.8,329.1,362.5,329.6,361.2
		c-1.6-1.1-3.8-1.3-4.1-3.6C325.8,359.8,328,360,329.6,361.2z M327.1,395.5c5.9-2.9,12.3-4.2,18.9-4.1
		C339.4,391.3,333,392.7,327.1,395.5c-5.2,2.5-6.6,7.7-7.5,12.9C320.5,403.2,321.9,398,327.1,395.5z M297,370c-1.8,2-4.1,2.1-6.5,2
		C292.9,372,295.2,372,297,370z M297,499.3c-5-2.2-8.2-5.5-7-11.5C288.8,493.8,292,497.1,297,499.3z M291,408c2.6,3.7,4.1,7.5,2,12
		C295.1,415.5,293.6,411.7,291,408z M282.5,475.3c-0.2-2.3-0.3-4.7-0.5-7C282.2,470.6,282.3,473,282.5,475.3z M288.5,511
		c2.4-1.6,3.8-1.5,5.5-0.1C292.3,509.5,290.9,509.3,288.5,511c-1.9,1.3-3.9,1.6-6,1.4C284.6,512.5,286.6,512.2,288.5,511z
		 M350.4,602.1c2.4-2.3,5.2-1.8,8-1.9C355.6,600.2,352.8,599.8,350.4,602.1c-2.7,2.6-6.3,0.5-9.4,1.1
		C344.1,602.6,347.7,604.7,350.4,602.1z M333.5,576.8c4.1-1.5,8.2-2,12.5-1C341.7,574.8,337.6,575.2,333.5,576.8z M360.2,603.2
		c-0.8-3.9-0.6-7.7-0.8-11.5C359.6,595.5,359.4,599.3,360.2,603.2c0.6,3.1-0.8,6.5-2.5,9.5C359.4,609.8,360.8,606.3,360.2,603.2z
		 M350.8,568.2c-4,4.6-4.6,9.5-3.4,15.1C346.2,577.7,346.8,572.8,350.8,568.2c2.9-3.3,6.3-5.3,10.1-6.9
		C357.1,562.8,353.7,564.8,350.8,568.2z M352.6,540.3c-3.9,7.1-9.9,9.6-17.1,10.9C342.7,549.9,348.7,547.4,352.6,540.3
		c5.3-9.8,13.9-11.4,20.3-4.6C366.5,529,357.9,530.5,352.6,540.3z M365.9,512.9c4.1-1.6,6.4-4.7,7-9
		C372.3,508.1,370,511.2,365.9,512.9z M371.4,520.8c2.5-0.5,4.6,0.8,7,1C376,521.5,373.9,520.2,371.4,520.8z M381.4,457.3
		c0.5,4.1-0.9,7.3-4.5,9.5c-1.3,0.8-2.4,2-3.5,3c1.1-1,2.2-2.2,3.5-3C380.5,464.6,381.9,461.5,381.4,457.3z M361.9,455.8
		c4.6,2.5,9.6,1.4,14.5,1.5C371.5,457.2,366.5,458.3,361.9,455.8z M358.9,445.5c9.8,1.8,19.3-2.1,24-10
		C378.2,443.3,368.7,447.2,358.9,445.5z M389.1,431c-2-3.1-5.3-4.4-7.6-7c-0.3-0.4,0.2-1.3,0.4-2c-0.2,0.7-0.7,1.6-0.4,2
		C383.8,426.5,387.1,427.8,389.1,431c0.3,0.4,2.2-0.2,3.4-0.4C391.3,430.8,389.4,431.3,389.1,431z M392.3,407.2
		c-2.7-0.6-1.8-2.3-1.9-3.7c-0.2-2.4,1.6-2,3-2c-1.4,0-3.2-0.4-3,2C390.5,404.8,389.6,406.5,392.3,407.2c1.4,0.3,3.1,0.7,4.5,1.3
		C395.4,407.9,393.7,407.5,392.3,407.2z M396.9,383c-6.8,6.5-18.9,1.1-27-4C378,384,390.1,389.5,396.9,383z M395.4,338.5
		c-4.8,0.7-8.1-1.2-10-5.5c-0.8-1.9-2.8-2.6-4-4c1.2,1.4,3.2,2.1,4,4C387.3,337.3,390.6,339.2,395.4,338.5z M391.9,322
		c-2.5,1-5,2-7.5,3C386.9,324,389.4,323,391.9,322z M384.4,281.5c1.8,3,5.2,3,8,4C389.6,284.5,386.2,284.5,384.4,281.5z
		 M394.9,262.7c0.4-3.8-2.9-4.8-5-4.8c-3,0-5.4,2.1-5,5.8c-0.4-3.7,2-5.8,5-5.8C392,257.9,395.3,258.9,394.9,262.7z M392.4,246.7
		c1.3-1.3-0.5-2-0.7-3C391.9,244.7,393.7,245.3,392.4,246.7c-2.9,3-2.5,6.8-2.5,10.5C389.9,253.5,389.5,249.7,392.4,246.7z
		 M386.4,222.2c-4.7-3.9-8.9-0.7-12.4,1.7c-3.3,2.2-5.9,4.6-10.1,2.8c-0.1-0.1-0.4-0.1-0.5,0c-4.6,3.4-7.7,0.1-11-2.5
		c3.3,2.6,6.4,5.9,11,2.5c0.1-0.1,0.4-0.1,0.5,0c4.2,1.8,6.8-0.6,10.1-2.8C377.5,221.5,381.7,218.2,386.4,222.2z M380.9,210.8
		c-1.9,1.8-4.5,0.3-6.5,1.5C376.4,211,379,212.5,380.9,210.8z M374.4,202.2c2.2,0.1,4.5,0.3,6-2
		C378.9,202.5,376.6,202.4,374.4,202.2z M371.9,36c-0.7,7.8,1.5,15.3,2,23C373.4,51.2,371.2,43.8,371.9,36z M361.5,120.8
		c1.6,0.3,3.4-0.3,5-1c5.3-2.2,10.9-2.8,16.5-3.4c-5.6,0.6-11.2,1.2-16.5,3.4C364.9,120.5,363.1,121,361.5,120.8
		c-9.2-1.6-13.9-7.5-14-16.9C347.6,113.2,352.3,119.2,361.5,120.8z M346.5,216.7c-8.3,0.7-16.6,1.3-25,2
		C329.9,218,338.2,217.3,346.5,216.7z M317.5,193.2c-6-5.6-13.3-9.9-16.5-18C304.2,183.4,311.5,187.7,317.5,193.2z M304,91.9
		c-2.3-6.3-2.8-12.9-3.5-19.5C301.2,79,301.7,85.5,304,91.9z M297.5,262.7c4.3-0.4,8.5,0,12.5,1.5
		C306,262.7,301.8,262.2,297.5,262.7c-0.9,0.1-2.3,0.8-2.7-1C295.2,263.5,296.6,262.8,297.5,262.7z M294.5,340
		c3.2,0.8,5.9-0.4,7.5-3.4C300.4,339.5,297.7,340.8,294.5,340c-2.4-0.6-3.6,0.8-5,2c-2.7,2.4-4.8,5.2-9.5,5.4
		c-3.6,0.1-6,4.6-8.2,7.8c-2.2-1-4.5-2-6.2-0.5c-1.9,1.8-0.9,4.5-0.5,6.9c0.1,0.9,0.9,1.7,1.5,2.5c1.5,2,2.2,4.2,3,6.5
		c-0.8-2.3-1.5-4.5-3-6.5c-0.6-0.8-1.4-1.6-1.5-2.5c-0.4-2.4-1.4-5.1,0.5-6.9c1.7-1.5,4-0.5,6.2,0.5c2.2-3.2,4.6-7.7,8.2-7.8
		c4.7-0.2,6.8-3,9.5-5.4C290.9,340.8,292.1,339.3,294.5,340z M293.5,293c-1.7-1.2-3.4-2.2-5-3.5c-4.7-4-9.5-4-14.5-0.5
		c-1.2,0.9-2.4,1.9-4,1.5c-4.3-1.1-8.3,0.2-12.5,0.7c-4.5,0.5-7.3,2.4-10,5.3c-2.1,2.4-4.3,4.7-6.5,7c2.2-2.3,4.4-4.6,6.5-7
		c2.7-2.9,5.5-4.8,10-5.3c4.2-0.5,8.2-1.8,12.5-0.7c1.6,0.4,2.8-0.6,4-1.5c5-3.5,9.8-3.5,14.5,0.5
		C290.1,290.8,291.8,291.8,293.5,293z M259.8,237.6c1.1,5.3,0.5,9.8-5.7,11.5c-2.8,0.8-3.4,3.7-4.9,5.6c-0.9,1.2-2.1,3.4-0.5,4.8
		c1.8,1.5,3.8,2.6,6.5,0.7c4.3-3,5.8-7.1,3.9-13.1c1.9,6,0.4,10.1-3.9,13.1c-2.7,1.9-4.7,0.8-6.5-0.7c-1.6-1.4-0.4-3.6,0.5-4.8
		c1.5-1.9,2.1-4.8,4.9-5.6C260.3,247.4,260.9,242.9,259.8,237.6z M265.1,269c-5.1-1.2-6-1.1-8,3.6c-1.7,4.1-3.7,8-4.6,12.5
		c-0.5,2.3-0.4,4.3,0.1,6.5c-0.5-2.2-0.6-4.2-0.1-6.5c0.9-4.5,2.9-8.4,4.6-12.5C259.1,268,260,267.8,265.1,269
		c2.4,0.6,3.5,2.2,5,3.6C268.6,271.2,267.5,269.7,265.1,269z M280.6,267.7c-6.4,4.5-14.8,6.9-16,16.5c-0.2,1.7-1,3.3-1.5,5
		c0.5-1.7,1.3-3.3,1.5-5C265.8,274.5,274.2,272.2,280.6,267.7z M277.6,257.2c3.3-0.4,6.6-0.2,10-0.3
		C284.2,257,280.9,256.8,277.6,257.2c-5.3,0.7-9.8-1.1-14-4C267.8,256,272.3,257.8,277.6,257.2z M265.1,65c-1.6-4-4.7-7.4-4.5-12
		C260.4,57.5,263.5,61,265.1,65z M247.1,72.9c-1.9-3.4-3.3-7-3.5-11C243.8,65.9,245.2,69.5,247.1,72.9z M237.2,128
		c4.6-4.3,10-6.7,16.4-4.1c2.5,1,4.5,0.1,6.5-1c5-2.8,8.9-7.1,13-11c-4.1,3.9-8,8.2-13,11c-2,1.1-4,2-6.5,1
		C247.2,121.2,241.8,123.7,237.2,128c-2.1,1.9-3.9,3-6.6,2.2C233.3,131,235.1,129.8,237.2,128z M228.8,210.5
		c2.1,1.5,5.9,0.9,8.9,1.2C234.7,211.5,230.9,212,228.8,210.5c-6-4.3-12.5-3.8-19.1-3.8C216.3,206.8,222.8,206.2,228.8,210.5z
		 M211.6,241.8c3.2-2,3.9-4.5,3.4-7.6c-0.8-5-1.9-10-2.9-15c1,5,2.1,10,2.9,15C215.5,237.2,214.8,239.8,211.6,241.8
		c-6.8,4.3-12,10.3-15,17.9C199.6,252,204.8,246,211.6,241.8z M192.2,248.2c-2.2-1.8-4.6-2.7-7.5-2.5
		C187.6,245.5,190,246.3,192.2,248.2z M178.7,252.7c-2.5,1.9-3.4,4.2-2.6,7.5c1.7,6.6,4.7,11.7,12.1,13c1.4,0.2,2.7,1,4,1.5
		c-1.3-0.5-2.6-1.3-4-1.5c-7.4-1.3-10.4-6.4-12.1-13C175.3,256.8,176.2,254.5,178.7,252.7z M176.7,150.8c-0.2,10-3.5,19.3-5.5,29
		C173.2,170,176.5,160.8,176.7,150.8z M171.9,209.2c2.1-5.6,3.9-11.3,5.8-17C175.8,198,174,203.7,171.9,209.2
		c-1.2,3.3-0.8,7.3-1.2,10.9C171.1,216.5,170.7,212.5,171.9,209.2z M167.3,371c-0.7-5.5-2.7-10.6-3.1-16
		C164.6,360.5,166.6,365.5,167.3,371c0.9,6.3,0.5,11.6-5.6,15C167.8,382.7,168.2,377.3,167.3,371z M165.5,414
		c-2.9-6.9-3.1-14-4.2-21.1c-0.3-2.3,1.5-4.9-0.6-7.2c2.1,2.3,0.3,4.9,0.6,7.2C162.4,400,162.6,407.2,165.5,414
		c1.2,3,1.2,7.7-1.4,10.3c-5.4,5.2-3.5,10.8-2.4,16.6c0.5,2.5,1,5,1.5,7.5c-0.5-2.5-1-5-1.5-7.5c-1.1-5.8-3-11.4,2.4-16.6
		C166.7,421.8,166.7,417,165.5,414z M159.9,511.8c-0.8-8.1-3.1-15.9-5.7-23.5C156.8,496,159.1,503.8,159.9,511.8z M155.2,210.8
		c0.5-2.5-0.9-4.6-1-7C154.3,206.2,155.7,208.2,155.2,210.8z M154.7,147.8c0.3,7.6-2.6,14.8-2.2,22.5c0.1,2.3,0.8,4.6,0.2,7
		c0.6-2.4-0.1-4.7-0.2-7C152.1,162.5,155,155.4,154.7,147.8z M145.2,199.8c-0.6,3.6-1.3,7.3-1,11C143.9,207,144.6,203.4,145.2,199.8
		z M112.3,351.5c-2.2,2.8-4.4,5.3-8.5,4.5C107.9,356.8,110.1,354.3,112.3,351.5z M58.8,318c-9.7,6.8-11.8,17.7-15,28
		C47,335.8,49.1,324.8,58.8,318z M52.4,323c-6.2-0.8-12.2-2.2-18.5-2.2C40.2,320.8,46.2,322.2,52.4,323z M39.8,446
		c7.2-0.4,14.9,1.6,20.5-5C54.7,447.5,47,445.5,39.8,446z M80.8,503.3c-6.9-6.5-13.5-13.2-14-23.5C67.3,490.1,73.9,496.8,80.8,503.3
		c0.7,0.6,1.7,1,2.5,1.5C82.5,504.3,81.5,504,80.8,503.3z M100.8,387c3.5-0.5,6.6,1.3,10,1.5C107.4,388.2,104.3,386.5,100.8,387z
		 M113.2,394c3.6,14.9-0.2,28.2-9.9,39.9c-0.4,0.5-0.7,1-1,1.5c0.3-0.5,0.6-1,1-1.5C113,422.2,116.8,408.8,113.2,394
		c-1.1-4.6-1.3-8.6,1.6-12.5C111.9,385.3,112.1,389.3,113.2,394z M138.2,386.5c-0.4-5.1,1.1-9.9,3-14.5
		C139.3,376.5,137.8,381.3,138.2,386.5z M145.2,316.5c0-2.9,0.4-5.9-1.9-8.5c-1.3-1.5-1.3-3.8-1.6-5.9c-0.8-5.9-1.6-11.7-0.4-17.5
		c0.6-3,0.6-5.7-0.6-8.5c1.2,2.8,1.2,5.5,0.6,8.5c-1.2,5.8-0.4,11.6,0.4,17.5c0.3,2.1,0.3,4.4,1.6,5.9
		C145.6,310.7,145.2,313.7,145.2,316.5z M148.2,569.2c7.4-0.4,14.4,1.2,21,4.5C162.6,570.5,155.6,568.8,148.2,569.2z M170.2,412
		c2.2-0.4,4.2-1.4,6.5-1C174.4,410.5,172.4,411.5,170.2,412z M181.1,382.5c2.1,3.6,1.4,7.4-2,9.4c-3.2,1.9-3.2,5.5-4.9,8.1
		c-1.5,2.2-2.7,4.6-4,7c1.3-2.4,2.5-4.8,4-7c1.7-2.6,1.7-6.2,4.9-8.1C182.5,390,183.2,386.2,181.1,382.5c-2.4-4.2-2.2-7.9,0-12.1
		c2.4-4.7,2.5-10-0.6-14.3c-2.3-3.2-6.1-5.4-9.3-8.1c3.2,2.7,7,4.9,9.3,8.1c3.1,4.3,3,9.6,0.6,14.3
		C178.9,374.7,178.7,378.3,181.1,382.5z M188.6,430.5c3.5,1.4,3.6-1.2,4-3.1c0.5-2.1-0.3-4.4,0.6-6.5c2.5-5.6,2.2-11.2,1-17
		c1.2,5.8,1.5,11.4-1,17c-0.9,2.1-0.1,4.4-0.6,6.5C192.2,429.3,192.1,432,188.6,430.5c-1.5-0.6-3.2,1-5,0.2
		C185.4,431.5,187.1,430,188.6,430.5z M190.7,431.5c0,8.9-0.2,17.7-5.5,25.5C190.5,449.2,190.7,440.3,190.7,431.5z M188.1,504.3
		c-4.2-3.3-4-8-4.4-12.5c-0.2-2.3,0-4.7,0-7c0,2.3-0.2,4.7,0,7C184.1,496.3,183.9,501,188.1,504.3c1.2,0.9,2,2.5,2.5,4
		c3.8,10.5,9.8,19.8,15,29.5c0.2,0.4,0,1,0,1.5c0-0.5,0.2-1.1,0-1.5c-5.2-9.7-11.2-19-15-29.5C190.1,506.8,189.3,505.2,188.1,504.3z
		 M204.7,562.2c0.7,5.5-1.2,10.2-4.5,14.5C203.5,572.5,205.4,567.8,204.7,562.2z M204.7,582.2c-4.5-1.1-8.4-1.7-12,1.7
		C196.3,580.5,200.2,581.1,204.7,582.2c5.7,1.4,7.9,6.5,11.9,9.6C212.6,588.7,210.4,583.5,204.7,582.2z M235.1,625.6
		c-5.9,0-11.5-0.9-14.5-6.9c-2-4-3.7-8-5.6-12c2.6,0,5.1,0,7.6,0c-2.5,0-5,0-7.6,0c1.9,4,3.6,8,5.6,12
		C223.6,624.7,229.2,625.6,235.1,625.6c2.7,0,5.3-0.9,8-1.4C240.4,624.7,237.8,625.6,235.1,625.6z M241.2,524.8
		c0.2,5.1,3.5,7.6,7.9,9c2-1.3,4-2.7,6-4c-2,1.3-4,2.7-6,4C244.7,532.3,241.4,529.8,241.2,524.8z M262.9,554.7
		c-1.3-6.7-5.8-9.3-11.3-11.4C257.1,545.3,261.6,548,262.9,554.7c0.4,2.1,4.2,4.5,7.6,4.6C267.1,559.2,263.3,556.8,262.9,554.7z
		 M275.1,543.8c-1.2,3.4,0.6,6.4,1.5,9.5C275.7,550.2,273.9,547.2,275.1,543.8z M274.6,542.7c-7.5-4.6-16.6-8-18.6-18.3
		c-0.4-1.6-1.3-2.8-2.5-4c-3.8-3.9-4.8-9-5.3-14c-0.3-3.7-0.9-6.5-4.6-8.1c-1.5-0.7-3.9-2.3-3.8-3.4c0.2-4.5-2.8-7.2-4.7-10.5
		c1.9,3.3,4.9,6,4.7,10.5c-0.1,1.1,2.3,2.7,3.8,3.4c3.7,1.6,4.3,4.4,4.6,8.1c0.5,5,1.5,10.1,5.3,14c1.2,1.2,2.1,2.4,2.5,4
		C258,534.7,267.1,538.1,274.6,542.7c3.2,1.9,7.5-0.3,11.4-0.5c0.9,0,2-0.1,3-0.3c-1,0.2-2.1,0.3-3,0.3
		C282.1,542.4,277.8,544.6,274.6,542.7z M294.6,645.7c-3-1.4-6-3-9-4.5C288.6,642.7,291.6,644.3,294.6,645.7
		c6.2,2.9,12.4,0.4,18.4-0.7c3.8-0.7,8.3-1.9,10.4-5.4c2.5-4.2,5.9-7.4,8.6-11.4c-2.7,4-6.1,7.2-8.6,11.4c-2.1,3.5-6.6,4.7-10.4,5.4
		C307,646.1,300.8,648.6,294.6,645.7z M322.5,665.2c0.1-5.8-3.8-9.4-7.5-13C318.7,655.8,322.6,659.4,322.5,665.2z M338,764
		c-0.4-8,0.7-15.8,2.5-23.5C338.7,748.2,337.6,756,338,764z M313.5,741c12.2-0.1,24.7,2,35.5-6C338.2,743,325.7,741,313.5,741z
		 M346.5,627.2c1.7,4.7,3.3,9.3,5,14C349.8,636.5,348.2,631.9,346.5,627.2z M332.5,627.2c11.6-1.5,23.3-0.2,35-0.5
		C355.8,627,344.1,625.7,332.5,627.2z M364.3,554.2c-1.8,4-3.4,7.5-0.6,12.1c2.4,4-1.1,8.7-6.3,9.9c5.2-1.2,8.7-5.9,6.3-9.9
		C360.9,561.7,362.5,558.2,364.3,554.2c2.1-4.7,4.2-9.3,9.8-11c0.8-0.2,1.2-1.6,1.8-2.4c-0.6,0.8-1,2.2-1.8,2.4
		C368.5,544.9,366.4,549.5,364.3,554.2z M374.4,664.2c4.2,0.1,8.5-0.7,12.5,1.5C382.9,663.5,378.6,664.2,374.4,664.2z M372.4,624.2
		c0-5.8,0.3-11.5,2-17C372.7,612.7,372.4,618.4,372.4,624.2z M383.9,680.5c6.2,6,5.1,14,6,21.5C389,694.5,390.1,686.5,383.9,680.5z
		 M395.9,595.2c-2.1-2.6,0.6-6.9-3-9C396.5,588.3,393.8,592.7,395.9,595.2z M398.4,688c-3-2.1-6.4-0.5-9.5-1
		C392,687.5,395.4,686,398.4,688z M394.4,566.8c-1.5,3-3,6-4.5,9C391.4,572.8,392.9,569.8,394.4,566.8z M388.5,562.8
		c-5.8,3.7-12.3,7.1-14.5,14.3c-1.5,4.7-4.8,9.4-0.7,14.6c1,1.2,2.1,1.2,3.1,1.9c-1-0.7-2.1-0.7-3.1-1.9c-4.1-5.2-0.8-9.9,0.7-14.6
		C376.2,569.9,382.7,566.5,388.5,562.8c2.9-1.8,3.6-3.8,3.4-6.6c-0.7-7.4-0.8-14.8-2.5-22c1.7,7.2,1.8,14.6,2.5,22
		C392.1,559,391.4,561,388.5,562.8z"/>
</g>
</svg>
