<?xml version="1.0" encoding="utf-8"?>
<!-- Generator: Adobe Illustrator 25.4.1, SVG Export Plug-In . SVG Version: 6.00 Build 0)  -->
<svg version="1.1" id="레이어_1" xmlns="http://www.w3.org/2000/svg" xmlns:xlink="http://www.w3.org/1999/xlink" x="0px"
	 y="0px" viewBox="0 0 800 800" style="enable-background:new 0 0 800 800;" xml:space="preserve">
<style type="text/css">
	.st0{display:none;}
	.st1{display:inline;}
	.st2{fill:none;stroke:#FFFFFF;stroke-width:0.5;stroke-miterlimit:10;}
</style>
<g id="레이어_1_00000164513216121363663630000016061572836481359285_" class="st0">
	<g class="st1">
		<path class="st2" d="M689.1,238.2c-2.6,3.8-6.8,5.6-10.5,8c-1.9,1.3-3.8,0.3-5.5-0.1c-2.8-0.7-5.4-2.2-8.5-2.5
			c-3.9-0.3-5.8,0.9-4.9,4.5c1.4,5.4,1.1,11.2,4.3,16c1.3,1.9,1.9,4.2,2,6.5c0.7,13.2,9.5,19,20.5,23"/>
		<path class="st2" d="M425,231.2c0.1,4.4-0.5,8.7,2.9,12.6c4.1,4.6,7.6,5.2,12.6,0.9"/>
		<path class="st2" d="M141.3,372c-1.9,4.6-3.4,9.4-3,14.5"/>
		<path class="st2" d="M140.8,276.2c1.2,2.8,1.2,5.5,0.6,8.5c-1.2,5.8-0.4,11.6,0.4,17.5c0.3,2.1,0.3,4.4,1.6,5.9
			c2.3,2.6,1.9,5.6,1.9,8.5"/>
		<path class="st2" d="M641.7,131.9c7.7,4.4,11.5,11.9,15,19.5c1.3,2.8,2,5.9,3.6,8.4c3.5,5.7,5.5,11.8,5.4,18.5"/>
		<path class="st2" d="M470.9,674.6c2.1-3.6,4.5-6.2,9.5-5.7c3.6,0.3,7.3-1,11-1.3c3.4-0.3,6.9-0.4,9.5,2.5"/>
		<path class="st2" d="M292.6,307.6c-7.1-3.7-14.8-3.4-22.5-3.5c-1.9,0-3.1,1.1-4.5,2.1c-7.8,5.4-15.7,7.4-24,1
			c-2.8-2.2-5.3,0.7-8,0.5"/>
		<path class="st2" d="M475.4,58.9c-3.8-7.6-11.1-10.1-18.5-12.4c-1.7-0.5-3.8-1-5.4-0.5c-9.8,3.2-19.8,3.6-30,2.5c-3-0.3-6,0-9,0"
			/>
		<path class="st2" d="M649.7,543.8c2.3,6.7,4.9,13.2,6.9,20c2.3,7.7,1.1,15.6,0,23.4c-0.4,2.9-1.3,5.7-2,8.5"/>
		<path class="st2" d="M376,540.8c-0.6,0.8-1,2.2-1.8,2.4c-5.6,1.7-7.7,6.3-9.8,11c-1.8,4-3.4,7.5-0.6,12.1c2.4,4-1.1,8.7-6.3,9.9"
			/>
		<path class="st2" d="M160.8,385.8c2.1,2.3,0.3,4.9,0.6,7.2c1.1,7.1,1.3,14.2,4.2,21.1c1.2,3,1.2,7.7-1.4,10.3
			c-5.4,5.2-3.5,10.8-2.4,16.6c0.5,2.5,1,5,1.5,7.5"/>
		<path class="st2" d="M266.9,469.2c-2.4,4.6-1.1,9.5-1.2,14.2c-0.1,3.9,3.6,5.2,6,6.2c2.7,1.2,4.2,2.9,5.4,5.2"/>
		<path class="st2" d="M639.2,226.7c-1.8-5.2-5.7-9.9-3.5-16"/>
		<path class="st2" d="M241.7,417c1,2.3,2.1,4.6,3,7c0.9,2.6,2.4,5.4-1.5,7c-1.4,0.6-1.7,1.9-1.4,3c1.9,10.7,7.5,17.9,19.5,15.6
			c6-1.2,12.3-0.8,18.5-1.1"/>
		<path class="st2" d="M114.9,381.5c-2.9,3.9-2.7,7.9-1.6,12.5c3.6,14.9-0.2,28.2-9.9,39.9c-0.4,0.5-0.7,1-1,1.5"/>
		<path class="st2" d="M224.7,312.1c-1,7.3-2.1,14.6-2.9,22c-0.2,2-0.5,3.7-2.1,5c-3.2,2.6-3.2,6.3-3,10c0.1,3.1-1.3,6.2-1.6,9
			c-0.6,5.9-3.9,11-3.9,16.9c0,0.5,0.2,1.1,0,1.5c-3.9,7.6-2.8,13.7,5,18c0.7,0.4,1.3,1.1,1,2c-1.4,3.7-0.1,7.7-1.4,11.5
			c-1.2,3.6-3.2,5.8-7.1,6"/>
		<path class="st2" d="M373,535.8c-6.4-6.8-15-5.2-20.3,4.6c-3.9,7.1-9.9,9.6-17.1,10.9"/>
		<path class="st2" d="M332.1,628.2c-2.7,4-6.1,7.2-8.6,11.4c-2.1,3.5-6.6,4.7-10.4,5.4c-6,1.1-12.2,3.6-18.4,0.7c-3-1.4-6-3-9-4.5"
			/>
		<path class="st2" d="M225.2,529.3c-1-3.8-2.1-7.5-2.6-11.5c-0.8-6.6-3.9-12.5-7.8-18c-2.1-3-3.4-6.6-5.1-9.9"/>
		<path class="st2" d="M542.3,273.2c1.2-1,2.3-2.1,3.5-3c3.5-2.5,6.9-2.1,9.4,1.5c2.5,3.6,6.4,5.4,9.3,8.2c5.3,5.2,13.5,8,15.7,16.2
			"/>
		<path class="st2" d="M646.2,337.6c8,7.4,13.2,17,16.1,27.1c1.6,5.5-0.7,12.2-1.7,18.4c-0.9,5.6-1.6,11.5-7.4,15.1
			c-2.5,1.5-0.5,3.9,0,5.9c1.8,8.1,1.9,16-4.5,22.5"/>
		<path class="st2" d="M694.1,220.7c-5.7,0.7-11.6,0.4-16.9,2.2c-9.2,3-14.3,9.9-15,19.8"/>
		<path class="st2" d="M212.2,219.2c1,5,2.1,10,2.9,15c0.5,3.1-0.2,5.6-3.4,7.6c-6.8,4.3-12,10.3-15,17.9"/>
		<path class="st2" d="M332.6,627.2c11.6-1.5,23.3-0.2,35-0.5"/>
		<path class="st2" d="M576.8,648.2c-0.8,4.7,0.5,9.3,0.6,14c0.3,7.8-1.3,15.3-1.6,23"/>
		<path class="st2" d="M399.5,520.8c10.9,1.9,20.6,5.8,28,14.5c1.3,1.6,3.2,1.5,5,1.5c3.3-0.1,6.7-0.2,10-0.2"/>
		<path class="st2" d="M364.5,243.2c-12.3-2.5-24.6-0.8-37-0.5"/>
		<path class="st2" d="M702.6,457.4c-5.7,12.3-6.7,24.5,1,36.5"/>
		<path class="st2" d="M535.8,227.7c2.9,1.5,5.5,2.5,9,1.1c5.5-2,7.8-0.6,11.5,4.3c3.1,4.1,5.5,8.3,7.5,13
			c2.8,6.3,10.1,7.7,17.4,3.5"/>
		<path class="st2" d="M347.6,103.9c0.1,9.4,4.8,15.3,14,16.9c1.6,0.3,3.4-0.3,5-1c5.3-2.2,10.9-2.8,16.5-3.4"/>
		<path class="st2" d="M222.7,606.7c-2.5,0-5,0-7.6,0c1.9,4,3.6,8,5.6,12c3,6,8.6,6.9,14.5,6.9c2.7,0,5.3-0.9,8-1.4"/>
		<path class="st2" d="M216.2,343.6c-4.1-0.6-8-2.6-12.5-1.2c-1.7,0.5-4.1-0.6-5.9-1.4c-5.2-2.2-10.6-3.5-16-5"/>
		<path class="st2" d="M425,343.6c0.3,5.8,1.7,11.4,3,17"/>
		<path class="st2" d="M446.9,387c7.5,1.3,15,2.9,22-1.9c1.2-0.8,3.4-0.4,4.9,0.9"/>
		<path class="st2" d="M171.3,348.1c3.2,2.7,7,4.9,9.3,8.1c3.1,4.3,3,9.6,0.6,14.3c-2.2,4.2-2.4,7.9,0,12.1c2.1,3.6,1.4,7.4-2,9.4
			c-3.2,1.9-3.2,5.5-4.9,8.1c-1.5,2.2-2.7,4.6-4,7"/>
		<path class="st2" d="M164.3,355.1c0.4,5.4,2.4,10.5,3.1,16c0.9,6.3,0.5,11.6-5.6,15"/>
		<path class="st2" d="M154.8,147.8c0.3,7.6-2.6,14.8-2.2,22.5c0.1,2.3,0.8,4.6,0.2,7"/>
		<path class="st2" d="M176.8,150.8c-0.2,10-3.5,19.3-5.5,29"/>
		<path class="st2" d="M428,475.1c5.7,2.8,11.6,1.7,17.5,0.7c2.5-0.5,5-0.2,7.5-0.4"/>
		<path class="st2" d="M246.2,429c9.5,2.4,19.3,3.6,29,5c1,0.1,2,0.3,3,0.5"/>
		<path class="st2" d="M177.8,192.3c-1.9,5.7-3.7,11.4-5.8,17c-1.2,3.3-0.8,7.3-1.2,10.9"/>
		<path class="st2" d="M286.1,313.1c-4.3,2.8-9.2,4.7-14,5.7c-5.2,1.1-10.9,0-15.4-3.7"/>
		<path class="st2" d="M235.2,484.4c1.9,3.3,4.9,6,4.7,10.5c-0.1,1.1,2.3,2.7,3.8,3.4c3.7,1.6,4.3,4.4,4.6,8.1
			c0.5,5,1.5,10.1,5.3,14c1.2,1.2,2.1,2.4,2.5,4c2,10.3,11.1,13.7,18.6,18.3c3.2,1.9,7.5-0.3,11.4-0.5c0.9,0,2-0.1,3-0.3"/>
		<path class="st2" d="M308.6,579.3c-1.4,8.7-1.8,17.3-0.1,26c0.3,1.7,3.1,1.8,2.1,4"/>
		<path class="st2" d="M482.9,391.5c0.7-3.3,2-6.5,2-10c0-1.2,0.5-2.1,1.4-3.1c4.6-5.2,8.2-11.7,16.1-12.9c1.1-0.2,1.8-0.4,2-1.5
			c0.9-4.8,3.9-9.4,0.6-14.5c-1.8-2.7-2.8-5.9-4.1-9c-2.1-5.1-4.6-5.8-9-2.5c-5.8,4.3-10,10.2-13.8,16.1c-2.1,3.2-3.4,7.5-3.4,11.4
			c0,3.3-1.4,6.3-3,7.8c-3.8,3.5-3.2,7.5-3.3,11.7"/>
		<path class="st2" d="M183.8,484.9c0,2.3-0.2,4.7,0,7c0.4,4.5,0.2,9.2,4.4,12.5c1.2,0.9,2,2.5,2.5,4c3.8,10.5,9.8,19.8,15,29.5
			c0.2,0.4,0,1,0,1.5"/>
		<path class="st2" d="M463.9,551.3c0.4,4.6-0.1,9.1-3,13c-2,2.6-0.8,5.7-1,8.5c-0.2,2.8,0,5.7,0,8.5"/>
		<path class="st2" d="M259.2,247.2c1.9,6,0.4,10.1-3.9,13.1c-2.7,1.9-4.7,0.8-6.5-0.7c-1.6-1.4-0.4-3.6,0.5-4.8
			c1.5-1.9,2.1-4.8,4.9-5.6c6.2-1.7,6.8-6.2,5.7-11.5"/>
		<path class="st2" d="M205.2,441.5c1.2,0.9,1.5,2.6,0.9,3.4c-3.7,5.4,0.5,8,3.6,11c2.3,2.2,3.9,4.1,2.1,7.6
			c-1.2,2.2,1.1,4.5,0.9,6.9"/>
		<path class="st2" d="M467.9,273.2c5.6,5.1,3.7,11.6,2.3,17.4c-0.7,2.8-0.4,4.9,0.8,7c1.5,2.5,1.5,5-0.2,6.9
			c-1.3,1.5-0.8,2.7-0.9,4.1c-0.2,2.6,1.3,5.4-2.9,6.7c-2.3,0.7-1.9,4-2,6.3"/>
		<path class="st2" d="M346.1,391.5c-6.6-0.1-13,1.2-18.9,4.1c-5.2,2.5-6.6,7.7-7.5,12.9"/>
		<path class="st2" d="M234.2,321.1c3.7,4.1,3.3,9.8,5.4,14.5c0.2,0.6-0.5,1.7-0.9,2.5c-2.2,3.5-2.8,7.5-3,11.5"/>
		<path class="st2" d="M426.5,80.4c-3.7,0.1-7.4-0.3-11,0.9c-2.3,0.7-4.5-0.2-6.5-1.9c-2-1.7-4.3-3-6.5-4.5"/>
		<path class="st2" d="M209.8,206.8c6.6,0,13.1-0.5,19.1,3.8c2.1,1.5,5.9,0.9,8.9,1.2"/>
		<path class="st2" d="M528.8,500.4c-1.9,1.8-2.1,4-2,6.5c0.3,7.2-0.4,14.3,0.5,21.5"/>
		<path class="st2" d="M498.9,479.9c-1.4,10.1-4.1,19.6-11,27.5"/>
		<path class="st2" d="M602.2,407.5c0.2-9.4,1-18.9-5.5-27"/>
		<path class="st2" d="M367.5,296.6c-4.3,0.1-8.5,0-12.5-1.9c-1.4-0.7-2.8-0.7-4.5,0.3c-3.3,2.1-7.2,3.2-10.4,5.6"/>
		<path class="st2" d="M426.5,257.2c3.9-1,6.8,1.5,10,3c7.1,3.3,14.8,4.7,22.5,5.3c4.7,0.4,5.8,2.3,5.6,6.6
			c-0.3,5.1-0.1,10.3-0.1,15.5"/>
		<path class="st2" d="M620.2,280.6c0.7,5.9-3.5,10.9-2.6,17c0.5,3.2-0.5,6.6-0.9,10"/>
		<path class="st2" d="M471.9,402c5,4.6,5,4.6-2.8,12c2.5,4.3,6.1,7.6,10.3,10.5"/>
		<path class="st2" d="M658.2,614.7c-7.9,1.4-15.9,2.7-24,1.8"/>
		<path class="st2" d="M380.5,328.3c-1.6-0.8-3-1.3-5-0.8c-8.1,2-16.3,3.8-24.5,5.6"/>
		<path class="st2" d="M349.1,735.1c-10.8,8-23.3,5.9-35.5,6"/>
		<path class="st2" d="M235.2,280.6c-0.7,9.1-1.3,18.3-2,27.5"/>
		<path class="st2" d="M288.6,312.6c-1.3,5.1,0.3,10.4-1.4,15.5c-0.8,2.6-2.3,4.4-4.2,5.9c-3.5,2.9-6.2,2.1-9.5-2.5"/>
		<path class="st2" d="M556.3,490.9c-3.2,0.6-5.9-1.2-9-1.5c-6.2-0.6-12,0.8-17.5,3.5"/>
		<path class="st2" d="M549.3,294.1c5.3,0.9,9.6,4.2,14.5,6c6.1,2.2,12.1,3,18-0.5"/>
		<path class="st2" d="M350.6,478.4c-0.1,8.8,4.5,15.2,11,20.4c4.9,3.9,10.2,5.8,16.5,3.1c3.1-1.3,6.3-2.4,9.5-3.5"/>
		<path class="st2" d="M270.2,272.7c-1.5-1.4-2.6-3-5-3.6c-5.1-1.2-6-1.1-8,3.6c-1.7,4.1-3.7,8-4.6,12.5c-0.5,2.3-0.4,4.3,0.1,6.5"
			/>
		<path class="st2" d="M216.7,591.8c-4-3.1-6.2-8.2-11.9-9.6c-4.5-1.1-8.4-1.7-12,1.7"/>
		<path class="st2" d="M503.9,347.6c-9.7,4.2-13.5,12.5-9.5,21"/>
		<path class="st2" d="M194.3,404c1.2,5.8,1.5,11.4-1,17c-0.9,2.1-0.1,4.4-0.6,6.5c-0.4,1.9-0.5,4.5-4,3.1c-1.5-0.6-3.2,1-5,0.2"/>
		<path class="st2" d="M504.4,163.8c4.2-2.4,9.2-1.6,13.5-3.4c1.8-0.7,3.5,1.3,4.9,2.4c6.5,4.9,13.5,8.9,21.5,10.9"/>
		<path class="st2" d="M190.8,431.5c0,8.9-0.2,17.7-5.5,25.5"/>
		<path class="st2" d="M324.1,335.1c-2.4,10.3-8.7,18.4-15,26.4c-2.5,3.2-7.1,3.8-10,6.7c-0.5,0.5-2.2-0.4-3.4-0.6"/>
		<path class="st2" d="M381,424.5c-1,0.3-2.4,0.4-2.9,1c-5.5,7.3-15,8.3-21.5,13.9"/>
		<path class="st2" d="M389.5,534.3c1.7,7.2,1.8,14.6,2.5,22c0.2,2.8-0.5,4.8-3.4,6.6c-5.8,3.7-12.3,7.1-14.5,14.3
			c-1.5,4.7-4.8,9.4-0.7,14.6c1,1.2,2.1,1.2,3.1,1.9"/>
		<path class="st2" d="M732.1,288.6c8.3,0,16.7,0,25,0"/>
		<path class="st2" d="M346.6,216.7c-8.3,0.7-16.6,1.3-25,2"/>
		<path class="st2" d="M473.4,98.9c-8.5,3.5-16.2,8.6-25,11.5"/>
		<path class="st2" d="M444.4,560.3c0.1,8.5-1.8,17.2,1.9,25.5c0.5,1,0.2,2.6-0.3,4c-2.1,5.2-2.3,10.5-1.1,16"/>
		<path class="st2" d="M409,430.5c-2.6,2.3-6.1,3.9-6.5,8c-6.2,0.9-6.5,0-7.5,9.5"/>
		<path class="st2" d="M311.6,520.3c-0.1,0.7,0.2,1.4-0.5,2c-5.1,4.3-3,9.4-1.6,14.5c1.6,5.6,2.3,11.5,4.5,17"/>
		<path class="st2" d="M373.5,413.5c5-5.9,4.8-7.1,1.6-13.5c-1.9-3.8-5-3.8-7-2.3c-6.4,5-13,2.6-19.6,1.8"/>
		<path class="st2" d="M475.4,448.4c3.7,0.7,7.6,0.9,11.9,3.1c-5.4,7.9-5.3,16.5-4.9,25.3"/>
		<path class="st2" d="M478.4,583.3c0.3,6.2-0.4,12.3,0.4,18.5c0.2,1.8-0.6,3.7-0.9,5.5"/>
		<path class="st2" d="M409.5,152.3c-6.3,1.3-12.6,2.7-19,4c-1.6,0.3-3.3,0.4-5,0.5"/>
		<path class="st2" d="M548.8,189.3c3.3,3.9,5.5,8.4,7.4,13c1,2.3,2.4,4.9,4.2,5.2c5.8,0.9,6,4.9,6.5,9.2c0.1,1.2,0.3,2.3,0.5,3.5"
			/>
		<path class="st2" d="M154.3,488.4c2.6,7.6,4.9,15.4,5.7,23.5"/>
		<path class="st2" d="M506.4,565.3c-0.2,3.5,0.2,7,1,10.5c1.1,4.6,0.3,8.9-2,13"/>
		<path class="st2" d="M359,351.1c8.4-2.9,15.9,0.3,23.5,3.5"/>
		<path class="st2" d="M304.1,417c0.2,7.9-1.9,15.6-2.5,23.5"/>
		<path class="st2" d="M340.6,740.6c-1.8,7.7-2.9,15.5-2.5,23.5"/>
		<path class="st2" d="M370,379c8.1,5.1,20.2,10.5,27,4"/>
		<path class="st2" d="M651.7,399c-3.8-2-8-2.8-12-4c-5.4-1.6-9.7,0.3-12.4,5.5c-2.3,4.4-4.4,9-6.5,13.5"/>
		<path class="st2" d="M372,36c-0.7,7.8,1.5,15.3,2,23"/>
		<path class="st2" d="M273.2,111.9c-4.1,3.9-8,8.2-13,11c-2,1.1-4,2-6.5,1c-6.4-2.6-11.8-0.2-16.4,4.1c-2.1,1.9-3.9,3-6.6,2.2"/>
		<path class="st2" d="M58.9,318.1c-9.7,6.8-11.8,17.7-15,28"/>
		<path class="st2" d="M495.4,555.3c-3.3,4.7-1.5,10.5-3.4,15.5c-1.5,4-2.1,8.3-3.1,12.5"/>
		<path class="st2" d="M267.7,393.5c-2.8,6.7-3.8,13-0.2,20.1c4.3,8.4,7.8,17.2,14.1,24.4"/>
		<path class="st2" d="M621.2,100.4c-0.1,2.7,0,5.3-0.4,8c-1,5.3,0.8,10,3.4,14.5"/>
		<path class="st2" d="M185.3,286.1c-3.5,2.8-7,5.6-10.5,8.5c-2.5,2.1-3.4,11.4-1.5,15.5c1.5,3.2,3.3,6.3,5,9.5"/>
		<path class="st2" d="M423.5,227.7c-4.9,0.6-9.3,3.9-14.5,3c-0.8-0.1-1.9,0.3-2.5-0.1c-4.2-2.6-8.3-1.9-12.5,0
			c-0.4,0.2-1-0.3-1.5-0.5"/>
		<path class="st2" d="M321.6,490.9c4.6,2.7,9.3,5,14.5,6.6c4,1.2,7.4,0.9,10-2.6"/>
		<path class="st2" d="M407,609.2c-0.6,7.5,0.2,15.2-4,22"/>
		<path class="st2" d="M605.2,287.1c0,7.2,0,14.3,0,21.5"/>
		<path class="st2" d="M251.7,543.3c5.5,2.1,10,4.7,11.3,11.4c0.4,2.1,4.2,4.5,7.6,4.6"/>
		<path class="st2" d="M231.2,355.1c0.7,1.2,1.2,2.5,1,4c-0.6,4.4,0.4,8.5,3.1,11.9c1.5,1.9,0.5,3.7,0.9,5.6"/>
		<path class="st2" d="M509.9,627.2c3,6.8,4,14.1,4,21.5"/>
		<path class="st2" d="M66.9,479.9c0.5,10.3,7.1,17,14,23.5c0.7,0.6,1.7,1,2.5,1.5"/>
		<path class="st2" d="M557.3,404.5c5.8-0.2,11.7-0.4,17.5-0.5c2.9,0,4.2-2.7,6.5-3.5"/>
		<path class="st2" d="M627.2,432c1.5,5,1.8,10.5,6.5,14"/>
		<path class="st2" d="M148.3,569.3c7.4-0.4,14.4,1.2,21,4.5"/>
		<path class="st2" d="M437,385.5c-0.2,7-0.3,14-0.5,21"/>
		<path class="st2" d="M238.7,324.1c3,0.8,5.9,1.9,9,2.5c4.6,0.9,7.7,3.3,9.5,7.5"/>
		<path class="st2" d="M301.1,175.3c3.2,8.1,10.5,12.4,16.5,18"/>
		<path class="st2" d="M716.6,476.4c0.3,6.9,2,13.6,3,20.5"/>
		<path class="st2" d="M197.8,391.5c-0.4,5,0.7,9,4.8,12.7c3.1,2.8,5.2,7,5.8,11.8c0.5,3.7,2.5,6.9,6.3,8.6c1.5,0.7,2.9,2.1,4,3.5
			c2.2,2.9,4.6,3,7.5,1.5"/>
		<path class="st2" d="M60.4,441c-5.6,6.6-13.3,4.6-20.5,5"/>
		<path class="st2" d="M236.2,428c-2.9,3.9-4.5,7.8-2.7,13c1.5,4.2,2.1,8.7,5.6,12c0.7,0.7,0.9,2.1,1,3.2c0.6,4.8,2.7,8.5,7,10.7"/>
		<path class="st2" d="M452.4,460.4c-0.3-1.3-0.7-2.7-1-4c-0.8-3.4-1.7-6.4-5.4-8.1c-2-0.9-3.4-3.2-5-4.9"/>
		<path class="st2" d="M355.6,369.5c-6.5-2.3-13.3-1.1-20-1.8"/>
		<path class="st2" d="M300.6,72.4c0.7,6.6,1.2,13.2,3.5,19.5"/>
		<path class="st2" d="M383,435.5c-4.7,7.9-14.2,11.8-24,10"/>
		<path class="st2" d="M430.5,265.7c1.6,3.4,1.9,6.4-2.5,8.1c-1.1,0.4-1.8,1.8-3,3c-1.8-0.6-3.9-1.4-6-2.1"/>
		<path class="st2" d="M590.2,353.6c2.5,0,5.1,0.1,6.9-1.6c2-1.8,4.5-2.4,6.4-4c5.8,2.1,6.4,7.2,7.6,12c0.2,0.9,0.3,2.5-0.3,2.9
			c-5,4-2.5,8.3-0.7,12.6"/>
		<path class="st2" d="M213.7,359c-10.5-4.5-21.4-4.2-32.5-3"/>
		<path class="st2" d="M445.9,585.3c-4.5,1-9,2-13.5,3c-1,0.2-2.4,0.8-2.9,0.4c-5.1-4.5-9.5-1-14.1,1c-1.8,0.8-3.6,1.5-5,3"/>
		<path class="st2" d="M596.7,371.5c0,2.4,0.6,6.4-1.5,6.7c-3.9,0.5-8.3,3.2-11.8,0.6c-2.5-1.8-4.9-3.1-7.7-3.7
			c-4.4-0.9-6.9-3.6-8.5-7.6"/>
		<path class="st2" d="M616.7,460.4c-2.7,6.1-1.5,12.3-0.5,18.5"/>
		<path class="st2" d="M560.8,389.5c3.2,3.8,7.5,4.3,12,4.5c2.2,0.1,4.3,0.6,6.5,1"/>
		<path class="st2" d="M52.5,323.1c-6.2-0.8-12.2-2.2-18.5-2.2"/>
		<path class="st2" d="M482.4,563.3c-0.1,6.3-1.2,12.4-2.5,18.5"/>
		<path class="st2" d="M589.8,416.5c-6.2,4.5-5.8,11.5-6.5,18"/>
		<path class="st2" d="M471.4,73.4c-6-0.1-12-0.2-18-0.2"/>
		<path class="st2" d="M361,561.3c-3.8,1.6-7.2,3.6-10.1,6.9c-4,4.6-4.6,9.5-3.4,15.1"/>
		<path class="st2" d="M442.9,490.9c-2-1.4-4.1-2.4-6.5-2.5c-3.9-0.2-6.3,2.1-6,6c0.1,1.2,0.7,2.4,0.4,3.5c-0.7,2.4-1.2,5.1,1.1,6.4
			c2,1.1,3.8-1,5.4-2.4"/>
		<path class="st2" d="M242.7,350.1c-4.4-0.8-8.1-0.2-12.2,2.7c-3.4,2.5-8.7,2.6-13.3,1.3"/>
		<path class="st2" d="M466.4,496.4c-7.8,0-12.2,2.6-14.5,8.5"/>
		<path class="st2" d="M472.9,479.4c-0.4,6-1.9,11.5-5.3,16.6c-1.5,2.3-1.4,5.9-1.6,8.9c-0.5,5.8-4.2,9-9.5,7.7"/>
		<path class="st2" d="M412,355.6c-1.8,6-1,12-0.5,18"/>
		<path class="st2" d="M455.4,623.2c-0.6-3.2-2-5.9-4.4-7.9c-4.3,0.8-7.5,5.5-12.6,3.2"/>
		<path class="st2" d="M302.1,336.6c-1.6,3-4.3,4.2-7.5,3.4c-2.4-0.6-3.6,0.8-5,2c-2.7,2.4-4.8,5.2-9.5,5.4c-3.6,0.1-6,4.6-8.2,7.8
			c-2.2-1-4.5-2-6.2-0.5c-1.9,1.8-0.9,4.5-0.5,6.9c0.1,0.9,0.9,1.7,1.5,2.5c1.5,2,2.2,4.2,3,6.5"/>
		<path class="st2" d="M455.9,477.9c-3,5-6.5,9.2-11.3,12.7c-2.9,2.1-4.6,6.4-5.7,10.2"/>
		<path class="st2" d="M358.5,600.2c-2.8,0.1-5.6-0.4-8,1.9c-2.7,2.6-6.3,0.5-9.4,1.1"/>
		<path class="st2" d="M472.9,583.8c-1.9,5.7-2.6,11.5-1.5,17.5"/>
		<path class="st2" d="M766,311.9c-6,0.7-11.8,2.2-17.5,4.2"/>
		<path class="st2" d="M497.4,651.7c-3.8,0.8-2.8,4-2.3,6c0.9,3.3,1.8,6.6,2.3,10"/>
		<path class="st2" d="M389.5,339.1c-0.8,4.5-3.7,6.7-8,7.5c-2,0.4-4,1-6,1.5"/>
		<path class="st2" d="M715.6,451.4c0.2,5.7,0.3,11.3,0.5,17"/>
		<path class="st2" d="M586.8,317.1c-3.3,3.2-7.7,4.3-11.5,6.5c-2.4,1.4-4.3-0.7-6.5-0.6c-1.8,0.1-3.7,0-5.5,0"/>
		<path class="st2" d="M374.5,607.2c-1.7,5.5-2,11.2-2,17"/>
		<path class="st2" d="M459.4,473.4c-0.5-1.5-1-3-1.5-4.5c-2.3-6.8-3.9-7.9-11-8.5c-4.2-0.4-8.3-1.7-12.5-0.5c0.7,5.4,0.7,10.9,3,16
			"/>
		<path class="st2" d="M405.5,579.3c-3.6-0.1-6.8,1-9.5,3.5c-1.9,1.7-4.3,2.7-7,1.5"/>
		<path class="st2" d="M498.4,450.4c2.5,0.9,3.1,3.1,2.4,5c-1.5,4.1,0.5,7.2,2.1,10.5"/>
		<path class="st2" d="M399,310.1c2.8,0.9,5.6,1.7,6.5,5c1.5,5.5-1.2,8.6-7.5,8.5c-3.3-0.1-5.4-2-6.5-5"/>
		<path class="st2" d="M239.7,478.9c3.3-0.3,6,1.8,8.9,2.7c3.9,1.2,3.9,5.6,2.8,8.2c-1.4,3.3-2.1,7.1-4.2,10.1"/>
		<path class="st2" d="M441.5,224.2c-5.5-0.5-11-1.5-16.5,0.5"/>
		<path class="st2" d="M178.8,252.7c-2.5,1.9-3.4,4.2-2.6,7.5c1.7,6.6,4.7,11.7,12.1,13c1.4,0.2,2.7,1,4,1.5"/>
		<path class="st2" d="M346.1,382c-5.5-0.5-10.9-2.6-16.5-1"/>
		<path class="st2" d="M231.2,393c-3.5,4.9-3.7,10-1.5,15.5c1.6,4.1,0.7,5.6-3.5,6.5"/>
		<path class="st2" d="M296.6,508.4c3.4,2.6,7.3,4.3,9.7,8.4c1.5,2.5,5.1,2.9,8.3,2.6"/>
		<path class="st2" d="M549.8,470.4c-5.3,1.2-10.8,0.5-16,2.5"/>
		<path class="st2" d="M611.7,381.5c-2,5.3-4,10.6-6,16"/>
		<path class="st2" d="M541.3,273.9c-0.9,0.6-2.1,0.2-3,1.2c-3.2,3.2-7.3,3.5-11.4,2.9c-2.2-0.3-3.9-0.9-4,2.1"/>
		<path class="st2" d="M305.6,517.8c-4.3,4.3-9.6,5.3-14.9,2.8c-2.9-1.4-4.6-0.1-5.4,1.3c-1.2,2.1-2.1,4.8-0.7,7.4
			c1.4,2.5,4,4.9,4.3,7.5c0.9,8.8,7.7,13.6,12.2,20"/>
		<path class="st2" d="M317.1,467.9c-4.1,2.4-8.4,4.1-12.9,1.9c-1.9-0.9-2.1,0.5-3,1.1"/>
		<path class="st2" d="M280.7,267.7c-6.4,4.5-14.8,6.9-16,16.5c-0.2,1.7-1,3.3-1.5,5"/>
		<path class="st2" d="M514.3,657.2c0.4,5.5-0.3,10.9-2.5,16"/>
		<path class="st2" d="M526.3,353.6c0,5.6,1.5,11.5-3.5,16"/>
		<path class="st2" d="M263.7,253.2c4.2,2.9,8.7,4.7,14,4c3.3-0.4,6.6-0.2,10-0.3"/>
		<path class="st2" d="M545.8,720.6c-0.8,5.2-3.2,10.1-2.5,15.5"/>
		<path class="st2" d="M506.4,685.6c-5.1,1.7-10.1,3.5-15.5,4"/>
		<path class="st2" d="M422.5,621.2c-1.7,6.7-8.2,7-13,9.5"/>
		<path class="st2" d="M571.8,307.1c-4.2,4.7-3.1,10.1-2,15.5"/>
		<path class="st2" d="M235.2,227.7c-1.8,4-5.9,3.2-9,3.8c-2.8,0.5-5.6,1.1-8.4,1.7"/>
		<path class="st2" d="M292.6,405.7c-4.2,0.6-8.6,4-12.3,1.9c-2.7-1.5-3.8,0-5.7,0.3"/>
		<path class="st2" d="M421,441c-2.5-1.2-4.9-2.5-7.6-3.8c-2,2-4.6,2.9-4.8,6.8c-0.3,4.7-5.8,7.1-11,5.4c-3.8-1.2-6.8-1-10.1,1.4
			c-1.2,0.9-3.1,1.8-4.9,2.2"/>
		<path class="st2" d="M315.1,652.2c3.7,3.6,7.6,7.2,7.5,13"/>
		<path class="st2" d="M444.7,425.5c-1.4,1.4-2.1,2-4.2,2c-5.8,0-9.5,3.2-11.4,8.1c-1.8,4.7-5.5,7.9-7.9,12c0.7,3.6,2.1,6.7,6.3,8
			c2,0.6,3.7,2.2,5.5,3.4"/>
		<path class="st2" d="M434.5,638.7c-4.2,3.7-8.3,7.3-12.5,11"/>
		<path class="st2" d="M638.2,535.8c-5,0.3-9.9,2.1-15,1.5"/>
		<path class="st2" d="M299.1,340.6c1.8,7.1,6.1,8.6,11,4"/>
		<path class="st2" d="M293.6,293.1c-1.7-1.2-3.4-2.2-5-3.5c-4.7-4-9.5-4-14.5-0.5c-1.2,0.9-2.4,1.9-4,1.5
			c-4.3-1.1-8.3,0.2-12.5,0.7c-4.5,0.5-7.3,2.4-10,5.3c-2.1,2.4-4.3,4.7-6.5,7"/>
		<path class="st2" d="M558.8,357.1c-1.8,0.8-3.7,1.7-4.5,3.5c-1.8,4-5.2,4.9-9,5.5"/>
		<path class="st2" d="M375.3,416.5c-1.5-4-4.6-3.6-7.2-1.9c-5.9,3.8-12.9,5.1-19,8.4"/>
		<path class="st2" d="M457.9,272.7c-4.8,0-9.6,0-14.5,0"/>
		<path class="st2" d="M362,455.9c4.6,2.5,9.6,1.4,14.5,1.5"/>
		<path class="st2" d="M310.1,264.2c-4-1.5-8.2-1.9-12.5-1.5c-0.9,0.1-2.3,0.8-2.7-1"/>
		<path class="st2" d="M326.4,504.4c-3,5.4-1.5,11.3-1.8,17"/>
		<path class="st2" d="M384,680.6c6.2,6,5.1,14,6,21.5"/>
		<path class="st2" d="M343.6,497.9c0.8,2.3,0.6,4.9,3,6.5c1.9,1.2,0.7,3.3,1,5c0.2,1.3-0.7,3.4,2,3"/>
		<path class="st2" d="M346.6,627.2c1.7,4.7,3.3,9.3,5,14"/>
		<path class="st2" d="M449.9,361.5c1.6,4.7-0.1,9.3-0.5,14"/>
		<path class="st2" d="M568.8,372c-2.8,1.1-4.5,3-5.6,6c-2.2,6-6.2,10.6-11.9,13.5c-2.4,1.2-5,0-7.5,0.5"/>
		<path class="st2" d="M496.9,112.9c0.3,1.2,1.2,2.5,0.9,3.5c-1.2,3.5-0.5,7-0.4,10.5"/>
		<path class="st2" d="M305.6,506.4c3.1,1.7,5.5,0.6,8-1.5c1.8-1.4,3.7-1.6,6-0.6c5.5,2.4,11.8,2.5,17,6c1.3,0.9,2.2,1.5,1.9,3.1"/>
		<path class="st2" d="M545.8,292.6c-0.7-4.3-4-3.4-6.5-2.9c-3.4,0.7-5.1,3.2-4.5,6.9"/>
		<path class="st2" d="M441.5,442c1.5-1.4,2.9-2.7,4.4-4.1c2.3,2.3,6.3,0.9,8.1,4.1"/>
		<path class="st2" d="M562.8,381c4.3,2.7,8.7,5.3,13,8"/>
		<path class="st2" d="M390.5,395.5c-5.3-1.2-10.6-3.6-16-0.5c-0.5,0.3-0.7,1.3-1,2"/>
		<path class="st2" d="M421,398c-1.2,2-2.3,4-3.5,6c-1.6,2.8-1.1,5.1,1.5,7"/>
		<path class="st2" d="M623.7,435c-2.4,3.6-5.4,6-9.3,8.3c-5.6,3.3-8.3,9.7-9.7,16.2"/>
		<path class="st2" d="M393.5,401.5c-1.4,0-3.2-0.4-3,2c0.1,1.4-0.8,3.1,1.9,3.7c1.4,0.3,3.1,0.7,4.5,1.3"/>
		<path class="st2" d="M381.5,457.4c0.5,4.1-0.9,7.3-4.5,9.5c-1.3,0.8-2.4,2-3.5,3"/>
		<path class="st2" d="M222.2,488.9c1-0.7,2.1-1.2,3-2c3.8-3.7,3.4-5.9-1.5-8.5"/>
		<path class="st2" d="M266.7,505.4c-1.8-0.9-3.4-0.7-4.5,1c-1.4,2.2-0.2,4.5,0.6,6.4c1.3,2.9,5,3.2,7.4,5"/>
		<path class="st2" d="M482.9,285.6c-0.1,5.8-4.3,8.7-8.5,11.5"/>
		<path class="st2" d="M438,568.3c-6.9-6-15.9-4.1-19.2,4"/>
		<path class="st2" d="M237.7,393.5c0.8,4.4-0.3,9.4,3.5,13"/>
		<path class="st2" d="M420,267.7c0,3.5-0.7,6.5-3.5,9c-5.2,4.6-4.6,8.4,1.5,12.5"/>
		<path class="st2" d="M504.9,520.8c-1.3,4.1-1,8.3-1,12.5"/>
		<path class="st2" d="M582.8,359.5c0.5,1.7,1.4,3.9-0.1,4.9c-3.7,2.5-3,5.7-2.4,9.1c0.1,0.8,0,1.7,0,2.5"/>
		<path class="st2" d="M424,682.1c0,0.2,0,0.3,0,0.5c-2.6,7.3-2.3,14,4,19.5"/>
		<path class="st2" d="M387,665.7c-4-2.2-8.3-1.4-12.5-1.5"/>
		<path class="st2" d="M346.1,575.8c-4.3-1-8.4-0.5-12.5,1"/>
		<path class="st2" d="M420.5,504.4c-4.2,0.3-8.4-0.6-12.5,0.5"/>
		<path class="st2" d="M229.2,415c3.2,6.4,7.2,12.1,13.2,16.2"/>
		<path class="st2" d="M260.7,53c-0.2,4.6,2.9,8,4.5,12"/>
		<path class="st2" d="M495.4,302.9c-3.8,2.9-2.3,7.1-2.4,10.7c-0.1,3.3-0.1,6.2-3.1,8.5c-2.3,1.8-3.5,4.4-3.5,7.4"/>
		<path class="st2" d="M373,382.5c-1,4.3,2,7.9,2,12"/>
		<path class="st2" d="M222.7,431.5c0,2.2,0.1,4.3,0,6.5c-0.1,2.2-1.8,4.8,0.6,6.4c2.3,1.5,4.4,4.2,7.9,3.1c0.9-0.3,2,0,3,0"/>
		<path class="st2" d="M421,546.3c-2.2,3.5-8,4.4-7.5,10"/>
		<path class="st2" d="M291.1,408c2.6,3.7,4.1,7.5,2,12"/>
		<path class="st2" d="M426,414c-2.1-0.3-4.4-1.5-6,1c-1.9,3.1-5.9,5-5.6,9.5c0.2,2.5,2.2,2.8,3.6,4"/>
		<path class="st2" d="M523.3,344.6c-1.6,1.5-2.2,3.7-4.9,4.7c-3.6,1.5-2,6.1-3.1,9.2"/>
		<path class="st2" d="M573.3,509.4c-4.3-2-8.2,1.5-12.5,1.4c-0.3-4.9,3.4-8.1,3.5-12.4"/>
		<path class="st2" d="M427.5,301.6c1.5,5.5,5.5,8.8,10.5,11"/>
		<path class="st2" d="M556.3,510.9c-0.3,3.8-1.4,7.6-1,11.5"/>
		<path class="st2" d="M451.9,281.1c-3.7-1.6-7.7-0.5-11.5-1.5"/>
		<path class="st2" d="M658.7,393.5c3.8,0.2,7.7-0.5,11.5,0.5"/>
		<path class="st2" d="M271.2,320.1c-1.4,4.4-3.2,8.3-8,10"/>
		<path class="st2" d="M533.8,381.5c-0.9,4-4.2,7.2-4.5,11.5"/>
		<path class="st2" d="M255.2,529.8c-2,1.3-4,2.7-6,4c-4.4-1.4-7.7-3.9-7.9-9"/>
		<path class="st2" d="M477.9,496.4c2.2,1.6,3.2,4.3,1.4,5.8c-2.1,1.8-2.5,6.8-7.4,4.8c-1.6-0.6-3.6-0.1-5.5-0.1"/>
		<path class="st2" d="M294.1,510.9c-1.7-1.4-3.1-1.5-5.5,0.1c-1.9,1.3-3.9,1.6-6,1.4"/>
		<path class="st2" d="M391,562.3c2.2,2.1,4,4.8,7.5,5c1.6,0.1,2.8,1.2,2.9,2.5c0.5,4.4,4.1,7.2,5.6,11"/>
		<path class="st2" d="M207.8,430.5c2.3,0.4,2.9,3.7,2.8,3.9c-1.6,3.9,2,5.6,3.3,8c2.5,4.7,3.8,4.6,8.4,1.5"/>
		<path class="st2" d="M243.7,61.9c0.2,4,1.6,7.6,3.5,11"/>
		<path class="st2" d="M347.6,254.7c-3.8,0.5-7.4-0.6-11-1.5"/>
		<path class="st2" d="M321.9,524.3c0.8-0.9,1.7-1.9,2.6-2.9c3.8,2.2,7.8,3.7,7.7,8.9"/>
		<path class="st2" d="M519.3,391c2,0.5,3.8,1.7,6,1.5c3.9-0.4,5.9,2.1,5.8,5.5c-0.1,3.6,1.8,5.9,3.6,8.5"/>
		<path class="st2" d="M145.3,199.8c-0.6,3.6-1.3,7.3-1,11"/>
		<path class="st2" d="M497.4,457.9c-3-2.9-7.2-3.7-10.5-6"/>
		<path class="st2" d="M564.8,558.3c-0.8,3.9-2.3,7.4-5.5,10c-1,0.8-2,0.5-3,0.2"/>
		<path class="st2" d="M554.8,368c3.5,1.8,7,3.7,10.5,5.5"/>
		<path class="st2" d="M399,356.6c2.7-5.3,1.9-7-3.5-7.5"/>
		<path class="st2" d="M593.8,281.6c1.3,3.5,2.7,7,4,10.5"/>
		<path class="st2" d="M428,402.5c-0.4,2.2-0.7,4.2-0.1,6.5c0.4,1.5,0.9,3.5-1.3,5.1c-2.4,1.7-0.3,5-1.6,7.4"/>
		<path class="st2" d="M430.5,462.9c-2.4,2.6-6,3.4-8.6,5.9c-1.1,1-3.7,0.3-5.4-0.8c-1.1-0.8-1.1-1.9-1-3c0.2-2.4,2.6-2,4-3"/>
		<path class="st2" d="M373,503.9c-0.6,4.3-2.9,7.4-7,9"/>
		<path class="st2" d="M110.9,388.5c-3.4-0.2-6.5-2-10-1.5"/>
		<path class="st2" d="M510.4,501.9c-3.3,0.8-6.7,1.7-10,2.5"/>
		<path class="st2" d="M529.3,374.5c-4.8,5.1-11,3.8-17,4"/>
		<path class="st2" d="M478.4,322.6c-2.1,1.6-5.5,0.4-7.1,3.5c-0.5,1-0.1,1.7-0.4,2.5"/>
		<path class="st2" d="M386.5,222.2c-4.7-3.9-8.9-0.7-12.4,1.7c-3.3,2.2-5.9,4.6-10.1,2.8c-0.1-0.1-0.4-0.1-0.5,0
			c-4.6,3.4-7.7,0.1-11-2.5"/>
		<path class="st2" d="M595.8,458.4c0.2,1.3,1,3.2,0.4,3.9c-3.9,4.8-1.2,10.5-2.3,15.6c-0.9,4,2.3,6.8,4.9,9.5"/>
		<path class="st2" d="M458.9,451.9c1-1.9,1.9-3.7,3.1-5.9c3.9,1,7.9,2.1,12.1,3.2c1-2.8,1.6-5.1,0.4-7.9c-0.8-1.9-1.2-4.5,1.9-5.5"
			/>
		<path class="st2" d="M244.7,377.5c-1.5,0-3.2,0.5-4.4-0.1c-2.8-1.2-4.7-1.4-6.6,1.5c-2.3,3.5-2.2,7.1-0.3,10.5
			c1.4,2.4,3.6,3.8,6.9,2.7c1.1-0.4,2.7-1.1,4.5-0.3c1.7,0.8,3.4-0.4,4.5-2.3c0.6-1,0.5-2.7,1-2.9c5.2-3.2,4.6-7.8,3.4-12.6
			c-0.6-2.4,2.1-3.2,2-5.2"/>
		<path class="st2" d="M381.5,329.1c1.2,1.4,3.2,2.1,4,4c1.9,4.3,5.2,6.2,10,5.5"/>
		<path class="st2" d="M389,687.1c3.1,0.5,6.5-1.1,9.5,1"/>
		<path class="st2" d="M482.4,332.6c0.6,4-3.5,2.9-5.1,4.3c-1.9,1.6-6.2,0.6-6.6,3.7c-0.5,3.5,0.6,7.2,3.3,10"/>
		<path class="st2" d="M560.3,342.6c-2.7,1.2-6.3,1.1-7,5c-0.7-0.2-1.3-0.3-2-0.5"/>
		<path class="st2" d="M595.8,520.8c1.3,3.7,3.5,6.9,6.5,9.5"/>
		<path class="st2" d="M504.9,426c-3.2-0.4-6.3-0.4-7.5,3.5"/>
		<path class="st2" d="M441.5,233.7c-3.3,2.6-6.3-0.5-9.5-0.5"/>
		<path class="st2" d="M300.6,536.3c-3.2,0.1-6.6-0.6-9.5,1.5"/>
		<path class="st2" d="M443.4,677.6c-3.3-1.3-6.4,0-9.5,1"/>
		<path class="st2" d="M393,237.2c1.3,1.6,3,2,5,2c7.1,0,7.9-0.4,7.5,7.5"/>
		<path class="st2" d="M275.2,543.8c-1.2,3.4,0.6,6.4,1.5,9.5"/>
		<path class="st2" d="M542.3,260.2c3.7,1.5,5.4,4.7,7,8"/>
		<path class="st2" d="M698.6,227.2c3.2,0,6.3,0,9.5,0"/>
		<path class="st2" d="M574.8,482.4c-1.5,3.8-4.5,6.5-7,9.5"/>
		<path class="st2" d="M491.4,299.1c-4,0.6-6.1,4.8-10,5.5"/>
		<path class="st2" d="M298.6,473.4c-0.6,1.5-0.9,2.9,0,4.5c1,1.9,1.2,4.4,0.4,5.9c-1.8,3.1,0.3,3.6,2.2,4.6c2.3,1.2,4.7,2.3,7,3.5"
			/>
		<path class="st2" d="M529.3,173.3c-2.9,1.2-6,1-9,1"/>
		<path class="st2" d="M280.2,316.6c-0.8,3-1.7,6-2.5,9"/>
		<path class="st2" d="M359.5,591.8c0.2,3.8,0,7.6,0.8,11.5c0.6,3.1-0.8,6.5-2.5,9.5"/>
		<path class="st2" d="M112.4,351.6c-2.2,2.8-4.4,5.3-8.5,4.5"/>
		<path class="st2" d="M299.6,488.4c-0.8,3,2,6.1-0.5,9"/>
		<path class="st2" d="M327.1,599.2c-1.2,2.9-1,6-1,9"/>
		<path class="st2" d="M393,586.3c3.6,2.1,0.9,6.4,3,9"/>
		<path class="st2" d="M394.5,566.8c-1.5,3-3,6-4.5,9"/>
		<path class="st2" d="M193.8,438c5.2,3.1,10.6,3.6,16,0.5"/>
		<path class="st2" d="M580.8,453.4c1.2,3.2-1.3,5.9-1,9"/>
		<path class="st2" d="M455.4,547.3c-0.6,0.5-1.4,1.2-1,2c1.5,2.6,1.3,5.3,0.5,8"/>
		<path class="st2" d="M214.2,542.8c1.2,1.2,2.2,2.9,4,2.9c4.6,0.1,6.8,3,8.5,6.6"/>
		<path class="st2" d="M314.1,472.4c-4.4,5.2-3.5,10.8-1,16.5"/>
		<path class="st2" d="M393.5,246.2c3.3-0.2,6.2,1,9,2.5"/>
		<path class="st2" d="M590.8,514.3c-3.1,2.7-5.7,6-6.4,10c-0.5,2.8-2.7,3.7-4.2,5.4c-1.5,1.7-2.7,3.7-3.9,5.6"/>
		<path class="st2" d="M494.9,439c-1.9,2.4-5.8,3.1-5.2,7.5c0.1,1.1-2.4,2.6-3.8,4"/>
		<path class="st2" d="M422.5,319.6c0.1-3.7-2.2-5.8-5-7.5"/>
		<path class="st2" d="M434.5,332.6c-2.4,1.8-5,2.9-8,1.5"/>
		<path class="st2" d="M486.4,426c-0.3,5.5-2.5,11.4,3.5,15.5"/>
		<path class="st2" d="M414.5,277.7c-3.4-0.5-4.6-4.5-8-5"/>
		<path class="st2" d="M536.3,327.1c-4.1,3.5-4.2,6.2,0,8.4c2.1,1.1,4.2,2.2,5.9,3.8"/>
		<path class="st2" d="M326.1,483.4c-0.7,0.7-1.4,1.3-2,2c-2.5,3.5-4.3,7.2-10.1,4.2c-3.4-1.7-6.9,2.7-6.6,7.2"/>
		<path class="st2" d="M500.9,398.5c0.1,3.5,3.5,4.7,5,7.2"/>
		<path class="st2" d="M454.9,416.5c-0.3,3.5-3,6.9,0.4,10.6c1.5,1.6-1.3,4.1-0.9,6.4"/>
		<path class="st2" d="M218.7,537.3c1.5,0,3,0,4.5,0c-0.2,3.3,0.3,6.2-0.5,9"/>
		<path class="st2" d="M192.8,367c2.8,0.7,5,2.9,8,3"/>
		<path class="st2" d="M492.4,533.8c-3.6-0.6-4.2,1.8-4.5,4.5"/>
		<path class="st2" d="M311.1,395.5c-0.6,2.9,2,5.1,1.5,8"/>
		<path class="st2" d="M267.2,506.4c2.1,1.7,3.2,4.2,4.4,6.5c0.8,1.5,1.8,1.5,3.1,1.5"/>
		<path class="st2" d="M452.9,424.5c-2.5,0.8-5,1.7-7.5,2.5"/>
		<path class="st2" d="M392,322.1c-2.5,1-5,2-7.5,3"/>
		<path class="st2" d="M290.1,487.9c-1.2,6,2,9.3,7,11.5"/>
		<path class="st2" d="M192.3,248.2c-2.2-1.8-4.6-2.7-7.5-2.5"/>
		<path class="st2" d="M464.9,316.6c-0.3,0-0.7,0-1,0c-5.9-0.6-8.8,1.4-6,9"/>
		<path class="st2" d="M204.8,562.3c0.7,5.5-1.2,10.2-4.5,14.5"/>
		<path class="st2" d="M677.1,247.2c-0.3,2.5-0.7,5-1,7.5"/>
		<path class="st2" d="M510.4,404c-4,1-6.3,4.3-9,7c-1.5,1.5-2.8,2.7-5,1.5"/>
		<path class="st2" d="M521.3,369.5c1.8,2.4,1.5,5.2,1.5,8"/>
		<path class="st2" d="M514.8,371c-3.7,4.1-4.4,9.2-4.5,14.5"/>
		<path class="st2" d="M340.1,515.3c2.2,2,3.1,4.8,4,7.5c1.5,0,3,0,4.5,0"/>
		<path class="st2" d="M282.1,468.4c0.2,2.3,0.3,4.7,0.5,7"/>
		<path class="st2" d="M378.5,521.8c-2.4-0.2-4.5-1.5-7-1"/>
		<path class="st2" d="M340.1,533.1c-0.7,2.8-1.3,5.5-2,8.2"/>
		<path class="st2" d="M391.8,243.7c0.2,1,2,1.7,0.7,3c-2.9,3-2.5,6.8-2.5,10.5"/>
		<path class="st2" d="M599.7,328.6c0.2,2.4,1.5,4.5,1,7"/>
		<path class="st2" d="M401,399.5c-1,2.9,0,6.3-3.3,8.8c-1,0.7,0.8,5,1.3,7.7"/>
		<path class="st2" d="M385,263.7c-0.4-3.7,2-5.8,5-5.8c2.1,0,5.4,1,5,4.8"/>
		<path class="st2" d="M321.1,413.5c0.5,2.5-0.9,4.6-1,7"/>
		<path class="st2" d="M513.8,395.5c0.3,3.3-1.3,7.4,3.5,9"/>
		<path class="st2" d="M154.3,203.8c0.1,2.4,1.5,4.5,1,7"/>
		<path class="st2" d="M381,210.8c-1.9,1.8-4.5,0.3-6.5,1.5"/>
		<path class="st2" d="M297.1,370c-1.8,2-4.1,2.1-6.5,2"/>
		<path class="st2" d="M640.7,344.1c-0.4,2.1-1.4,4.2-1,6.5"/>
		<path class="st2" d="M537.3,393c-2.2,0.7-4.3,1.3-6.5,2"/>
		<path class="st2" d="M176.8,411c-2.3-0.4-4.3,0.6-6.5,1"/>
		<path class="st2" d="M435,411c-1.9,1.6-4.2,1.8-6.5,2"/>
		<path class="st2" d="M499.4,413.5c1.3,2,2.7,4,4,6"/>
		<path class="st2" d="M460.9,353.1c0.8,2.2,1.7,4.3,2.5,6.5"/>
		<path class="st2" d="M416.5,305.6c-3,2.3-2.8,4.4,0.2,6.5"/>
		<path class="st2" d="M428,304.6c-2.2,1.2-4.3,0.1-6.5,0"/>
		<path class="st2" d="M434.5,550.3c-1.5-3.5-4.4-2.1-7-2"/>
		<path class="st2" d="M509.4,322.6c-0.4,2.7-3.1,2.3-4.6,2.8c-4.9,1.9-7.3,4.9-6.9,10.1"/>
		<path class="st2" d="M490.4,409.5c-2.7-0.8-3.6,2.7-6,2.5"/>
		<path class="st2" d="M464.4,438c-2.5,2.1-4.9,3.7-8.5,3.7c-3.5,0-3.3,4.2-5,6.3"/>
		<path class="st2" d="M410.5,332.1c-2.2,2.4-5.2,4.2-5.6,8c-0.1,1.6-1.5,2.8-3.4,2.5"/>
		<path class="st2" d="M399,328.6c-1.4,5,2.3,6.8,5.5,9"/>
		<path class="st2" d="M418,323.6c0.7,2.3-3.6,4.2-0.5,6.7"/>
		<path class="st2" d="M423,599.2c0,2,0,4,0,6"/>
		<path class="st2" d="M420,333.1c4.4,3.2,5.1,3,7-2"/>
		<path class="st2" d="M380.5,200.3c-1.5,2.3-3.8,2.1-6,2"/>
		<path class="st2" d="M390,408c-1.7,1.5-3.3,3-5,4.5"/>
		<path class="st2" d="M184.8,416.5c-0.8,3.8-1.7,7.7,1.5,11"/>
		<path class="st2" d="M561.8,511.4c3,3.1,6.8,5.7,5.5,11"/>
		<path class="st2" d="M416,468.4c-3.1,2.7-6.9,5-6.5,10"/>
		<path class="st2" d="M469.9,340.1c-1.8-0.5-3.7-1-5.5-1.5"/>
		<path class="st2" d="M298.6,360.5c2.5,0.7,1.8,3.4,3,5"/>
		<path class="st2" d="M241.2,380c0.5,1.8,1,3.7,1.5,5.5"/>
		<path class="st2" d="M473.4,396.5c0.6,5.5-5,5.6-7.5,8.5"/>
		<path class="st2" d="M524.3,238.2c-3,0.4-6.1,0.7-7,4.5"/>
		<path class="st2" d="M229.7,491.9c5.8,2.5,1.7,5.6,0.5,8.5"/>
		<path class="st2" d="M380.5,255.7c1.8,1.2,3.7,2.3,5.5,3.5"/>
		<path class="st2" d="M413.5,545.3c-1.8,0.8-3.7,0.4-5.5,0.5"/>
		<path class="st2" d="M485.4,422c-2.4,1.6-7.1,0.9-6,6"/>
		<path class="st2" d="M392.5,285.6c-2.8-1-6.2-1-8-4"/>
		<path class="st2" d="M474.4,523.3c-6.2,1.5-1.9,4.5-1,7"/>
		<path class="st2" d="M365.5,590.8c-3.4,1.4-6.6-0.5-10-0.5"/>
		<path class="st2" d="M333.1,605.2c0.6,1.6-2.9,3.7,0.5,5"/>
		<path class="st2" d="M321.1,610.7c-1.9,1.1-2.3,3.7-4.5,4.5"/>
		<path class="st2" d="M280.7,372c2.6,1.4,6.4,1.1,7.2,5"/>
		<path class="st2" d="M504.4,394c-2.6-0.2-2.3,3.7-5,3.5"/>
		<path class="st2" d="M382,422c-0.2,0.7-0.7,1.6-0.4,2c2.3,2.6,5.6,3.9,7.6,7c0.3,0.4,2.2-0.2,3.4-0.4"/>
		<path class="st2" d="M395,420c5-4.7,5.3-4.8,8-0.5"/>
		<path class="st2" d="M325.6,357.6c0.3,2.3,2.5,2.5,4.1,3.6c-0.5,1.3-0.9,2.6-1.4,3.9"/>
		<path class="st2" d="M432,288.6c1.9,0.7,1.5,3,3,4"/>
		<path class="st2" d="M560.8,359c0.9,1.3,1.8,2.5,2.7,3.8c2.4-0.5,3-2.9,4.8-2.3"/>
		<path class="st2" d="M387,415c3.1,1.3,3.2,4.3,4,7"/>
		<path class="st2" d="M575.3,360.5c0.8,1.5,1.7,3,2.5,4.5"/>
		<path class="st2" d="M664.2,438.5c-2.5-0.1-4.7,1.4-7,2"/>
		<path class="st2" d="M521.3,431c-4.6,0.7-3.5,3.6-2.5,6.5"/>
		<path class="st2" d="M541.3,415c-2.6,1.6-5.3,0.1-8,0.5"/>
		<path class="st2" d="M457.4,317.9c-1-2.3-3-2.2-5-2.2"/>
		<path class="st2" d="M402.5,255.7c-3.6-1.3-5,1.6-7,3.5"/>
		<path class="st2" d="M430.5,285.6c-0.5,1,2.5,2,0,3"/>
		<path class="st2" d="M361,583.8c-0.3,0.5-0.7,1-1,1.5"/>
	</g>
</g>
<g id="레이어_2_00000138573561453658832200000000143334601877661582_">
	<g>
		<path class="st2" d="M357.9,587.9c1.1,2.4,2.3,4.8,3.2,6.8c0,3.9,0.2,7.7-0.1,11.4c-0.1,2.1-0.7,4.2-1.4,6.1
			c-0.6,1.7-1.5,3.2-2.5,5.2c4.8,1.1,7.4-1.9,10-4.2c3.2-2.8,5.4-4.8,7.2,1.1c0.4,1.3,4,2.9,5,2.4c4-2.1,7.2-0.1,10.4,1.3
			c8.5,3.5,8.7,3.5,13.7-3.4c2.8,3.7,5.4,7.7,8.8,10.9c1.2,1.2,4.5,0.2,8.1,0.2c-0.4,2.1,0,5.6-1.6,7.5c-3.6,4.4-2.3,9-1.2,13.3
			c1,3.7,3.9,2.3,6.3,0.3c2.5-2,5.1-3.8,7.7-5.7c0.5,0.5,1,1,1.6,1.5c-1.1,1.5-2.1,3.2-3.4,4.4c-8.2,7.3-7.9,19,0.8,25.8
			c1.6,1.2,3,2.6,4.7,3.7c5,3.1,5.2,7.4,3.3,12.3c-2.6,6.8-3.9,7.7-10.8,7.9c-1.7,0-3.5,0.5-6.2,0.9c1.6,0.5,2.3,0.8,2.9,0.8
			c5.6,0.3,10.9,0.4,11.1,8.3c0,1.8,3,3.9,4.9,5.4c3.2,2.4,3.7,5.1,2.7,8.7c-3.1,11.2-2.2,13.5,7.2,20.1c2.8,2,5.7,4.1,8.1,6.7
			c4.4,4.6,3.9,9.1-1.4,12.5c-2.5,1.6-5.5,2.2-8.2,3.5c-3.1,1.5-6.5,2.7-9,4.9c-2.9,2.4-5.5,3-8.6,1.2c-4.1-2.3-8-2.4-12.4-0.5
			c-1.6,0.7-4.2,0.2-6-0.5c-4.6-1.8-8.9-4.4-13.5-6.1c-7.3-2.7-8.9-6.9-3.5-12.5c5.3-5.4,7.3-11.6,7.8-18.8c0.2-2.8,1.7-5.7,3.1-8.3
			c3.1-6.2,6.8-12.1,9.6-18.5c1-2.1,0.1-5,0.1-6.5c-4.9,0.5-9.1,1.5-13.3,1.1c-4.8-0.5-7.4-4-7.1-9.3c-2.4,5-4.4,9.6-6.7,14
			c-0.6,1.2-2.1,2.8-3,2.6c-1.6-0.2-3.5-1.3-4.3-2.6c-2.6-4.5-5.4-6.3-9.2-4.6c-4.3,1.8-4.5,5.3-3.4,9.2c3.8,14.4,1.1,29.1,2.1,43.6
			c0.2,3.9-2.6,8.1-4.2,12.1c-0.3,0.8-1.4,1.4-2.3,1.7c-3.5,1.3-7.1,2.7-10.7,3.6c-1.4,0.3-3.5-0.1-4.4-1c-3.7-3.9-7.7-3.7-11.8-1.2
			c-2.8,1.7-4.9,1.3-7.2-0.5c-5.7-4.3-11.6-8.4-17.1-12.9c-6.4-5.2-6-11.1,0.6-16c7-5.2,8.6-8.7,6.2-15.5c-0.5-1.5-2.8-2.5-4.4-3.5
			c-1.7-1-3.7-1.5-5.4-2.6c-4.9-3-9.4-6.6-14.5-9.2c-3.9-2-7.9-0.2-9.1,4.2c-1.5,5.4-2.2,11-3,16.6c-0.4,2.8,0,5.7-0.3,8.5
			c-0.3,4.1-2.3,6.9-6.6,7.5c-6.1,0.8-12.2,1.8-18.3,2.3c-1.4,0.1-3.4-1.2-4.4-2.5c-2.9-3.5-6.1-5.3-10.8-4.8
			c-1.6,0.2-3.8-1-4.9-2.3c-4.1-4.8-7.9-9.8-11.9-14.8c-4.2-5.3-4.2-8.8,0.6-13.5c4.1-4,4.1-8.7,2.7-13.4c-1.1-3.8-4.1-5.4-8.3-4
			c-2,0.7-4.2,1.1-6.2,0.8c-2.9-0.4-4.9-2-4.2-5.5c0.7-3.7-0.9-6-4.1-7.7c-1.2-0.6-2.2-1.5-3.2-2.3c-7.7-6.8-7.1-13.9,1.6-19
			c1.6-0.9,3.3-2.1,5-2.1c7.6,0,11.7-6.2,17.3-9.6c3.3-2,2.9-4.8-0.4-7c-1.5-1-3.1-1.9-4.8-2.6c-4.4-1.9-8.4-4-11.2-8.4
			c-3.5-5.5-9.5-5.9-14.9-2.1c-2.6,1.8-5.2,3.5-7.9,5.2c-7.1,4.3-8.2,7-5,14.8c1.8,4.6,2.4,8.8,0.3,13.5c-2,4.5-5.3,6.2-9.6,4.5
			c-4.4-1.7-8.4-4.5-12.7-6.6c-2.8-1.4-5.9-3.1-8.9-3.1c-9.2-0.1-18.5-7.3-20.2-16.2c-0.8-4.1-1.6-8.2-2.9-12.1
			c-1.2-3.8-0.9-6.8,2.8-9c4.6-2.8,5.1-7.8,5.4-12.3c0.1-1.8-2.7-4.5-4.8-5.7c-3.3-1.9-4.5-4.4-5-8c-0.6-4.1-1.6-9-6.7-9.2
			c-5.6-0.3-6.5,4.9-7.5,9.1c-2.5,10.2-9,12.6-17.8,6.6c-4.9-3.4-10-6.4-14.8-10c-1.4-1-2.5-3.2-2.6-4.9c-0.3-5.5-1.7-9.7-7.8-11.2
			c-1.2-0.3-2.4-3-2.5-4.6c-0.8-8.6-0.9-17.2-2.1-25.8c-0.4-2.9-2.9-5.9-5.1-8.2c-2.3-2.4-3.7-4.4-2.7-7.8c1.2-4-0.5-7.3-3-10.5
			c-1.3-1.6-2.1-4.1-2.1-6.2c0.1-4.8,0.7-9.5,1.3-14.3c0.3-2.3,0.4-4.7,1.3-6.8c2-5,6.6-6.6,11.4-4.1c2.1,1,4.1,2.1,6.3,3
			c4.4,1.7,7-0.1,7.2-4.9c0.1-3,0.1-6-0.1-8.9c-0.2-2.7-1.4-4.1-4.3-2.7c-1.6,0.8-3.3,2-5,2.1c-2.8,0.1-6.1,0.2-8.2-1.2
			c-5.1-3.4-10.1-6.1-16.5-6.1c-2,0-4.8-2.1-5.9-4c-2.7-4.5-6.5-9.2-2.4-15c0.5-0.8,0.3-2.3,0-3.4c-2.7-9-0.2-16.9,5.1-24.2
			c1.5-2.1,2.3-4.8,3.4-7.2c1.8-3.8,4.6-6,9-6c4.6,0,8.4,1.5,10.1,5.9c2.2,5.8,6.3,8.2,12.3,9.4c5.7,1.1,11,3.2,17.1,2
			c6.9-1.4,10-3.4,11.3-9.4c1.7-7.7-0.7-15-6.1-18.2c-0.8-0.5-1.7-0.8-3-1.5c2.9-1.1,5.3-1.7,7.5-2.8c2.2-1.1,4.2-2.6,7.2-4.6
			c0.6,4.9,1.2,8.9,1.7,13c1.2,11.2,1.5,22.6,3.6,33.6c1.8,9.8,6.9,18.6,14.1,25.8c1.6,1.6,3.8,3,5.9,3.4c2,0.4,5.6-0.2,6.1-1.4
			c2.2-4.9,5.3-9.7,3.5-15.6c-1.9-6.1-2.5-11.9,2.5-17.2c1.3-1.4,1.4-4,2.1-6c1.1-3.4,2.2-6.8,3.2-10.2c0.3-1.1,0.9-2.3,0.7-3.3
			c-1.5-8.9-1.1-17.4,4.5-25c0.2-0.3,0.1-0.9,0.1-1.7c-3.9-0.7-6.7,0.4-9.9,2.9c-4.4,3.5-9.7,6.1-14.9,8.1c-1.4,0.5-4.7-2.1-6.1-4
			c-3.1-4.2-5.1-9.1-10.9-10.8c-1.6-0.5-2.7-3.6-3.4-5.7c-1.3-3.9-3.1-6.3-7.8-6c-5.6,0.4-6.6-0.8-6.5-6.5c0-5-4-9.9-8.7-11.2
			c-7.1-2-13.9-3-20.9,0.3c-2,0.9-4.9,0.6-7.3,0.2c-4.5-0.8-8.6-0.3-12.1,2.8c-1,0.9-2.2,1.6-3.3,2.2c-8.2,4.5-12.8,2.9-15.6-6
			c-1.9-6.3-3.1-12.9-4.3-19.5c-0.3-1.5,0.5-3.2,1-4.7c0.8-2,2.5-3.9,2.6-5.9c0.1-9.9,8.1-13.7,14.2-19c2.4-2.1,4.9-4,7.3-6
			c4.7-4,8.7-3.7,12.2,1.4c1.6,2.3,2.5,5,3.4,7.7c2.6,7.3,7.7,11.2,15.3,10.9c4.3-0.2,7.5,1.3,10.6,4.3c4.4,4.2,9.6,7.6,14.2,11.6
			c1.5,1.3,2.4,3.5,3.6,5.4c1.8-2.9,6.1-4.6,4.1-10.4c-1.3-3.6,2.8-4.4,5.8-5.1c2.9-0.7,6.7-1.3,8.4-3.4c2.3-2.9,4.5-7.3,3.9-10.5
			c-0.8-4.2-4.8-7.4-9.9-7.8c-11.4-0.9-22.7-2.5-33.6-6.6c-3.4-1.3-7.5-0.7-11.3-0.6c-7.7,0.2-12.1-4.4-11.6-12.1
			c0.2-2.3,0.5-4.8-0.1-6.9c-1.6-5.2,0.4-8.6,4.9-10.5c4.8-2.1,6-5,4.1-9.9c-1.6-4.1,1.2-7.8,6.4-10.8c3.4-1.9,6.3-4.6,9.5-6.9
			c2.6-2,5-4.5,8-5.8c7.1-3.1,14.2,1.6,13.3,9.3c-0.9,7.8,1.7,13.8,6.8,18.8c2.2,2.2,5.4,3.5,8.2,5c1.6,0.8,3.4,1.3,5.1,1.8
			c4.2,1.3,8.3,3.2,12.6,3.8c7.7,1.1,10,4,9.6,11.8c-0.5,10-5.7,16.9-13.4,22.5c-5,3.6-4.5,6.4,0.9,9.5c3.7,2.1,6.7,5.3,10.1,8
			c1.1,0.8,2.6,2.2,3.5,1.9c1.1-0.3,2-2.1,2.3-3.4c1.4-4.7,2.3-9.6,3.8-14.2c0.5-1.5,2.3-2.7,3.6-3.8c5.5-4.3,5.4-7.9,0.2-12.4
			c-1.6-1.4-2.5-4.2-2.8-6.4c-1-7.1,1.1-13.5,5.6-18.9c2.8-3.4,4-2.8,5.3,1.2c0.3,1.1,1.5,1.9,2.3,2.9c0.8-0.7,2-1.3,2.2-2.2
			c0.6-2.5,1.4-5.1,1-7.6c-0.6-3.3,1-4.5,3.5-5.6c4.5-2,9-4.1,13.3-6.5c2.7-1.5,2.9-5.9,0-8.7c-3.5-3.3-7.2-6.4-11.4-8.7
			c-1.9-1.1-5.2-0.6-7.6,0.1c-2.8,0.8-5.3,2.7-7.9,4.1c-2.6,1.4-16.1-0.1-17.2-2.5c-1.2-2.7-0.9-6-1.3-9.5c-3,0-7.1,0.3-11.1-0.1
			c-2.7-0.3-5.2-1.8-7.9-2.6c-4.7-1.5-9.5-2.7-14-4.5c-2.6-1-5.4-2.4-7-4.5c-8.8-11.9-1.3-32.8,9.6-40c0.4-0.3,0.9-0.7,1.3-0.7
			c8.9,0.1,14.7-6.4,21.9-9.9c4.5-2.2,8.3-1.9,11.4,2.3c3.1,4.1,6.5,4.4,10.7,1.2c4.7-3.5,7.9-2.7,11.2,2.2c1.1,1.6,2.2,3.5,3.9,4.4
			c1.3,0.7,3.8,0.6,5-0.1c3.5-2.2,6.7-1.8,7.5,2.3c1.1,5.1,4,4.9,7.8,4c0.6-0.2,1.2-0.4,1.9-0.6c9.9-3,11-2.2,11.9,8.2
			c0.5,5.6,0.8,11.2,1.7,16.8c0.3,2.1,1.5,4.4,2.9,6.1c4.3,5.6,8.9,10.9,14.1,17.3c-3.6,1.7-6.6,3.7-9.9,4.7
			c-4.1,1.3-7.2,8.2-4.4,11.4c0.6,0.8,2.9,0.9,4,0.4c1.4-0.7,2.2-2.8,3.6-3.3c1.4-0.6,4.5-0.4,4.7,0.1c0.7,2.6,1,5.4,0.7,8.1
			c-0.1,0.4-3.7,0.6-5.7,0.6c-1.9,0.1-3.8-0.2-5.6-0.3c0.6,2.4,0.7,5,1.8,7.1c1.4,2.8,4,4.9,5.4,7.7c1.7,3.3-0.3,5.4-3.9,5.1
			c-3-0.3-6,0.2-9-0.1c-1.9-0.2-3.7-1.1-4.5-1.4c-2.3,3.4-5.2,6.1-5.9,9.4c-0.7,3.1,0.6,6.9,1.7,10.1c0.2,0.5,3.9-0.2,6.1-0.4
			c0.9-0.1,1.8-0.5,1.3-0.4c3.2,5,5.4,9.9,9,13.5c3.7,3.7,3.8-2.2,6.1-3.6c0.4,0.8,0.7,1.7,1.3,2.3c1.2,1.2,2.5,3,3.9,3.1
			c1.1,0.1,3.1-1.5,3.6-2.8c1-2.9,2.9-3.8,5.6-4.8c2.2-0.8,5-3.7,5.1-5.8c0.5-6,4.1-8.2,9.2-9.8c3.6,3.5,7.5,6.3,12.9,2.7
			c1-0.7,3.4-0.2,4.5,0.6c0.7,0.5,0.7,3,0.1,4c-1.2,2.1-2.9,3.9-4.5,5.7c-0.4,0.5-1.3,0.5-1.7,1c-1.5,1.6-4.5,3.8-4.1,5
			c1,3.3,2.9,0.8,4.3-0.3c0.6-0.5,0.9-1.7,1.5-1.9c2.1-0.8,4.3-1.8,6.4-1.8c3.3,0,6.2,0.1,8.3-3.2c0.7-1.2,2.8-1.6,4.2-2.3
			c1.6-0.8,3.8-1.2,4.7-2.5c1-1.5,0.9-3.8,1.2-5.7c-1.5,0.7-2.9,1.4-4.4,1.9c-1.4,0.5-2.9,0.7-4.3,1c-0.4-1.8-1.6-4.2-0.8-5.3
			c0.9-1.3,3.6-2.5,5.2-2.2c5.2,1,7.5,0.1,8.9-4.6c0.8-2.6,0.3-4.3-2.8-4.3c-2.2,0-4.3,0.1-6.5,0.1c-3.4-0.1-4.9-1.4-3.6-5.1
			c2.3-6.3,0.4-8.5-6-9.9c-6.1-1.4-11.9-3.9-17.8-6.1c-0.7-0.3-1.8-1.1-1.8-1.6c0.5-4.2,0.1-8.9,2-12.4c3-5.8,14.7-8.5,21-5.5
			c1.4-1.9,2.9-3.8,4.2-5.6c-0.6-0.9-2-2.1-1.8-2.5c0.7-1.4,1.9-3.4,3-3.5c4-0.4,8.1-0.2,12.7-0.2c2.8-5.4-2.4-14.6-10-15.1
			c-3.8-0.3-6.4-1.8-9.1-4.2c-2-1.8-5-2.5-7.7-3.1c-5.8-1.4-11.7-1.9-17.4-3.6c-3.8-1.1-4.5-5-1.8-8c4.2-4.7,8.3-9.1,15.5-9.8
			c9.3-1,12.3-6.5,8.9-15.2c-1.4-3.6-4-7-7-9.4c-1.7-1.4-5.3-1.1-7.8-0.6c-3.2,0.7-6.1,2.4-9.1,4c-4.5,2.3-8.7,2.5-13.1-0.5
			c-3.3-2.3-6.6-2.4-9.8,1.1c-2.9,3.1-7.5,3.4-9.8,1.1c-2.8-2.7-2.5-6.6,0.9-10.2c3.5-3.7,6.8-7.6,10.6-11c1.1-1,3.5-0.4,5.4-0.5
			c2.5-0.1,6.1,0.8,7.3-0.6c1.5-1.7,1.8-5.3,1.2-7.7c-1.7-7.4-7.8-10.9-15.3-9.8c-3,0.4-6.4,0.4-9.1-0.7c-4.6-1.8-6.2-6.4-3.7-10.8
			c4-7.1,8.3-14,12.9-20.7c0.9-1.3,3.8-2,5.5-1.6c5.8,1.2,7.7,0.7,9.7-4.6c1.7-4.4,4.1-6.1,8.8-4.3c1.5,0.6,3.3,0.6,4.9,0.2
			c7.5-1.8,13.5,1.8,15,9.3c0.6,2.8,0.4,5.8,1.5,8.3c1,2.4,3.3,4.3,5,6.3c1.3-1.5,2.9-2.8,4-4.5c2.9-4.7,6-4.9,10.5-1.4
			c1.6,1.2,4.3,1.4,6.5,1.2c3.1-0.2,6.4-2.1,9.1-1.4c3.7,1,7.9,3,10.2,5.9c2.5,3.1-1,10.8-4.1,13.9c-1.9,1.9-2.8,4.8-4,7.3
			c-1.1,2.2-1.7,4.6-3.1,6.6c-2.9,4.1-3.1,7.2,1.2,9c8.8,3.7,10.4,13,15.9,19.2c1.2,1.4,1.6,5,0.7,6.6c-3.2,5.6-7,11-10.9,16.1
			c-2.6,3.4-6,6.3-8.9,9.6c-2.3,2.6-4.2,5.6-6.4,8.3c-1.9,2.4-4.6,4.9-1.3,8c5.2,4.9,8.6,4.9,12.3,0.7c1.7-1.9,3.6-5.1,5.4-5.1
			c3.8,0,7.7,1.5,11.4,2.8c1.2,0.4,2.7,2.6,2.5,3.8c-0.9,5.6-2.4,11.1-4,18.4c2,3,5.6,7.6,8.5,12.6c0.8,1.4,0.1,4.4-1,5.9
			c-2,2.8-2.7,4.4,0.5,6.9c2,1.6,2.4,5.3,4.4,6.9c3.2,2.4,7.2,3.8,10.7,5.8c1.3,0.8,2.3,2.1,3.4,3.2c-1.3,0.7-2.8,2.1-4,1.9
			c-5.1-0.7-8.4,2.5-11.1,5.6c-1.9,2.1-1.8,6-2.9,9c-1.4,4,1.2,17,4.8,18.9c3,1.6,6.9,2.1,10.5,2.4c4.7,0.4,6.4,2.5,5.7,7.2
			c-0.4,2.5,0.2,5.3-0.2,7.8c-0.3,1.8-1.8,3.3-2.4,5.1c-0.5,1.4-0.9,3.3-0.3,4.4c1.9,3.8,4.5,7.2,6.4,10.9c1.4,2.8,2.5,4.8,5.8,2
			c2.4-2.1,4.4-1.7,5.7,1.6c0.5,1.2,2.3,1.8,3.5,2.7c0.5-1.2,1.1-2.4,1.5-3.7c0.5-1.5,0.7-3.2,1.4-4.6c1.5-2.6,3.3-3.2,5.2-0.2
			c1,1.5,1.8,3.4,3.3,4.3c1.7,1.1,4,1.2,6,1.8c-0.3-1.9-0.2-4-0.9-5.7c-0.5-1.2-2.4-1.6-3.4-2.7c-0.7-0.8-1-2.1-1.4-3.1
			c1.2-0.2,2.4-0.5,3.6-0.7c0.2,0,0.5,0.4,0.8,0.5c3.2,2.1,6.3,4.3,9.8,6.6c-4.9,4-9.8,8-14.6,12.1c-2.4,2-4.1,2.1-6.3-0.3
			c-0.8-0.9-2.8-0.8-4.2-1.2c0.2,1.4,0.1,2.9,0.6,4c1.6,3.2,3.6,6.1,7.8,6.1l-0.1-0.1c0,1,0.5,2.4,0,2.9c-3.5,3.1-7.1,5.9-10.2,8.4
			c3.7,8.8,4.1,8.9,13.2,5.8c-0.7-1.6-1.4-3.3-2-4.9c0.9-0.3,2.4-1.1,2.6-0.8c1.3,1.5,3,3.1,3.3,5c1.2,6.4,1,6.3,7.3,4.2
			c1.8-0.6,3.7-0.5,6-0.7c-0.1-1.2-0.1-2.4-0.2-2.8c3.7-3,7-5.8,10.4-8.6c5.2,4.6,6.2,4.4,10.6-2.3c4.8-7.4,13.6-10.2,21.1-6.6
			c1.2,0.5,2.6,1.9,2.7,3c0.5,3.4,0.3,6.9,4.3,8.5c0.6,0.2,1,2.2,0.6,3.1c-1.1,2.8-2.6,5.4-0.3,8.4c0.2,0.3-0.8,1.5-1.2,2.2
			c-0.7-0.5-1.8-0.9-2-1.5c-0.4-1-0.1-2.2-0.1-3.4c-5.5,0-3,3.7-3.2,7.6c-5.2-2.9-9.5-5.4-14.3-8.1c0.9,3,1.7,5.9,2.8,9.5
			c1.8-1.6,2.7-2.6,3.9-3.7c4.3,4.2,8.1,9.5,15.5,5c-2.6,5.9-4.9,11.1-7.3,16.5c7.6,1.1,7.8,0.8,7.5-5.1c-0.1-1.6,1.3-3.8,2.7-4.8
			c2.3-1.6,2.8-3,2.2-5.8c-1-4.7-2.6-9.3-1.1-14.5c0.7-2.5-2-6-3.1-9c-0.6-1.8-2.1-4.8-1.6-5.2c2.1-1.6,4.8-3.4,7.2-3.3
			c3.1,0.1,5.7,1,7.6-2.5c0.4-0.7,2.5-0.9,3.5-0.5c0.6,0.2,1,1.8,1.2,2.9c0.1,0.9-0.2,1.9-0.4,2.9c3.3,0.3,9.1-4.1,9.7-8.4
			c0.6-4.1,3-5,6.3-5.6c3.2-0.5,6.3-1.4,9.8-2.1c1.1,2.8,1.5,4.8-2.8,5.6c-1.5,0.3-3.9,4.1-3.4,5.4c1,2.5,2.4,4.6,0.9,7.3
			c-0.2,0.5-0.1,1.6,0.2,1.8c7,4.3,2.2,10.6,2.8,16c0.2,1.4,0.1,2.9,0.6,4.2c1.3,3.4-0.8,8.4-4.5,8.9c-4.9,0.7-7.3,4.3-9.8,7.8
			c-3.3,4.5-6.7,8.9-10,13.4c-0.7-0.1-1.5-0.2-2.2-0.2c-1.3-5.4-2.7-10.9-3.8-16.3c-0.1-0.6,1.1-2.1,1.9-2.3
			c8.7-2.2,10.3-9.2,10.8-16.5c0.3-4.3,2.2-7.1,5.9-9c1.2-0.6,2.4-1.7,2.9-2.9c0.2-0.4-1.4-2.3-2.3-2.5c-1.8-0.3-4.8-0.6-5.3,0.3
			c-2.7,4.5-6.2,9.3-6.8,14.2c-0.7,5.6-5.3,7.3-7.4,11.2c-2.4,4.5-5.1,8.8-7.8,13.3c2.3,1.8,4,3.1,6,4.6c-6.6,3-12.5,5.6-19.2,8.6
			c3,3.3,5.6,6.1,8.1,8.8c3-2.6,5.6-4.8,8.4-7.3c1.5,2.6,3.2,4.5,3.7,6.6c0.6,2.6,2.5,5.4-1,8c-1.4,1-2.5,4.6-1.8,6.1
			c1.5,3,3,7.7,8.4,5.1c0.8-0.4,1.7-0.4,3-0.6c-2.4,2.8-4.3,5-6.1,7.2c-1.9-2.2-4-5.1-6.6-7.6c-2.5-2.4-5.5-4.3-8.7-6.8
			c-2.2,1.9-5.4,4.7-8.3,7.2c0.7,2.9,1.9,5.8,1.8,8.6c0,1.5-2.3,2.9-3.6,4.4c-0.6-1.7-1.2-3.3-1.8-5c-0.2-0.7-0.2-1.5-0.1-1.1
			c-4,0.7-7.7,0.8-11.2,2c-2.6,0.9-4.7,3.1-7,4.8c0.2,0.7,0.4,1.4,0.6,2c2.5,0,5.3,0.8,7.4-0.2c2.7-1.2,4.4-1.2,7.3-0.1
			c4.2,1.5,9,5.4,13.4-0.2c0.6-0.7,2.7-0.2,4-0.3c-0.1,1.1,0,2.2-0.4,3.1c-0.7,1.7-1.6,3.2-2.5,4.9c2.4,0.3,4.9,0.7,7.3,0.9
			c0.5,0,1.2-0.5,2-1c-1.9-3.6-1.9-6.8,2.5-9c0.4,2.7,0,5.4,1.2,7.2c1.1,1.7,3.5,3,5.5,3.6c1.1,0.3,3.7-1,3.9-2
			c0.3-1.4-0.7-3.4-1.7-4.6c-1.5-2-3.5-3.6-4.4-4.4c2.8-4.2,4.8-7.3,6.7-10.2c0.9,4.2,1.3,8.4,2.7,12.3c0.5,1.3,3.1,1.8,5.2,3
			c-0.8,2.4-2.4,5.8,3,8.2c-2.9,1.1-4.5,1.8-6.1,2.4c-0.2,0.5-0.3,0.9-0.5,1.4c2,0.7,3.9,1.8,6,2c0.8,0.1,1.9-1.8,3-2.9
			c0.2,0.3,0.6,1.3,1.4,2.1c2,2,3.5,2.3,5.7-0.3c1.5-1.8,4.1-2.7,6.5-3.5c0.7-0.2,2.9,1.7,2.8,2.3c-1.2,6.4,2.9,8.5,8.1,10.2
			c2.9-6.8,9.8-3.7,14.9-5.5c3-1.1,4,1.8,4.3,4.6c0.5,5.4,2.6,7.7,8,8.6c-1.7,1.5-3,2.7-4.8,4.2c9,4.4,8.6,12.4,8.6,20.3
			c0,3.2,1.5,5.6,5.5,3.8c3.3-1.5,5.8-0.9,6.9,2.9c0.3,0.9,0.8,2,1.6,2.4c6.6,3.3,4,9.3,3.7,14.2c-0.3,4.9-4.8,7-12.2,5.8
			c-3.3-0.6-7,1.9-10.1-1.4c-0.3-0.3-3.1,1.9-4.9,2.6c-2.1,0.8-4.4,1.5-6.6,1.7c-3.4,0.3-7.5-1.7-8.1,4.3c-0.1,1-2.7,2.5-4.1,2.5
			c-1.4,0-3.2-1.2-4.3-2.4c-0.9-1-0.9-2.7-1.5-5.2c-5.2,2.3-10.1,4-14.5,6.6c-2.6,1.5-4.1,1.3-6.1-0.5c-1.6-1.4-3.2-3-5.2-3.8
			c-2.5-1.1-5.4-1.7-9.4-2.8c0-2.3,0-6.2,0-9.9c5.7-2,11.6-4,18.7-6.5c-3.3-1.5-5.4-2.5-8.2-3.8c2.1-1.8,3.5-2.9,5.3-4.5
			c-4.6-1.5-6.2,1.3-7.9,3.8c-1.3,1.9-2.4,4.1-4.2,5.4c-0.9,0.7-3.1,0.3-4.5-0.2c-0.4-0.2-0.3-2.5,0.1-3.7c1.1-2.8,2.5-5.4,3.9-8.2
			c-2.5-0.6-4.9-1.1-8.2-1.9c3,7-3,10.1-5.5,15.2c-4.9-3.5-6.9-1.7-7.3,3.6c-0.1,1-1.8,2-3,2.6c-1.1,0.5-2.8,0.2-3.8,0.8
			c-2.6,1.5-4.6,2.6-6.3-1.2c-1.5-3.2-1.8-5.3,1.9-7.3c3-1.6,5.7-4.1,3.7-9.2c-1.8,2.2-3,4-4.6,5.5c-2.1,1.9-5.1,4-7.3,0.9
			c-1.8-2.5-2.1-6.3,1.2-8.4c3-1.9,6.4-3.1,10-4.9c-6.3-1.9-14.6,2.2-17.1,8c-1.2,2.8-8.8,6.6-11.3,5.2c-1.3-0.7-2.4-2.6-2.7-4.2
			c-0.5-2-0.1-4.2-0.1-7.3c-1.6,1.1-3,1.6-3.4,2.5c-1.1,2.4-1,5.1-4.8,6.1c-2.1,0.5-0.5,5.6,2.4,5.8c5.2,0.3,5.2,3.6,5.5,7.5
			c0.3,3.7,1.7,7.2,2.9,12.1c3.1-3.1,5.1-5.7,7.7-7.3c1.6-1,4-0.6,6.9-0.9c-1,2.2-1.4,3.7-2.2,4.8c-1.9,2.6-1.8,4.7-0.3,7.7
			c2.9,5.8-1.3,15.6-7.4,17.2c-2.4,0.6-5.4-0.7-8.1-1.1c0-0.5,0-1,0-1.5c1.7-0.5,3.4-1,5.3-1.6c-2.9-1.3-3-1.5-10.6,2.9
			c-3.3,1.9-6.1,4.8-9.4,7.4c-2.2-3.5-1.6-5.9,1.1-8.2c1.2-1,1.7-2.7,2.5-4.1c-0.4-0.3-0.7-0.6-1.1-0.9c1.1-0.6,2.2-1.3,3.4-1.9
			c-0.3-0.3-0.5-0.7-0.7-0.7c-3.2,0.5-7.4-0.6-6.3,5.7c0.4,2-1.4,6.2-6.7,4.3c-6.3-2.3-7.9-0.4-7.9,6.6c0,0.3,0,0.7,0,1
			c-0.6,5.5-0.7,5.4,5,4c1.2-0.3,3,0.2,4,0.9c0.4,0.3,0,2.5-0.6,3.5c-2.2,3.5-3.3,6.3,1.5,8.8c3,1.6,4.9,5.3,2.6,7.9
			c-1.4,1.5-5.5,0.7-9.3,0.9c-1,2.7-2.6,6.9-3.8,10.2c-4.2-0.3-7.2-0.2-10.1-0.9c-2.2-0.5-4.7-1.6-6.1-3.2c-1.6-1.9-2.8-4.3-5.3-2.5
			c-0.8,0.5,0.2,3.5,0.4,5.3c0,0.3-0.1,0.6-0.2,1.6c-4.6-0.7-6.4-4.6-7.9-7.8c-1.6-3.5-3.6-4.4-7-3.2c1-0.9,2.1-1.8,3-2.8
			c3.3-3.9,7.5-7.4,9.6-11.9c1.6-3.4,1.9-6.1,6.5-6.3c2.2-0.1,5-2.4,6-4.4c0.7-1.5-1.1-4.3-1.7-6.5c-0.5,0-1,0-1.6,0
			c-0.5,1.1-1,2.2-1.6,3.2c-0.6,1.2-1.3,2.4-2.1,3.7c-1-0.7-1.3-1-1.8-1.2c-1.6-0.9-3.4-2.6-4.7-2.3c-1.2,0.2-2.4,2.7-2.7,4.3
			c-0.6,2.9-0.5,5.9-0.8,8.9c-0.4,5.2-7.1,10-11.3,7.9c0.9-2.5,4.3-5.2-0.8-8.4c-1.1,2.9-1.7,5.7-3.1,7.9c-2,3.1-4.3,7.6-7.1,8.2
			c-2.6,0.6-6.1-3.2-9.8-5.4c0.5,2.2,0.5,5,1.8,6.9c3.2,4.8,7,9.1,10.7,13.9c0.7-0.3,2.6-0.7,4-1.7c1-0.7,2.2-2.5,1.9-3.2
			C349.1,592.5,353.1,590,357.9,587.9z M368.1,524.8c-1.8,0.9-3.5,2-5.4,2.5c-1,0.3-3.2-0.4-3.2-0.8c-0.5-3.3-1.2-6.9-0.5-10
			c0.4-1.6,3.7-2.5,5.6-3.6c-3.4-1.3-6.9-2.7-10.5-4c-3.5-1.3-6.5-4.7-10.9-2.7c1.1,2.7,2.5,5,3.1,7.5c0.4,1.7,0,3.6-0.4,5.4
			c-0.1,0.3-2.4,0.5-2.5,0.3c-0.6-1.6-1-3.3-1.4-5c-0.1-0.3,0.1-0.7,0.2-1c1.1-4.2-1-6.1-4.7-7.2c-4.9-1.5-9.6-3.6-14.5-5
			c-4.4-1.2-8.9-2-13.5-2.5c-0.9-0.1-2,1.4-3,2.1c-1,0.7-2.4,2.3-2.9,2c-1.1-0.5-1.9-1.9-2.7-3.1c-0.7-1.2-1.2-2.5-2-4.3
			c-0.8,5-1.6,9-2,12.9c-0.1,1.2,0.1,3,0.9,3.7c2.8,2.7,5.6,5.8,9,7.5c6.3,3.2,6,2.5,2.5,8.9c-1.3,2.5-0.6,6.8,0.5,9.7
			c1.2,3.1,4.2,1.7,6.9,1.1c4.7-1.1,9.8-2.6,13.9,2c0.5,0.6,2,0.4,3.5,0.7c-0.7-2.1-1.2-3.6-2-5.8c2.3,0,4-0.1,5.6,0.1
			c0.2,0,0,2,0.2,3.1c0.2,1.5,0.5,3,0.8,4.5c1.8-0.8,4.9-1.2,5.2-2.4c1.5-5.1,5.1-7.1,9.8-7.5c4.8-0.4,7.8-7.9,14.1-1.8
			c0-3.5,0-5.5,0-7.6c1.4-3.1,2.9-6.2,4.7-10.2c-5.1,0.8-7.9,1.8-5.4,6.5C368,522,367.9,523.5,368.1,524.8z M401.5,444.2
			c4.8-1.3,8.7-6.4,14.5-3.4c0.1,0,0.4-0.1,0.5-0.2c3.1-3.3,6.8-6.2,9.2-9.9c1.9-3,3.4-3.9,6.7-2.6c1.8,0.7,4,0.3,6.1,0.2
			c1.8,0,3.5-0.1,5.3-0.4c1.8-0.3,3.7-0.8,5.3-1.6c0.3-0.2,0.2-2.7-0.3-2.9c-1.9-0.8-4.4-2.1-6-1.5c-3.7,1.5-4-0.4-4.3-3
			c-0.3-2.4-0.5-4.7-0.7-6.6c-4.6-0.5-8.2-0.8-11.8-1.2c-0.1,0.4-0.3,0.7-0.4,1.1c2.1,1.3,4.2,2.5,6.6,4c-3.2,3.1-6.6,6.3-9.8,9.4
			c-4.3-3.7-5.3-3.2-9.2,4c1,1,2,2.1,3.5,3.8c-4.4,0.3-6.2-1.9-7.2-4.8c-0.5-1.5-1.1-4.2-0.4-4.8c4.1-3.5,6.2-7,1.9-11.7
			c-0.4-0.4-0.4-1.3-0.4-1.9c0.3-3.7,0.9-7.4-4.6-7.9c-0.7-0.1-1.3-2.1-1.9-3.3c-0.5-1.2-1-2.5-1.9-5.2c-1.5,2.6-2.4,4-3,5
			c-6.2-2.6-11.5-5.4-17.1-7c-3-0.9-7.2-2.4-9.3,2.5c3.1,1.1,5.9,2.2,8.8,3.2c1.2,0.5,6.2,3.4,6.2,3.4c-2.9-0.2-5.8-0.6-8.7-0.6
			c-3.9,0-4.5,1.7-2.6,5.1c1.5,2.7,2.6,5.6,4.1,8.7c3.5-0.2,5.6-1.7,5.7-5.8c0-1.2,1.5-2.4,2.6-4.1c1,2.9,1.4,4.3,1.9,5.7
			c2.5-1.8,5-3.6,7.5-5.4c0.8,1.3,1.6,2.7,2.4,4.1c0.7,1.4,1.4,2.8,1.7,3.5c-2.5,1-4.4,1.2-5.3,2.3c-1.5,1.9-1.4,3.8,1.3,5.2
			c1.1,0.6,1.5,2.3,2,3c-2.6,0.7-5,0.6-6.4,1.8c-2.3,2-3.8,4.8-5.3,6.7c0.6,2.3,0.7,4.7,1.7,6.4c1,1.6,2.9,3.3,4.6,3.6
			c1.4,0.3,4.4-1.2,4.6-2.3c1-4.5,3.9-3.4,7-3.5c-5.1,6.5-5.1,6.5-4.7,9c-1.1,0.1-2.6-0.2-3.3,0.4c-1.1,1.1-2.4,2.7-2.4,4.1
			c0,1.2,1.8,2.4,2.7,3.5c1.3-1.3,3-2.5,3.7-4C402.9,447.3,401.9,445.6,401.5,444.2z M225,622.4c0.7,0,1.3,0,2,0
			c0.4-1.5,0.3-3.3,1.2-4.5c1.5-2.1,3.3-4.3,5.4-5.4c2.2-1.2,5.2-1.1,7.7-1.7c3.9-1,6.4,0,7.4,4.3c0.7,3.3,2.5,5.6,6.2,6.2
			c4.4,0.7,8.9,1.3,12.9,2.9c7.6,3.1,15.2,6.4,22.2,10.6c4.7,2.8,9.1,1.9,13.4,0.7c3.9-1.1,6.8-1.6,9.7,2c0.8,1,4.2,0.9,5.5,0
			c1.7-1.2,3-3.6,3.5-5.7c0.3-1.6-1-3.5-1.5-5.3c2-0.5,4.1-0.9,6.1-1.5c1.2-0.3,2.4-1,3.6-1.5c2.2-0.8,4.6-2.5,6.7-2.3
			c4.1,0.4,8.1,1.9,12.3,2.6c1.4,0.2,3.2-0.2,4.5-0.8c0.6-0.3,1.1-2.7,0.8-2.8c-3.7-2-1.5-4.7-1.1-7.3c0.3-2.1,1.1-6-3.1-4.7
			c-2.8,0.8-5.9,2.8-7.6,5.2c-2.6,3.7-5.4,3.3-8.6,1.9c-1-0.5-1.9-1.5-2.9-1.8c-4.7-1.2-9.4-2.4-14.1-3.4c-2.4-0.5-4.9-1.1-7.3-0.9
			c-1.2,0.1-2.3,1.8-3.5,2.9c-1.8-0.7-4-1.6-6.4-2.3c-5.3-1.7-7.1-0.3-6.4,5.1c0.4,3.2-0.3,4.8-3.6,5.1c-1,0.1-2.1,0.8-3,1.4
			c-1.6,0.9-3.1,2-4.6,3c-0.9-2-2.2-3.9-2.6-6c-0.8-4.9-4.1-6.8-8.5-4.5c-0.8,0.4-1.6,0.8-1.3,0.6c-3.2-3.7-5.7-7.1-8.8-9.8
			c-3.7-3.2-3.9-4.1-0.2-7.2c6.2-5.1,15-8.4,14.1-18.9c-0.1-1.2,1.2-2.3,1.6-3.6c0.8-2.8,1.3-5.8,2-8.6c0.5-1.9,1.2-3.7,1.5-5.6
			c0.2-1.4,0.3-3.9-0.3-4.1c-1.3-0.5-3.1-0.1-4.7,0.1c-1.5,0.2-3.1,1.1-4.5,0.9c-7.2-1-8.4-8.5-13.1-12.4c-2.8-2.3-6-6.2-8.7-6
			c-5.3,0.4-9.3-0.4-13.9-3c-5.1-2.8-3.4-6.5-2.9-10.2c0.4-3.8,3.3-3.2,6-3.3c1.1,0,2.2-1.4,3.3-2.2c-0.8-0.9-1.4-2.5-2.3-2.7
			c-4.2-1-3.7-3.3-1.8-5.8c2.3-3.1,1.4-5.5-1-7.9c-2.2-2.2-4.3-3-6.9-0.6c-0.6,0.6-1.8,0.6-3.2,1c0.2-3.2,0.4-5.9,0.5-8.7
			c2.3,0.4,4.2,0.8,7,1.2c-1.2-3.2-2-5.5-3-8.2c4.5,0.4,6.5,1.9,7.4,5.7c0.4,1.7,3,2.8,4.6,4.1c0.6-1.9,1.9-3.8,1.7-5.6
			c-0.1-1.5-1.9-2.8-3.1-4.1c-1.7-1.9-3.6-3.6-5.4-5.4c0.2-0.5,0.4-1.1,0.5-1.6c2.6-0.3,5.3-0.8,7.9-0.8c4.9,0.1,6.9-1.4,6-6.4
			c-0.8-4.5-0.4-8.2,4.4-11.4c-12.2-5.6-15.4-17.4-21.5-27.3c-2.7,5.6-2,9.3,2,13.1c0.9,0.9,1.8,2,2.3,3.1
			c2.4,5.7,4.8,11.5,7.1,17.2c0.9,2.4,0.2,3.5-2.5,3.2c-5.2-0.5-8.9-4.2-10.3-10.7c-1.1-5.4-8.7-9.7-13.9-7.8
			c-3.9,1.4-7.4-0.3-9.1-4.3c-0.5-1.2-0.9-2.5-1.8-5c-2.3,5.5-2.2,10,1,12.8c6.3,5.3,3.6,10.7,1.4,16.6c-3.7-1-3.9-3.8-3.9-6.7
			c0.1-3.8-1.4-6.5-5.3-7.3c-3.3-0.6-3.9-2.9-3.6-5.6c0.2-1.9,1-3.8,1.5-5.9c-2.1-0.9-4.3-1.8-6.5-2.6c-0.5,0.2-1.1,0.4-1.6,0.7
			c0.8,4.2,1.2,8.5,2.4,12.5c1.2,3.9,3.6,7.3,4.9,11.2c1.6,4.5,4.1,7,9,8.1c3.6,0.8,7,3.3,10.1,5.5c1.7,1.2,2.6,3.4,3.9,5.1
			c-0.3-2.2-0.6-4.5-1.1-7.9c2.1,0.5,4.6,0.4,5.5,1.5c1.1,1.4,1.2,3.9,0.9,5.8c-0.3,1.5-1.9,2.6-2.9,4c-4.1,5.7-2.5,13.2,3.2,15.6
			c5.6,2.4,6.8,6.9,3.1,11.9c-3,4-5.8,8.2-8.4,12c-2.6-1.3-6.2-3-9.8-4.8c-0.6-0.3-1.1-1.3-1.4-2c-1.4-4.2-2.5-8.6-4.2-12.7
			c-1-2.3-2.5-4.8-4.5-6.2c-1-0.7-5.2,0.6-5.2,1.1c-0.3,6-0.9,12.2,0.3,18c0.8,4.1,4.6,7.5,6.5,11.5c0.8,1.6,0.1,3.9,0,5.9
			c-1.9-1-3.8-1.9-5.6-3.1c-0.6-0.4-0.6-1.5-0.9-2.3c-3-6.5-5.9-13.1-12-17.4c-2.9-2-5.6-3.2-7.6,1.3c-0.4,0.9-3.1,1.7-4.1,1.2
			c-3.4-1.7-4.9-4.6-4.1-8.7c0.3-1.5-1.2-3.4-1.9-5.1c-1.7,1-3.6,1.7-5,3c-1,0.9-1,3.1-2,3.9c-1.3,0.9-3.7,1.5-4.7,0.9
			c-3.7-2.2-8.8-1.8-11.1,1.8c-0.5,0.8-0.6,2.3-0.2,3.2c2.6,6.2,5.2,12.4,8,18.6c5.2,11.4,10.5,22.9,16,34.2
			c1.7,3.6,1.6,5.5-2.5,7.3c-1.5,0.6-2.4,4-2.5,6.2c0,1.5,1.9,3.1,2.9,4.6c1.7-1.4,3.6-2.6,5.1-4.2c0.8-0.9,0.8-2.5,1.5-3.6
			c0.8-1.3,1.8-2.8,3-3.6c3.6-2.4,7.2-4.8,11.1-6.5c1.9-0.9,4.8-1.1,6.6-0.3c3.2,1.5,4.7,1.9,5.2-2.4c0.2-1.7,2.4-3.1,3.7-4.6
			c1,2,2.2,3.8,2.8,5.9c0.2,0.8-1,2.1-1.1,3.2c-0.2,1.8-0.8,4.4,0.1,5.5c3.4,3.9,6.8,8.3,12.9,7.8c4-0.3,6.1,1.7,6.4,5.3
			c0.6,7.4,0.8,14.8,1.2,22.2C224.1,618.9,224.6,620.6,225,622.4z M296.9,366.3c1.5-0.1,3.4-0.3,5.4-0.5c-0.7-5.7,4.4-7.1,7.3-10.3
			c1.2-1.4,1.2-3.9,1.7-5.9c-1.7,0.4-3.7,0.5-5.1,1.4c-4,2.6-8,2-10.7-2c-1.9-2.8-4.3-3.1-6.7-0.9c-1.8,1.7-3.5,3.6-4.7,5.7
			c-1.5,2.7-2.9,4.2-6.3,2.9c-1-0.4-3.3,0-3.9,0.9c-2.4,3.4-5.3,4.6-9.8,3.3c0.5,2.4,0.9,5.4,2.3,6c3.9,1.5,3.9,4.3,3.2,7.2
			c-0.4,1.6-1.6,4-2.7,4.1c-1.4,0.2-4-1.2-4.4-2.5c-1.4-4.5-2.4-9.3-2.9-14c-0.3-2.9,1-5.1,4.9-4.3c1.2,0.3,3.2-0.6,4.1-1.7
			c3-3.2,5.6-6.8,8-9.7c2.3,0.2,4.4,1,5.9,0.3c3.7-1.6,7-3.8,11-6.1c-0.7-2-1.8-5-3.1-8.7c-2.2,2.9-3.7,6.1-6.2,7.9
			c-2.6,1.9-6.1,3.3-9.4,3.5c-1.5,0.1-3.2-3.3-4.8-5.1c3.4-0.8,6.1-1,8.3-2.1c1-0.5,1-2.8,1.5-4.2c-1.1-0.2-2.3-0.5-3.4-0.7
			c-0.9-0.1-2.4,0.2-2.7-0.2c-3.9-5.7-5.5-1.4-7.8,1.5c-1.7,2.2-3.4,4.9-7.9,2.9c2.1-1.5,3.8-2.5,5.2-3.7c1.9-1.7,3.1-3.9,0.6-5.9
			c-4.2-3.2-12.9-1.6-15.4,1.8c2.6,3,5.1,5.7,7.4,8.5c4.6,5.6-3.3,5.7-4,9.1c-0.7-1.1-1.2-2.2-1.1-3.2c0.5-3.5-0.4-6.8-4.1-6.4
			c-2,0.2-4,3.6-5.3,6c-0.9,1.7-0.5,4.1-0.6,6.4c-1.7-0.3-2.8-0.5-5.2-1c1.7,3.4,2.9,5.8,4.2,8.6c-1.6,1.3-3.1,3.1-5,3.8
			c-4.3,1.5-4.5,4.8-4.6,8.4c0,4,3,5.9,6,6.3c4.7,0.7,6.1,4.1,6.4,7.5c0.3,2.6-1.7,5.4-2.6,8c-1.5-0.3-2.6-0.5-3.8-0.7
			c-0.2,0.4-0.4,0.8-0.6,1.2c1.5,1,2.9,2.1,4.5,3.1c2.7,1.7,4.2,2.2,6.4-1.7c2.1-4,4.2-6.6,0-10.2c-1-0.8-1.4-2.7-1.4-4.2
			c-0.1-2.7,0.3-5.3,0.5-8.6c2-0.3,4.7-0.4,7.4-1c4-0.9,6.5,1.2,5.5,5.1c-0.8,2.9-3.1,5.6-3.4,8.5c-0.7,7.5-6.8,11.5-10.5,16.8
			c-1.7,2.5-4.9,4.4-5.8,7.8c-0.4,1.6-0.1,3.5-0.1,5.2c-0.5,0.3-1,0.5-1.5,0.8c-2.7-3.1-5.5-6.2-8.7-9.8c-1.7,5,1,7.8,3.8,10.2
			c2.2,1.9,3,3.3,1.7,6.3c-2.2,5,0,9.3,6,12.2c-0.6-2.2-1.6-4.2-2.8-6.1c-1.9-2.9-1.5-7.8,1.4-8.5c1.8-0.5,4.2,1.4,6.5,2.3
			c-4.3,6.8-3.7,9.6,1.2,13.2c3.7-1,6.7-1.9,11.1-3.1c-2.6-2.8-4.7-5.1-7.7-8.3c-0.8-4.9,3.4-8.7,7.4-12.7c1.2-1.3,1.4-3.5,2.3-5.2
			c0.8-1.5,1.7-2.9,3-4c0.7-0.6,2.9-0.5,3-0.2c0.5,1.5,1.2,3.4,0.7,4.6c-1.4,2.8,0,3.5,2.1,4.4c2.1,0.9,4.3,1.8,6.3,3
			c3.2,1.8,5.8,2.6,8.4-1.3c0.9-1.5,4.8-2.9,5.1-2.5c1.6,1.9,2.8,4.4,3.7,6.9c0.6,1.5-0.1,3.6,0.8,4.8c1.1,1.5,4.3,3.6,4.4,3.5
			c3.9-4.5,6.6-1.2,8.2,0.5c6.1-1.5,11.2-2.7,17-4.1c-0.1-0.8-0.2-2.3-0.5-4.5c-7,3-12.9,1.3-19-2.4c1.4-1.9,3.1-3.5,3.9-5.5
			c0.8-2,0.6-4.3,0.9-7.4c1.1,1.3,1.7,1.9,2.3,2.5c1.4,1.6,2.5,4,4.1,4.4c1.4,0.4,3.5-1.4,5.1-2.5c1.6-1.1,3.2-2.4,4.6-3.7
			c1.6-1.5,4.5-3.6,4.2-4.9c-1.5-6.8,2.2-12.5,3.1-18.7c0.6-4.3,1.3-8.5,2.1-13.7c0.2,0.3-0.5-0.4-1-1.2c-4-6.1-9-7.2-14.2-2.8
			c-1.4,1.2-1.9,3.6-3,5.2c-1.4,2-2.7,4.3-4.7,5.5c-4,2.3-9.6,2.5-10.1,8.3c-4,0.5-7.6,0.9-10.3,1.3
			C291.5,373.4,294.2,369.9,296.9,366.3z M319.5,670.7c-0.9-0.5-1.4-0.6-1.7-0.9c-5.9-7.5-8.1-7.5-13.7,0c-1.9,2.5-3.9,2.5-6.4,0.7
			c-5.2-3.8-10.5-7.4-15.8-11c-2.8-2-5.4-1.3-7.6,1c-4.1,4.4-2.1,11.7,3.8,12.5c8.3,1,13.8,5.5,18.3,12.1c4.4,6.3,7.1,6.2,13.5,1.7
			c2-1.4,5.2-1.9,7.6-1.5c4.6,0.9,9,2.8,13.5,4.1c5.4,1.5,10.8,3.1,16.3,3.8c2.5,0.3,5.5-1.1,7.7-2.6c1.6-1.1,2.4-3.5,3.4-5.4
			c2.4-4.5,4-9.5,9.7-11.3c1-0.3,1.3-3,2-4.5c1.3-2.9,2-6.7,4.2-8.6c4-3.3,4-7,2.1-10.6c-1.8-3.5-4.2-7.3-9.6-6.2
			c-4.7,1-8.9-0.1-12.1-4c-0.9-1.1-2.5-1.7-4.3-2.9c-0.2,2-0.1,3-0.3,3.9c-0.4,1.9-1,3.8-1.4,5.7c-1.5-1.1-2.9-2.4-4.4-3.3
			c-1.8-1.1-3.8-2.3-5.8-2.9c-2-0.6-4.4,0-6.3-0.8c-3.3-1.4-4.3,0-5.5,2.8c-1.6,3.8-3.9,7.2-5.4,11c-0.8,1.9-0.9,4.4-0.3,6.4
			C322.3,663.7,321.9,667.2,319.5,670.7z M380.4,439.9c-0.3,4.9-3.6,7.1-6.6,9.8c-2.9,2.7-5,6.2-7.8,9.8c3,0.9,4.8,1.4,7.3,2.1
			c-3.4,2.9-9,1.8-9.8,7.9c3.7-0.3,7.2,0.1,10.1-1.1c2.5-1.1,4.2-4,6.3-6c0.2,0.2,0.3,0.5,0.5,0.7c-1.9,4.4-3.8,8.8-5.9,13.8
			c4.8,1.1,8.4,0.2,10.8-3.6c2.8-4.5,5.8-4.1,10-0.7c-3,1.9-7.6,3.3-7.7,5.2c-0.3,3,2.4,6.2,3.9,9.5c2.3-0.7,4-1.6,5.7-1.5
			c1.6,0.1,3.7,0.9,4.7,2.1c1.1,1.3,0.9,3.5,1.8,5.1c0.9,1.6,1.7,2.5,4.6,2.6c5.2,0.3,5.7-5.1,9.5-5.2c-0.1-2-0.2-3.6-0.4-5.1
			c5.4-0.4,8,1.4,6.1,6.4c5.1-1.1,9.9-2.1,14.7-3.1c-2.7-1.2-5.8-0.7-8-1.9c-2.8-1.5-5.8-3.9-6.9-6.6c-1.2-3.1,2.6-2,4.2-2.9
			c1.4-0.8,2.2-2.8,3.2-4.3c-1.5-0.7-3.1-2.2-4.4-2c-2,0.3-3.9,1.7-5.7,2.7c-1.1,0.6-2.2,2.2-3.2,2.1c-5.5-0.6-8.4,2.9-11.4,7.5
			c-0.8-2.6-1.4-4.4-2-6.2c0.5,0.1,1,0.2,1.4,0.4c1.5-2.7,3.8-5.2,4.2-8.1c0.8-4.7,2.9-4.4,5.4-2.5c0.7,1.9,2.1,4.4,3,4.2
			c2-0.4,4.1-1.7,5.3-3.3c0.7-0.9,0.3-3.9-0.7-4.6c-5.1-4-10.5-7.5-16.2-11.4c-5.1,2.9-10.3,8.3-18,6.4c-3.1,0-6.3,0-9.4,0
			c-0.2-0.7-0.5-1.5-0.7-2.2c2.5-1.9,5.3-3.5,7.5-5.7c1.8-1.9,3.7-4.3,4-6.7c0.2-1.4-2.2-4.2-4-4.7c-2.8-0.8-4.6-1.6-5.5-4.6
			c-0.2-0.7-3.2-1.6-3.6-1.1c-2.9,3.4-5.5,7.1-8.2,10.7c0.2,0.5,0.5,0.9,0.7,1.4C373,443.4,376.4,441.8,380.4,439.9z M267.5,489.2
			c1,0.4,1.8,1.1,2.4,1c4.9-0.9,7.2,2.5,8.6,5.9c1,2.5,0.7,5.8,0,8.5c-0.2,0.8-4.1,1-6.2,0.6c-1.6-0.4-3-2-4.1-3.4
			c-1.4-1.8-2.1-5.3-3.5-5.6c-4-0.8-5.1-3.7-6.8-6.4c-0.6-1-2.4-1.9-3.6-1.8c-0.7,0-1.6,1.9-2.1,3c-0.6,1.7-0.2,4.2-1.2,5.1
			c-3.3,2.7-2.5,5.2-0.9,8.3c0.7,1.2,1,2.9,0.9,4.3c-0.1,5.4,1.1,10.1,5.6,13.7c1.3,1,1.9,3.1,2.4,4.8c2.4,7.8,8.1,11.7,17.7,11.1
			c-3.1-2.7-3.5-7.4-9-6.7c-1.2,0.2-3.1-1.8-4-3.2c-2.7-4.4-4.8-9.2-7.5-13.6c-1.5-2.4-2.5-4.5,0.1-6.4c1.7-1.2,4-2.9,5.7-2.5
			c1.9,0.4,3.5,2.7,5,4.5c1.1,1.4,1.8,3.1,2.5,4.7c1,2,1.6,4.2,2.7,6.2c1,1.8,2.1,3.6,3.5,5c0.4,0.3,2.2-1.1,3.5-1.5
			c2.6-0.7,5.3-1.5,7.9-1.6c2.8-0.1,5.6,0.9,8.4,0.9c1.2,0,3.1-1.2,3.3-2.2c0.2-1-0.8-2.9-1.8-3.6c-1.1-0.7-2.8-0.5-4.2-0.6
			c-4.3-0.1-8.6,0-14.2,0c3.4-2.9,5.4-5.1,7.8-6.6c4-2.4,4.2-3.5,1.3-7.2c-2.2-2.9-6.5-5.3-3.2-10c0.7-1.1,1.1-2.4,1.6-3.6
			c0.9,1.2,2,2.4,2.5,3.8c1.1,2.9,2.2,5.5,6.9,4.7c-0.8-1.5-1.1-3-2-3.6c-3.2-2.3-4.7-4.6-1.7-8.2c0.5-0.5,0-2.8-0.5-3.1
			c-4.5-2.3-3.3-4.9-0.5-8.2C282.1,478.3,273.3,480.2,267.5,489.2z M198.1,395.2c-0.6-4.7,1.6-10.1-4-13.4c-0.4-0.2-0.5-1.2-0.6-1.8
			c-0.5-5.5-0.4-5.5-5.1-2.6c-0.7,0.4-1.5,0.7-2.3,1c-6.6,2.3-8.1,3.9-5,10.1c3.1,6.2,0.5,9.4-3.6,12.9c-1.3,1.1-3.1,1.9-3.7,3.2
			c-1.1,2.4-2.3,5.2-2.2,7.8c0.4,6.3,1.6,12.5,2.1,18.8c0.1,1.1-2.2,2.3-3.1,3.6c-1.1,1.6-2.4,3.3-2.6,5c-0.3,3.9,4.8,10.6,8.6,11.2
			c1.5,0.3,4.6-1,4.7-1.7c0.2-3.2,0.3-6.8-0.9-9.6c-2-4.6-1.9-16.5,1.2-20.5c0.1-0.1,0.6,0.1,1.7,0.2c-0.4,1.4-1.1,2.7-1,4
			c0.1,1.5,0.8,2.9,1.2,4.4c1-1,2.3-2,2.9-3.2c0.6-1.3,0.4-3,1-4.3c1.5-3,1.2-4.5-2.5-5.1c-1.4-0.2-3.4-2.4-3.6-3.8
			C180.6,404.9,191.4,394.6,198.1,395.2z M213.3,391.5c7.3,4.8,8.2,6.6,5.1,14.8c-2,5.3-5.1,10.2-8.1,16.2c4.3,2.3,8.6,4.8,13.1,6.9
			c3.3,1.5,4.1,4.2,2.3,7.7c-1.2,2.4-2.4,5.1-2.4,7.7c0.1,3.8,2.4,4,4.8,2.3c-0.6-2.8-2.1-5.4-1.5-7.3c3.1-9.2,3.3-9.1-4.9-14.7
			c-4.3-2.9-4.8-6.1-1.8-10.5c0.7-1.1,1.6-2.3,1.8-3.5c1.1-7,2.4-13.7,0.8-21c-0.9-3.7,0.1-9.7,2.7-12.1c5.7-5.1,2.1-9.8,2.1-15.3
			c-3.6,1.5-4.5,3-2.9,6.1c0.8,1.5,0.6,4.1-0.3,5.6C220.8,380.3,217,385.9,213.3,391.5z M330.5,571.4c0,0.3-0.3,0.9-0.1,1.3
			c0.9,1.9,1.9,3.8,2.9,5.6c1.5-1,3.2-1.8,4.6-3c4-3.4,8.1-6.6,11.6-10.4c2.7-2.9,4.7-6.5,6.9-9.8c0.3-0.4,0.1-1.5-0.2-1.8
			c-2.3-2.5-1.2-4.2,0.9-6.2c1.5-1.5,2.1-3.8,3.2-5.7c-0.6-0.4-1.1-0.9-1.7-1.3C352.1,553.3,345.8,566.5,330.5,571.4z M195,441.5
			c1.5-0.9,3-2.3,4.5-2.4c1.7-0.1,3.4,1.1,5.3,1.7c-0.8-10-2.9-18.8-7.8-26.6c-0.7,0.1-1.4,0.2-2.1,0.3
			C195,423.5,195,432.4,195,441.5z M390.5,371.4c-2.6-2-4.9-3.9-7.3-5.5c-1.3-0.9-2.8-2.1-4.1-2c-1.2,0.1-2.2,1.9-3.4,2.9
			c1.1,1,2,2.5,3.3,2.9c2.9,0.9,2.7,2.6,1.7,4.6c-0.7,1.5-2,2.6-3,4c-2.5,3.4-0.6,9.3,3.4,10.3c2.6,0.7,4.2-0.1,3.6-3.4
			C383.1,377.3,383.6,376.2,390.5,371.4z M99.1,537.2c4.8,0.1,10.4-4.2,10.5-8.8c0-1.7-1.7-4.3-3.2-4.9c-3.4-1.4-9.3,1.6-11.2,4.8
			C92.8,532.6,94.7,537.1,99.1,537.2z M379.8,424.1c0.8,1.3,1.5,2.6,2.4,4c4.6-5.1,5.3-4.7-5.3-10.2c-0.8,2-1.1,4.6-2.6,5.6
			c-1.4,1-4,0.2-6,0.3c-0.6,0-1.2,0.4-1.8,0.8c-2.3,1.6-4.5,3.3-6.9,5.1C367.1,432.3,372.6,426.2,379.8,424.1z M169.3,400.5
			c-1-2.1-2.1-5-3.6-7.6c-0.4-0.6-2.1-0.9-3-0.7c-0.6,0.2-1.4,1.5-1.3,2.3c0.1,3.4,0.3,6.9,1,10.3c0.2,1.2,1.7,2.7,2.8,2.9
			c0.9,0.1,2.3-1.4,3-2.5C168.8,404.2,168.8,402.7,169.3,400.5z M254.5,443.4c-4.6-2.1-5.9-7.8-11.2-5.8c-2.6,1-2.1,7.5,0.4,9.9
			C249.6,453,250,445.1,254.5,443.4z M437.8,458.1c0.3-0.2,2.1-0.8,2.6-2c0.3-0.7-1.3-3.3-2.1-3.3c-4.2-0.1-8.5,0.2-12.7,0.7
			c-0.5,0-1.2,2.1-0.9,2.8c0.3,0.8,1.7,1.7,2.6,1.7C430.4,458.2,433.5,458.1,437.8,458.1z M257.4,319c8,3.7,9.8,2.8,12.5-5.6
			C264.8,310.8,260.4,312.6,257.4,319z M299.1,544.1c2.7-2.2,3.9-4.8,1.6-7.6c-2.2-2.7-1.4-4.4,0.8-6.3c1.2-1,2.3-2.2,3.5-3.3
			c-0.1-0.5-0.3-1-0.4-1.5c-2,0.3-5.3-0.1-5.8,1c-1.4,2.7-2.1,6.1-2.1,9.1C296.8,538.1,298.1,540.8,299.1,544.1z M353.9,415.6
			c0.3,0.5,0.7,1.1,1,1.6c3.5-1.4,7.1-2.9,10.6-4.1c4.3-1.5,4.8-3.1,1.5-7.3C362.6,409,358.2,412.3,353.9,415.6z M387.5,571.8
			c-4,2.6-7.1,4.3-9.9,6.6c-1.2,1-1.8,2.9-2.4,4.5c-0.1,0.2,2.3,1.7,2.6,1.5c3.2-2.5,6.5-5.1,9.3-8
			C387.9,575.5,387.4,573.6,387.5,571.8z M170.1,376.8c-3.9,2.9-1.3,6.6-0.6,9.5c0.4,1.8,2.7,3.2,4.2,4.8c0.8-0.9,2.6-2.1,2.4-2.6
			C174.3,384.7,172.3,381,170.1,376.8z M305.1,481.3c-2-1.7-3.8-3.1-6.3-5.2c0,4.1-0.1,7.5,0,10.7c0.1,1.3,0.4,3.1,1.2,3.6
			c1.3,0.8,3.1,0.6,4.8,0.9c-0.6-1.1-0.9-2.6-1.8-3.2c-2.3-1.6-2.4-3-0.1-4.6C303.7,483,304.2,482.2,305.1,481.3z M275.1,300.4
			c-0.3-0.4-0.6-0.7-1-1.1c-5.2,2.3-10.4,4.5-15.6,7c-1.2,0.6-2.2,1.8-3.2,2.8c1.6,0.1,3.4,0.7,4.8,0.2c2.3-0.8,4.2-2.4,6.4-3.6
			C269.3,303.9,272.2,302.2,275.1,300.4z M384.6,416.9c2.1,2.7,3.5,4.6,5.8,7.6c1.5-2.4,3.6-4.5,3.5-6.4c0-1.4-3-3.3-4.9-3.7
			C387.9,414,386.1,416,384.6,416.9z M491.9,366.4c0.6,0.6,1.1,1.2,1.7,1.8c2.6-2.2,5.5-4,7.5-6.7c0.7-1-0.9-3.7-1.4-5.7
			c-0.5,0.1-0.9,0.2-1.4,0.2C496.2,359.5,494,362.9,491.9,366.4z M397.8,581.4c0.5-4.3-2-6.1-5.3-6.3c-1-0.1-3.5,3.1-3.2,3.9
			C390.9,582.9,394.4,582.2,397.8,581.4z M337.6,465.5c0.6-4.4,5.7-7.8,3.1-13.7C335.5,455.7,335.1,460.2,337.6,465.5z M212.4,447
			c4.7-6.1,3.4-9.2-4.9-12.1C209.3,439.4,210.7,442.8,212.4,447z M480.1,458.8c-2.9-0.9-5.5-2.5-6.3-1.8c-2.2,1.7-3.7,4.4-5.5,6.8
			c0.6,0.6,1.2,1.3,1.8,1.9C473,463.7,475.9,461.8,480.1,458.8z M369.1,396.3c0.1-0.6,0.1-1.1,0.2-1.7c-2.1-0.5-4.4-1.8-6.2-1.4
			c-1.5,0.4-2.6,2.8-3.8,4.3c1.7,0.3,3.4,1,5.1,0.8C366,398.1,367.5,397,369.1,396.3z M206.1,337.1c-2.8-0.5-5.6-1.1-8.5-1.2
			c-0.7,0-2,1.7-2.1,2.7c-0.1,1,0.9,2.4,1.8,3.2c0.4,0.4,1.8,0,2.5-0.4C201.7,340.1,203.5,338.8,206.1,337.1z M374,339.7
			c2.1,2.5,3.4,4.2,4.8,5.7c0.7,0.7,1.6,1.2,2.6,1.6c0.1,0.1,1.3-1.3,1.1-1.7c-0.8-2.1-1.4-4.7-3-5.8
			C378.2,338.5,375.6,339.5,374,339.7z M275.7,412.6c-0.2,0.7-0.5,1.5-0.7,2.2c3.4,5.2,9.5,0.5,13.4,3.8c0.2-0.7,0.4-1.4,0.6-2.1
			C284.5,415.2,280.1,413.9,275.7,412.6z M207.7,413.7c0.5-0.2,0.9-0.3,1.4-0.5c-1.1-11.1-1.1-11.1-5.9-13.4
			C204.9,405.2,206.3,409.4,207.7,413.7z M203.8,590.8c-0.6,0.2-1.3,0.4-1.9,0.6c0.4,2.2,0.5,4.6,1.3,6.7c0.3,0.7,2.1,0.9,3.2,1.3
			c0.2-1.1,1-2.5,0.6-3.4C206.3,594.2,204.9,592.5,203.8,590.8z M474.6,340.9c-1.8,3.8-3.1,6.4-4.7,9.7
			C476.2,349.7,477.5,347.2,474.6,340.9z M253.9,284.5c0.6,0.2,1.2,0.3,1.8,0.5c1.8-2.4,3.6-4.8,5.4-7.2c-1.8-0.7-4-0.8-4.7,0.2
			C255.2,279.8,254.7,282.2,253.9,284.5z M324.5,493.4c-0.3,0.7-0.5,1.3-0.8,2c4,1.2,7.9,2.5,11.9,3.7c0.2-0.7,0.5-1.4,0.7-2.1
			C332.3,495.8,328.4,494.6,324.5,493.4z M321.3,404.3c0.1,0.5,0.3,0.9,0.4,1.4c1.5,0.3,3,0.9,4.5,0.9c1,0,2-0.8,3.1-1.2
			c-0.5-1.1-1.2-3.2-1.5-3.2C325.6,402.7,323.5,403.5,321.3,404.3z M433.8,497.9c-0.1-0.4-0.2-0.8-0.3-1.2c-1.2,0.6-3.2,1-3.5,1.9
			c-0.8,2.2-0.8,4.7-1.2,7.1c0.5,0.1,1.1,0.2,1.6,0.3C431.6,503.2,432.7,500.5,433.8,497.9z M202,354.1c0.2-0.5,0.4-1,0.6-1.4
			c-2.9-1-5.8-2-8.7-2.9c-0.3-0.1-1.4,1-1.4,1.5c0.1,0.6,0.9,1.5,1.5,1.6C196.7,353.4,199.3,353.7,202,354.1z M466.4,507.8
			c5.5,1.9,7.2,0.6,7.4-5.2C471,504.6,468.7,506.2,466.4,507.8z M193.3,371.1c0.6,0.2,1.2,0.5,1.8,0.7c1.3-1.6,2.6-3.2,3.9-4.9
			c-0.3-0.4-0.6-0.9-0.8-1.3c-1.4,0.4-3.3,0.3-4.1,1.2C193.2,367.8,193.5,369.6,193.3,371.1z M310.7,320.7c0.7,0.5,1.4,1,2.1,1.6
			c1.2-1.3,2.4-2.7,3.6-4c-1-0.7-2-1.4-3-2.1C312.5,317.7,311.6,319.2,310.7,320.7z M224.3,352.9c5.7-2.6,8.1-7.1,6.5-10.3
			C228.9,345.6,226.8,348.9,224.3,352.9z M456.6,448.5c-0.3-0.5-0.6-0.9-0.9-1.4c-1.9,1.3-3.8,2.6-6.4,4.5
			C455.3,454.9,455.3,450.7,456.6,448.5z M173.4,304.1c1.8,1.3,2.9,2,4,2.8c0.9-1.9,1.8-3.9,2.7-5.8c-0.4-0.2-0.8-0.4-1.2-0.6
			C177.5,301.5,176.1,302.4,173.4,304.1z M299.2,345.6c-0.3,0.8-0.7,1.5-1,2.3c1.9,0.8,3.8,1.6,5.8,2.2c0.1,0,0.7-1.2,1-1.9
			C303.1,347.3,301.1,346.4,299.2,345.6z M286.3,526.6c-0.4,0.5-0.8,1.1-1.2,1.7c1.6,1.3,3.1,2.6,4.8,3.7c0.1,0.1,1.1-1.2,1.7-1.9
			C289.9,528.9,288.1,527.7,286.3,526.6z M312.2,484c-0.5,0.6-1.1,1.1-1.6,1.7c1.1,1.4,2.2,2.7,3.3,4.1c0.8-0.7,1.6-1.4,2.4-2.1
			C314.9,486.4,313.5,485.2,312.2,484z M416.1,411.1c0.2,0.8,0.5,1.6,0.7,2.5c1.9-0.5,3.8-1,5.7-1.5c-0.3-0.8-0.7-2.3-0.9-2.3
			C419.8,410.1,418,410.6,416.1,411.1z M466.1,408.2c-1.1,1.6-2.4,2.7-2.2,3.4c0.2,1,1.5,1.7,2.4,2.6c0.9-1,2.1-1.8,2.6-3
			C469,410.8,467.5,409.7,466.1,408.2z M464.7,456.5c0.1-0.9,0.2-1.8,0.3-2.8c-1.6-0.2-3.3-0.4-5-0.6c-0.1,1-0.2,2.1-0.3,3.1
			C461.4,456.3,463,456.4,464.7,456.5z M487.3,465.8c1.2-1.5,2.3-2.3,2.4-3.2c0.1-0.6-1.5-2-2.2-1.9c-0.9,0.1-2.1,1.2-2.5,2.1
			C484.9,463.3,486.1,464.4,487.3,465.8z M436.1,475.6c1-1.7,2.2-2.8,2.1-3.7c-0.1-0.8-1.7-2.2-2.4-2.1c-1,0.2-2.3,1.5-2.3,2.4
			C433.4,473,434.8,474,436.1,475.6z"/>
		<path class="st2" d="M573.7,375.5c-0.5-4-0.9-6.7-1.3-9.3c1.2,0.6,2.8,2.1,3.8,1.7c1.3-0.5,2.1-2.3,4.2-5c0.4,3,1.6,5.5,0.8,6.6
			c-3.6,5,0.2,6.1,3.5,7.2c1.8,0.6,4,0.6,5.8,0.1c4.8-1.1,6.3,0,7.1,5c0.5,3,1.7,5.9,2.8,9.8c2.3-1.9,3.7-3.3,5.2-4.3
			c1-0.6,2.3-0.8,3.5-1.1c0.3,1.2,0.7,2.4,1,3.6c0.5,1.9,0.5,5.1,1.5,5.4c1.8,0.6,4.3-0.1,6.3-0.9c5.5-2.4,11-3.7,16.5-0.2
			c2.7,1.7,5.2,2,7.8,0c3.1-2.5,6.4-4.8,9.2-7.6c0.5-0.5-0.2-3.4-1.1-4.1c-9.9-7.3-10.8-9.8-7.1-21.4c1.5-4.6,0-6.7-4.7-6.7
			c-7.2,0.1-11.9-3.1-14.4-9.7c-1.6-4.3-8.8-8-14-7.2c-4.2,0.7-8.5,2.2-12.6,2c-3.7-0.2-8-1.4-10.8-3.7c-5.9-4.7-6.9-5.3-13.5-2.1
			c-4.1,2-11.6-1.2-12.9-5.6c-0.2-0.8,0-2.2,0.5-2.7c3.5-3.6,2.4-8,1.3-11.8c-0.7-2.3-3.9-5.3-6.2-5.4c-6.4-0.4-8.1-4.6-9.7-9.5
			c3.3-4.5,7-4.5,11.4-1.4c1.6,1.1,3.5,1.6,5.3,2.4c0.4-0.5,0.8-1.1,1.2-1.6c-2.2-2.5-4.4-5-6.6-7.5c-2.8-3.3-5.6-6.7-8.5-10
			c-1-1.1-2.3-2.1-3.4-3.1c-0.9,1-1.7,2.2-2.6,3.1c-1.5,1.4-2.9,3.4-4.6,3.7c-6.3,1.2-12.7,2-19.1,2.7c-1.3,0.1-3.7-0.6-4-1.5
			c-2.5-7.5-8.1-3.4-12.4-3.3c-1.8,0-3.6,1.5-5.8,2.5c0-1.9,0-3.6,0-5.7c-6.3,1.2-12.1,2.2-17.9,3.3c0,0.6,0.1,1.1,0.1,1.7
			c1.3,0,2.6-0.1,3.9,0c1.2,0.1,2.4,0.6,3.6,0.9c-0.3,1.2-0.3,2.7-1,3.6c-2.6,3.2-5.5,6.1-8.1,9.3c-1.4,1.8-2.4,4-3.8,6.2
			c7.6,1.5,8.3,0.9,9.8-4.8c0.7-2.8,2.9-5.3,4.7-8.3c5.3,6.7,5.7,9.2,4.7,25.2c0.8-1.2,1-1.8,1.5-2.3c1.3-1.2,2.7-2.4,4.1-3.6
			c0.8,1.6,1.8,3.1,2.4,4.8c0.4,1.2,0.6,2.8,0.2,3.9c-0.4,1.1-2.1,2.7-2.5,2.6c-3.6-1.8-4.6,1.2-6.4,3c-3,3.1-6.2,6.1-10,9.7
			c-0.8-2.9-1.3-5-1.9-7.1c6.1-3.2,8.2-14.8,3-20c-2.2,3-4.4,6-6.9,9.5c-1.8-2.5-2.6-3.5-4.1-5.6c0,3.1,0.5,5.2-0.1,7
			c-1.4,4.7-8.3,7.6-13.3,6.3c-1.2-0.3-2.9,1.2-4.4,1.9c0.1,0.5,0.3,0.9,0.4,1.4c0.7,0.3,1.4,0.5,2.1,0.9c1.4,0.7,2.8,1.5,4.2,2.3
			c-1.8,1-3.4,2.3-5.3,2.7c-1,0.2-2.9-1.2-3.3-2.3c-1.3-3.7-2.1-7.6-3.3-12.4c1.9-0.2,4-0.6,6.1-0.5c4.1,0.2,5.6-1.4,5.2-5.6
			c-0.2-1.8,0.4-3.8,0.7-5.7c0.6-4.5,1.2-9,1.9-13.8c-1.7-0.1-3.4-0.1-5.7-0.3c-0.2,2.9-0.2,5.5-0.6,8c-0.5,3.4-1.9,5.5-5.7,2.9
			c-1.5-1-3.2-1.8-4.7-2.8c-2.2-1.6-4-1.6-6.1,0.5c-3.4,3.3-7.9,1.9-9.8-2.4c-0.7-1.5-2.2-2.7-3.2-4.1c-0.6-0.9-1.3-1.9-1.4-2.9
			c-0.1-0.5,1.1-1.7,1.4-1.6c1,0.3,2.4,0.8,2.8,1.6c1.3,2.9,2.4,5.1,6.2,2.6c3.8-2.6,2.3-5.1,0.9-8.1c-0.6-1.3-0.9-3.6-0.2-4.7
			c4.2-6.4,2.1-11.2-5.3-13.2c-4-1.1-7.6-3.7-11.2-5.9c-0.8-0.5-1.5-2.3-1.2-2.9c0.6-1,2.1-2.2,3-2c4.3,0.7,8.7,1.3,12.7,3
			c3.3,1.4,5.2,1.6,6.9-1.8c0.6-1.2,1.3-2.4,2.3-3.2c3.3-3,5.8-5.7-0.4-8.3c-0.6-0.3-0.7-1.9-1-3c1.3-0.4,3.1-1.6,3.9-1.1
			c4.5,2.7,5.3-0.8,6.8-3.6c1.2-2.3,3-4.3,4.1-6.6c1.9-4.1,3.8-8.2,5-12.6c2-7.4,7.4-11.8,14.8-11.4c2.7,0.1,4.5,0.6,3.2,4.2
			c-1.6,4.4,0.4,8.1,4.4,10.2c1.3,0.7,2.1,2.4,3,3.7c0.8,1.2,1.1,3.4,2.1,3.8c7.4,2.9,8.3,9.7,10,16.4c3.9-2.3,7.1-7.4,11.3-1.2
			c2-6.4,2.9-6.9,9.4-4c-3.4,3.1-6.8,5.9-9.8,9c-3.6,3.7-2.5,10.2,2.3,12.5c4.2,1.9,6.1,4.7,6.1,9.2c0,3.8,3.4,6.6,7,5.9
			c1.2-0.2,2.6-1.5,3.1-2.6c0.3-0.7-0.6-2.5-1.5-3.1c-4.7-3.8-4.8-4.5-0.5-10.1c3.1,0.8,6.5,1.1,7,5.6c0.1,1.2,1.9,2.5,3.2,3.1
			c0.6,0.3,2.8-0.9,2.8-1.1c-0.3-1.5-0.9-3-1.6-4.3c-0.4-0.8-1.2-1.5-2.6-3.1c5.2,0.4,8.3-1.3,9.4-5.7c0.1-0.4,1.2-1,1.6-0.9
			c5,1.2,10.8,0.1,14.2,5.4c0.7,1,0.8,2.3,1.2,3.5c-1.2,0.4-2.4,1.3-3.5,1.1c-3.6-0.5-7.1-1.4-10.7-2c-1.1-0.2-2.2,0-3.2,0
			c-0.1,0.6-0.2,1.2-0.1,1.2c7.2,3.7,12.3,11.9,22.1,10.5c1-0.1,2.6,2.1,3.6,3.4c0.9,1.2,1.2,3.1,2.3,3.8c3.7,2.3,7.7,4.2,11.6,6.2
			c0.7,0.4,1.5,0.6,2.5,0.9c1-1.7,1.8-3.2,2.8-4.9c7.2,3,14,2.4,20.9-0.9c3.9-1.9,8-2.5,11.2,1.9c0.6,0.8,3.1,1,4,0.4
			c1.7-1.1,3.4-2.9,4.2-4.7c2.4-5.5,7.5-7.2,12.3-8.4c3.8-1,6.5,2,7.3,5.9c0.7,3.2,0.8,6.6,1.1,9.9c0.1,0.8,0.3,2.1,0,2.4
			c-4.8,3.4-1.1,7.5-0.8,11.2c0.2,2.8,0.9,5.2-2.3,6.8c-0.6,0.3-0.6,2.4-0.3,3.4c0.6,2,1.5,4,2.4,6.1c5.9,1,6,2.7,4.3,8.4
			c-1.1,3.4,0.8,7.8,1.6,11.7c0.4,1.9,1.5,3.6,1.8,5.4c0.7,4,3.3,5.5,7,4c6-2.6,12.1-5.2,18.1-7.8c0.5-0.2,0.9-0.5,1.3-0.7
			c3.2-2.2,8.1-16.2,6.2-19.5c-1.3-2.2-4.1-3.7-6.4-5.2c-2.1-1.4-5.2-2-6.5-3.9c-4.1-6.2-7.6-12.8-11.3-19.3c-0.6-1-0.8-2.3-1.7-3
			c-3.6-2.9-4.6-6.5-4.4-11c0.1-1.8-1.2-3.7-2-5.5c-1.1-2.8-2.2-5.5-3.3-8.3c-1.3-3-2.3-6.2-4.1-8.9c-4.4-6.7-4.4-9,0.8-14.8
			c6.7-7.5,13.5-15,19.7-22.9c1.9-2.4,2.7-6.4,2.3-9.5c-0.1-1.5-4-3.4-6.3-3.6c-4-0.3-7.8,1.4-8.9,5.7c-1.7,6.4-6,9.2-11.9,10.6
			c-4.2,0.9-7.1,3.2-8.5,7.6c-0.3,1.1-3.1,2.3-4.4,2c-10.1-2.8-14.3-11.1-18-19.8c-0.5-1.1,0.4-3.3,1.4-4.4
			c6.2-7.3,12.7-14.3,15.6-23.9c1-3.2,3.8-6.1,6.2-8.7c5.1-5.3,7.2-14.1,4.4-20.7c-1.7-4-4.6-5.9-9.2-4.8c-4.8,1.2-8,4-10.8,8.2
			c-4,6.2-8.7,12.1-13.5,17.7c-2.7,3.2-6.3,3.4-9.9,1c-1.7-1.1-3.5-1.9-5.1-3.2c-4.5-3.7-8.4-4.3-12.9,0.5c-2.3,2.5-7,1.6-9.3,5.6
			c-1.8,3.1-5,5.2-4.7,9.4c0,0.7-1.4,1.6-2.3,2.1c-1.5,0.8-3.1,1.1-4.6,1.9c-2.7,1.4-6.3,2.4-5.1,6.7c1,3.4,6,5.9,9.9,5.2
			c7.7-1.4,8.8-0.7,10.9,6.9c-0.2,0.3-0.3,0.6-0.5,0.8c-2,1.3-5.5,0.4-5.7,4.4c-0.2,3.9,2,5.4,4.9,7.2c3.1,2,5.8,3.3,9.7,2.4
			c3.4-0.8,5.2,1.7,3.5,4.8c-1.7,3.2-3.8,6.3-6.3,8.9c-3.4,3.4-9.1,1.9-10.8-3.1c-1.5-4.4-3.9-5-8-3.9c-6.9,1.8-7.3,1.3-6.9-5.9
			c0.1-1.7-0.2-3.5-0.3-5.8c-2.1,0.8-3.6,1.3-5.8,2.1c-1.6-5.2-3.4-10.1-4.6-15.2c-0.6-2.6-1.2-3.3-4.1-4c-8.2-2-16.8-4.5-21.1-12.8
			c-2-3.8-2.8-8.4-3.3-12.8c-0.4-3.4-2-4.3-5-5.1c-4.2-1.1-8.3-2.8-13.9-4.7c5.8-5.8,10-10.8,15.2-14.8c3.5-2.7,6.5,0.2,8.5,3.4
			c3.1,4.9,4.4,4.7,8.1,0.2c5.2-6.2,6.3-12.3,3.4-20.1c-1.8-4.8-2.7-10.7,1.4-15.6c2.4-2.9,5.6-4.2,8.9-2.7
			c3.9,1.8,7.4,4.6,11.2,6.7c1.4,0.8,3.4,1.3,4.9,1c8.1-1.8,16-3.7,24.4-1.2c6.7,1.9,13.9-3.8,15.1-11.1c1.5-9.1,1.6-8.6,10.2-11.3
			c10.3-3.2,18.6,0,27.4,5.3c7.1,4.3,9.2,9.8,11.4,17.2c2.8,9.3,8.7,17.8,13.9,26.3c1.3,2.1,5,3.3,7.7,3.6c4.1,0.4,6.5,2.1,7.4,6
			c1.3,5.3,4.3,8.6,9.8,10.2c1.6,0.4,2.8,3.4,3.6,5.4c1.4,3.6,2.1,7.4,3.4,11c0.8,2.3,1.9,4.6,3.2,6.7c2.3,4,4.8,7.8,7.2,11.8
			c1.8,2.9,3.5,5.9,5.2,8.8c1,1.9,1.4,4.6,2.9,5.6c4.5,3.1,4.8,7.8,5.1,12.3c0.1,1.8-1.2,3.9-2.3,5.6c-2.7,4-5.9,7.6-8.4,11.6
			c-2.3,3.8-5.8,4.3-9.5,4c-6.7-0.5-13.3-1.3-19.5,2c-3.7,1.9-6.5,3.2-9.5-1.5c-1.7-2.7-4.9-0.9-5.7,1.7c-0.7,2-0.7,5.2,0.5,6.6
			c2.8,3.3,2.8,6.8,3,10.7c0.1,2.8,0.9,5.6,2,8.1c2.4,5.4,7.5,5.7,11.6,1.7c2-1.9,4.9-3.4,7.6-4c4.5-0.9,9.2-1,13.9-1.2
			c6.7-0.3,10.1-3.3,10.7-10c0.2-2,0.3-4,0-6c-0.9-5.8,3.2-7.9,7.2-10.1c4-2.1,6.4,0.9,9.1,3.2c5.6,4.9,11.2,9.8,17,14.4
			c4.6,3.7,7.7,7.9,7.9,14.2c0.1,5,2,9.9,0.4,15.2c-0.5,1.6,1.2,4.3,2.5,6c1.6,2.1,3.8,3.7,5.8,5.5c2.9,2.6,4,5.2,2.2,9.2
			c-1.9,4.4-1.1,8.5,3.4,11.2c2.4,1.4,3,3.2,1.6,5.8c-0.7,1.2-0.8,2.9-0.9,4.3c-0.4,6.3-3.9,10.5-10.2,11.5
			c-4.4,0.7-8.9,1.1-13.4,1.7c-8.8,1.1-13.1,6.8-12,15.4c0.2,1.6,0.3,3.7-0.5,4.8c-2.4,3.2-4.1,6.1-1.3,9.9c0.1,0.2-1.9,2.8-2.9,2.8
			c-4.5-0.1-5.9,2.6-7.2,6.2c-3.2,8.7-11.4,12-19.7,7.6c-1.7-0.9-3.2-3.5-3.6-5.5c-0.8-4-2.7-6.2-6.7-7c-1.4-0.3-2.9-1-3.9-2
			c-5.8-5.3-12.9-4.8-19.7-3.7c-5.2,0.8-5.8,3-3.3,7.6c4.1,7.6,3.2,11.8-3.1,17.4c-0.9,0.8-1.4,2.8-1.2,4.1c0.6,3.6,0.3,6.4-2.6,9.4
			c-2.1,2.1-2.9,6.1-3,9.3c0,3.2,1.6,6.2,5.5,7.5c1.2,0.4,2.1,3.1,2.2,4.8c0,0.8-2.4,2.3-3.6,2.2c-1.3,0-2.6-1.5-5.1-3.2
			c-5.8,0.9-13.2,2-20.6,3.1c0,0.4,0.1,0.7,0.1,1.1c5.9-0.5,11.7-1,18.4-1.6c-0.3,5.5-0.3,10.2-0.9,14.9c-0.2,1.2-2,2.3-3.3,3.3
			c-0.8,0.6-1.7,1.1-2.6,1.4c-2.6,1-6.6,3.6-7.7,2.7c-3.4-2.9-7-6.6-8.1-10.7c-2.5-8.7-2-8.9-10.3-6c-1.1,0.4-2.3,0.2-3.6,0.4
			c-0.2,0.7-0.5,1.3-0.4,1.9c0.9,6,0.9,5.6-5,5.8c-2.5,0.1-4.8,2.4-7.7,4c0.5-4.1,0-8.5-6-10.2c5.1-3.5,9.4-6.3,13.6-9.2
			c0.9-0.6,1.6-1.7,2.4-2.6c-1.1-0.5-2.3-1.4-3.4-1.4c-2,0.1-4.6,0.2-6,1.4c-5.6,4.6-5.5,4.8-12.9,0c1.7-1.3,3.1-2.4,4.6-3.5
			c2.7-1.9,2.7-3.6-0.3-5.1c-5.9-2.9-6.9-2.4-9.4,3.9c-0.6,1.5-2,2.8-3.4,4.6c-5.6-7.3-4.4-15.2-4-23.5c-2.2,0.7-3.5,1.2-4.9,1.5
			c-0.9,0.2-2.7,0.3-2.8,0c-2.2-6.6-10.9-3.8-14-10.7c3-1.9,6.3-4.1,10.2-6.6c-2.5-1.8-5.1-4.1-8.2-5.5c-1.1-0.5-4.1,0.7-4.6,1.9
			c-0.8,1.7-0.2,4.1-0.2,6.9c-0.9-0.4-2.3-0.8-3.5-1.5c-2.4-1.4-4.8-3-7.2-4.3c-3-1.7-3-3.4-0.2-5.1c1.2-0.7,2.8-1.1,4.2-1.4
			c6.6-1.4,9.4-7,12.6-11.9c0.4-0.6-1.2-3-2.3-4.2c-1.2-1.3-2.8-2.2-4.3-3.3c0.2-0.4,0.5-0.8,0.7-1.2c2.1,0.7,4.2,1.7,6.3,2.1
			c1.1,0.2,2.4-0.4,3.6-0.6c-0.2-1.1-0.3-2.4-0.8-3.4c-0.5-1-1.3-1.9-1.9-2.9c-2.5-3.7-5.8-4-7.6,0c-2,4.2-5,4.7-10,3.6
			c1.6-1.3,2.5-2,3.4-2.7c2.1-1.8,4.7-3.2,6.3-5.3c4.1-5.6,5.4-5.6,8.3-0.1c2.3,0.2,4.2,0.3,6.1,0.4c-0.2,2.1-0.4,4.2-0.7,7.2
			c0.7,0.3,2.1,1,3.4,1.8C569.5,372.8,570.8,373.8,573.7,375.5z M677.3,239.8c-2.8-2.3-4.4-4.5-6.2-4.9c-3.2-0.6-5.1,2-4.5,4.9
			c0.4,2.1,2.5,4,3.8,5.9C672.2,244.1,674.2,242.4,677.3,239.8z M568.8,387.9c1.3-1.1,2.2-1.9,3.1-2.6c-2.2-1.1-4.2-2.4-6.5-3.2
			c-0.6-0.2-1.8,1.2-2.7,1.8C564.6,385.1,566.5,386.4,568.8,387.9z M637,403.5c-0.5,0.2-1.1,0.5-1.7,0.8c2.8,6,5.7,12.1,8.5,18.1
			c0.5-0.2,0.9-0.4,1.4-0.6C642.5,415.7,639.7,409.6,637,403.5z M563.1,396.6c1.3-1.8,2.5-3.1,2.4-3.3c-1.3-1.5-2.8-2.9-4.2-4.3
			c-0.6,0.8-1.9,2-1.7,2.5C560.3,393,561.5,394.4,563.1,396.6z M585.9,392.3c2.7-0.1,5.4-0.3,8.6-0.4
			C591.9,387.8,591.9,387.8,585.9,392.3z M571.3,317.3c-0.7-0.5-1.4-0.9-2.1-1.3c-0.4,1.2-1.3,2.5-1.1,3.7c0.1,0.9,1.7,2.5,2.1,2.4
			c1.1-0.4,2.2-1.5,2.8-2.5C573.2,319.3,572,318.1,571.3,317.3z"/>
		<path class="st2" d="M437.9,248.1c-0.8,7.7-7,10.4-14.5,6.6c-5-2.5-9.2-4-12.8,2c-0.4,0.7-2.5,0.5-3.9,0.7c0.3-1.1,0.5-2.3,1-3.4
			c1.1-2.9,2.4-5.7,3.5-8.6c0.2-0.6,0.1-1.4-0.1-1.9c-1.1-2.9-11.2-7.8-14.5-7.4c-2.3,0.3-4.6,0.1-7.5,0.1c3.8-6,7-6.7,12.2-3.9
			c0.9,0.5,3.4-0.2,3.5-0.8c0.4-1.4,0.4-4.3-0.3-4.5c-3.2-1.2-6.9-3-9.8-2.3c-4.3,1-5.6-0.9-6.5-3.9c-2.4-8.1-4.9-10.3-12.8-11.1
			c-3-0.3-5.3-1.1-3.6-5.1c0.5-1.3-0.5-3.1-0.5-4.7c0.1-2.4,0.3-4.7,0.7-7.1c0.2-1.6,1.3-3.2,1.1-4.6c-0.6-3.6,1.4-5.4,4.2-6.2
			c0.5-0.1,1.9,3.3,2.9,5.1c0.2,0.3,0.4,0.5,1.1,1.4c3.8-2.9,7.4-5.9,8.7-10.6c0.4-1.3-1-3.2-1.9-4.7c-1.1-2-2.4-3.9-3.8-5.7
			c-3.1-3.9-2.8-8.2-2.6-12.9c0.1-2.4-2.4-5.2-4.2-7.4c-2.5-3-5.5-5.4-8.1-8.3c-2.7-2.9-5.4-5.1-9.8-5.2c-2.5-0.1-5.1-1.8-7.5-3
			c-2.2-1.1-4-2.9-6.3-3.8c-7.1-2.9-9.5-13.1-3.9-18.3c0.9-0.8,3.7-0.5,5,0.3c1.9,1.2,3,3.5,4.7,5.1c4.4,3.8,9,2.5,9.6-3.3
			c0.4-4.2-0.2-9.2-2.2-12.9c-3.1-5.9-4.8-11.8-5.3-18.5c-0.2-3.2-2.8-6.3-4.8-9.2c-1.6-2.3-4.2-3.9-5.8-6.1
			c-4.1-5.8-2.6-11.2,3.9-14.2c2.1-1,4.5-1.4,6.6-2.3c3.7-1.6,7.5-3.1,10.8-5.3c2.8-1.9,4.9-2.2,7.7-0.4c5.2,3.3,6.5,2.9,10.1-2.1
			c0.9-1.3,2.1-2.9,3.5-3.4c5.2-1.7,10.6-3,16-4.5c1.3-0.4,2.6-0.5,3.8-1c7.8-3.4,14.5-1.2,19,6c1.2,2,2.6,3.9,4.2,5.6
			c3.8,4,7,4.6,11.5,1.3c5.4-3.9,11.3-5.5,17.7-6c1-0.1,2-0.1,2.9-0.5c6-2.4,11.5-3.5,16.6,2.3c1.1,1.3,4.7,0.2,7.1,0.6
			c2.1,0.3,4.7,0.6,6.1,1.9c4.6,4,8.6,8.7,13.1,12.9c5.9,5.4,5.6,9.7-1.1,14.2c-3.6,2.4-7.4,4.6-10.5,7.6
			c-9.2,8.9-5.1,23.8,7.2,27.3c1.9,0.5,3.9,1.1,5.7,1.9c6,2.6,6.7,5.2,3.2,10.8c-0.8,1.2-1.7,2.7-1.8,4c-0.2,7.3-5,10-11.1,11.2
			c-1.2,0.2-2.6,0-3.8-0.3c-5.1-1.2-10.3-2.5-15.4-3.9c-2.9-0.8-5.8-1.5-8.5-2.7c-7.3-3.3-14.5-6.9-22.3-10.7c0.4-0.8,1-2.3,1.8-3.7
			c4.1-7.9,4.3-16.2,2.6-24.8c-0.9-4.3-0.9-8.8-1.1-13.2c-0.1-2.3,0.6-4.8,0-6.9c-0.6-2-2-4.3-3.8-5.4c-3.3-2.1-14,1.1-17.6,4.6
			c-3.2,3.2-3.2,7.6-0.7,13.4c3.6,8.2,1.9,16.4-2.3,23.8c-1.1,2-5.2,2.9-8,3.3c-3.4,0.4-7-0.6-10.4-0.4c-1.9,0.1-4.3,0.8-5.3,2.1
			c-1,1.4-0.6,3.8-0.9,5.8c1.7,0.2,3.5,0.8,5.1,0.4c5.1-1,10.2-2.4,15.3-3.2c0.7-0.1,2.2,2.5,2.7,4c0.8,2.3,1,4.9,2.1,7.2
			c4.7-6.8,13.4-8,19.3-2.7c7.5,6.7,7.8,9.3,1.8,17.7c-0.3,0.4-0.5,1.1-0.9,1.2c-8,1.4-5.7,8.3-7.1,13.2c-0.6,2.2-1.4,4.5-2.9,6.1
			c-3.8,4.4-4,7-1.2,11.9c1,1.8,0.9,4.2,1.3,6.3c0.3,2-0.2,5.1,0.9,5.8c2.3,1.5,5.8,3,8,2.2c4.7-1.7,6.6,0.6,8.2,3.9
			c1.2,2.7,2.1,5.6,2.9,8.5c0.8,2.8,0.5,5.2-2.4,6.9c-1,0.5-2,1.5-2.4,2.5c-2.6,6.4-8,8.8-14.2,10.5c-3,0.8-4.5,3.3-2.4,5.6
			c3.9,4.4,5.7,8.4,1.2,13.4c-0.3,0.4,0,1.3,0,2.1c1.4,0.4,2.8,0.7,5.5,1.5c-1.9,1.3-2.9,2-3.9,2.7c-1.6,1-3.7,1.6-4.6,3.1
			c-2,3.1-0.6,4.8,3.1,4.6C435.9,248.2,436.7,248.2,437.9,248.1z"/>
		<path class="st2" d="M593.6,462.7c0.3,2,1.5,4.2,0.9,5.8c-1.1,2.7-2.2,4.6,1,6.7c0.8,0.5,0.5,2.7,0.8,4.8
			c10.7,0.7,10.5-11,17.6-15.9c-0.1,6.7,3.8,9.3,8.3,12.2c3.7,2.4,3,7.8,0.6,11.3c-2.6,3.9-1.1,5.6,2.4,6.3c6.1,1.2,12.3,2,18.4,3
			c1.1,0.2,3.1,0,3.3,0.6c3.2,7.6,13.6,8.2,16.2,16.6c0.4,1.2,2.9,2.5,4.5,2.6c4.4,0.2,9.1,0.3,11.4,4.6c2.5,4.7,0.6,8.8-2.3,13.3
			c-3,4.6-6.7,7.6-11.1,10.3c-0.7,0.4-1.7,0.8-1.9,1.5c-1.5,4.9-3.1,9.3-8.3,12.2c-1.2,0.7-0.6,8,1.4,10.5
			c6.1,7.8,14.1,13.5,23.4,17.3c5.2,2.2,10.2,4.7,15.3,7.2c6.6,3.3,8.5,8.4,5,16.4c-2.5,5.9-4.8,11.5-3.7,18.2
			c0.4,2.3-0.7,5.8-2.4,7.3c-4.7,4.1-10,7.5-15.1,11c-6.9,4.6-15,2.2-22.5,3.5c-1.1,0.2-2.4-0.1-3.4-0.7c-4.8-2.7-9.7-3.6-15.3-2.4
			c-5,1.1-8.5-4.5-8.3-10.9c0.2-6.8,0-13.8-1.5-20.4c-0.6-2.8-4.6-5.5-7.6-6.8c-4.1-1.8-7.6-3.7-9.9-7.8c-1.9-3.4-6.2-4-9.6-1.9
			c-1.1,0.7-2,1.8-3,2.6c-2.3,1.6-4.7,5.1-7.7,2.3c-3-2.7-2.5-6.6-0.8-10.2c1.9-4.2,3.5-8.5,5.6-12.5c1.1-2,2.8-3.7,4.5-5.3
			c1.6-1.6,3.5-2.9,5.3-4.3c2-1.6,4.1-3.2,6.2-4.7c0.3-0.2,0.6-0.2,0.9-0.4c4.5-2.6,8.8-16.5,7.8-21.6c-1.2-6.1-1.7-11.6-10.1-11.4
			c-1.9,0-3.7-3.3-5.8-4.4c-1.6-0.8-3.7-0.5-5.6-0.7c0.3,1.6,0.6,3.2,1,4.9c0.1,0.6,0.3,1.2,0.8,3.3c-2.4-1.3-3.9-1.9-5.1-2.8
			c-4.3-3.3-6.2-2.8-10.4,0.6c-3.6,2.9-8.2,4.7-13.5,7.6c0.4-2.8,0.3-4.3,0.8-5.6c1.1-3.2,3.4-6.4,0-9.6c-0.3-0.3-0.3-1-0.2-1.4
			c2-8.6,4-17.2,6.2-25.8c0.3-1.4,1.8-2.4,2.3-3.8c1.1-2.8,2.6-5.7,2.6-8.5c0-3.1,0.2-5.3,2.2-8.1c2.6-3.7,3.6-8.4,5.3-12.7
			c0.5-1.2,0.9-2.3,1.3-3.5C592.6,462.8,593.1,462.8,593.6,462.7z M640.3,575.2c5.7,0,11.1-3.8,10.3-6.7c-0.6-2.4-3-4.4-4.5-6.6
			c-3.2,3.1-6.4,6.2-9.2,9.5C636.7,571.7,639.6,574.5,640.3,575.2z"/>
		<path class="st2" d="M493,655.4c1.2,5.4,8.3,8.6,14.7,6.2c3.9-1.5,6.4-0.3,8.9,2.2c2.2,2.1,4.2,4.3,6.4,6.3
			c5.3,4.9,11.1,5.3,17.1,1.1c2-1.4,3.8-3.3,5.8-4.8c3.8-2.8,7.7-3,12-0.6c2.3,1.3,6.1,2.2,8,1.1c2.2-1.2,3.2-4.8,4.7-7.4
			c0.2-0.4-0.1-1,0.1-1.5c0.8-1.8,1.6-3.6,2.4-5.4c1.1,1.6,2.9,3.1,3.2,4.8c1.5,7.4,5.6,12.2,12.9,14.4c3.2,1,6.4,2,9.5,3
			c7.9,2.7,9.6,8.1,4.5,14.5c-7,8.8-14.3,17.4-21.1,26.3c-3.2,4.2-5.7,8.9-8.4,13.5c-2.1,3.5-4.2,5.7-8.8,3.5c-4-2-6.9,0.2-8.1,4.1
			c-1.5,4.8-4.1,6.1-8.6,3.9c-1.1-0.5-3-1.1-3.8-0.6c-4.3,2.6-7-0.1-10.1-2.5c-2-1.5-4.1-2.9-6.4-3.8c-1.5-0.6-4.5-0.7-5,0.1
			c-3.2,4.9-8.5,3.1-12.6,4.5c-1,0.3-2.6,0.1-3.3-0.5c-4.2-3.6-9.1-3.3-14.1-3.6c-4.4-0.2-8.3-2.2-9.4-6.9
			c-1.1-4.5,0.2-8.4,4.2-11.4c9.2-6.9,9-12.5-0.5-18.6c-2.5-1.6-2.8-3.3-1.5-5.8c1-2.2,2-4.5,2.1-6.9c0.2-3-1.2-4.7-4.9-4.7
			c-4.7,0-9.4-1.9-13.9,1.2c-0.6,0.4-3.3-0.9-3.7-2c-2-4.6,2.1-10.6,7-11.5c4.2-0.8,8.7-1.6,12.3-3.7
			C487.7,662.4,489.9,658.6,493,655.4z"/>
		<path class="st2" d="M471.8,607c-3.2-0.9-6.5-2.2-9.8-2.7c-1.9-0.2-4.7,0.3-5.8,1.6c-4,4.8-9.9,5.6-15.1,6.6
			c-5,1-9.2-2.3-11.3-7.8c-2.5,0.9-5.1,1.2-6.6,2.7c-2.6,2.5-4.9,1.8-7.6,0.7c-3.4-1.3-4-3-2.3-6.1c0.9-1.5,1.4-3.1,2.1-4.7
			c-0.3-0.4-0.6-0.7-0.9-1.1c-1.7,0.6-3.3,1.5-5.1,1.8c-1.2,0.2-2.6-0.2-4-0.3c0.4-1.2,0.5-3.2,1.1-3.4c4.7-1.5,6-5.8,8.4-9.3
			c0.8-1.1,2.3-2.8,3.3-2.6c7,0.9,7.5-5.6,11.1-8.5c-0.2-0.5-0.5-0.9-0.8-1.4c-2.8,1.5-5.9,2.8-8.5,4.7c-2.5,1.8-5.4,4.9-7.4,1.4
			c-1.4-2.6-1-7.4,0.6-10.1c1.8-3.1,5.8-4.9,8.9-7.3c5.4,6.2,12.5,7.8,18.8,3.7c0.6,0.4,1.4,0.8,1.9,1.3c2.9,3.1,5.8,5.8,8.4-0.3
			c0.2-0.5,0.9-1.2,1.5-1.3c4-0.8,5.9-3.2,6-7.3c0-0.6,0.9-1.2,2.8-1.9c0.2,2.2,0.7,4.4,0.6,6.7c-0.1,7.3,0.6,7.7,7.6,6.4
			c5.1-0.9,10.4-4.1,15.8,1.8c0.5-3.3,0.5-5.4,1.3-7c1-1.9,2.8-3.3,4.2-5c0.9,1.7,2.2,3.3,2.6,5.1c0.6,2.5,0.5,5.1,0.7,7.6
			c2.4-0.8,4.9-1.6,7.3-2.3c2.8-0.9,14.1,3.8,15.7,6.4c2.4,4,6.5,6.8,6.6,12.2c0,1.5,2.7,3.7,4.5,4.1c3.6,0.8,4.8,3,5.6,6.1
			c0.7,2.7,2,5.3,2.7,8c1.7,6.1,5.7,8.8,11.9,9.5c3.8,0.4,9.3,7,9.3,10c0,6.2-3.2,9.7-9.6,11.4c-5.5,1.4-10.9,3.5-16.5,4.9
			c-2.4,0.6-5,0.2-7.5,0.6c-1.6,0.2-3.8,0.6-4.7,1.7c-2.2,3-4,6.3-5.7,9.6c-1.5,2.9-5.4,3.6-6.6,0.7c-2-5-4.4-4.4-8.7-2.8
			c-5.4,2.1-11,3.7-16.8-0.8c-2.9-2.2-3.9-3.6-3.2-7.1c1-5.6,1.8-11.1,7.4-14.4c1-0.6,1.2-3.1,1.4-4.8c0.3-2.5-0.1-5.3,0.6-7.7
			c1.3-4.5-2.6-11.2-7.5-11.3c-1.1,0-2.3,1.3-3.2,2.2c-1.2,1.2-2.1,2.5-3.1,3.8c-0.6-1.6-1.2-3.1-1.8-4.7c-0.1-0.3-0.4-0.5-0.5-0.8
			C472.1,606.2,471.9,606.6,471.8,607z"/>
		<path class="st2" d="M769.8,452c-0.3,6.3-0.5,12.7-1.2,19c-0.2,1.6-2.3,3-3.7,4.4c-1.5,1.5-4.1,2.5-4.6,4.3
			c-3.4,11.7-11.9,21.5-12.7,34.4c-0.3,5.9-3.2,11.3-9.9,13.8c-2.9,1.1-5.2,3.9-7.6,6.2c-1.9,1.8-3.2,4.4-5.3,6
			c-2.1,1.5-5.3,3.5-7.1,2.9c-2.5-0.9-5.9-4.2-5.8-6.3c0.2-12.5-6.3-16.8-17.7-18.9c-9.4-1.7-11.3-6-8.7-15.4c2-7.4,5-14.5,7-21.8
			c0.7-2.6,0.9-6.3-0.4-8.2c-3.3-4.9-4.3-10-3.8-15.6c0.5-6,0.8-12,1.8-17.9c0.9-5.5,3.2-6.2,7.8-3.3c6.9,4.4,14.2,3.2,21.7,1.8
			c6.3-1.2,12.7-1.8,19-2.9c3.4-0.6,7-1,9.9-2.7c8.6-5.2,12.4-5,17.2,3.4c2.9,5.1,3.9,11.2,5.8,16.8
			C770.9,451.9,770.3,451.9,769.8,452z M704.8,472.4c-3.8-0.5-7.7,0.3-8,4.5c-0.2,2.4,1.7,6.3,3.6,7.1c2.4,1,6.2,0.1,8.8-1.1
			c2.7-1.2,4.6-2.3,7.8-1.2c3.7,1.2,4.9-1.7,5.2-4.8c0.3-2.8-0.8-4.5-3.9-4.5C713.8,472.5,709.3,472.4,704.8,472.4z"/>
		<path class="st2" d="M263.9,256.1c6.6,0.5,13.4,0.8,20.2,1.6c1.3,0.1,3.3,2.3,3.2,3.3c-0.2,1.5-1.6,3.7-3,4.2
			c-3.6,1.2-7.4,1.6-11.1,2.2c-3.5,0.6-6.4-0.1-8.7-3.4c-2.2-3.3-4.8-4.7-8.4-0.7c-1.6,1.8-4.9,2.7-7.6,2.9c-4.3,0.4-6-2-4.8-6.2
			c1.1-3.6,2.7-7.1,3.7-10.8c0.6-2.4,0.6-5,0.9-8.4c5.2,0,11-0.1,16.8,0.2c0.8,0,2.4,2.4,2.2,3.4C266.5,248.4,265,252.4,263.9,256.1
			z M254.3,261.2c-1.6-1.2-2.7-2.5-3.1-2.2c-1.4,0.7-2.6,1.9-3.9,2.9c0.6,0.8,1.6,2.4,1.9,2.2C250.7,263.5,252.1,262.5,254.3,261.2z
			"/>
		<path class="st2" d="M385.5,227.4c-3.5,0.7-6.3,1.2-9,1.8c0,0.5,0.1,1,0.1,1.4c0.5,0.3,1,0.8,1.6,0.9c2.1,0.4,4.9,0.4,4,3.6
			c-0.8,2.8-3,5.7-6.2,4.1c-3.9-2-6.8-1.1-10.2,0.7c-1.3,0.7-3.6-0.4-5.5-0.8c-0.8-0.2-1.4-0.8-2.2-0.9c-5.8-0.7-9.1-3.2-10.3-8.6
			c-0.2-0.8,1.1-2.8,2-3c5-1.1,10-1.8,15-2.7c2.5-0.4,5-0.9,7.5-1.3c1.3-0.2,2.9,0.4,3.9-0.1C381.4,219.8,383,223.6,385.5,227.4z"/>
		<path class="st2" d="M516.6,356.2c-1.3,2.4-2.5,4.5-4.1,7.3c-4-8.3-0.8-13.4,8.4-15.2c0.1,1.6,0.3,3.1,0.5,5.1
			c2.2-0.3,4-0.6,7.2-1.1c-2,8.7-4,17-6,25.5c0.7,0.1,2.4,0.2,4.1,0.4c-0.5,6.6-5.2,10.4-10.5,7.8c-3-1.5-4-0.1-5.9,1.3
			c-1.5,1-3.5,1.2-5.4,1.7c-0.3-2.3-1.7-5.1-0.8-6.8c1.5-2.9,4.4-5.1,6.3-7.1c1.2,2.2,2.4,5.5,3,5.4c2.9-0.4,4.5-2.4,3.6-5.8
			c-0.3-1.2,0.4-2.9,1.1-4.1C521,366,520.6,360.9,516.6,356.2z"/>
		<path class="st2" d="M601.7,377.7c0.8-3.1,0.8-5.7,2.1-7.5c2.8-4,0.8-6.3-1.9-9c-2.5-2.5-4.5-4-7,0c-0.5,0.8-2.7,1.5-3.5,1.1
			c-2-1-3.9-2.4-5.1-4.2c-0.4-0.6,1.4-3.6,2.6-4c3.5-1.1,5.5-3.1,6.9-6.5c1.1-2.7,8.7-2.8,10.4-0.2c1.9,2.9,3.9,4.6,7.6,4.5
			c3.5,0,3,1.9,1.5,4.3c-2.9,4.8-5.7,9.8-8,14.9c-0.5,1.2,1.2,3.2,1.5,4.9c0.2,1.3,0.3,3.6-0.3,4c-1.2,0.6-3.2,0.6-4.5,0.1
			C602.8,379.9,602.2,378.4,601.7,377.7z"/>
		<path class="st2" d="M529,231.9c1.3-0.5,3.2-1.9,3.8-1.5c3,2.4,5.4,1,8.3-0.1c1.2-0.5,3,0,4.3,0.4c9.8,2.9,14.6,10.6,18.3,19.3
			c0.8,1.9,2.5,4.9,3.8,4.9c2,0,4-2.1,6.1-3.4c1.8-1.1,4.8-3.6,5.2-3.2c1.9,1.7,3.7,4.1,4.5,6.6c0.7,2.4-5.1,6.1-8,5.1
			c-4.8-1.6-9.6-3.3-14.1-5.5c-1.8-0.9-3.2-3.1-4.2-5c-2.2-4.1-3.7-8.5-6.2-12.4c-0.9-1.4-4.2-2.8-5.5-2.1
			c-5.8,2.8-10.5-0.9-15.7-1.2C529.3,233.1,529.2,232.5,529,231.9z"/>
		<path class="st2" d="M391.7,340.5c0-1.2-0.2-2.5,0.2-3.5c0.7-1.4,1.6-2.9,2.9-3.5c0.7-0.3,2.2,1.1,3.4,1.8
			c1.3,0.8,2.8,2.4,3.8,2.1c1.2-0.4,2.6-2.2,2.8-3.5c0.7-4,1.8-6.4,6.5-4.4c0.9,0.4,2.4-0.7,3.6-1.1c0.9,1.7,1.8,3.3,2.4,5
			c2,5,2.4,5.1,5.9,1.5c2.3,1,4.4,2,7.1,3.3c0,0-0.4,1.7-0.9,1.7c-4.3,0.3-8.5,3.9-13-0.1c-3.2-2.8-9.1-0.1-10.8,3.6
			c-1.3,2.9-4,5.2-6.9,8.9c-1.1-3-2.3-4.6-1.9-5.5c2.8-6.2-2-5.6-5.3-6.3C391.6,340.4,391.7,340.5,391.7,340.5z"/>
		<path class="st2" d="M402.2,275.5c5.5,1.5,11.4,3.7,13.8-3.3c2.4,1.7,4.9,4.5,5.9,4.1c2.2-1.1,3.6-3.7,4.9-6.1
			c2.8-0.3,4.4,3.1,2.2,6.7c-2.4,3.9-4.1,9.7-11.1,6.8c-1-0.4-3.3,1.2-4.4,2.5c-0.6,0.8-0.2,2.7,0.2,4c0.5,1.5,1.5,3,2.2,4.4
			c-0.7,0.3-1.7,1.1-2.1,0.9c-2-1.1-4.6-2.1-5.5-3.9C406.1,286.8,404.5,281.6,402.2,275.5z"/>
		<path class="st2" d="M401.2,252.9c-4.3,1.1-7.5,1.7-10.3,3c-0.8,0.4-0.4,3.1-0.5,4.4c3.4,1.9,5.3-5.9,8.4-0.7
			c-1.9,2.3-3.3,5.4-5.5,6.1c-4,1.3-8.5,1.6-12.8,1.3c-1.1-0.1-1.9-4.2-3-7.1c4.9,1,6.5-0.2,5.9-5.3c-0.8-6.9,4.5-9.9,10.5-6.6
			C396.3,249.3,398.4,251,401.2,252.9z"/>
		<path class="st2" d="M459.5,614.1c-0.9,0.8-1.6,1.7-2.4,1.9c-4,1.2-4.9,3.5-2.9,7.1c0.3,0.5,0.4,1.4,0.1,2
			c-0.5,1.2-0.9,2.8-1.9,3.2c-0.8,0.3-2.7-0.4-3.3-1.3c-2.6-3.7-4.7-4.2-7.4,0.1c-0.6,1-3.7,1.9-4.5,1.3c-1.8-1.3-3.3-3.5-4.2-5.7
			c-0.2-0.5,2.2-3,3.6-3.2c6.3-0.8,11.7-3,16.4-7.3c1-0.9,3.4-0.4,5.1-0.3C458.7,612,459,613.2,459.5,614.1z"/>
		<path class="st2" d="M530.4,385.9c0.7,4.4-3.9,9.3,3.9,11.2c-3.2,4.4-4.4,8.5,0.2,12.4c0.4,0.4,0.1,2.4-0.5,3
			c-0.8,0.7-2.2,0.8-3.4,1c-0.2,0-0.6-0.3-0.8-0.6c-4.3-5.8-8.6-11.7-13.4-18.2C522.3,394.3,527.8,392.5,530.4,385.9z"/>
		<path class="st2" d="M477.7,166.3c-2.1,0-8.6-7.6-7.4-10.3c0.5-1.1,2.6-2.1,3.9-2c4.6,0.2,9.2,0.4,13.6,1.5
			c1.8,0.4,4.4,3.3,4.1,4.6c-0.4,1.9-2.6,4.3-4.5,5.1C484.8,166.1,481.6,165.9,477.7,166.3z"/>
		<path class="st2" d="M499.8,423.5c-2.5-2.3-4.5-4.2-6.8-6.3c1.3-0.9,2.2-1.4,3.1-2.1c4.6-3.5,4.7-4.7,1-9
			c-3.6-4.3-3.1-5.6,3.5-8.2c-0.9,3.8-2.3,8.2,2.6,9.7c6.2,1.8,4.2-5.3,7.7-8.1c1.4,2.7,3,4.9,3.8,7.4c1.1,3.4-0.7,4.7-4,4.1
			C502.8,409.4,497.6,415,499.8,423.5z"/>
		<path class="st2" d="M533.2,330.4c-1.6,5.4,0.8,7.2,4.9,8.4c5,1.5,7.2,6.9,5.2,12.2c-3.4-2.8-6.7-5.5-9.9-8.1
			c-0.5-0.4-1.1-0.7-1.8-0.9c-2.1-0.4-5.2,0.4-4.7-3.4C527.3,335.4,527.9,331.9,533.2,330.4z"/>
		<path class="st2" d="M436.2,323.1c-6.4-5.1-11.7-9.4-17.1-13.7c5.5-6.2,6.9-6,11.6,0.8c1.1,1.6,3.5,2.3,4.9,3.8
			c1.1,1.2,2.5,2.9,2.4,4.4C438,320.3,436.7,322.1,436.2,323.1z"/>
		<path class="st2" d="M418,326.5c0.3-5-1.1-7.8-5.4-8.4c-0.2,0-0.4-0.1-0.5-0.2c-0.6-0.7-1.9-1.6-1.8-2.1c1.4-5.8-8.9-8.7-3.3-15.9
			c3.4,3.6,8.3,5.7,7,12.3c-0.3,1.4,2.1,3.5,3.5,5.1C420.4,320.6,420.9,323.6,418,326.5z"/>
		<path class="st2" d="M392.1,298c2.4,2.2,3.9,3.5,5.1,4.9c1,1.2,2.2,2.6,2.3,4.1c0.1,0.7-2.1,2.1-3.4,2.2
			c-3.6,0.2-7.3,0.1-10.8-0.4c-0.6-0.1-1.6-3.6-0.9-4.5c1-1.3,3.5-1.4,4.9-2.5C390.6,300.7,391.5,298.9,392.1,298z"/>
		<path class="st2" d="M544.5,440.1c-0.8,1-2.5,2.9-4.2,4.9c-1.9-2.5-4.5-4.8-5.3-7.6c-0.4-1.5,2-4.9,3.9-5.7
			C541.6,430.7,544.5,434.5,544.5,440.1z"/>
		<path class="st2" d="M388.3,241.9c3.8-0.6,6-1.4,8-1.1c2.9,0.3,6.4,0.7,8.2,2.5c1.2,1.1-0.1,4.9-0.4,8
			C398.4,247.9,393.9,245.2,388.3,241.9z"/>
		<path class="st2" d="M561.6,563.3c2.1,4-1.7,13.2-6,13.6c-1.4,0.1-4-1.1-4.3-2.2c-0.4-1.4,0.4-3.9,1.5-4.9
			C555.3,567.4,558.4,565.6,561.6,563.3z"/>
		<path class="st2" d="M376.8,319.5c-0.8-0.3-2.2-0.5-3.1-1.2c-1.3-1.1-2.3-2.7-3.4-4.1c1.6-0.7,3.2-1.8,4.9-2
			c2-0.2,4.2,0.2,6.2,0.6c1.4,0.3,2.8,1.1,4.1,1.7c-1.1,1.5-1.9,3.4-3.4,4.3C380.8,319.5,378.9,319.2,376.8,319.5z"/>
		<path class="st2" d="M437.2,520.3c-0.3,0.1-2,1.2-3.4,0.8c-1.5-0.4-3-1.9-4-3.2c-0.3-0.4,1.3-2.6,2.4-3.2c1.7-0.9,3.8-1.3,5.7-1.5
			c2.5-0.3,5.3-0.4,5.5,3.2C443.6,519,441.8,520.4,437.2,520.3z"/>
		<path class="st2" d="M584.5,572.6c0.5,0.8,1.8,1.9,2,3.2c0.4,3.2-3.7,8.7-5.8,8c-1.3-0.4-2.8-2.3-3-3.7
			C577.1,577,581,572.6,584.5,572.6z"/>
		<path class="st2" d="M358.5,192.9c1.4,1.9,3.4,3.7,3.1,4.6c-0.7,2-2.6,3.5-4,5.2c-2.1-1.9-4.2-3.7-6.4-5.6
			C353.3,195.9,355.4,194.7,358.5,192.9z"/>
		<path class="st2" d="M504,436.7c1.2,1.5,2.8,2.8,2.8,3.9c-0.1,2.1-1.2,4.2-1.9,6.4c-2.4-1.1-4.8-2.1-7-3.4
			c-0.1-0.1,0.2-1.9,0.8-2.4C500.2,439.7,502,438.4,504,436.7z"/>
		<path class="st2" d="M524.7,305.7c0.5,0.1,1,0.1,1.1,0.3c0.5,1.1,1.3,2.3,1.2,3.3c-0.5,3.5-3,5.5-6.4,5.7c-1.2,0-2.6-1.5-3.8-2.2
			c0.9-1.3,1.6-3,2.8-4C521,307.5,523,306.7,524.7,305.7z"/>
		<path class="st2" d="M462,526.4c9.1-3.2,10.4-1.5,8.2,10.8C467.1,533.1,464.7,529.9,462,526.4z"/>
		<path class="st2" d="M542.9,297.2c-4.4-1.9-7.8-2.3-9.7,2.3c-0.1,0.3-3.3-0.1-3.4-0.6c-0.8-3.3,1.4-5.2,4.1-5.6
			c3-0.4,6.5-4.1,9.2,0.7C543.4,294.6,543,295.6,542.9,297.2z"/>
		<path class="st2" d="M605,250.6c-2.7,2.5-4.8,4.5-6.9,6.4c-0.8-1-2.6-2.4-2.4-2.8c1.5-2.9,3.5-5.5,5.2-8.2
			C601.9,247.2,603,248.4,605,250.6z"/>
		<path class="st2" d="M476.9,327.4c-1.1,1-1.9,2-2.9,2.6c-1.5,0.9-3.1,1.7-4.8,2.3c-0.8,0.3-1.9,0.4-2.6,0
			c-0.5-0.2-0.9-1.4-0.9-2.1c0.3-3.2,6.9-6.4,9.6-4.7C475.8,325.9,476.2,326.5,476.9,327.4z"/>
		<path class="st2" d="M458.4,148.8c-3.3,2.1-5.2,3.5-7.4,4.4c-0.5,0.2-1.9-1.5-2.9-2.4c1.8-1.6,3.6-3.5,5.6-4.8
			C454.2,145.8,455.8,147.2,458.4,148.8z"/>
		<path class="st2" d="M553.9,467c2.5-0.5,5.1-1.1,7.6-1.6c0.4,0.5,0.8,0.9,1.2,1.4c-1,1.9-2.1,3.9-3.1,5.8c-2-1.3-4.1-2.6-6.1-3.9
			C553.6,468.1,553.7,467.5,553.9,467z"/>
		<path class="st2" d="M380.7,283.6c2.6,1.9,5.3,3.7,8.4,5.9c-2.3,1-4.1,1.8-6.6,2.9c-1.2-2.4-2.3-4.8-3.5-7.2
			C379.5,284.6,380.1,284.1,380.7,283.6z"/>
		<path class="st2" d="M562.5,496.3c2.6-3.2,5.2-6.4,7.9-9.7C572.8,490.2,568.3,496.6,562.5,496.3z"/>
		<path class="st2" d="M473.2,544c-2.4,1.3-3.8,2.5-5.3,2.6c-1.2,0-2.5-1.4-3.8-2.2c1.4-1.2,2.6-2.9,4.2-3.4
			C469.4,540.8,470.9,542.5,473.2,544z"/>
		<path class="st2" d="M235.1,203.8c-1.5-2-3.1-3.3-2.8-4c0.5-1.4,2-2.5,3-3.7c1,0.9,2.8,1.9,2.7,2.7
			C237.9,200.2,236.5,201.5,235.1,203.8z"/>
		<path class="st2" d="M370.4,245.6c-0.3,2.3-0.7,4.6-1,6.9c-0.5,0.2-1,0.4-1.5,0.6c-1-1.5-2.9-3.2-2.7-4.6c0.2-1.5,2.2-2.8,3.5-4.1
			C369.3,244.8,369.9,245.2,370.4,245.6z"/>
		<path class="st2" d="M451.6,560.8c-0.9-3.2-1.9-6.3-3-10.3c1.5,0.2,4,0.3,4.1,0.7c0.3,3.3,0.2,6.6,0.2,10
			C452.4,561,452,560.9,451.6,560.8z"/>
		<path class="st2" d="M440.2,561.2c0.4-2.6,0.8-5.2,1.3-7.8c0.1-0.3,1.3-0.8,1.6-0.6c0.6,0.4,1.4,1.3,1.3,1.8
			c-0.5,2.4-1.2,4.7-1.9,7.1C441.8,561.6,441,561.4,440.2,561.2z"/>
		<path class="st2" d="M482.1,536.2c3,0.4,4.9,0.7,8,1.1c-2.2,2.4-3.5,3.9-5.6,6.3C483.6,540.8,483,539,482.1,536.2z"/>
		<path class="st2" d="M538.5,417.7c-1.8,4.8-3.6,6.1-6.4,4.3c-0.8-0.5-1.1-2-1.6-3C532.8,418.6,535.1,418.2,538.5,417.7z"/>
		<path class="st2" d="M397.5,284.9c-0.9-1.8-1.8-3.6-3.1-6.5c2.5,0,4.1,0,5.7,0c-0.2,2.1-0.4,4.2-0.6,6.2
			C398.8,284.8,398.1,284.8,397.5,284.9z"/>
		<path class="st2" d="M560.4,435.1c-3.3,0.4-5.7,0.6-8.2,0.9c0.2-1,0.1-2.6,0.7-2.9C555.2,431.8,557.7,430.8,560.4,435.1z"/>
		<path class="st2" d="M547.1,538.4c-0.2-2-0.4-4-0.6-5.9c1.3,0.2,2.6,0.4,3.9,0.6c-0.3,1.8-0.7,3.7-1,5.5
			C548.6,538.5,547.8,538.4,547.1,538.4z"/>
		<path class="st2" d="M503.2,430.8c-3.5,0.8-6.2,1.5-10.5,2.4c1.5-1.7,2.4-3.4,3.1-3.4C498.1,430.1,501,426,503.2,430.8z"/>
		<path class="st2" d="M521.5,298.9c-2.1,1.2-3.3,2.2-4.7,2.5c-0.5,0.1-2.1-1.9-1.9-2c0.8-1.2,1.9-2.5,3.2-3.1
			C518.5,296,519.8,297.5,521.5,298.9z"/>
		<path class="st2" d="M376.9,269.9c-1.9,1.6-3.3,3.3-4,3.1c-1.3-0.4-2.2-2-3.3-3.1c1-0.8,2-2,3.1-2.1
			C373.8,267.7,375,268.8,376.9,269.9z"/>
		<path class="st2" d="M570.9,439.5c-1.4,1-2.3,1.6-3.3,2.3c-0.6-0.9-1.8-1.9-1.7-2.8c0.1-1.1,1.2-2.2,1.9-3.2
			C568.7,436.8,569.6,437.9,570.9,439.5z"/>
		<path class="st2" d="M517.7,435.4c-0.6,2-1.2,4-1.7,6c-0.5,0.1-0.9,0.3-1.4,0.4c-0.5-1.6-1.7-3.3-1.3-4.6c0.3-1.1,2.3-1.8,3.6-2.7
			C517.2,434.7,517.5,435,517.7,435.4z"/>
		<path class="st2" d="M579.2,458.6c-0.5,2.5-0.9,5.1-1.4,7.7c-0.7-0.1-1.4-0.2-2.2-0.3c0.3-2.6,0.6-5.1,0.8-7.7
			C577.3,458.4,578.2,458.5,579.2,458.6z"/>
		<path class="st2" d="M531.7,577.1c1.2,1.5,2.5,2.5,2.3,3c-0.5,1.3-1.6,2.5-2.4,3.7c-0.8-0.9-2.2-1.8-2.2-2.7
			C529.4,580,530.5,579,531.7,577.1z"/>
		<path class="st2" d="M440.5,308.3c1.4-1,2.7-2.2,4.2-3c0.3-0.2,1.4,1.2,2.2,1.9c-1.6,1-3.3,2.1-4.9,3.1
			C441.5,309.7,441,309,440.5,308.3z"/>
		<path class="st2" d="M469.1,192.5c-1.5,1.1-2.8,2.3-2.9,2.2c-1.1-1.1-2.1-2.3-2.9-3.6c-0.1-0.2,1.5-1.9,1.7-1.8
			C466.2,190,467.3,191.1,469.1,192.5z"/>
		<path class="st2" d="M556.3,347.7c-3,1-4.1,5.4-7.7,5.3c-0.4-0.6-0.8-1.3-1.2-1.9c2.6-1.8,5.1-3.5,7.7-5.3
			C555.5,346.4,555.9,347.1,556.3,347.7z"/>
		<path class="st2" d="M522.2,461.9c-1-1.5-2.3-2.7-2.1-3.2c0.6-1.1,1.7-2.1,2.8-2.6c0.4-0.2,2.3,1.6,2.1,2
			C524.6,459.4,523.5,460.3,522.2,461.9z"/>
		<path class="st2" d="M348.4,209.1c-2.1,1.1-3.3,2.2-4.2,2c-1-0.2-1.7-1.6-2.5-2.4c1-0.6,1.9-1.8,2.9-1.8
			C345.4,206.8,346.4,207.9,348.4,209.1z"/>
		<path class="st2" d="M452.9,542.2c0-1.8,0-3.6,0-5.3c1,0.2,2.9,0.3,3,0.6c0.2,1.6-0.1,3.2-0.2,4.9
			C454.7,542.3,453.8,542.2,452.9,542.2z"/>
		<path class="st2" d="M542.2,311.9c-0.9,1.5-1.7,3-2.8,4.3c-0.2,0.2-1.6-0.5-2.4-0.8c0.9-1.6,1.8-3.2,2.7-4.9
			C540.6,311,541.4,311.4,542.2,311.9z"/>
		<path class="st2" d="M223.2,558.3c-4.4-3.2-8.8-6.4-13.2-9.6c0.3-0.5,0.6-1,0.9-1.6c0.7,0,1.4,0.2,2.1,0.1
			c1.4-0.1,2.7-0.2,4.1-0.3c-0.2-1.2-0.6-2.5-0.4-3.6c0.2-1.3,1-2.5,1.5-3.7c1.5,0.7,4,1.1,4.2,2c1,4.9,1.5,10,2.1,15
			C224.5,556.8,224.1,557.1,223.2,558.3z"/>
		<path class="st2" d="M225.7,469.1c0,1.2,0.3,2.4-0.1,3.5c-0.5,1.5-1.1,3.5-2.2,4c-1,0.4-3.1-0.5-4.2-1.4c-5.1-4.1-5-8.1,0.2-12.4
			c1-0.8,2.9-1.2,4-0.8c1,0.4,1.9,2,2.2,3.3C226.1,466.3,225.8,467.8,225.7,469.1C225.8,469.1,225.8,469.1,225.7,469.1z"/>
		<path class="st2" d="M184.7,532.8c2,3.3,4,6.6,5.8,10c0.1,0.3-0.8,1.5-1,1.5c-2-0.6-4.8-0.9-5.7-2.3c-1.3-2.2-1.3-5.3-1.8-8
			c0-0.1,0.9-0.3,1.3-0.5C183.8,533.3,184.2,533.1,184.7,532.8z"/>
		<path class="st2" d="M244.1,548.5c-1.8,2.2-2.9,3.6-4.1,5.1c-1.2-1.8-3.1-3.5-3.5-5.4c-0.2-1.2,2-2.8,3.1-4.2
			C241,545.3,242.3,546.6,244.1,548.5z"/>
		<path class="st2" d="M319,614.6c-1,2-1.7,4.2-3,6c-0.6,0.9-2.1,1.4-3.3,1.4c-0.7,0-2-1.2-1.9-1.8c0.1-1,0.8-2.1,1.7-2.7
			c1.8-1.3,3.9-2.3,5.8-3.5C318.5,614.2,318.8,614.4,319,614.6z"/>
		<path class="st2" d="M256.3,350c0.5,0.3,1.7,0.6,1.9,1.3c0.2,0.7-0.3,1.8-0.8,2.5c-1,1.3-2.5,2.2-3.2,3.6c-2.1,4.1-5.1,3-7.9,1.5
			c-1.1-0.6-1.7-2.2-2.6-3.4c1.1-0.7,2.2-1.6,3.5-2.1C250,352.3,252.9,351.3,256.3,350z"/>
		<path class="st2" d="M280.4,379.6c-1.5,2-2.7,4.1-4.4,5.5c-0.5,0.4-2.7-1.3-4-2c0.6-0.4,1.3-0.8,1.9-1.2c2.2-2.8,4.4-5.7,6.5-8.4
			c1.6,1.5,3.1,2.7,4.3,4.1c0.9,1,1.6,2.4,1.9,3.7c0.1,0.5-1.5,2-1.6,2c-1.2-0.7-2.2-1.6-3.3-2.5C281.4,380.5,280.9,380,280.4,379.6
			z"/>
		<path class="st2" d="M323.4,361.5c2,1.2,3.9,2.3,5.8,3.5c-1.2,2-2.6,5.7-3.7,5.6c-5.3-0.4-0.8-5.5-3.5-7.5
			C322.5,362.6,322.9,362.1,323.4,361.5z"/>
		<path class="st2" d="M305.2,391.1c-1.3-1.6-2.8-3.1-2.7-3.3c1.3-1.7,2.9-3.2,4.5-4.7c0.9,1.1,2.7,2.6,2.5,3.1
			C308.6,387.8,307.1,389.1,305.2,391.1z"/>
		<path class="st2" d="M286.1,399c-4,1.4-6.6,0.7-7.3-2.6c-0.1-0.6,2.4-2.4,2.5-2.3C283,395.6,284.5,397.4,286.1,399z"/>
		<path class="st2" d="M344,528.6c-0.5,0.3-2.2,1.8-3.8,1.7c-1-0.1-2.2-2.7-2.5-4.3c-0.5-3-2.2-3.9-4.9-3.8c-1.4,0-2.9,0.3-4.1,0.4
			c0.2-2.6,0.7-4.9,0.4-7.1c-0.1-0.5-3.1-0.5-6.1-0.8c2.4,7.1,4.3,13,6.3,18.9c-2.9-3.1-5.9-4.1-9.8-1.9c-0.9,0.5-3.2-0.2-3.9-1
			c-0.7-0.9-0.5-2.8-0.2-4.2c0.8-3.1,2-6.1,2.8-9.2c1.2-4.3-1.1-5.4-4.8-5c-2,0.2-3.9,0.8-5.9,0.8c-1.6,0-3.1-0.5-3.1-0.4
			c1.9-2.7,3.7-5.4,5.6-8c0.3-0.4,0.8-0.9,1.2-0.8c5.2,1,10.4,1.9,15.5,3.3c2.8,0.8,5.2,3.4,8,3.8c3.6,0.6,5,1.7,5.4,5.5
			C340.5,520.2,342.4,523.7,344,528.6z"/>
		<path class="st2" d="M352.9,522.2c0.8,1.4,1.7,2.8,2.1,4.3c0.1,0.4-1.5,1.3-2.4,1.9c-0.8-1.7-1.5-3.4-2.2-5
			C351.3,523,352.1,522.5,352.9,522.2z"/>
		<path class="st2" d="M192.8,383.6c1.1,2.3,2,3.4,1.9,4.3c-0.1,1-1.2,2-1.9,3c-0.8-0.8-2.2-1.6-2.2-2.4
			C190.6,387.3,191.6,386.1,192.8,383.6z"/>
	</g>
</g>
</svg>
