<?xml version="1.0" encoding="utf-8"?>
<!-- Generator: Adobe Illustrator 25.4.1, SVG Export Plug-In . SVG Version: 6.00 Build 0)  -->
<svg version="1.1" id="레이어_1" xmlns="http://www.w3.org/2000/svg" xmlns:xlink="http://www.w3.org/1999/xlink" x="0px"
	 y="0px" viewBox="0 0 800 800" style="enable-background:new 0 0 800 800;" xml:space="preserve">
<style type="text/css">
	.st0{fill:none;stroke:#FFFFFF;stroke-width:0.5;stroke-miterlimit:10;}
</style>
<g>
	<path class="st0" d="M689.12,238.21c-2.6,3.83-6.79,5.59-10.47,8.01c-1.92,1.26-3.79,0.28-5.48-0.12
		c-2.85-0.68-5.43-2.23-8.51-2.46c-3.92-0.3-5.81,0.88-4.88,4.53c1.36,5.35,1.14,11.15,4.35,16.03c1.27,1.92,1.89,4.17,2.01,6.48
		c0.67,13.17,9.49,19.03,20.49,22.97"/>
	<path class="st0" d="M424.97,231.22c0.07,4.38-0.55,8.71,2.91,12.56c4.13,4.62,7.6,5.18,12.57,0.92"/>
	<path class="st0" d="M141.34,372.04c-1.92,4.64-3.41,9.36-3,14.48"/>
	<path class="st0" d="M140.84,276.16c1.16,2.77,1.19,5.52,0.57,8.5c-1.2,5.81-0.36,11.64,0.35,17.47c0.26,2.12,0.28,4.36,1.64,5.93
		c2.27,2.6,1.88,5.57,1.93,8.55"/>
	<path class="st0" d="M641.69,131.85c7.67,4.43,11.45,11.87,14.96,19.48c1.28,2.78,2,5.87,3.59,8.44
		c3.54,5.72,5.52,11.79,5.42,18.52"/>
	<path class="st0" d="M470.91,674.64c2.11-3.64,4.55-6.15,9.5-5.66c3.58,0.35,7.3-0.97,10.97-1.29c3.39-0.29,6.85-0.4,9.48,2.46"/>
	<path class="st0" d="M292.64,307.62c-7.09-3.71-14.8-3.42-22.47-3.54c-1.94-0.03-3.14,1.14-4.48,2.07
		c-7.81,5.38-15.72,7.36-23.98,0.97c-2.83-2.19-5.31,0.68-7.99,0.5"/>
	<path class="st0" d="M475.4,58.94c-3.83-7.61-11.11-10.15-18.49-12.43c-1.72-0.53-3.84-0.98-5.44-0.46
		c-9.83,3.23-19.82,3.62-30,2.45c-2.96-0.34-5.99-0.05-8.98-0.05"/>
	<path class="st0" d="M649.67,543.81c2.33,6.66,4.93,13.24,6.92,20c2.27,7.73,1.06,15.64,0.03,23.44c-0.38,2.87-1.29,5.67-1.95,8.5"
		/>
	<path class="st0" d="M376.03,540.82c-0.58,0.83-1.01,2.18-1.77,2.41c-5.56,1.72-7.67,6.27-9.76,11.05
		c-1.76,4.03-3.39,7.5-0.63,12.12c2.37,3.97-1.13,8.7-6.31,9.88"/>
	<path class="st0" d="M160.81,385.77c2.05,2.28,0.26,4.88,0.61,7.22c1.08,7.06,1.33,14.24,4.16,21.08
		c1.25,3.02,1.19,7.74-1.41,10.26c-5.36,5.19-3.46,10.83-2.36,16.61c0.48,2.5,0.99,4.99,1.49,7.49"/>
	<path class="st0" d="M266.92,469.16c-2.37,4.57-1.1,9.47-1.21,14.23c-0.09,3.9,3.61,5.18,6.05,6.25c2.73,1.2,4.2,2.86,5.39,5.23"/>
	<path class="st0" d="M639.19,226.72c-1.8-5.19-5.68-9.92-3.5-15.98"/>
	<path class="st0" d="M241.71,416.98c1,2.33,2.1,4.62,2.97,7c0.93,2.56,2.39,5.37-1.47,6.98c-1.38,0.57-1.66,1.86-1.45,2.99
		c1.95,10.72,7.54,17.94,19.46,15.63c6-1.16,12.29-0.81,18.45-1.14"/>
	<path class="st0" d="M114.87,381.52c-2.93,3.87-2.69,7.94-1.59,12.51c3.59,14.92-0.18,28.2-9.89,39.93c-0.38,0.46-0.67,0.99-1,1.49
		"/>
	<path class="st0" d="M224.73,312.11c-1,7.32-2.11,14.64-2.92,21.98c-0.22,1.99-0.47,3.66-2.06,5c-3.17,2.65-3.16,6.27-3.03,9.98
		c0.11,3.13-1.32,6.22-1.59,9.02c-0.56,5.92-3.89,11.04-3.88,16.94c0,0.5,0.18,1.09-0.03,1.48c-3.91,7.57-2.75,13.68,5.01,18.01
		c0.68,0.38,1.33,1.06,1,1.97c-1.36,3.72-0.13,7.71-1.39,11.52c-1.21,3.65-3.16,5.82-7.08,5.96"/>
	<path class="st0" d="M373.04,535.82c-6.39-6.77-14.97-5.15-20.34,4.57c-3.9,7.06-9.91,9.63-17.11,10.91"/>
	<path class="st0" d="M332.09,628.2c-2.66,3.95-6.13,7.24-8.64,11.39c-2.12,3.5-6.58,4.71-10.36,5.42
		c-6.03,1.13-12.22,3.57-18.44,0.65c-3.03-1.42-6-2.98-8.99-4.48"/>
	<path class="st0" d="M225.23,529.33c-1.03-3.78-2.15-7.49-2.65-11.47c-0.83-6.63-3.91-12.52-7.76-18.05
		c-2.1-3.02-3.41-6.6-5.07-9.93"/>
	<path class="st0" d="M542.31,273.16c1.17-1,2.27-2.08,3.51-2.98c3.47-2.51,6.9-2.11,9.42,1.52c2.49,3.58,6.43,5.43,9.28,8.22
		c5.35,5.24,13.45,8.03,15.74,16.21"/>
	<path class="st0" d="M646.18,337.58c8.04,7.43,13.19,16.96,16.08,27.08c1.58,5.52-0.66,12.25-1.68,18.35
		c-0.94,5.64-1.61,11.54-7.36,15.07c-2.52,1.55-0.48,3.92-0.04,5.92c1.78,8.15,1.92,15.97-4.5,22.47"/>
	<path class="st0" d="M694.12,220.73c-5.66,0.67-11.61,0.45-16.91,2.19c-9.15,3.01-14.32,9.92-15.04,19.78"/>
	<path class="st0" d="M212.24,219.23c1,4.99,2.15,9.96,2.94,14.99c0.48,3.07-0.25,5.6-3.38,7.58c-6.83,4.31-11.99,10.27-15.04,17.88
		"/>
	<path class="st0" d="M332.59,627.21c11.63-1.53,23.31-0.19,34.95-0.5"/>
	<path class="st0" d="M576.77,648.18c-0.82,4.7,0.45,9.32,0.61,13.98c0.26,7.75-1.34,15.3-1.61,22.97"/>
	<path class="st0" d="M399.5,520.84c10.86,1.86,20.64,5.79,27.96,14.48c1.34,1.59,3.17,1.54,4.99,1.5c3.33-0.08,6.66-0.17,9.99-0.25
		"/>
	<path class="st0" d="M364.55,243.2c-12.29-2.49-24.63-0.77-36.95-0.5"/>
	<path class="st0" d="M702.61,457.43c-5.7,12.32-6.67,24.5,1,36.45"/>
	<path class="st0" d="M535.82,227.72c2.87,1.48,5.48,2.47,9.04,1.15c5.46-2.04,7.8-0.58,11.48,4.31c3.06,4.05,5.48,8.34,7.5,12.99
		c2.75,6.32,10.09,7.66,17.41,3.52"/>
	<path class="st0" d="M347.57,103.88c0.1,9.43,4.83,15.29,14,16.89c1.56,0.27,3.42-0.33,4.96-0.96c5.3-2.17,10.9-2.76,16.5-3.45"/>
	<path class="st0" d="M222.73,606.73c-2.5,0-4.99,0-7.59,0c1.88,4.02,3.65,8.05,5.62,11.97c3,5.99,8.65,6.89,14.46,6.91
		c2.66,0.01,5.33-0.91,7.99-1.41"/>
	<path class="st0" d="M216.24,343.57c-4.14-0.56-8.04-2.6-12.54-1.17c-1.67,0.53-4.05-0.59-5.92-1.38c-5.18-2.19-10.59-3.53-16-4.95
		"/>
	<path class="st0" d="M424.97,343.57c0.29,5.78,1.66,11.38,3,16.98"/>
	<path class="st0" d="M446.94,387.02c7.51,1.34,14.96,2.88,22.05-1.88c1.17-0.79,3.44-0.38,4.92,0.88"/>
	<path class="st0" d="M171.3,348.07c3.16,2.66,6.97,4.86,9.33,8.11c3.1,4.28,3,9.63,0.56,14.31c-2.2,4.23-2.4,7.94,0.04,12.07
		c2.15,3.63,1.39,7.36-1.99,9.39c-3.19,1.92-3.17,5.47-4.92,8.08c-1.49,2.22-2.7,4.64-4.03,6.97"/>
	<path class="st0" d="M164.31,355.06c0.4,5.44,2.42,10.54,3.15,15.96c0.86,6.31,0.52,11.6-5.65,15"/>
	<path class="st0" d="M154.82,147.83c0.34,7.58-2.59,14.82-2.24,22.48c0.1,2.26,0.84,4.65,0.24,6.98"/>
	<path class="st0" d="M176.79,150.82c-0.18,9.97-3.51,19.34-5.49,28.96"/>
	<path class="st0" d="M427.96,475.15c5.72,2.83,11.64,1.74,17.46,0.66c2.54-0.47,5.01-0.21,7.51-0.41"/>
	<path class="st0" d="M246.2,428.96c9.53,2.41,19.26,3.59,28.96,5c1,0.15,2,0.33,3,0.5"/>
	<path class="st0" d="M177.79,192.27c-1.9,5.7-3.72,11.41-5.83,17.04c-1.24,3.32-0.83,7.26-1.16,10.92"/>
	<path class="st0" d="M286.15,313.11c-4.3,2.84-9.23,4.74-14.04,5.71c-5.21,1.06-10.87-0.03-15.42-3.72"/>
	<path class="st0" d="M235.21,484.39c1.86,3.34,4.93,6.03,4.7,10.5c-0.06,1.1,2.28,2.73,3.82,3.4c3.71,1.61,4.27,4.35,4.63,8.06
		c0.48,4.99,1.51,10.14,5.34,13.98c1.17,1.17,2.15,2.36,2.48,4.01c2.02,10.29,11.07,13.72,18.59,18.29
		c3.17,1.92,7.53-0.3,11.36-0.46c0.89-0.04,2.02-0.11,3-0.35"/>
	<path class="st0" d="M308.62,579.27c-1.41,8.66-1.79,17.29-0.1,25.99c0.33,1.7,3.08,1.82,2.09,3.98"/>
	<path class="st0" d="M482.89,391.51c0.66-3.33,1.97-6.52,2.01-9.99c0.02-1.19,0.53-2.06,1.41-3.06
		c4.62-5.25,8.24-11.68,16.06-12.88c1.08-0.17,1.77-0.38,2-1.53c0.94-4.8,3.85-9.41,0.56-14.53c-1.75-2.73-2.79-5.92-4.06-8.95
		c-2.12-5.07-4.64-5.76-9.01-2.5c-5.81,4.33-10,10.16-13.81,16.09c-2.08,3.24-3.39,7.55-3.39,11.38c0.01,3.34-1.35,6.29-2.97,7.77
		c-3.83,3.51-3.22,7.54-3.29,11.7"/>
	<path class="st0" d="M183.78,484.89c0,2.33-0.17,4.67,0.04,6.99c0.39,4.53,0.24,9.24,4.41,12.55c1.16,0.92,1.98,2.5,2.5,3.95
		c3.76,10.46,9.75,19.77,15,29.46c0.21,0.39,0.03,0.98,0.03,1.48"/>
	<path class="st0" d="M463.92,551.3c0.35,4.64-0.07,9.09-2.99,12.99c-1.96,2.62-0.76,5.65-0.96,8.49c-0.2,2.82-0.04,5.66-0.04,8.49"
		/>
	<path class="st0" d="M259.18,247.2c1.93,5.99,0.4,10.12-3.93,13.08c-2.71,1.85-4.73,0.75-6.48-0.69c-1.65-1.36-0.37-3.62,0.53-4.81
		c1.47-1.95,2.15-4.8,4.89-5.56c6.25-1.72,6.84-6.17,5.74-11.51"/>
	<path class="st0" d="M205.25,441.45c1.21,0.92,1.5,2.59,0.92,3.44c-3.7,5.37,0.51,8.05,3.61,11.01c2.28,2.18,3.92,4.11,2.06,7.57
		c-1.18,2.2,1.07,4.54,0.9,6.94"/>
	<path class="st0" d="M467.91,273.16c5.57,5.15,3.66,11.57,2.27,17.42c-0.66,2.8-0.4,4.93,0.8,7c1.45,2.51,1.55,5-0.18,6.94
		c-1.29,1.45-0.8,2.7-0.89,4.09c-0.16,2.56,1.29,5.43-2.94,6.68c-2.33,0.69-1.88,3.99-2.05,6.3"/>
	<path class="st0" d="M346.07,391.51c-6.62-0.08-13.02,1.19-18.94,4.06c-5.22,2.53-6.6,7.68-7.52,12.92"/>
	<path class="st0" d="M234.22,321.1c3.71,4.11,3.3,9.79,5.41,14.52c0.25,0.57-0.47,1.7-0.94,2.45c-2.18,3.54-2.82,7.45-2.98,11.5"/>
	<path class="st0" d="M426.47,80.41c-3.68,0.14-7.35-0.27-11.01,0.91c-2.29,0.74-4.54-0.19-6.5-1.86c-1.99-1.7-4.29-3.04-6.45-4.54"
		/>
	<path class="st0" d="M209.75,206.75c6.61-0.02,13.13-0.47,19.11,3.8c2.14,1.53,5.86,0.86,8.85,1.19"/>
	<path class="st0" d="M528.83,500.37c-1.88,1.79-2.12,4.04-2.02,6.49c0.27,7.15-0.44,14.33,0.53,21.47"/>
	<path class="st0" d="M498.87,479.9c-1.35,10.08-4.13,19.59-10.99,27.46"/>
	<path class="st0" d="M602.24,407.49c0.2-9.4,1.03-18.93-5.49-26.97"/>
	<path class="st0" d="M367.54,296.63c-4.28,0.08-8.51,0.02-12.51-1.94c-1.38-0.68-2.83-0.72-4.53,0.34
		c-3.34,2.07-7.21,3.23-10.42,5.6"/>
	<path class="st0" d="M426.47,257.19c3.92-0.97,6.82,1.54,9.98,3.02c7.14,3.34,14.8,4.66,22.49,5.33c4.73,0.41,5.84,2.33,5.56,6.64
		c-0.34,5.14-0.08,10.31-0.08,15.47"/>
	<path class="st0" d="M620.21,280.65c0.71,5.89-3.52,10.94-2.64,17c0.47,3.21-0.52,6.64-0.86,9.97"/>
	<path class="st0" d="M471.91,402c5.01,4.64,5.01,4.64-2.78,12c2.53,4.31,6.13,7.65,10.27,10.47"/>
	<path class="st0" d="M658.16,614.72c-7.93,1.4-15.87,2.67-23.97,1.75"/>
	<path class="st0" d="M380.53,328.34c-1.58-0.84-3.01-1.34-5.01-0.83c-8.1,2.03-16.29,3.75-24.45,5.58"/>
	<path class="st0" d="M349.07,735.07c-10.81,7.96-23.32,5.88-35.45,5.99"/>
	<path class="st0" d="M235.21,280.65c-0.67,9.15-1.33,18.31-2,27.46"/>
	<path class="st0" d="M288.64,312.61c-1.26,5.09,0.26,10.38-1.37,15.52c-0.82,2.59-2.29,4.39-4.16,5.91
		c-3.55,2.89-6.23,2.1-9.45-2.45"/>
	<path class="st0" d="M556.3,490.88c-3.18,0.6-5.94-1.25-8.98-1.54c-6.23-0.61-11.96,0.83-17.48,3.54"/>
	<path class="st0" d="M549.31,294.14c5.28,0.9,9.56,4.22,14.48,6.01c6.08,2.21,12.08,2.97,17.98-0.52"/>
	<path class="st0" d="M350.56,478.4c-0.1,8.84,4.48,15.24,11.02,20.43c4.85,3.85,10.23,5.76,16.46,3.07
		c3.09-1.34,6.31-2.36,9.47-3.53"/>
	<path class="st0" d="M270.17,272.67c-1.54-1.35-2.62-3.04-4.97-3.59c-5.1-1.2-6.03-1.12-7.97,3.61c-1.67,4.09-3.72,8.03-4.62,12.45
		c-0.46,2.26-0.44,4.34,0.08,6.51"/>
	<path class="st0" d="M216.74,591.75c-4.01-3.14-6.22-8.23-11.95-9.64c-4.49-1.11-8.39-1.71-12.02,1.65"/>
	<path class="st0" d="M503.86,347.57c-9.71,4.21-13.47,12.53-9.49,20.97"/>
	<path class="st0" d="M194.27,403.99c1.16,5.75,1.47,11.44-0.99,16.98c-0.92,2.08-0.11,4.37-0.58,6.47
		c-0.41,1.88-0.5,4.55-3.96,3.09c-1.47-0.62-3.25,1.03-4.96,0.17"/>
	<path class="st0" d="M504.36,163.81c4.18-2.36,9.15-1.58,13.53-3.38c1.81-0.74,3.45,1.31,4.92,2.41
		c6.53,4.93,13.53,8.87,21.5,10.95"/>
	<path class="st0" d="M190.77,431.46c-0.02,8.88-0.17,17.73-5.49,25.47"/>
	<path class="st0" d="M324.1,335.08c-2.43,10.28-8.67,18.41-15.03,26.42c-2.54,3.2-7.11,3.75-10.03,6.68
		c-0.46,0.46-2.23-0.4-3.4-0.65"/>
	<path class="st0" d="M381.02,424.47c-1,0.33-2.41,0.35-2.93,1.05c-5.5,7.29-15.02,8.28-21.54,13.93"/>
	<path class="st0" d="M389.51,534.33c1.7,7.23,1.83,14.63,2.46,21.97c0.24,2.78-0.53,4.81-3.36,6.64
		c-5.76,3.72-12.27,7.08-14.53,14.35c-1.46,4.71-4.78,9.36-0.66,14.56c0.98,1.24,2.14,1.2,3.11,1.91"/>
	<path class="st0" d="M732.07,288.64c8.32,0,16.65,0,24.97,0"/>
	<path class="st0" d="M346.57,216.74c-8.32,0.67-16.64,1.33-24.97,2"/>
	<path class="st0" d="M473.4,98.89c-8.48,3.48-16.22,8.58-24.97,11.49"/>
	<path class="st0" d="M444.44,560.29c0.15,8.53-1.84,17.2,1.9,25.51c0.45,1,0.25,2.56-0.33,3.98c-2.1,5.15-2.32,10.52-1.07,15.95"/>
	<path class="st0" d="M408.99,430.46c-2.59,2.32-6.08,3.9-6.5,7.99c-6.17,0.85-6.49-0.05-7.49,9.49"/>
	<path class="st0" d="M311.62,520.34c-0.1,0.68,0.24,1.4-0.49,2.01c-5.09,4.33-3,9.36-1.56,14.48c1.58,5.63,2.29,11.51,4.55,16.96"
		/>
	<path class="st0" d="M373.53,413.48c4.97-5.91,4.78-7.12,1.63-13.55c-1.86-3.78-5.04-3.79-6.99-2.27
		c-6.35,4.95-12.97,2.6-19.6,1.83"/>
	<path class="st0" d="M475.4,448.44c3.74,0.72,7.62,0.9,11.91,3.15c-5.35,7.85-5.28,16.55-4.92,25.31"/>
	<path class="st0" d="M478.4,583.26c0.27,6.16-0.44,12.32,0.41,18.49c0.24,1.75-0.58,3.65-0.91,5.48"/>
	<path class="st0" d="M409.49,152.32c-6.33,1.33-12.64,2.7-18.98,3.97c-1.63,0.33-3.32,0.36-4.99,0.52"/>
	<path class="st0" d="M548.81,189.27c3.29,3.87,5.48,8.42,7.37,13.03c0.95,2.33,2.36,4.94,4.15,5.23c5.75,0.92,6.04,4.93,6.47,9.2
		c0.12,1.17,0.33,2.33,0.49,3.5"/>
	<path class="st0" d="M154.32,488.39c2.6,7.65,4.88,15.39,5.74,23.47"/>
	<path class="st0" d="M506.36,565.29c-0.18,3.54,0.2,7.05,1.02,10.48c1.1,4.63,0.27,8.91-2.02,12.99"/>
	<path class="st0" d="M359.05,351.06c8.42-2.85,15.94,0.33,23.47,3.5"/>
	<path class="st0" d="M304.12,416.98c0.17,7.93-1.86,15.63-2.5,23.47"/>
	<path class="st0" d="M340.58,740.56c-1.79,7.72-2.92,15.51-2.5,23.47"/>
	<path class="st0" d="M370.04,379.03c8.15,5.13,20.18,10.46,26.96,3.99"/>
	<path class="st0" d="M651.67,399c-3.77-2-7.96-2.78-11.99-3.97c-5.37-1.59-9.68,0.27-12.44,5.49c-2.33,4.41-4.36,8.97-6.53,13.46"
		/>
	<path class="st0" d="M372.04,35.97c-0.7,7.78,1.55,15.29,2,22.97"/>
	<path class="st0" d="M273.17,111.87c-4.14,3.89-7.95,8.16-12.98,10.99c-2.04,1.14-4.04,2.02-6.5,1.03
		c-6.39-2.59-11.79-0.2-16.39,4.05c-2.06,1.9-3.85,3.02-6.57,2.16"/>
	<path class="st0" d="M58.94,318.11c-9.69,6.81-11.81,17.66-14.98,27.96"/>
	<path class="st0" d="M495.38,555.3c-3.29,4.68-1.52,10.46-3.4,15.52c-1.48,3.98-2.09,8.29-3.09,12.45"/>
	<path class="st0" d="M267.67,393.51c-2.8,6.66-3.82,12.99-0.17,20.06c4.33,8.38,7.78,17.2,14.15,24.38"/>
	<path class="st0" d="M621.21,100.39c-0.08,2.67,0.04,5.32-0.44,8c-0.95,5.26,0.85,9.99,3.44,14.47"/>
	<path class="st0" d="M185.28,286.15c-3.5,2.83-7.04,5.6-10.47,8.51c-2.47,2.1-3.38,11.44-1.49,15.45c1.52,3.23,3.3,6.34,4.97,9.5"
		/>
	<path class="st0" d="M423.47,227.72c-4.91,0.61-9.26,3.87-14.48,3.01c-0.81-0.13-1.85,0.3-2.46-0.07
		c-4.22-2.56-8.34-1.93-12.53,0.01c-0.35,0.16-0.98-0.29-1.48-0.46"/>
	<path class="st0" d="M321.6,490.88c4.57,2.74,9.3,5.04,14.46,6.57c4.04,1.19,7.35,0.94,10.01-2.57"/>
	<path class="st0" d="M406.99,609.23c-0.65,7.45,0.25,15.18-3.99,21.97"/>
	<path class="st0" d="M605.23,287.15c0,7.16,0,14.31,0,21.47"/>
	<path class="st0" d="M251.69,543.31c5.5,2.07,9.98,4.69,11.32,11.42c0.41,2.07,4.2,4.47,7.65,4.56"/>
	<path class="st0" d="M231.22,355.06c0.72,1.24,1.22,2.51,1,4c-0.64,4.4,0.44,8.49,3.08,11.92c1.47,1.91,0.5,3.74,0.91,5.56"/>
	<path class="st0" d="M509.86,627.21c2.99,6.85,4.01,14.06,3.99,21.47"/>
	<path class="st0" d="M66.93,479.9c0.49,10.31,7.14,16.95,14,23.45c0.69,0.65,1.65,1.02,2.48,1.52"/>
	<path class="st0" d="M557.3,404.49c5.83-0.17,11.65-0.41,17.48-0.47c2.87-0.03,4.15-2.69,6.49-3.53"/>
	<path class="st0" d="M627.2,431.96c1.55,4.95,1.8,10.5,6.49,13.98"/>
	<path class="st0" d="M148.33,569.28c7.39-0.37,14.38,1.16,20.97,4.49"/>
	<path class="st0" d="M436.95,385.52c-0.17,6.99-0.33,13.98-0.5,20.97"/>
	<path class="st0" d="M238.71,324.1c3,0.83,5.95,1.87,9,2.45c4.55,0.87,7.72,3.26,9.48,7.54"/>
	<path class="st0" d="M301.13,175.29c3.25,8.05,10.54,12.4,16.48,17.98"/>
	<path class="st0" d="M716.59,476.4c0.29,6.93,2.03,13.64,3,20.47"/>
	<path class="st0" d="M197.76,391.51c-0.38,4.98,0.7,8.96,4.8,12.7c3.07,2.8,5.19,7.04,5.81,11.75c0.5,3.71,2.5,6.88,6.33,8.58
		c1.54,0.69,2.95,2.07,3.98,3.46c2.16,2.91,4.63,3.02,7.54,1.46"/>
	<path class="st0" d="M60.44,440.95c-5.62,6.59-13.33,4.63-20.47,4.99"/>
	<path class="st0" d="M236.21,427.96c-2.91,3.93-4.5,7.82-2.67,13.04c1.48,4.24,2.05,8.7,5.61,11.99c0.72,0.66,0.9,2.08,1.02,3.19
		c0.55,4.78,2.68,8.47,7.02,10.73"/>
	<path class="st0" d="M452.43,460.42c-0.33-1.33-0.68-2.66-1-4c-0.79-3.38-1.73-6.43-5.44-8.12c-2.01-0.92-3.39-3.2-5.05-4.86"/>
	<path class="st0" d="M355.56,369.54c-6.51-2.3-13.33-1.06-19.97-1.75"/>
	<path class="st0" d="M300.63,72.42c0.67,6.58,1.18,13.19,3.5,19.47"/>
	<path class="st0" d="M383.02,435.45c-4.69,7.87-14.2,11.83-23.97,9.99"/>
	<path class="st0" d="M430.46,265.67c1.56,3.41,1.91,6.35-2.47,8.07c-1.09,0.43-1.82,1.8-2.98,3.03c-1.76-0.61-3.9-1.36-6.03-2.1"/>
	<path class="st0" d="M590.25,353.56c2.45,0.04,5.08,0.1,6.93-1.57c1.98-1.78,4.49-2.43,6.39-3.96c5.8,2.07,6.44,7.24,7.62,12.03
		c0.23,0.92,0.27,2.48-0.27,2.91c-5.03,4-2.55,8.27-0.69,12.56"/>
	<path class="st0" d="M213.74,359.05c-10.5-4.45-21.44-4.18-32.46-3"/>
	<path class="st0" d="M445.94,585.26c-4.49,1-8.99,2.01-13.48,2.99c-0.99,0.22-2.44,0.85-2.93,0.43c-5.13-4.5-9.48-1-14.07,1.03
		c-1.83,0.81-3.64,1.48-4.97,3.04"/>
	<path class="st0" d="M596.74,371.54c-0.04,2.43,0.58,6.42-1.54,6.67c-3.89,0.48-8.28,3.24-11.8,0.62
		c-2.45-1.82-4.89-3.14-7.65-3.72c-4.41-0.94-6.94-3.61-8.47-7.57"/>
	<path class="st0" d="M616.72,460.42c-2.73,6.09-1.49,12.29-0.5,18.48"/>
	<path class="st0" d="M560.79,389.51c3.15,3.76,7.46,4.33,11.98,4.53c2.17,0.1,4.33,0.63,6.49,0.96"/>
	<path class="st0" d="M52.45,323.1c-6.15-0.83-12.24-2.16-18.48-2.25"/>
	<path class="st0" d="M482.39,563.29c-0.11,6.26-1.2,12.38-2.5,18.48"/>
	<path class="st0" d="M589.75,416.48c-6.2,4.53-5.78,11.46-6.49,17.98"/>
	<path class="st0" d="M471.41,73.42c-5.99-0.08-11.98-0.17-17.98-0.25"/>
	<path class="st0" d="M361.05,561.29c-3.83,1.61-7.22,3.64-10.09,6.9c-4.02,4.58-4.6,9.52-3.4,15.07"/>
	<path class="st0" d="M442.94,490.88c-1.95-1.4-4.06-2.38-6.49-2.49c-3.94-0.19-6.27,2.14-5.98,5.99c0.09,1.17,0.7,2.44,0.41,3.48
		c-0.67,2.42-1.2,5.09,1.15,6.37c1.99,1.08,3.79-1.05,5.41-2.35"/>
	<path class="st0" d="M242.7,350.06c-4.45-0.81-8.12-0.24-12.19,2.72c-3.45,2.51-8.66,2.63-13.28,1.28"/>
	<path class="st0" d="M466.41,496.38c-7.81,0-12.21,2.58-14.48,8.49"/>
	<path class="st0" d="M472.91,479.4c-0.43,5.96-1.87,11.45-5.32,16.6c-1.54,2.3-1.35,5.86-1.64,8.87c-0.55,5.84-4.25,8.95-9.53,7.74
		"/>
	<path class="st0" d="M411.98,355.56c-1.8,5.95-0.95,11.97-0.5,17.98"/>
	<path class="st0" d="M455.43,623.21c-0.58-3.18-2.05-5.86-4.41-7.91c-4.3,0.82-7.51,5.55-12.57,3.17"/>
	<path class="st0" d="M302.13,336.58c-1.62,3.04-4.26,4.22-7.47,3.42c-2.4-0.6-3.57,0.76-5.02,2.05c-2.74,2.43-4.76,5.25-9.47,5.36
		c-3.65,0.08-6.04,4.58-8.22,7.78c-2.22-1-4.54-2.04-6.17-0.53c-1.94,1.79-0.86,4.55-0.53,6.88c0.12,0.88,0.87,1.72,1.45,2.5
		c1.45,1.96,2.24,4.22,2.98,6.5"/>
	<path class="st0" d="M455.93,477.9c-2.95,4.97-6.52,9.17-11.31,12.72c-2.9,2.15-4.58,6.37-5.67,10.25"/>
	<path class="st0" d="M358.55,600.24c-2.81,0.08-5.6-0.38-8.04,1.94c-2.71,2.57-6.29,0.52-9.43,1.06"/>
	<path class="st0" d="M472.91,583.76c-1.86,5.71-2.57,11.52-1.5,17.48"/>
	<path class="st0" d="M766.02,311.86c-6.01,0.67-11.81,2.16-17.48,4.24"/>
	<path class="st0" d="M497.37,651.67c-3.83,0.75-2.84,4.01-2.33,5.95c0.88,3.33,1.77,6.63,2.33,10.03"/>
	<path class="st0" d="M389.51,339.08c-0.81,4.48-3.66,6.73-7.99,7.51c-2.02,0.37-4,0.98-6,1.48"/>
	<path class="st0" d="M715.59,451.43c0.17,5.66,0.33,11.32,0.5,16.98"/>
	<path class="st0" d="M586.76,317.11c-3.26,3.16-7.65,4.34-11.46,6.53c-2.42,1.39-4.32-0.66-6.52-0.56
		c-1.83,0.09-3.66,0.02-5.49,0.02"/>
	<path class="st0" d="M374.53,607.23c-1.72,5.53-2.04,11.24-2,16.98"/>
	<path class="st0" d="M459.42,473.4c-0.5-1.5-0.99-3-1.5-4.49c-2.3-6.8-3.88-7.9-10.98-8.54c-4.17-0.38-8.27-1.74-12.49-0.45
		c0.73,5.38,0.7,10.89,3,15.98"/>
	<path class="st0" d="M405.49,579.27c-3.62-0.07-6.77,0.98-9.52,3.46c-1.94,1.74-4.26,2.73-6.96,1.53"/>
	<path class="st0" d="M498.37,450.43c2.46,0.85,3.07,3.09,2.39,4.95c-1.51,4.11,0.52,7.21,2.11,10.53"/>
	<path class="st0" d="M399,310.12c2.78,0.86,5.6,1.73,6.48,5c1.49,5.54-1.21,8.59-7.48,8.47c-3.34-0.06-5.36-1.98-6.49-4.98"/>
	<path class="st0" d="M239.71,478.9c3.31-0.3,5.97,1.79,8.93,2.68c3.87,1.16,3.94,5.56,2.81,8.21c-1.43,3.34-2.05,7.08-4.25,10.09"
		/>
	<path class="st0" d="M441.45,224.23c-5.51-0.52-11.04-1.49-16.48,0.5"/>
	<path class="st0" d="M178.79,252.69c-2.54,1.93-3.42,4.2-2.57,7.51c1.69,6.62,4.72,11.69,12.05,13c1.38,0.25,2.67,0.96,4,1.46"/>
	<path class="st0" d="M346.07,382.02c-5.48-0.54-10.87-2.58-16.48-1"/>
	<path class="st0" d="M231.22,393.01c-3.49,4.87-3.66,10.01-1.53,15.49c1.59,4.11,0.69,5.56-3.46,6.48"/>
	<path class="st0" d="M296.63,508.36c3.35,2.62,7.32,4.26,9.68,8.38c1.46,2.53,5.13,2.92,8.29,2.61"/>
	<path class="st0" d="M549.8,470.41c-5.26,1.24-10.83,0.51-15.98,2.5"/>
	<path class="st0" d="M611.72,381.52c-2,5.33-3.99,10.65-5.99,15.98"/>
	<path class="st0" d="M541.32,273.91c-0.94,0.56-2.09,0.23-3.05,1.2c-3.15,3.21-7.33,3.5-11.42,2.94c-2.2-0.3-3.86-0.92-4.01,2.1"/>
	<path class="st0" d="M305.62,517.85c-4.33,4.3-9.64,5.35-14.89,2.81c-2.85-1.38-4.64-0.07-5.4,1.29c-1.17,2.08-2.08,4.83-0.67,7.38
		c1.41,2.54,4.01,4.89,4.29,7.52c0.92,8.75,7.74,13.56,12.17,19.95"/>
	<path class="st0" d="M317.11,467.91c-4.06,2.41-8.36,4.12-12.93,1.9c-1.91-0.93-2.12,0.54-3.04,1.1"/>
	<path class="st0" d="M280.66,267.67c-6.4,4.46-14.81,6.91-16.02,16.47c-0.21,1.7-0.96,3.33-1.46,5"/>
	<path class="st0" d="M514.35,657.17c0.44,5.53-0.32,10.86-2.5,15.98"/>
	<path class="st0" d="M526.34,353.56c-0.05,5.57,1.55,11.5-3.5,15.98"/>
	<path class="st0" d="M263.68,253.19c4.21,2.9,8.67,4.7,13.99,4.05c3.29-0.4,6.65-0.23,9.98-0.31"/>
	<path class="st0" d="M545.81,720.58c-0.77,5.17-3.17,10.08-2.5,15.48"/>
	<path class="st0" d="M506.36,685.63c-5.07,1.67-10.1,3.51-15.48,3.99"/>
	<path class="st0" d="M422.47,621.21c-1.72,6.73-8.18,6.98-12.98,9.49"/>
	<path class="st0" d="M571.78,307.12c-4.24,4.7-3.11,10.09-2,15.48"/>
	<path class="st0" d="M235.21,227.72c-1.81,4-5.91,3.23-9.02,3.8c-2.82,0.51-5.63,1.14-8.45,1.7"/>
	<path class="st0" d="M292.64,405.74c-4.18,0.63-8.58,3.99-12.31,1.93c-2.73-1.51-3.84-0.03-5.67,0.32"/>
	<path class="st0" d="M420.97,440.95c-2.46-1.23-4.93-2.46-7.65-3.83c-2.03,2.05-4.57,2.88-4.83,6.81
		c-0.31,4.71-5.82,7.14-10.97,5.44c-3.77-1.25-6.81-1.01-10.13,1.4c-1.24,0.9-3.09,1.79-4.87,2.16"/>
	<path class="st0" d="M315.11,652.17c3.7,3.63,7.6,7.15,7.49,12.98"/>
	<path class="st0" d="M444.69,425.47c-1.37,1.39-2.12,1.97-4.24,1.95c-5.79-0.03-9.48,3.16-11.37,8.08
		c-1.82,4.7-5.45,7.94-7.92,12.03c0.69,3.62,2.11,6.73,6.28,7.99c2,0.61,3.69,2.23,5.52,3.4"/>
	<path class="st0" d="M434.46,638.69c-4.16,3.66-8.32,7.32-12.48,10.99"/>
	<path class="st0" d="M638.19,535.82c-5.01,0.34-9.88,2.08-14.98,1.5"/>
	<path class="st0" d="M299.13,340.58c1.82,7.08,6.13,8.65,10.99,3.99"/>
	<path class="st0" d="M293.64,293.14c-1.66-1.17-3.42-2.22-4.98-3.52c-4.74-3.97-9.54-4.05-14.5-0.48
		c-1.19,0.85-2.42,1.86-3.99,1.48c-4.3-1.07-8.33,0.24-12.53,0.68c-4.52,0.48-7.27,2.35-9.96,5.33c-2.13,2.36-4.32,4.67-6.48,7"/>
	<path class="st0" d="M558.79,357.06c-1.76,0.83-3.65,1.68-4.45,3.52c-1.76,4.03-5.25,4.93-9.03,5.47"/>
	<path class="st0" d="M375.28,416.48c-1.48-4.04-4.56-3.6-7.19-1.92c-5.94,3.8-12.92,5.09-19.03,8.41"/>
	<path class="st0" d="M457.92,272.67c-4.83,0-9.65,0-14.48,0"/>
	<path class="st0" d="M362.05,455.93c4.62,2.54,9.61,1.42,14.48,1.5"/>
	<path class="st0" d="M310.12,264.18c-4.04-1.55-8.2-1.91-12.49-1.55c-0.91,0.08-2.33,0.77-2.74-0.95"/>
	<path class="st0" d="M326.35,504.36c-3.04,5.41-1.5,11.28-1.75,16.98"/>
	<path class="st0" d="M384.02,680.64c6.25,5.97,5.14,14,5.99,21.47"/>
	<path class="st0" d="M343.57,497.87c0.75,2.28,0.58,4.93,2.98,6.51c1.9,1.25,0.74,3.3,1,4.97c0.21,1.33-0.72,3.37,2.01,2.99"/>
	<path class="st0" d="M346.57,627.21c1.66,4.66,3.33,9.32,4.99,13.98"/>
	<path class="st0" d="M449.93,361.55c1.62,4.72-0.13,9.33-0.5,13.98"/>
	<path class="st0" d="M568.78,372.04c-2.77,1.14-4.51,2.97-5.59,5.96c-2.15,5.97-6.17,10.57-11.9,13.5c-2.39,1.22-5.01,0-7.48,0.51"
		/>
	<path class="st0" d="M496.87,112.87c0.33,1.17,1.22,2.52,0.9,3.46c-1.22,3.52-0.54,7.01-0.4,10.52"/>
	<path class="st0" d="M305.62,506.36c3.07,1.67,5.55,0.56,8.02-1.46c1.75-1.43,3.7-1.57,5.99-0.6c5.52,2.35,11.82,2.47,17,5.98
		c1.29,0.87,2.19,1.47,1.94,3.08"/>
	<path class="st0" d="M545.81,292.64c-0.65-4.28-4.01-3.4-6.47-2.88c-3.37,0.72-5.11,3.2-4.52,6.87"/>
	<path class="st0" d="M441.45,441.95c1.47-1.36,2.93-2.73,4.4-4.09c2.32,2.3,6.34,0.94,8.09,4.09"/>
	<path class="st0" d="M562.79,381.02c4.33,2.66,8.66,5.33,12.98,7.99"/>
	<path class="st0" d="M390.51,395.51c-5.3-1.17-10.57-3.63-15.95-0.45c-0.54,0.32-0.69,1.29-1.03,1.95"/>
	<path class="st0" d="M420.97,398c-1.17,2-2.33,4-3.5,5.99c-1.63,2.79-1.09,5.11,1.5,6.99"/>
	<path class="st0" d="M623.71,434.95c-2.38,3.59-5.43,6-9.31,8.3c-5.59,3.31-8.27,9.66-9.67,16.17"/>
	<path class="st0" d="M393.51,401.5c-1.43,0.02-3.2-0.39-2.97,2c0.14,1.41-0.77,3.07,1.93,3.71c1.44,0.34,3.08,0.68,4.54,1.29"/>
	<path class="st0" d="M381.52,457.43c0.47,4.09-0.88,7.28-4.47,9.52c-1.29,0.8-2.35,1.97-3.52,2.96"/>
	<path class="st0" d="M222.23,488.88c1-0.67,2.13-1.2,2.97-2.02c3.81-3.69,3.41-5.85-1.48-8.47"/>
	<path class="st0" d="M266.67,505.36c-1.77-0.9-3.38-0.67-4.47,1.02c-1.43,2.21-0.25,4.55,0.6,6.42c1.33,2.94,4.99,3.21,7.37,5.05"
		/>
	<path class="st0" d="M482.89,285.65c-0.13,5.82-4.3,8.66-8.49,11.49"/>
	<path class="st0" d="M437.95,568.28c-6.9-5.96-15.9-4.09-19.22,3.99"/>
	<path class="st0" d="M237.71,393.51c0.81,4.42-0.29,9.36,3.5,12.98"/>
	<path class="st0" d="M419.97,267.67c0.04,3.46-0.69,6.54-3.47,9.02c-5.17,4.62-4.65,8.42,1.47,12.45"/>
	<path class="st0" d="M504.86,520.84c-1.29,4.08-0.97,8.3-1,12.48"/>
	<path class="st0" d="M582.76,359.55c0.5,1.66,1.38,3.89-0.08,4.88c-3.66,2.48-3.01,5.7-2.44,9.1c0.13,0.81,0.02,1.66,0.02,2.49"/>
	<path class="st0" d="M423.97,682.13c0,0.17,0.05,0.35-0.01,0.5c-2.58,7.3-2.27,14,4,19.48"/>
	<path class="st0" d="M387.02,665.66c-3.96-2.15-8.28-1.37-12.48-1.5"/>
	<path class="st0" d="M346.07,575.77c-4.26-0.96-8.41-0.45-12.48,1"/>
	<path class="st0" d="M420.47,504.36c-4.16,0.28-8.36-0.59-12.48,0.5"/>
	<path class="st0" d="M229.22,414.98c3.23,6.37,7.25,12.1,13.23,16.23"/>
	<path class="st0" d="M260.68,52.95c-0.19,4.63,2.88,8.03,4.49,11.98"/>
	<path class="st0" d="M495.38,302.88c-3.81,2.89-2.33,7.07-2.4,10.74c-0.06,3.32-0.12,6.25-3.06,8.53
		c-2.32,1.81-3.51,4.41-3.53,7.44"/>
	<path class="st0" d="M373.04,382.52c-1.03,4.28,2,7.88,2,11.98"/>
	<path class="st0" d="M222.73,431.46c0,2.16,0.08,4.33-0.02,6.49c-0.11,2.2-1.78,4.84,0.59,6.39c2.33,1.52,4.43,4.2,7.93,3.14
		c0.92-0.28,1.98-0.04,2.98-0.04"/>
	<path class="st0" d="M420.97,546.31c-2.22,3.53-8.05,4.37-7.49,9.99"/>
	<path class="st0" d="M291.14,407.99c2.65,3.66,4.09,7.53,2,11.98"/>
	<path class="st0" d="M425.97,413.98c-2.1-0.3-4.4-1.55-5.98,1c-1.92,3.11-5.87,4.95-5.56,9.49c0.17,2.48,2.25,2.79,3.56,3.99"/>
	<path class="st0" d="M523.34,344.57c-1.64,1.52-2.23,3.66-4.89,4.74c-3.63,1.47-1.96,6.12-3.1,9.24"/>
	<path class="st0" d="M573.27,509.36c-4.35-2.04-8.25,1.53-12.51,1.44c-0.28-4.87,3.44-8.12,3.52-12.43"/>
	<path class="st0" d="M427.46,301.63c1.52,5.55,5.45,8.8,10.49,10.99"/>
	<path class="st0" d="M556.3,510.86c-0.3,3.83-1.36,7.6-1,11.49"/>
	<path class="st0" d="M451.93,281.15c-3.68-1.6-7.72-0.49-11.49-1.5"/>
	<path class="st0" d="M658.66,393.51c3.83,0.24,7.69-0.54,11.49,0.5"/>
	<path class="st0" d="M271.17,320.1c-1.38,4.36-3.22,8.34-7.99,9.99"/>
	<path class="st0" d="M533.83,381.52c-0.92,4.05-4.21,7.18-4.49,11.49"/>
	<path class="st0" d="M255.19,529.83c-2,1.33-4,2.66-6.03,4.01c-4.45-1.39-7.68-3.88-7.95-9.01"/>
	<path class="st0" d="M477.9,496.38c2.24,1.56,3.17,4.3,1.35,5.81c-2.14,1.79-2.49,6.81-7.38,4.78c-1.56-0.65-3.62-0.1-5.45-0.1"/>
	<path class="st0" d="M294.14,510.86c-1.74-1.37-3.14-1.55-5.45,0.06c-1.91,1.34-3.88,1.57-6.03,1.44"/>
	<path class="st0" d="M391.01,562.29c2.24,2.06,4.01,4.8,7.49,4.99c1.62,0.09,2.76,1.25,2.91,2.51c0.54,4.39,4.08,7.15,5.58,10.98"
		/>
	<path class="st0" d="M207.75,430.46c2.28,0.37,2.89,3.66,2.78,3.91c-1.62,3.89,1.96,5.56,3.28,8.04c2.47,4.66,3.76,4.58,8.42,1.54"
		/>
	<path class="st0" d="M243.7,61.94c0.23,3.96,1.58,7.56,3.5,10.99"/>
	<path class="st0" d="M347.57,254.69c-3.8,0.5-7.38-0.62-10.99-1.5"/>
	<path class="st0" d="M321.85,524.34c0.83-0.93,1.66-1.86,2.58-2.88c3.82,2.2,7.78,3.73,7.66,8.87"/>
	<path class="st0" d="M519.34,391.01c2.01,0.46,3.75,1.74,6,1.54c3.87-0.36,5.92,2.09,5.85,5.45c-0.07,3.6,1.78,5.94,3.63,8.49"/>
	<path class="st0" d="M145.33,199.76c-0.6,3.64-1.33,7.26-1,10.99"/>
	<path class="st0" d="M497.37,457.92c-2.96-2.94-7.18-3.67-10.49-5.99"/>
	<path class="st0" d="M564.79,558.29c-0.83,3.88-2.33,7.37-5.48,10c-1.01,0.84-1.98,0.51-3.01,0.23"/>
	<path class="st0" d="M554.8,368.04c3.5,1.83,6.99,3.66,10.49,5.49"/>
	<path class="st0" d="M399,356.56c2.7-5.31,1.88-7.05-3.5-7.49"/>
	<path class="st0" d="M593.75,281.65c1.33,3.5,2.66,6.99,3.99,10.49"/>
	<path class="st0" d="M427.96,402.5c-0.36,2.16-0.72,4.23-0.14,6.53c0.39,1.53,0.92,3.5-1.28,5.07c-2.35,1.69-0.32,5.03-1.58,7.38"
		/>
	<path class="st0" d="M430.46,462.92c-2.38,2.63-6.04,3.35-8.63,5.85c-1.08,1.04-3.67,0.34-5.36-0.84c-1.11-0.78-1.09-1.91-0.97-3
		c0.24-2.37,2.63-2.01,3.97-3"/>
	<path class="st0" d="M373.04,503.87c-0.63,4.32-2.91,7.36-6.99,8.99"/>
	<path class="st0" d="M110.88,388.51c-3.38-0.19-6.51-1.97-9.99-1.5"/>
	<path class="st0" d="M510.36,501.87c-3.33,0.83-6.66,1.66-9.99,2.5"/>
	<path class="st0" d="M529.33,374.53c-4.78,5.08-11.05,3.79-16.98,3.99"/>
	<path class="st0" d="M478.4,322.6c-2.11,1.6-5.52,0.38-7.08,3.45c-0.49,0.95-0.14,1.73-0.41,2.54"/>
	<path class="st0" d="M386.52,222.23c-4.69-3.94-8.86-0.73-12.37,1.67c-3.26,2.24-5.94,4.61-10.11,2.83c-0.14-0.06-0.38-0.08-0.49,0
		c-4.63,3.39-7.73,0.07-10.99-2.51"/>
	<path class="st0" d="M595.75,458.42c0.17,1.33,0.98,3.19,0.39,3.91c-3.91,4.8-1.16,10.45-2.26,15.59
		c-0.86,4.02,2.26,6.79,4.86,9.46"/>
	<path class="st0" d="M458.92,451.93c0.97-1.85,1.94-3.69,3.11-5.9c3.93,1.05,7.87,2.11,12.08,3.23c0.96-2.76,1.58-5.07,0.4-7.87
		c-0.8-1.9-1.19-4.49,1.88-5.45"/>
	<path class="st0" d="M244.7,377.53c-1.5,0-3.19,0.45-4.45-0.09c-2.75-1.17-4.73-1.36-6.59,1.55c-2.28,3.55-2.25,7.12-0.34,10.47
		c1.37,2.4,3.61,3.78,6.95,2.73c1.15-0.36,2.72-1.12,4.5-0.32c1.73,0.78,3.41-0.36,4.53-2.29c0.61-1.05,0.51-2.67,0.97-2.94
		c5.23-3.17,4.57-7.83,3.39-12.59c-0.58-2.35,2.15-3.21,2.03-5.25"/>
	<path class="st0" d="M381.52,329.09c1.24,1.43,3.16,2.1,4.02,3.98c1.94,4.26,5.23,6.23,9.96,5.5"/>
	<path class="st0" d="M389.01,687.13c3.14,0.52,6.51-1.09,9.49,1"/>
	<path class="st0" d="M482.39,332.59c0.57,3.98-3.45,2.91-5.14,4.33c-1.87,1.58-6.21,0.62-6.63,3.69c-0.48,3.45,0.57,7.17,3.28,9.96
		"/>
	<path class="st0" d="M560.29,342.57c-2.68,1.18-6.27,1.08-6.99,4.99c-0.67-0.17-1.33-0.33-2-0.5"/>
	<path class="st0" d="M595.75,520.84c1.34,3.73,3.47,6.91,6.49,9.49"/>
	<path class="st0" d="M504.86,425.97c-3.22-0.39-6.29-0.44-7.49,3.5"/>
	<path class="st0" d="M441.45,233.72c-3.31,2.62-6.32-0.49-9.49-0.5"/>
	<path class="st0" d="M300.63,536.32c-3.22,0.12-6.58-0.64-9.49,1.5"/>
	<path class="st0" d="M443.44,677.64c-3.34-1.31-6.4-0.02-9.49,1"/>
	<path class="st0" d="M393.01,237.21c1.27,1.65,3.02,2.02,4.99,2.01c7.14-0.03,7.89-0.45,7.49,7.48"/>
	<path class="st0" d="M275.16,543.81c-1.21,3.43,0.62,6.38,1.5,9.49"/>
	<path class="st0" d="M542.31,260.18c3.65,1.51,5.37,4.7,6.99,7.99"/>
	<path class="st0" d="M698.61,227.22c3.16,0,6.33,0,9.49,0"/>
	<path class="st0" d="M574.77,482.39c-1.49,3.78-4.47,6.47-6.99,9.49"/>
	<path class="st0" d="M491.38,299.13c-4.03,0.56-6.06,4.75-9.99,5.49"/>
	<path class="st0" d="M298.63,473.4c-0.59,1.5-0.93,2.92-0.03,4.51c1.05,1.85,1.18,4.43,0.37,5.88c-1.75,3.12,0.3,3.63,2.17,4.58
		c2.32,1.18,4.66,2.33,6.99,3.5"/>
	<path class="st0" d="M529.33,173.29c-2.89,1.25-5.96,1-8.99,1"/>
	<path class="st0" d="M280.16,316.61c-0.83,3-1.66,5.99-2.5,8.99"/>
	<path class="st0" d="M359.55,591.75c0.21,3.84,0,7.64,0.8,11.53c0.65,3.14-0.76,6.54-2.55,9.45"/>
	<path class="st0" d="M112.37,351.56c-2.17,2.75-4.45,5.27-8.49,4.49"/>
	<path class="st0" d="M299.63,488.39c-0.75,2.96,2.01,6.12-0.5,8.99"/>
	<path class="st0" d="M327.09,599.24c-1.25,2.89-1,5.96-1,8.99"/>
	<path class="st0" d="M393.01,586.26c3.58,2.13,0.89,6.36,3,8.99"/>
	<path class="st0" d="M394.51,566.78c-1.5,3-3,5.99-4.49,8.99"/>
	<path class="st0" d="M193.77,437.95c5.23,3.13,10.55,3.65,15.98,0.5"/>
	<path class="st0" d="M580.76,453.43c1.25,3.17-1.34,5.92-1,8.99"/>
	<path class="st0" d="M455.43,547.31c-0.6,0.53-1.43,1.16-0.96,1.98c1.5,2.63,1.28,5.29,0.46,8.01"/>
	<path class="st0" d="M214.24,542.81c1.22,1.15,2.23,2.9,4,2.93c4.58,0.07,6.76,2.95,8.49,6.56"/>
	<path class="st0" d="M314.11,472.41c-4.42,5.25-3.5,10.81-1,16.48"/>
	<path class="st0" d="M393.51,246.2c3.29-0.22,6.16,1.04,8.99,2.5"/>
	<path class="st0" d="M590.75,514.35c-3.1,2.72-5.7,5.95-6.37,10.01c-0.47,2.83-2.72,3.74-4.2,5.4c-1.54,1.73-2.65,3.69-3.91,5.56"
		/>
	<path class="st0" d="M494.88,438.95c-1.86,2.37-5.78,3.1-5.22,7.52c0.15,1.14-2.44,2.63-3.77,3.97"/>
	<path class="st0" d="M422.47,319.6c0.11-3.68-2.16-5.77-4.99-7.49"/>
	<path class="st0" d="M434.46,332.59c-2.42,1.82-4.97,2.88-7.99,1.5"/>
	<path class="st0" d="M486.39,425.97c-0.26,5.48-2.54,11.42,3.5,15.48"/>
	<path class="st0" d="M414.48,277.66c-3.39-0.51-4.61-4.47-7.99-4.99"/>
	<path class="st0" d="M536.32,327.09c-4.07,3.45-4.18,6.21,0.05,8.4c2.14,1.11,4.21,2.17,5.94,3.84"/>
	<path class="st0" d="M326.1,483.39c-0.67,0.67-1.43,1.26-1.98,2.01c-2.51,3.46-4.27,7.17-10.13,4.24c-3.39-1.7-6.86,2.67-6.61,7.24
		"/>
	<path class="st0" d="M500.87,398.5c0.09,3.5,3.53,4.69,4.99,7.24"/>
	<path class="st0" d="M454.93,416.48c-0.34,3.52-2.95,6.91,0.37,10.6c1.45,1.61-1.32,4.09-0.87,6.37"/>
	<path class="st0" d="M218.74,537.32c1.5,0,3,0,4.54,0c-0.17,3.33,0.3,6.2-0.54,8.99"/>
	<path class="st0" d="M192.77,367.04c2.77,0.73,5.01,2.85,7.99,3"/>
	<path class="st0" d="M492.38,533.83c-3.61-0.61-4.19,1.8-4.49,4.49"/>
	<path class="st0" d="M311.12,395.51c-0.62,2.87,2,5.14,1.5,7.99"/>
	<path class="st0" d="M267.17,506.36c2.11,1.74,3.21,4.22,4.42,6.53c0.79,1.51,1.78,1.54,3.07,1.46"/>
	<path class="st0" d="M452.93,424.47c-2.5,0.83-4.99,1.66-7.49,2.5"/>
	<path class="st0" d="M392.01,322.1c-2.5,1-4.99,2-7.49,3"/>
	<path class="st0" d="M290.14,487.89c-1.16,5.95,2.01,9.27,6.99,11.49"/>
	<path class="st0" d="M192.27,248.2c-2.18-1.77-4.65-2.68-7.49-2.5"/>
	<path class="st0" d="M464.92,316.61c-0.33,0-0.67,0.03-1,0c-5.86-0.63-8.8,1.37-5.99,8.99"/>
	<path class="st0" d="M204.75,562.29c0.71,5.51-1.22,10.21-4.49,14.48"/>
	<path class="st0" d="M677.14,247.2c-0.33,2.5-0.67,4.99-1,7.49"/>
	<path class="st0" d="M510.36,403.99c-4.05,0.97-6.28,4.31-8.97,7.01c-1.46,1.47-2.84,2.69-5.02,1.48"/>
	<path class="st0" d="M521.34,369.54c1.84,2.41,1.45,5.24,1.5,7.99"/>
	<path class="st0" d="M514.85,371.04c-3.7,4.14-4.42,9.21-4.49,14.48"/>
	<path class="st0" d="M340.08,515.35c2.2,2.03,3.11,4.76,3.99,7.49c1.5,0,3,0,4.49,0"/>
	<path class="st0" d="M282.15,468.41c0.17,2.33,0.33,4.66,0.5,6.99"/>
	<path class="st0" d="M378.53,521.84c-2.36-0.15-4.54-1.53-6.99-1"/>
	<path class="st0" d="M340.08,533.08c-0.67,2.75-1.33,5.49-2,8.24"/>
	<path class="st0" d="M391.76,243.7c0.25,1,1.97,1.68,0.74,2.99c-2.85,3.03-2.46,6.81-2.49,10.49"/>
	<path class="st0" d="M599.74,328.59c0.15,2.36,1.52,4.54,1,6.99"/>
	<path class="st0" d="M401,399.5c-0.97,2.91,0.04,6.31-3.27,8.79c-0.96,0.72,0.78,5.03,1.27,7.69"/>
	<path class="st0" d="M385.02,263.68c-0.39-3.71,1.97-5.82,4.99-5.76c2.09,0.05,5.43,1,5,4.76"/>
	<path class="st0" d="M321.1,413.48c0.53,2.45-0.85,4.63-1,6.99"/>
	<path class="st0" d="M513.85,395.51c0.34,3.32-1.3,7.4,3.5,8.99"/>
	<path class="st0" d="M154.32,203.75c0.15,2.36,1.53,4.54,1,6.99"/>
	<path class="st0" d="M381.02,210.75c-1.86,1.83-4.48,0.34-6.49,1.5"/>
	<path class="st0" d="M297.13,370.04c-1.76,1.99-4.1,2.06-6.49,2"/>
	<path class="st0" d="M640.69,344.07c-0.43,2.15-1.4,4.21-1,6.49"/>
	<path class="st0" d="M537.32,393.01c-2.16,0.67-4.33,1.33-6.49,2"/>
	<path class="st0" d="M176.79,410.99c-2.28-0.4-4.34,0.57-6.49,1"/>
	<path class="st0" d="M434.95,410.99c-1.86,1.64-4.17,1.84-6.49,2"/>
	<path class="st0" d="M499.37,413.48c1.33,2,2.66,3.99,3.99,5.99"/>
	<path class="st0" d="M460.92,353.06c0.83,2.16,1.66,4.33,2.5,6.49"/>
	<path class="st0" d="M416.48,305.62c-2.98,2.28-2.77,4.44,0.25,6.49"/>
	<path class="st0" d="M427.96,304.62c-2.16,1.19-4.33,0.09-6.49,0"/>
	<path class="st0" d="M434.46,550.31c-1.52-3.5-4.44-2.11-6.99-2"/>
	<path class="st0" d="M509.36,322.6c-0.36,2.7-3.08,2.26-4.56,2.83c-4.86,1.88-7.29,4.94-6.93,10.15"/>
	<path class="st0" d="M490.38,409.49c-2.67-0.78-3.58,2.66-5.99,2.5"/>
	<path class="st0" d="M464.42,437.95c-2.46,2.06-4.87,3.67-8.49,3.66c-3.47,0-3.29,4.19-4.99,6.32"/>
	<path class="st0" d="M410.49,332.09c-2.21,2.4-5.21,4.16-5.58,7.98c-0.15,1.59-1.46,2.77-3.41,2.5"/>
	<path class="st0" d="M399,328.59c-1.38,4.96,2.3,6.83,5.49,8.99"/>
	<path class="st0" d="M417.98,323.6c0.72,2.31-3.57,4.25-0.5,6.74"/>
	<path class="st0" d="M422.97,599.24c0,2,0,3.99,0,5.99"/>
	<path class="st0" d="M419.97,333.09c4.39,3.17,5.08,2.97,6.99-2"/>
	<path class="st0" d="M380.53,200.26c-1.46,2.28-3.75,2.07-5.99,2"/>
	<path class="st0" d="M390.01,407.99c-1.66,1.5-3.33,3-4.99,4.49"/>
	<path class="st0" d="M184.78,416.48c-0.82,3.84-1.69,7.69,1.5,10.99"/>
	<path class="st0" d="M561.79,511.36c2.98,3.09,6.83,5.74,5.49,10.99"/>
	<path class="st0" d="M415.98,468.41c-3.15,2.69-6.86,5.01-6.49,9.99"/>
	<path class="st0" d="M469.91,340.08c-1.83-0.5-3.66-1-5.49-1.5"/>
	<path class="st0" d="M298.63,360.55c2.54,0.74,1.83,3.43,3,4.99"/>
	<path class="st0" d="M241.21,380.03c0.5,1.83,1,3.66,1.5,5.49"/>
	<path class="st0" d="M473.4,396.5c0.57,5.53-5.03,5.62-7.49,8.49"/>
	<path class="st0" d="M524.34,238.21c-3.05,0.38-6.14,0.7-6.99,4.49"/>
	<path class="st0" d="M229.72,491.88c5.76,2.5,1.67,5.58,0.5,8.49"/>
	<path class="st0" d="M380.53,255.69c1.83,1.17,3.66,2.33,5.49,3.5"/>
	<path class="st0" d="M413.48,545.31c-1.77,0.84-3.66,0.39-5.49,0.5"/>
	<path class="st0" d="M485.39,421.97c-2.42,1.57-7.11,0.88-5.99,5.99"/>
	<path class="st0" d="M392.51,285.65c-2.81-1.04-6.17-0.98-7.99-3.99"/>
	<path class="st0" d="M474.4,523.34c-6.17,1.5-1.88,4.49-1,6.99"/>
	<path class="st0" d="M365.54,590.75c-3.41,1.39-6.65-0.45-9.99-0.5"/>
	<path class="st0" d="M333.09,605.23c0.62,1.62-2.89,3.65,0.5,4.99"/>
	<path class="st0" d="M321.1,610.73c-1.92,1.08-2.26,3.73-4.49,4.49"/>
	<path class="st0" d="M280.66,372.04c2.62,1.36,6.38,1.08,7.24,4.99"/>
	<path class="st0" d="M504.36,394.01c-2.65-0.24-2.34,3.74-4.99,3.5"/>
	<path class="st0" d="M382.02,421.97c-0.17,0.67-0.7,1.65-0.44,1.95c2.26,2.57,5.62,3.94,7.56,6.96c0.26,0.41,2.21-0.25,3.37-0.42"
		/>
	<path class="st0" d="M395.01,419.97c5.02-4.73,5.3-4.75,7.99-0.5"/>
	<path class="st0" d="M325.6,357.56c0.3,2.34,2.5,2.52,4.14,3.58c-0.46,1.28-0.93,2.59-1.4,3.91"/>
	<path class="st0" d="M431.96,288.64c1.87,0.68,1.55,3,3,3.99"/>
	<path class="st0" d="M560.79,359.05c0.9,1.27,1.8,2.53,2.71,3.8c2.42-0.49,3.05-2.88,4.78-2.3"/>
	<path class="st0" d="M387.02,414.98c3.07,1.34,3.25,4.33,3.99,6.99"/>
	<path class="st0" d="M575.27,360.55c0.83,1.5,1.66,3,2.5,4.49"/>
	<path class="st0" d="M664.16,438.45c-2.55-0.11-4.65,1.35-6.99,2"/>
	<path class="st0" d="M521.34,430.96c-4.57,0.73-3.49,3.63-2.5,6.49"/>
	<path class="st0" d="M541.32,414.98c-2.57,1.59-5.34,0.15-7.99,0.5"/>
	<path class="st0" d="M457.43,317.86c-0.96-2.32-2.99-2.25-4.99-2.25"/>
	<path class="st0" d="M402.5,255.69c-3.56-1.29-5,1.65-6.99,3.5"/>
	<path class="st0" d="M430.46,285.65c-0.5,1,2.5,2,0,3"/>
	<path class="st0" d="M361.05,583.76c-0.33,0.5-0.67,1-1,1.5"/>
</g>
</svg>
